  0
SECTION
  2
HEADER
  9
$ACADVER
  1
AC1014
  9
$HANDSEED
  5
FFFF
  9
$MEASUREMENT
 70
     1
  0
ENDSEC
  0
SECTION
  2
TABLES
  0
TABLE
  2
VPORT
  5
8
330
0
100
AcDbSymbolTable
 70
     4
  0
VPORT
  5
2E
330
8
100
AcDbSymbolTableRecord
100
AcDbViewportTableRecord
  2
*ACTIVE
 70
     0
 10
0.0
 20
0.0
 11
1.0
 21
1.0
 12
210.0
 22
148.5
 13
0.0
 23
0.0
 14
10.0
 24
10.0
 15
10.0
 25
10.0
 16
0.0
 26
0.0
 36
1.0
 17
0.0
 27
0.0
 37
0.0
 40
341.0
 41
1.24
 42
50.0
 43
0.0
 44
0.0
 50
0.0
 51
0.0
 71
     0
 72
   100
 73
     1
 74
     3
 75
     0
 76
     0
 77
     0
 78
     0
  0
ENDTAB
  0
TABLE
  2
LTYPE
  5
5
330
0
100
AcDbSymbolTable
 70
     1
  0
LTYPE
  5
14
330
5
100
AcDbSymbolTableRecord
100
AcDbLinetypeTableRecord
  2
BYBLOCK
 70
     0
  3

 72
    65
 73
     0
 40
0.0
  0
LTYPE
  5
15
330
5
100
AcDbSymbolTableRecord
100
AcDbLinetypeTableRecord
  2
BYLAYER
 70
     0
  3

 72
    65
 73
     0
 40
0.0
  0
LTYPE
  5
16
330
5
100
AcDbSymbolTableRecord
100
AcDbLinetypeTableRecord
  2
CONTINUOUS
 70
     0
  3
Solid line
 72
    65
 73
     0
 40
0.0
  0
ENDTAB
  0
TABLE
  2
LAYER
  5
2
100
AcDbSymbolTable
 70
2
  0
LAYER
  5
50
100
AcDbSymbolTableRecord
100
AcDbLayerTableRecord
  2
0
 70
0
  6
CONTINUOUS
  0
LAYER
  5
51
100
AcDbSymbolTableRecord
100
AcDbLayerTableRecord
  2
box_20140827_153616_847966
 70
0
  6
CONTINUOUS
  0
ENDTAB
  0
TABLE
  2
STYLE
  5
3
330
0
100
AcDbSymbolTable
 70
     1
  0
STYLE
  5
11
330
3
100
AcDbSymbolTableRecord
100
AcDbTextStyleTableRecord
  2
STANDARD
 70
     0
 40
0.0
 41
1.0
 50
0.0
 71
     0
 42
2.5
  3
txt
  4

  0
ENDTAB
  0
TABLE
  2
VIEW
  5
6
330
0
100
AcDbSymbolTable
 70
     0
  0
ENDTAB
  0
TABLE
  2
UCS
  5
7
330
0
100
AcDbSymbolTable
 70
     0
  0
ENDTAB
  0
TABLE
  2
APPID
  5
9
330
0
100
AcDbSymbolTable
 70
     2
  0
APPID
  5
12
330
9
100
AcDbSymbolTableRecord
100
AcDbRegAppTableRecord
  2
ACAD
 70
     0
  0
ENDTAB
  0
TABLE
  2
DIMSTYLE
  5
A
330
0
100
AcDbSymbolTable
 70
     1
  0
DIMSTYLE
105
27
330
A
100
AcDbSymbolTableRecord
100
AcDbDimStyleTableRecord
  2
ISO-25
 70
     0
  3

  4

  5

  6

  7

 40
1.0
 41
2.5
 42
0.625
 43
3.75
 44
1.25
 45
0.0
 46
0.0
 47
0.0
 48
0.0
140
2.5
141
2.5
142
0.0
143
0.03937007874016
144
1.0
145
0.0
146
1.0
147
0.625
 71
     0
 72
     0
 73
     0
 74
     0
 75
     0
 76
     0
 77
     1
 78
     8
170
     0
171
     3
172
     1
173
     0
174
     0
175
     0
176
     0
177
     0
178
     0
270
     2
271
     2
272
     2
273
     2
274
     3
340
11
275
     0
280
     0
281
     0
282
     0
283
     0
284
     8
285
     0
286
     0
287
     3
288
     0
  0
ENDTAB
  0
TABLE
  2
BLOCK_RECORD
  5
1
330
0
100
AcDbSymbolTable
 70
     1
  0
BLOCK_RECORD
  5
1F
330
1
100
AcDbSymbolTableRecord
100
AcDbBlockTableRecord
  2
*MODEL_SPACE
  0
BLOCK_RECORD
  5
1B
330
1
100
AcDbSymbolTableRecord
100
AcDbBlockTableRecord
  2
*PAPER_SPACE
  0
ENDTAB
  0
ENDSEC
  0
SECTION
  2
BLOCKS
  0
BLOCK
  5
20
330
1F
100
AcDbEntity
  8
0
100
AcDbBlockBegin
  2
*MODEL_SPACE
 70
     0
 10
0.0
 20
0.0
 30
0.0
  3
*MODEL_SPACE
  1

  0
ENDBLK
  5
21
330
1F
100
AcDbEntity
  8
0
100
AcDbBlockEnd
  0
BLOCK
  5
1C
330
1B
100
AcDbEntity
 67
     1
  8
0
100
AcDbBlockBegin
  2
*PAPER_SPACE
  1

  0
ENDBLK
  5
1D
330
1B
100
AcDbEntity
 67
     1
  8
0
100
AcDbBlockEnd
  0
ENDSEC
  0
SECTION
  2
ENTITIES
  0
LWPOLYLINE
  5
100
100
AcDbEntity
  8
box_20140827_153616_847966
 62
7
100
AcDbPolyline
 90
2
 70
0
 10
414.026219
 20
422.327613
 30
0.0
 10
414.026219
 20
430.085197
 30
0.0
  0
LWPOLYLINE
  5
101
100
AcDbEntity
  8
box_20140827_153616_847966
 62
7
100
AcDbPolyline
 90
2
 70
0
 10
417.024830
 20
422.327613
 30
0.0
 10
414.026219
 20
422.327613
 30
0.0
  0
LWPOLYLINE
  5
102
100
AcDbEntity
  8
box_20140827_153616_847966
 62
7
100
AcDbPolyline
 90
2
 70
0
 10
417.024830
 20
414.570030
 30
0.0
 10
417.024830
 20
422.327613
 30
0.0
  0
LWPOLYLINE
  5
103
100
AcDbEntity
  8
box_20140827_153616_847966
 62
7
100
AcDbPolyline
 90
2
 70
0
 10
417.024830
 20
414.570030
 30
0.0
 10
414.026219
 20
414.570030
 30
0.0
  0
LWPOLYLINE
  5
104
100
AcDbEntity
  8
box_20140827_153616_847966
 62
7
100
AcDbPolyline
 90
2
 70
0
 10
414.026219
 20
406.808919
 30
0.0
 10
414.026219
 20
414.570030
 30
0.0
  0
LWPOLYLINE
  5
105
100
AcDbEntity
  8
box_20140827_153616_847966
 62
7
100
AcDbPolyline
 90
2
 70
0
 10
417.024830
 20
406.808919
 30
0.0
 10
414.026219
 20
406.808919
 30
0.0
  0
LWPOLYLINE
  5
106
100
AcDbEntity
  8
box_20140827_153616_847966
 62
7
100
AcDbPolyline
 90
2
 70
0
 10
417.024830
 20
399.051335
 30
0.0
 10
417.024830
 20
406.808919
 30
0.0
  0
LWPOLYLINE
  5
107
100
AcDbEntity
  8
box_20140827_153616_847966
 62
7
100
AcDbPolyline
 90
2
 70
0
 10
417.024830
 20
399.051335
 30
0.0
 10
414.026219
 20
399.051335
 30
0.0
  0
LWPOLYLINE
  5
108
100
AcDbEntity
  8
box_20140827_153616_847966
 62
7
100
AcDbPolyline
 90
2
 70
0
 10
414.026219
 20
391.293752
 30
0.0
 10
414.026219
 20
399.051335
 30
0.0
  0
LWPOLYLINE
  5
109
100
AcDbEntity
  8
box_20140827_153616_847966
 62
7
100
AcDbPolyline
 90
2
 70
0
 10
417.024830
 20
391.293752
 30
0.0
 10
414.026219
 20
391.293752
 30
0.0
  0
LWPOLYLINE
  5
10a
100
AcDbEntity
  8
box_20140827_153616_847966
 62
7
100
AcDbPolyline
 90
2
 70
0
 10
417.024830
 20
383.532641
 30
0.0
 10
417.024830
 20
391.293752
 30
0.0
  0
LWPOLYLINE
  5
10b
100
AcDbEntity
  8
box_20140827_153616_847966
 62
7
100
AcDbPolyline
 90
2
 70
0
 10
417.024830
 20
383.532641
 30
0.0
 10
414.026219
 20
383.532641
 30
0.0
  0
LWPOLYLINE
  5
10c
100
AcDbEntity
  8
box_20140827_153616_847966
 62
7
100
AcDbPolyline
 90
2
 70
0
 10
414.026219
 20
375.775058
 30
0.0
 10
414.026219
 20
383.532641
 30
0.0
  0
LWPOLYLINE
  5
10d
100
AcDbEntity
  8
box_20140827_153616_847966
 62
7
100
AcDbPolyline
 90
2
 70
0
 10
417.024830
 20
375.775058
 30
0.0
 10
414.026219
 20
375.775058
 30
0.0
  0
LWPOLYLINE
  5
10e
100
AcDbEntity
  8
box_20140827_153616_847966
 62
7
100
AcDbPolyline
 90
2
 70
0
 10
417.024830
 20
368.017474
 30
0.0
 10
417.024830
 20
375.775058
 30
0.0
  0
LWPOLYLINE
  5
10f
100
AcDbEntity
  8
box_20140827_153616_847966
 62
7
100
AcDbPolyline
 90
2
 70
0
 10
417.024830
 20
368.017474
 30
0.0
 10
414.026219
 20
368.017474
 30
0.0
  0
LWPOLYLINE
  5
110
100
AcDbEntity
  8
box_20140827_153616_847966
 62
7
100
AcDbPolyline
 90
2
 70
0
 10
414.026219
 20
360.259891
 30
0.0
 10
414.026219
 20
368.017474
 30
0.0
  0
LWPOLYLINE
  5
111
100
AcDbEntity
  8
box_20140827_153616_847966
 62
7
100
AcDbPolyline
 90
2
 70
0
 10
417.024830
 20
360.259891
 30
0.0
 10
414.026219
 20
360.259891
 30
0.0
  0
LWPOLYLINE
  5
112
100
AcDbEntity
  8
box_20140827_153616_847966
 62
7
100
AcDbPolyline
 90
2
 70
0
 10
417.024830
 20
352.498780
 30
0.0
 10
417.024830
 20
360.259891
 30
0.0
  0
LWPOLYLINE
  5
113
100
AcDbEntity
  8
box_20140827_153616_847966
 62
7
100
AcDbPolyline
 90
2
 70
0
 10
417.024830
 20
352.498780
 30
0.0
 10
414.026219
 20
352.498780
 30
0.0
  0
LWPOLYLINE
  5
114
100
AcDbEntity
  8
box_20140827_153616_847966
 62
7
100
AcDbPolyline
 90
2
 70
0
 10
414.026219
 20
344.741197
 30
0.0
 10
414.026219
 20
352.498780
 30
0.0
  0
LWPOLYLINE
  5
115
100
AcDbEntity
  8
box_20140827_153616_847966
 62
7
100
AcDbPolyline
 90
2
 70
0
 10
417.024830
 20
344.741197
 30
0.0
 10
414.026219
 20
344.741197
 30
0.0
  0
LWPOLYLINE
  5
116
100
AcDbEntity
  8
box_20140827_153616_847966
 62
7
100
AcDbPolyline
 90
2
 70
0
 10
417.024830
 20
336.983613
 30
0.0
 10
417.024830
 20
344.741197
 30
0.0
  0
LWPOLYLINE
  5
117
100
AcDbEntity
  8
box_20140827_153616_847966
 62
7
100
AcDbPolyline
 90
2
 70
0
 10
417.024830
 20
336.983613
 30
0.0
 10
414.026219
 20
336.983613
 30
0.0
  0
LWPOLYLINE
  5
118
100
AcDbEntity
  8
box_20140827_153616_847966
 62
7
100
AcDbPolyline
 90
2
 70
0
 10
414.026219
 20
329.222502
 30
0.0
 10
414.026219
 20
336.983613
 30
0.0
  0
LWPOLYLINE
  5
119
100
AcDbEntity
  8
box_20140827_153616_847966
 62
7
100
AcDbPolyline
 90
2
 70
0
 10
417.024830
 20
329.222502
 30
0.0
 10
414.026219
 20
329.222502
 30
0.0
  0
LWPOLYLINE
  5
11a
100
AcDbEntity
  8
box_20140827_153616_847966
 62
7
100
AcDbPolyline
 90
2
 70
0
 10
417.024830
 20
321.464919
 30
0.0
 10
417.024830
 20
329.222502
 30
0.0
  0
LWPOLYLINE
  5
11b
100
AcDbEntity
  8
box_20140827_153616_847966
 62
7
100
AcDbPolyline
 90
2
 70
0
 10
417.024830
 20
321.464919
 30
0.0
 10
414.026219
 20
321.464919
 30
0.0
  0
LWPOLYLINE
  5
11c
100
AcDbEntity
  8
box_20140827_153616_847966
 62
7
100
AcDbPolyline
 90
2
 70
0
 10
414.026219
 20
313.707335
 30
0.0
 10
414.026219
 20
321.464919
 30
0.0
  0
LWPOLYLINE
  5
11d
100
AcDbEntity
  8
box_20140827_153616_847966
 62
7
100
AcDbPolyline
 90
2
 70
0
 10
417.024830
 20
313.707335
 30
0.0
 10
414.026219
 20
313.707335
 30
0.0
  0
LWPOLYLINE
  5
11e
100
AcDbEntity
  8
box_20140827_153616_847966
 62
7
100
AcDbPolyline
 90
2
 70
0
 10
417.024830
 20
305.946224
 30
0.0
 10
417.024830
 20
313.707335
 30
0.0
  0
LWPOLYLINE
  5
11f
100
AcDbEntity
  8
box_20140827_153616_847966
 62
7
100
AcDbPolyline
 90
2
 70
0
 10
417.024830
 20
305.946224
 30
0.0
 10
414.026219
 20
305.946224
 30
0.0
  0
LWPOLYLINE
  5
120
100
AcDbEntity
  8
box_20140827_153616_847966
 62
7
100
AcDbPolyline
 90
2
 70
0
 10
414.026219
 20
298.188641
 30
0.0
 10
414.026219
 20
305.946224
 30
0.0
  0
LWPOLYLINE
  5
121
100
AcDbEntity
  8
box_20140827_153616_847966
 62
7
100
AcDbPolyline
 90
2
 70
0
 10
417.024830
 20
298.188641
 30
0.0
 10
414.026219
 20
298.188641
 30
0.0
  0
LWPOLYLINE
  5
122
100
AcDbEntity
  8
box_20140827_153616_847966
 62
7
100
AcDbPolyline
 90
2
 70
0
 10
417.024830
 20
290.431058
 30
0.0
 10
417.024830
 20
298.188641
 30
0.0
  0
LWPOLYLINE
  5
123
100
AcDbEntity
  8
box_20140827_153616_847966
 62
7
100
AcDbPolyline
 90
2
 70
0
 10
417.024830
 20
290.431058
 30
0.0
 10
414.026219
 20
290.431058
 30
0.0
  0
LWPOLYLINE
  5
124
100
AcDbEntity
  8
box_20140827_153616_847966
 62
7
100
AcDbPolyline
 90
2
 70
0
 10
414.026219
 20
282.673474
 30
0.0
 10
414.026219
 20
290.431058
 30
0.0
  0
LWPOLYLINE
  5
125
100
AcDbEntity
  8
box_20140827_153616_847966
 62
7
100
AcDbPolyline
 90
2
 70
0
 10
417.024830
 20
282.673474
 30
0.0
 10
414.026219
 20
282.673474
 30
0.0
  0
LWPOLYLINE
  5
126
100
AcDbEntity
  8
box_20140827_153616_847966
 62
7
100
AcDbPolyline
 90
2
 70
0
 10
417.024830
 20
274.912363
 30
0.0
 10
417.024830
 20
282.673474
 30
0.0
  0
LWPOLYLINE
  5
127
100
AcDbEntity
  8
box_20140827_153616_847966
 62
7
100
AcDbPolyline
 90
2
 70
0
 10
417.024830
 20
274.912363
 30
0.0
 10
414.026219
 20
274.912363
 30
0.0
  0
LWPOLYLINE
  5
128
100
AcDbEntity
  8
box_20140827_153616_847966
 62
7
100
AcDbPolyline
 90
2
 70
0
 10
414.026219
 20
267.154780
 30
0.0
 10
414.026219
 20
274.912363
 30
0.0
  0
LWPOLYLINE
  5
129
100
AcDbEntity
  8
box_20140827_153616_847966
 62
7
100
AcDbPolyline
 90
2
 70
0
 10
417.024830
 20
267.154780
 30
0.0
 10
414.026219
 20
267.154780
 30
0.0
  0
LWPOLYLINE
  5
12a
100
AcDbEntity
  8
box_20140827_153616_847966
 62
7
100
AcDbPolyline
 90
2
 70
0
 10
417.024830
 20
259.397197
 30
0.0
 10
417.024830
 20
267.154780
 30
0.0
  0
LWPOLYLINE
  5
12b
100
AcDbEntity
  8
box_20140827_153616_847966
 62
7
100
AcDbPolyline
 90
2
 70
0
 10
417.024830
 20
259.397197
 30
0.0
 10
414.026219
 20
259.397197
 30
0.0
  0
LWPOLYLINE
  5
12c
100
AcDbEntity
  8
box_20140827_153616_847966
 62
7
100
AcDbPolyline
 90
2
 70
0
 10
414.026219
 20
251.636085
 30
0.0
 10
414.026219
 20
259.397197
 30
0.0
  0
LWPOLYLINE
  5
12d
100
AcDbEntity
  8
box_20140827_153616_847966
 62
7
100
AcDbPolyline
 90
2
 70
0
 10
417.024830
 20
251.636085
 30
0.0
 10
414.026219
 20
251.636085
 30
0.0
  0
LWPOLYLINE
  5
12e
100
AcDbEntity
  8
box_20140827_153616_847966
 62
7
100
AcDbPolyline
 90
2
 70
0
 10
417.024830
 20
243.878502
 30
0.0
 10
417.024830
 20
251.636085
 30
0.0
  0
LWPOLYLINE
  5
12f
100
AcDbEntity
  8
box_20140827_153616_847966
 62
7
100
AcDbPolyline
 90
2
 70
0
 10
417.024830
 20
243.878502
 30
0.0
 10
414.026219
 20
243.878502
 30
0.0
  0
LWPOLYLINE
  5
130
100
AcDbEntity
  8
box_20140827_153616_847966
 62
7
100
AcDbPolyline
 90
2
 70
0
 10
414.026219
 20
236.120919
 30
0.0
 10
414.026219
 20
243.878502
 30
0.0
  0
LWPOLYLINE
  5
131
100
AcDbEntity
  8
box_20140827_153616_847966
 62
7
100
AcDbPolyline
 90
2
 70
0
 10
417.024830
 20
236.120919
 30
0.0
 10
414.026219
 20
236.120919
 30
0.0
  0
LWPOLYLINE
  5
132
100
AcDbEntity
  8
box_20140827_153616_847966
 62
7
100
AcDbPolyline
 90
2
 70
0
 10
417.024830
 20
228.363335
 30
0.0
 10
417.024830
 20
236.120919
 30
0.0
  0
LWPOLYLINE
  5
133
100
AcDbEntity
  8
box_20140827_153616_847966
 62
7
100
AcDbPolyline
 90
2
 70
0
 10
417.024830
 20
228.363335
 30
0.0
 10
414.026219
 20
228.363335
 30
0.0
  0
LWPOLYLINE
  5
134
100
AcDbEntity
  8
box_20140827_153616_847966
 62
7
100
AcDbPolyline
 90
2
 70
0
 10
414.026219
 20
220.602224
 30
0.0
 10
414.026219
 20
228.363335
 30
0.0
  0
LWPOLYLINE
  5
135
100
AcDbEntity
  8
box_20140827_153616_847966
 62
7
100
AcDbPolyline
 90
2
 70
0
 10
417.024830
 20
220.602224
 30
0.0
 10
414.026219
 20
220.602224
 30
0.0
  0
LWPOLYLINE
  5
136
100
AcDbEntity
  8
box_20140827_153616_847966
 62
7
100
AcDbPolyline
 90
2
 70
0
 10
417.024830
 20
212.844641
 30
0.0
 10
417.024830
 20
220.602224
 30
0.0
  0
LWPOLYLINE
  5
137
100
AcDbEntity
  8
box_20140827_153616_847966
 62
7
100
AcDbPolyline
 90
2
 70
0
 10
417.024830
 20
212.844641
 30
0.0
 10
414.026219
 20
212.844641
 30
0.0
  0
LWPOLYLINE
  5
138
100
AcDbEntity
  8
box_20140827_153616_847966
 62
7
100
AcDbPolyline
 90
2
 70
0
 10
414.026219
 20
205.087058
 30
0.0
 10
414.026219
 20
212.844641
 30
0.0
  0
LWPOLYLINE
  5
139
100
AcDbEntity
  8
box_20140827_153616_847966
 62
7
100
AcDbPolyline
 90
2
 70
0
 10
192.026692
 20
422.327613
 30
0.0
 10
192.026692
 20
430.085197
 30
0.0
  0
LWPOLYLINE
  5
13a
100
AcDbEntity
  8
box_20140827_153616_847966
 62
7
100
AcDbPolyline
 90
2
 70
0
 10
195.025303
 20
422.327613
 30
0.0
 10
192.026692
 20
422.327613
 30
0.0
  0
LWPOLYLINE
  5
13b
100
AcDbEntity
  8
box_20140827_153616_847966
 62
7
100
AcDbPolyline
 90
2
 70
0
 10
195.025303
 20
414.570030
 30
0.0
 10
195.025303
 20
422.327613
 30
0.0
  0
LWPOLYLINE
  5
13c
100
AcDbEntity
  8
box_20140827_153616_847966
 62
7
100
AcDbPolyline
 90
2
 70
0
 10
195.025303
 20
414.570030
 30
0.0
 10
192.026692
 20
414.570030
 30
0.0
  0
LWPOLYLINE
  5
13d
100
AcDbEntity
  8
box_20140827_153616_847966
 62
7
100
AcDbPolyline
 90
2
 70
0
 10
192.026692
 20
406.808919
 30
0.0
 10
192.026692
 20
414.570030
 30
0.0
  0
LWPOLYLINE
  5
13e
100
AcDbEntity
  8
box_20140827_153616_847966
 62
7
100
AcDbPolyline
 90
2
 70
0
 10
195.025303
 20
406.808919
 30
0.0
 10
192.026692
 20
406.808919
 30
0.0
  0
LWPOLYLINE
  5
13f
100
AcDbEntity
  8
box_20140827_153616_847966
 62
7
100
AcDbPolyline
 90
2
 70
0
 10
195.025303
 20
399.051335
 30
0.0
 10
195.025303
 20
406.808919
 30
0.0
  0
LWPOLYLINE
  5
140
100
AcDbEntity
  8
box_20140827_153616_847966
 62
7
100
AcDbPolyline
 90
2
 70
0
 10
195.025303
 20
399.051335
 30
0.0
 10
192.026692
 20
399.051335
 30
0.0
  0
LWPOLYLINE
  5
141
100
AcDbEntity
  8
box_20140827_153616_847966
 62
7
100
AcDbPolyline
 90
2
 70
0
 10
192.026692
 20
391.293752
 30
0.0
 10
192.026692
 20
399.051335
 30
0.0
  0
LWPOLYLINE
  5
142
100
AcDbEntity
  8
box_20140827_153616_847966
 62
7
100
AcDbPolyline
 90
2
 70
0
 10
195.025303
 20
391.293752
 30
0.0
 10
192.026692
 20
391.293752
 30
0.0
  0
LWPOLYLINE
  5
143
100
AcDbEntity
  8
box_20140827_153616_847966
 62
7
100
AcDbPolyline
 90
2
 70
0
 10
195.025303
 20
383.532641
 30
0.0
 10
195.025303
 20
391.293752
 30
0.0
  0
LWPOLYLINE
  5
144
100
AcDbEntity
  8
box_20140827_153616_847966
 62
7
100
AcDbPolyline
 90
2
 70
0
 10
195.025303
 20
383.532641
 30
0.0
 10
192.026692
 20
383.532641
 30
0.0
  0
LWPOLYLINE
  5
145
100
AcDbEntity
  8
box_20140827_153616_847966
 62
7
100
AcDbPolyline
 90
2
 70
0
 10
192.026692
 20
375.775058
 30
0.0
 10
192.026692
 20
383.532641
 30
0.0
  0
LWPOLYLINE
  5
146
100
AcDbEntity
  8
box_20140827_153616_847966
 62
7
100
AcDbPolyline
 90
2
 70
0
 10
195.025303
 20
375.775058
 30
0.0
 10
192.026692
 20
375.775058
 30
0.0
  0
LWPOLYLINE
  5
147
100
AcDbEntity
  8
box_20140827_153616_847966
 62
7
100
AcDbPolyline
 90
2
 70
0
 10
195.025303
 20
368.017474
 30
0.0
 10
195.025303
 20
375.775058
 30
0.0
  0
LWPOLYLINE
  5
148
100
AcDbEntity
  8
box_20140827_153616_847966
 62
7
100
AcDbPolyline
 90
2
 70
0
 10
195.025303
 20
368.017474
 30
0.0
 10
192.026692
 20
368.017474
 30
0.0
  0
LWPOLYLINE
  5
149
100
AcDbEntity
  8
box_20140827_153616_847966
 62
7
100
AcDbPolyline
 90
2
 70
0
 10
192.026692
 20
360.259891
 30
0.0
 10
192.026692
 20
368.017474
 30
0.0
  0
LWPOLYLINE
  5
14a
100
AcDbEntity
  8
box_20140827_153616_847966
 62
7
100
AcDbPolyline
 90
2
 70
0
 10
195.025303
 20
360.259891
 30
0.0
 10
192.026692
 20
360.259891
 30
0.0
  0
LWPOLYLINE
  5
14b
100
AcDbEntity
  8
box_20140827_153616_847966
 62
7
100
AcDbPolyline
 90
2
 70
0
 10
195.025303
 20
352.498780
 30
0.0
 10
195.025303
 20
360.259891
 30
0.0
  0
LWPOLYLINE
  5
14c
100
AcDbEntity
  8
box_20140827_153616_847966
 62
7
100
AcDbPolyline
 90
2
 70
0
 10
195.025303
 20
352.498780
 30
0.0
 10
192.026692
 20
352.498780
 30
0.0
  0
LWPOLYLINE
  5
14d
100
AcDbEntity
  8
box_20140827_153616_847966
 62
7
100
AcDbPolyline
 90
2
 70
0
 10
192.026692
 20
344.741197
 30
0.0
 10
192.026692
 20
352.498780
 30
0.0
  0
LWPOLYLINE
  5
14e
100
AcDbEntity
  8
box_20140827_153616_847966
 62
7
100
AcDbPolyline
 90
2
 70
0
 10
195.025303
 20
344.741197
 30
0.0
 10
192.026692
 20
344.741197
 30
0.0
  0
LWPOLYLINE
  5
14f
100
AcDbEntity
  8
box_20140827_153616_847966
 62
7
100
AcDbPolyline
 90
2
 70
0
 10
195.025303
 20
336.983613
 30
0.0
 10
195.025303
 20
344.741197
 30
0.0
  0
LWPOLYLINE
  5
150
100
AcDbEntity
  8
box_20140827_153616_847966
 62
7
100
AcDbPolyline
 90
2
 70
0
 10
195.025303
 20
336.983613
 30
0.0
 10
192.026692
 20
336.983613
 30
0.0
  0
LWPOLYLINE
  5
151
100
AcDbEntity
  8
box_20140827_153616_847966
 62
7
100
AcDbPolyline
 90
2
 70
0
 10
192.026692
 20
329.222502
 30
0.0
 10
192.026692
 20
336.983613
 30
0.0
  0
LWPOLYLINE
  5
152
100
AcDbEntity
  8
box_20140827_153616_847966
 62
7
100
AcDbPolyline
 90
2
 70
0
 10
195.025303
 20
329.222502
 30
0.0
 10
192.026692
 20
329.222502
 30
0.0
  0
LWPOLYLINE
  5
153
100
AcDbEntity
  8
box_20140827_153616_847966
 62
7
100
AcDbPolyline
 90
2
 70
0
 10
195.025303
 20
321.464919
 30
0.0
 10
195.025303
 20
329.222502
 30
0.0
  0
LWPOLYLINE
  5
154
100
AcDbEntity
  8
box_20140827_153616_847966
 62
7
100
AcDbPolyline
 90
2
 70
0
 10
195.025303
 20
321.464919
 30
0.0
 10
192.026692
 20
321.464919
 30
0.0
  0
LWPOLYLINE
  5
155
100
AcDbEntity
  8
box_20140827_153616_847966
 62
7
100
AcDbPolyline
 90
2
 70
0
 10
192.026692
 20
313.707335
 30
0.0
 10
192.026692
 20
321.464919
 30
0.0
  0
LWPOLYLINE
  5
156
100
AcDbEntity
  8
box_20140827_153616_847966
 62
7
100
AcDbPolyline
 90
2
 70
0
 10
195.025303
 20
313.707335
 30
0.0
 10
192.026692
 20
313.707335
 30
0.0
  0
LWPOLYLINE
  5
157
100
AcDbEntity
  8
box_20140827_153616_847966
 62
7
100
AcDbPolyline
 90
2
 70
0
 10
195.025303
 20
305.946224
 30
0.0
 10
195.025303
 20
313.707335
 30
0.0
  0
LWPOLYLINE
  5
158
100
AcDbEntity
  8
box_20140827_153616_847966
 62
7
100
AcDbPolyline
 90
2
 70
0
 10
195.025303
 20
305.946224
 30
0.0
 10
192.026692
 20
305.946224
 30
0.0
  0
LWPOLYLINE
  5
159
100
AcDbEntity
  8
box_20140827_153616_847966
 62
7
100
AcDbPolyline
 90
2
 70
0
 10
192.026692
 20
298.188641
 30
0.0
 10
192.026692
 20
305.946224
 30
0.0
  0
LWPOLYLINE
  5
15a
100
AcDbEntity
  8
box_20140827_153616_847966
 62
7
100
AcDbPolyline
 90
2
 70
0
 10
195.025303
 20
298.188641
 30
0.0
 10
192.026692
 20
298.188641
 30
0.0
  0
LWPOLYLINE
  5
15b
100
AcDbEntity
  8
box_20140827_153616_847966
 62
7
100
AcDbPolyline
 90
2
 70
0
 10
195.025303
 20
290.431058
 30
0.0
 10
195.025303
 20
298.188641
 30
0.0
  0
LWPOLYLINE
  5
15c
100
AcDbEntity
  8
box_20140827_153616_847966
 62
7
100
AcDbPolyline
 90
2
 70
0
 10
195.025303
 20
290.431058
 30
0.0
 10
192.026692
 20
290.431058
 30
0.0
  0
LWPOLYLINE
  5
15d
100
AcDbEntity
  8
box_20140827_153616_847966
 62
7
100
AcDbPolyline
 90
2
 70
0
 10
192.026692
 20
282.673474
 30
0.0
 10
192.026692
 20
290.431058
 30
0.0
  0
LWPOLYLINE
  5
15e
100
AcDbEntity
  8
box_20140827_153616_847966
 62
7
100
AcDbPolyline
 90
2
 70
0
 10
195.025303
 20
282.673474
 30
0.0
 10
192.026692
 20
282.673474
 30
0.0
  0
LWPOLYLINE
  5
15f
100
AcDbEntity
  8
box_20140827_153616_847966
 62
7
100
AcDbPolyline
 90
2
 70
0
 10
195.025303
 20
274.912363
 30
0.0
 10
195.025303
 20
282.673474
 30
0.0
  0
LWPOLYLINE
  5
160
100
AcDbEntity
  8
box_20140827_153616_847966
 62
7
100
AcDbPolyline
 90
2
 70
0
 10
195.025303
 20
274.912363
 30
0.0
 10
192.026692
 20
274.912363
 30
0.0
  0
LWPOLYLINE
  5
161
100
AcDbEntity
  8
box_20140827_153616_847966
 62
7
100
AcDbPolyline
 90
2
 70
0
 10
192.026692
 20
267.154780
 30
0.0
 10
192.026692
 20
274.912363
 30
0.0
  0
LWPOLYLINE
  5
162
100
AcDbEntity
  8
box_20140827_153616_847966
 62
7
100
AcDbPolyline
 90
2
 70
0
 10
195.025303
 20
267.154780
 30
0.0
 10
192.026692
 20
267.154780
 30
0.0
  0
LWPOLYLINE
  5
163
100
AcDbEntity
  8
box_20140827_153616_847966
 62
7
100
AcDbPolyline
 90
2
 70
0
 10
195.025303
 20
259.397197
 30
0.0
 10
195.025303
 20
267.154780
 30
0.0
  0
LWPOLYLINE
  5
164
100
AcDbEntity
  8
box_20140827_153616_847966
 62
7
100
AcDbPolyline
 90
2
 70
0
 10
195.025303
 20
259.397197
 30
0.0
 10
192.026692
 20
259.397197
 30
0.0
  0
LWPOLYLINE
  5
165
100
AcDbEntity
  8
box_20140827_153616_847966
 62
7
100
AcDbPolyline
 90
2
 70
0
 10
192.026692
 20
251.636085
 30
0.0
 10
192.026692
 20
259.397197
 30
0.0
  0
LWPOLYLINE
  5
166
100
AcDbEntity
  8
box_20140827_153616_847966
 62
7
100
AcDbPolyline
 90
2
 70
0
 10
195.025303
 20
251.636085
 30
0.0
 10
192.026692
 20
251.636085
 30
0.0
  0
LWPOLYLINE
  5
167
100
AcDbEntity
  8
box_20140827_153616_847966
 62
7
100
AcDbPolyline
 90
2
 70
0
 10
195.025303
 20
243.878502
 30
0.0
 10
195.025303
 20
251.636085
 30
0.0
  0
LWPOLYLINE
  5
168
100
AcDbEntity
  8
box_20140827_153616_847966
 62
7
100
AcDbPolyline
 90
2
 70
0
 10
195.025303
 20
243.878502
 30
0.0
 10
192.026692
 20
243.878502
 30
0.0
  0
LWPOLYLINE
  5
169
100
AcDbEntity
  8
box_20140827_153616_847966
 62
7
100
AcDbPolyline
 90
2
 70
0
 10
192.026692
 20
236.120919
 30
0.0
 10
192.026692
 20
243.878502
 30
0.0
  0
LWPOLYLINE
  5
16a
100
AcDbEntity
  8
box_20140827_153616_847966
 62
7
100
AcDbPolyline
 90
2
 70
0
 10
195.025303
 20
236.120919
 30
0.0
 10
192.026692
 20
236.120919
 30
0.0
  0
LWPOLYLINE
  5
16b
100
AcDbEntity
  8
box_20140827_153616_847966
 62
7
100
AcDbPolyline
 90
2
 70
0
 10
195.025303
 20
228.363335
 30
0.0
 10
195.025303
 20
236.120919
 30
0.0
  0
LWPOLYLINE
  5
16c
100
AcDbEntity
  8
box_20140827_153616_847966
 62
7
100
AcDbPolyline
 90
2
 70
0
 10
195.025303
 20
228.363335
 30
0.0
 10
192.026692
 20
228.363335
 30
0.0
  0
LWPOLYLINE
  5
16d
100
AcDbEntity
  8
box_20140827_153616_847966
 62
7
100
AcDbPolyline
 90
2
 70
0
 10
192.026692
 20
220.602224
 30
0.0
 10
192.026692
 20
228.363335
 30
0.0
  0
LWPOLYLINE
  5
16e
100
AcDbEntity
  8
box_20140827_153616_847966
 62
7
100
AcDbPolyline
 90
2
 70
0
 10
195.025303
 20
220.602224
 30
0.0
 10
192.026692
 20
220.602224
 30
0.0
  0
LWPOLYLINE
  5
16f
100
AcDbEntity
  8
box_20140827_153616_847966
 62
7
100
AcDbPolyline
 90
2
 70
0
 10
195.025303
 20
212.844641
 30
0.0
 10
195.025303
 20
220.602224
 30
0.0
  0
LWPOLYLINE
  5
170
100
AcDbEntity
  8
box_20140827_153616_847966
 62
7
100
AcDbPolyline
 90
2
 70
0
 10
195.025303
 20
212.844641
 30
0.0
 10
192.026692
 20
212.844641
 30
0.0
  0
LWPOLYLINE
  5
171
100
AcDbEntity
  8
box_20140827_153616_847966
 62
7
100
AcDbPolyline
 90
2
 70
0
 10
192.026692
 20
205.087058
 30
0.0
 10
192.026692
 20
212.844641
 30
0.0
  0
LWPOLYLINE
  5
172
100
AcDbEntity
  8
box_20140827_153616_847966
 62
7
100
AcDbPolyline
 90
2
 70
0
 10
409.267247
 20
430.085197
 30
0.0
 10
414.026219
 20
430.085197
 30
0.0
  0
LWPOLYLINE
  5
173
100
AcDbEntity
  8
box_20140827_153616_847966
 62
7
100
AcDbPolyline
 90
2
 70
0
 10
409.267247
 20
430.085197
 30
0.0
 10
409.267247
 20
427.086585
 30
0.0
  0
LWPOLYLINE
  5
174
100
AcDbEntity
  8
box_20140827_153616_847966
 62
7
100
AcDbPolyline
 90
2
 70
0
 10
401.506136
 20
427.086585
 30
0.0
 10
409.267247
 20
427.086585
 30
0.0
  0
LWPOLYLINE
  5
175
100
AcDbEntity
  8
box_20140827_153616_847966
 62
7
100
AcDbPolyline
 90
2
 70
0
 10
401.506136
 20
430.085197
 30
0.0
 10
401.506136
 20
427.086585
 30
0.0
  0
LWPOLYLINE
  5
176
100
AcDbEntity
  8
box_20140827_153616_847966
 62
7
100
AcDbPolyline
 90
2
 70
0
 10
393.748553
 20
430.085197
 30
0.0
 10
401.506136
 20
430.085197
 30
0.0
  0
LWPOLYLINE
  5
177
100
AcDbEntity
  8
box_20140827_153616_847966
 62
7
100
AcDbPolyline
 90
2
 70
0
 10
393.748553
 20
430.085197
 30
0.0
 10
393.748553
 20
427.086585
 30
0.0
  0
LWPOLYLINE
  5
178
100
AcDbEntity
  8
box_20140827_153616_847966
 62
7
100
AcDbPolyline
 90
2
 70
0
 10
385.990969
 20
427.086585
 30
0.0
 10
393.748553
 20
427.086585
 30
0.0
  0
LWPOLYLINE
  5
179
100
AcDbEntity
  8
box_20140827_153616_847966
 62
7
100
AcDbPolyline
 90
2
 70
0
 10
385.990969
 20
430.085197
 30
0.0
 10
385.990969
 20
427.086585
 30
0.0
  0
LWPOLYLINE
  5
17a
100
AcDbEntity
  8
box_20140827_153616_847966
 62
7
100
AcDbPolyline
 90
2
 70
0
 10
378.233386
 20
430.085197
 30
0.0
 10
385.990969
 20
430.085197
 30
0.0
  0
LWPOLYLINE
  5
17b
100
AcDbEntity
  8
box_20140827_153616_847966
 62
7
100
AcDbPolyline
 90
2
 70
0
 10
378.233386
 20
430.085197
 30
0.0
 10
378.233386
 20
427.086585
 30
0.0
  0
LWPOLYLINE
  5
17c
100
AcDbEntity
  8
box_20140827_153616_847966
 62
7
100
AcDbPolyline
 90
2
 70
0
 10
370.472275
 20
427.086585
 30
0.0
 10
378.233386
 20
427.086585
 30
0.0
  0
LWPOLYLINE
  5
17d
100
AcDbEntity
  8
box_20140827_153616_847966
 62
7
100
AcDbPolyline
 90
2
 70
0
 10
370.472275
 20
430.085197
 30
0.0
 10
370.472275
 20
427.086585
 30
0.0
  0
LWPOLYLINE
  5
17e
100
AcDbEntity
  8
box_20140827_153616_847966
 62
7
100
AcDbPolyline
 90
2
 70
0
 10
362.714692
 20
430.085197
 30
0.0
 10
370.472275
 20
430.085197
 30
0.0
  0
LWPOLYLINE
  5
17f
100
AcDbEntity
  8
box_20140827_153616_847966
 62
7
100
AcDbPolyline
 90
2
 70
0
 10
362.714692
 20
430.085197
 30
0.0
 10
362.714692
 20
427.086585
 30
0.0
  0
LWPOLYLINE
  5
180
100
AcDbEntity
  8
box_20140827_153616_847966
 62
7
100
AcDbPolyline
 90
2
 70
0
 10
354.957108
 20
427.086585
 30
0.0
 10
362.714692
 20
427.086585
 30
0.0
  0
LWPOLYLINE
  5
181
100
AcDbEntity
  8
box_20140827_153616_847966
 62
7
100
AcDbPolyline
 90
2
 70
0
 10
354.957108
 20
430.085197
 30
0.0
 10
354.957108
 20
427.086585
 30
0.0
  0
LWPOLYLINE
  5
182
100
AcDbEntity
  8
box_20140827_153616_847966
 62
7
100
AcDbPolyline
 90
2
 70
0
 10
347.195997
 20
430.085197
 30
0.0
 10
354.957108
 20
430.085197
 30
0.0
  0
LWPOLYLINE
  5
183
100
AcDbEntity
  8
box_20140827_153616_847966
 62
7
100
AcDbPolyline
 90
2
 70
0
 10
347.195997
 20
430.085197
 30
0.0
 10
347.195997
 20
427.086585
 30
0.0
  0
LWPOLYLINE
  5
184
100
AcDbEntity
  8
box_20140827_153616_847966
 62
7
100
AcDbPolyline
 90
2
 70
0
 10
339.438414
 20
427.086585
 30
0.0
 10
347.195997
 20
427.086585
 30
0.0
  0
LWPOLYLINE
  5
185
100
AcDbEntity
  8
box_20140827_153616_847966
 62
7
100
AcDbPolyline
 90
2
 70
0
 10
339.438414
 20
430.085197
 30
0.0
 10
339.438414
 20
427.086585
 30
0.0
  0
LWPOLYLINE
  5
186
100
AcDbEntity
  8
box_20140827_153616_847966
 62
7
100
AcDbPolyline
 90
2
 70
0
 10
331.680830
 20
430.085197
 30
0.0
 10
339.438414
 20
430.085197
 30
0.0
  0
LWPOLYLINE
  5
187
100
AcDbEntity
  8
box_20140827_153616_847966
 62
7
100
AcDbPolyline
 90
2
 70
0
 10
331.680830
 20
430.085197
 30
0.0
 10
331.680830
 20
427.086585
 30
0.0
  0
LWPOLYLINE
  5
188
100
AcDbEntity
  8
box_20140827_153616_847966
 62
7
100
AcDbPolyline
 90
2
 70
0
 10
323.923247
 20
427.086585
 30
0.0
 10
331.680830
 20
427.086585
 30
0.0
  0
LWPOLYLINE
  5
189
100
AcDbEntity
  8
box_20140827_153616_847966
 62
7
100
AcDbPolyline
 90
2
 70
0
 10
323.923247
 20
430.085197
 30
0.0
 10
323.923247
 20
427.086585
 30
0.0
  0
LWPOLYLINE
  5
18a
100
AcDbEntity
  8
box_20140827_153616_847966
 62
7
100
AcDbPolyline
 90
2
 70
0
 10
316.162136
 20
430.085197
 30
0.0
 10
323.923247
 20
430.085197
 30
0.0
  0
LWPOLYLINE
  5
18b
100
AcDbEntity
  8
box_20140827_153616_847966
 62
7
100
AcDbPolyline
 90
2
 70
0
 10
316.162136
 20
430.085197
 30
0.0
 10
316.162136
 20
427.086585
 30
0.0
  0
LWPOLYLINE
  5
18c
100
AcDbEntity
  8
box_20140827_153616_847966
 62
7
100
AcDbPolyline
 90
2
 70
0
 10
308.404553
 20
427.086585
 30
0.0
 10
316.162136
 20
427.086585
 30
0.0
  0
LWPOLYLINE
  5
18d
100
AcDbEntity
  8
box_20140827_153616_847966
 62
7
100
AcDbPolyline
 90
2
 70
0
 10
308.404553
 20
430.085197
 30
0.0
 10
308.404553
 20
427.086585
 30
0.0
  0
LWPOLYLINE
  5
18e
100
AcDbEntity
  8
box_20140827_153616_847966
 62
7
100
AcDbPolyline
 90
2
 70
0
 10
300.646969
 20
430.085197
 30
0.0
 10
308.404553
 20
430.085197
 30
0.0
  0
LWPOLYLINE
  5
18f
100
AcDbEntity
  8
box_20140827_153616_847966
 62
7
100
AcDbPolyline
 90
2
 70
0
 10
300.646969
 20
430.085197
 30
0.0
 10
300.646969
 20
427.086585
 30
0.0
  0
LWPOLYLINE
  5
190
100
AcDbEntity
  8
box_20140827_153616_847966
 62
7
100
AcDbPolyline
 90
2
 70
0
 10
292.885858
 20
427.086585
 30
0.0
 10
300.646969
 20
427.086585
 30
0.0
  0
LWPOLYLINE
  5
191
100
AcDbEntity
  8
box_20140827_153616_847966
 62
7
100
AcDbPolyline
 90
2
 70
0
 10
292.885858
 20
430.085197
 30
0.0
 10
292.885858
 20
427.086585
 30
0.0
  0
LWPOLYLINE
  5
192
100
AcDbEntity
  8
box_20140827_153616_847966
 62
7
100
AcDbPolyline
 90
2
 70
0
 10
285.128275
 20
430.085197
 30
0.0
 10
292.885858
 20
430.085197
 30
0.0
  0
LWPOLYLINE
  5
193
100
AcDbEntity
  8
box_20140827_153616_847966
 62
7
100
AcDbPolyline
 90
2
 70
0
 10
285.128275
 20
430.085197
 30
0.0
 10
285.128275
 20
427.086585
 30
0.0
  0
LWPOLYLINE
  5
194
100
AcDbEntity
  8
box_20140827_153616_847966
 62
7
100
AcDbPolyline
 90
2
 70
0
 10
277.370692
 20
427.086585
 30
0.0
 10
285.128275
 20
427.086585
 30
0.0
  0
LWPOLYLINE
  5
195
100
AcDbEntity
  8
box_20140827_153616_847966
 62
7
100
AcDbPolyline
 90
2
 70
0
 10
277.370692
 20
430.085197
 30
0.0
 10
277.370692
 20
427.086585
 30
0.0
  0
LWPOLYLINE
  5
196
100
AcDbEntity
  8
box_20140827_153616_847966
 62
7
100
AcDbPolyline
 90
2
 70
0
 10
269.609580
 20
430.085197
 30
0.0
 10
277.370692
 20
430.085197
 30
0.0
  0
LWPOLYLINE
  5
197
100
AcDbEntity
  8
box_20140827_153616_847966
 62
7
100
AcDbPolyline
 90
2
 70
0
 10
269.609580
 20
430.085197
 30
0.0
 10
269.609580
 20
427.086585
 30
0.0
  0
LWPOLYLINE
  5
198
100
AcDbEntity
  8
box_20140827_153616_847966
 62
7
100
AcDbPolyline
 90
2
 70
0
 10
261.851997
 20
427.086585
 30
0.0
 10
269.609580
 20
427.086585
 30
0.0
  0
LWPOLYLINE
  5
199
100
AcDbEntity
  8
box_20140827_153616_847966
 62
7
100
AcDbPolyline
 90
2
 70
0
 10
261.851997
 20
430.085197
 30
0.0
 10
261.851997
 20
427.086585
 30
0.0
  0
LWPOLYLINE
  5
19a
100
AcDbEntity
  8
box_20140827_153616_847966
 62
7
100
AcDbPolyline
 90
2
 70
0
 10
254.094414
 20
430.085197
 30
0.0
 10
261.851997
 20
430.085197
 30
0.0
  0
LWPOLYLINE
  5
19b
100
AcDbEntity
  8
box_20140827_153616_847966
 62
7
100
AcDbPolyline
 90
2
 70
0
 10
254.094414
 20
430.085197
 30
0.0
 10
254.094414
 20
427.086585
 30
0.0
  0
LWPOLYLINE
  5
19c
100
AcDbEntity
  8
box_20140827_153616_847966
 62
7
100
AcDbPolyline
 90
2
 70
0
 10
246.336830
 20
427.086585
 30
0.0
 10
254.094414
 20
427.086585
 30
0.0
  0
LWPOLYLINE
  5
19d
100
AcDbEntity
  8
box_20140827_153616_847966
 62
7
100
AcDbPolyline
 90
2
 70
0
 10
246.336830
 20
430.085197
 30
0.0
 10
246.336830
 20
427.086585
 30
0.0
  0
LWPOLYLINE
  5
19e
100
AcDbEntity
  8
box_20140827_153616_847966
 62
7
100
AcDbPolyline
 90
2
 70
0
 10
238.575719
 20
430.085197
 30
0.0
 10
246.336830
 20
430.085197
 30
0.0
  0
LWPOLYLINE
  5
19f
100
AcDbEntity
  8
box_20140827_153616_847966
 62
7
100
AcDbPolyline
 90
2
 70
0
 10
238.575719
 20
430.085197
 30
0.0
 10
238.575719
 20
427.086585
 30
0.0
  0
LWPOLYLINE
  5
1a0
100
AcDbEntity
  8
box_20140827_153616_847966
 62
7
100
AcDbPolyline
 90
2
 70
0
 10
230.818136
 20
427.086585
 30
0.0
 10
238.575719
 20
427.086585
 30
0.0
  0
LWPOLYLINE
  5
1a1
100
AcDbEntity
  8
box_20140827_153616_847966
 62
7
100
AcDbPolyline
 90
2
 70
0
 10
230.818136
 20
430.085197
 30
0.0
 10
230.818136
 20
427.086585
 30
0.0
  0
LWPOLYLINE
  5
1a2
100
AcDbEntity
  8
box_20140827_153616_847966
 62
7
100
AcDbPolyline
 90
2
 70
0
 10
223.060553
 20
430.085197
 30
0.0
 10
230.818136
 20
430.085197
 30
0.0
  0
LWPOLYLINE
  5
1a3
100
AcDbEntity
  8
box_20140827_153616_847966
 62
7
100
AcDbPolyline
 90
2
 70
0
 10
223.060553
 20
430.085197
 30
0.0
 10
223.060553
 20
427.086585
 30
0.0
  0
LWPOLYLINE
  5
1a4
100
AcDbEntity
  8
box_20140827_153616_847966
 62
7
100
AcDbPolyline
 90
2
 70
0
 10
215.299442
 20
427.086585
 30
0.0
 10
223.060553
 20
427.086585
 30
0.0
  0
LWPOLYLINE
  5
1a5
100
AcDbEntity
  8
box_20140827_153616_847966
 62
7
100
AcDbPolyline
 90
2
 70
0
 10
215.299442
 20
430.085197
 30
0.0
 10
215.299442
 20
427.086585
 30
0.0
  0
LWPOLYLINE
  5
1a6
100
AcDbEntity
  8
box_20140827_153616_847966
 62
7
100
AcDbPolyline
 90
2
 70
0
 10
207.541858
 20
430.085197
 30
0.0
 10
215.299442
 20
430.085197
 30
0.0
  0
LWPOLYLINE
  5
1a7
100
AcDbEntity
  8
box_20140827_153616_847966
 62
7
100
AcDbPolyline
 90
2
 70
0
 10
207.541858
 20
430.085197
 30
0.0
 10
207.541858
 20
427.086585
 30
0.0
  0
LWPOLYLINE
  5
1a8
100
AcDbEntity
  8
box_20140827_153616_847966
 62
7
100
AcDbPolyline
 90
2
 70
0
 10
199.784275
 20
427.086585
 30
0.0
 10
207.541858
 20
427.086585
 30
0.0
  0
LWPOLYLINE
  5
1a9
100
AcDbEntity
  8
box_20140827_153616_847966
 62
7
100
AcDbPolyline
 90
2
 70
0
 10
199.784275
 20
430.085197
 30
0.0
 10
199.784275
 20
427.086585
 30
0.0
  0
LWPOLYLINE
  5
1aa
100
AcDbEntity
  8
box_20140827_153616_847966
 62
7
100
AcDbPolyline
 90
2
 70
0
 10
192.026692
 20
430.085197
 30
0.0
 10
199.784275
 20
430.085197
 30
0.0
  0
LWPOLYLINE
  5
1ab
100
AcDbEntity
  8
box_20140827_153616_847966
 62
7
100
AcDbPolyline
 90
2
 70
0
 10
409.267247
 20
205.087058
 30
0.0
 10
414.026219
 20
205.087058
 30
0.0
  0
LWPOLYLINE
  5
1ac
100
AcDbEntity
  8
box_20140827_153616_847966
 62
7
100
AcDbPolyline
 90
2
 70
0
 10
409.267247
 20
208.085669
 30
0.0
 10
409.267247
 20
205.087058
 30
0.0
  0
LWPOLYLINE
  5
1ad
100
AcDbEntity
  8
box_20140827_153616_847966
 62
7
100
AcDbPolyline
 90
2
 70
0
 10
401.506136
 20
208.085669
 30
0.0
 10
409.267247
 20
208.085669
 30
0.0
  0
LWPOLYLINE
  5
1ae
100
AcDbEntity
  8
box_20140827_153616_847966
 62
7
100
AcDbPolyline
 90
2
 70
0
 10
401.506136
 20
208.085669
 30
0.0
 10
401.506136
 20
205.087058
 30
0.0
  0
LWPOLYLINE
  5
1af
100
AcDbEntity
  8
box_20140827_153616_847966
 62
7
100
AcDbPolyline
 90
2
 70
0
 10
393.748553
 20
205.087058
 30
0.0
 10
401.506136
 20
205.087058
 30
0.0
  0
LWPOLYLINE
  5
1b0
100
AcDbEntity
  8
box_20140827_153616_847966
 62
7
100
AcDbPolyline
 90
2
 70
0
 10
393.748553
 20
208.085669
 30
0.0
 10
393.748553
 20
205.087058
 30
0.0
  0
LWPOLYLINE
  5
1b1
100
AcDbEntity
  8
box_20140827_153616_847966
 62
7
100
AcDbPolyline
 90
2
 70
0
 10
385.990969
 20
208.085669
 30
0.0
 10
393.748553
 20
208.085669
 30
0.0
  0
LWPOLYLINE
  5
1b2
100
AcDbEntity
  8
box_20140827_153616_847966
 62
7
100
AcDbPolyline
 90
2
 70
0
 10
385.990969
 20
208.085669
 30
0.0
 10
385.990969
 20
205.087058
 30
0.0
  0
LWPOLYLINE
  5
1b3
100
AcDbEntity
  8
box_20140827_153616_847966
 62
7
100
AcDbPolyline
 90
2
 70
0
 10
378.233386
 20
205.087058
 30
0.0
 10
385.990969
 20
205.087058
 30
0.0
  0
LWPOLYLINE
  5
1b4
100
AcDbEntity
  8
box_20140827_153616_847966
 62
7
100
AcDbPolyline
 90
2
 70
0
 10
378.233386
 20
208.085669
 30
0.0
 10
378.233386
 20
205.087058
 30
0.0
  0
LWPOLYLINE
  5
1b5
100
AcDbEntity
  8
box_20140827_153616_847966
 62
7
100
AcDbPolyline
 90
2
 70
0
 10
370.472275
 20
208.085669
 30
0.0
 10
378.233386
 20
208.085669
 30
0.0
  0
LWPOLYLINE
  5
1b6
100
AcDbEntity
  8
box_20140827_153616_847966
 62
7
100
AcDbPolyline
 90
2
 70
0
 10
370.472275
 20
208.085669
 30
0.0
 10
370.472275
 20
205.087058
 30
0.0
  0
LWPOLYLINE
  5
1b7
100
AcDbEntity
  8
box_20140827_153616_847966
 62
7
100
AcDbPolyline
 90
2
 70
0
 10
362.714692
 20
205.087058
 30
0.0
 10
370.472275
 20
205.087058
 30
0.0
  0
LWPOLYLINE
  5
1b8
100
AcDbEntity
  8
box_20140827_153616_847966
 62
7
100
AcDbPolyline
 90
2
 70
0
 10
362.714692
 20
208.085669
 30
0.0
 10
362.714692
 20
205.087058
 30
0.0
  0
LWPOLYLINE
  5
1b9
100
AcDbEntity
  8
box_20140827_153616_847966
 62
7
100
AcDbPolyline
 90
2
 70
0
 10
354.957108
 20
208.085669
 30
0.0
 10
362.714692
 20
208.085669
 30
0.0
  0
LWPOLYLINE
  5
1ba
100
AcDbEntity
  8
box_20140827_153616_847966
 62
7
100
AcDbPolyline
 90
2
 70
0
 10
354.957108
 20
208.085669
 30
0.0
 10
354.957108
 20
205.087058
 30
0.0
  0
LWPOLYLINE
  5
1bb
100
AcDbEntity
  8
box_20140827_153616_847966
 62
7
100
AcDbPolyline
 90
2
 70
0
 10
347.195997
 20
205.087058
 30
0.0
 10
354.957108
 20
205.087058
 30
0.0
  0
LWPOLYLINE
  5
1bc
100
AcDbEntity
  8
box_20140827_153616_847966
 62
7
100
AcDbPolyline
 90
2
 70
0
 10
347.195997
 20
208.085669
 30
0.0
 10
347.195997
 20
205.087058
 30
0.0
  0
LWPOLYLINE
  5
1bd
100
AcDbEntity
  8
box_20140827_153616_847966
 62
7
100
AcDbPolyline
 90
2
 70
0
 10
339.438414
 20
208.085669
 30
0.0
 10
347.195997
 20
208.085669
 30
0.0
  0
LWPOLYLINE
  5
1be
100
AcDbEntity
  8
box_20140827_153616_847966
 62
7
100
AcDbPolyline
 90
2
 70
0
 10
339.438414
 20
208.085669
 30
0.0
 10
339.438414
 20
205.087058
 30
0.0
  0
LWPOLYLINE
  5
1bf
100
AcDbEntity
  8
box_20140827_153616_847966
 62
7
100
AcDbPolyline
 90
2
 70
0
 10
331.680830
 20
205.087058
 30
0.0
 10
339.438414
 20
205.087058
 30
0.0
  0
LWPOLYLINE
  5
1c0
100
AcDbEntity
  8
box_20140827_153616_847966
 62
7
100
AcDbPolyline
 90
2
 70
0
 10
331.680830
 20
208.085669
 30
0.0
 10
331.680830
 20
205.087058
 30
0.0
  0
LWPOLYLINE
  5
1c1
100
AcDbEntity
  8
box_20140827_153616_847966
 62
7
100
AcDbPolyline
 90
2
 70
0
 10
323.923247
 20
208.085669
 30
0.0
 10
331.680830
 20
208.085669
 30
0.0
  0
LWPOLYLINE
  5
1c2
100
AcDbEntity
  8
box_20140827_153616_847966
 62
7
100
AcDbPolyline
 90
2
 70
0
 10
323.923247
 20
208.085669
 30
0.0
 10
323.923247
 20
205.087058
 30
0.0
  0
LWPOLYLINE
  5
1c3
100
AcDbEntity
  8
box_20140827_153616_847966
 62
7
100
AcDbPolyline
 90
2
 70
0
 10
316.162136
 20
205.087058
 30
0.0
 10
323.923247
 20
205.087058
 30
0.0
  0
LWPOLYLINE
  5
1c4
100
AcDbEntity
  8
box_20140827_153616_847966
 62
7
100
AcDbPolyline
 90
2
 70
0
 10
316.162136
 20
208.085669
 30
0.0
 10
316.162136
 20
205.087058
 30
0.0
  0
LWPOLYLINE
  5
1c5
100
AcDbEntity
  8
box_20140827_153616_847966
 62
7
100
AcDbPolyline
 90
2
 70
0
 10
308.404553
 20
208.085669
 30
0.0
 10
316.162136
 20
208.085669
 30
0.0
  0
LWPOLYLINE
  5
1c6
100
AcDbEntity
  8
box_20140827_153616_847966
 62
7
100
AcDbPolyline
 90
2
 70
0
 10
308.404553
 20
208.085669
 30
0.0
 10
308.404553
 20
205.087058
 30
0.0
  0
LWPOLYLINE
  5
1c7
100
AcDbEntity
  8
box_20140827_153616_847966
 62
7
100
AcDbPolyline
 90
2
 70
0
 10
300.646969
 20
205.087058
 30
0.0
 10
308.404553
 20
205.087058
 30
0.0
  0
LWPOLYLINE
  5
1c8
100
AcDbEntity
  8
box_20140827_153616_847966
 62
7
100
AcDbPolyline
 90
2
 70
0
 10
300.646969
 20
208.085669
 30
0.0
 10
300.646969
 20
205.087058
 30
0.0
  0
LWPOLYLINE
  5
1c9
100
AcDbEntity
  8
box_20140827_153616_847966
 62
7
100
AcDbPolyline
 90
2
 70
0
 10
292.885858
 20
208.085669
 30
0.0
 10
300.646969
 20
208.085669
 30
0.0
  0
LWPOLYLINE
  5
1ca
100
AcDbEntity
  8
box_20140827_153616_847966
 62
7
100
AcDbPolyline
 90
2
 70
0
 10
292.885858
 20
208.085669
 30
0.0
 10
292.885858
 20
205.087058
 30
0.0
  0
LWPOLYLINE
  5
1cb
100
AcDbEntity
  8
box_20140827_153616_847966
 62
7
100
AcDbPolyline
 90
2
 70
0
 10
285.128275
 20
205.087058
 30
0.0
 10
292.885858
 20
205.087058
 30
0.0
  0
LWPOLYLINE
  5
1cc
100
AcDbEntity
  8
box_20140827_153616_847966
 62
7
100
AcDbPolyline
 90
2
 70
0
 10
285.128275
 20
208.085669
 30
0.0
 10
285.128275
 20
205.087058
 30
0.0
  0
LWPOLYLINE
  5
1cd
100
AcDbEntity
  8
box_20140827_153616_847966
 62
7
100
AcDbPolyline
 90
2
 70
0
 10
277.370692
 20
208.085669
 30
0.0
 10
285.128275
 20
208.085669
 30
0.0
  0
LWPOLYLINE
  5
1ce
100
AcDbEntity
  8
box_20140827_153616_847966
 62
7
100
AcDbPolyline
 90
2
 70
0
 10
277.370692
 20
208.085669
 30
0.0
 10
277.370692
 20
205.087058
 30
0.0
  0
LWPOLYLINE
  5
1cf
100
AcDbEntity
  8
box_20140827_153616_847966
 62
7
100
AcDbPolyline
 90
2
 70
0
 10
269.609580
 20
205.087058
 30
0.0
 10
277.370692
 20
205.087058
 30
0.0
  0
LWPOLYLINE
  5
1d0
100
AcDbEntity
  8
box_20140827_153616_847966
 62
7
100
AcDbPolyline
 90
2
 70
0
 10
269.609580
 20
208.085669
 30
0.0
 10
269.609580
 20
205.087058
 30
0.0
  0
LWPOLYLINE
  5
1d1
100
AcDbEntity
  8
box_20140827_153616_847966
 62
7
100
AcDbPolyline
 90
2
 70
0
 10
261.851997
 20
208.085669
 30
0.0
 10
269.609580
 20
208.085669
 30
0.0
  0
LWPOLYLINE
  5
1d2
100
AcDbEntity
  8
box_20140827_153616_847966
 62
7
100
AcDbPolyline
 90
2
 70
0
 10
261.851997
 20
208.085669
 30
0.0
 10
261.851997
 20
205.087058
 30
0.0
  0
LWPOLYLINE
  5
1d3
100
AcDbEntity
  8
box_20140827_153616_847966
 62
7
100
AcDbPolyline
 90
2
 70
0
 10
254.094414
 20
205.087058
 30
0.0
 10
261.851997
 20
205.087058
 30
0.0
  0
LWPOLYLINE
  5
1d4
100
AcDbEntity
  8
box_20140827_153616_847966
 62
7
100
AcDbPolyline
 90
2
 70
0
 10
254.094414
 20
208.085669
 30
0.0
 10
254.094414
 20
205.087058
 30
0.0
  0
LWPOLYLINE
  5
1d5
100
AcDbEntity
  8
box_20140827_153616_847966
 62
7
100
AcDbPolyline
 90
2
 70
0
 10
246.336830
 20
208.085669
 30
0.0
 10
254.094414
 20
208.085669
 30
0.0
  0
LWPOLYLINE
  5
1d6
100
AcDbEntity
  8
box_20140827_153616_847966
 62
7
100
AcDbPolyline
 90
2
 70
0
 10
246.336830
 20
208.085669
 30
0.0
 10
246.336830
 20
205.087058
 30
0.0
  0
LWPOLYLINE
  5
1d7
100
AcDbEntity
  8
box_20140827_153616_847966
 62
7
100
AcDbPolyline
 90
2
 70
0
 10
238.575719
 20
205.087058
 30
0.0
 10
246.336830
 20
205.087058
 30
0.0
  0
LWPOLYLINE
  5
1d8
100
AcDbEntity
  8
box_20140827_153616_847966
 62
7
100
AcDbPolyline
 90
2
 70
0
 10
238.575719
 20
208.085669
 30
0.0
 10
238.575719
 20
205.087058
 30
0.0
  0
LWPOLYLINE
  5
1d9
100
AcDbEntity
  8
box_20140827_153616_847966
 62
7
100
AcDbPolyline
 90
2
 70
0
 10
230.818136
 20
208.085669
 30
0.0
 10
238.575719
 20
208.085669
 30
0.0
  0
LWPOLYLINE
  5
1da
100
AcDbEntity
  8
box_20140827_153616_847966
 62
7
100
AcDbPolyline
 90
2
 70
0
 10
230.818136
 20
208.085669
 30
0.0
 10
230.818136
 20
205.087058
 30
0.0
  0
LWPOLYLINE
  5
1db
100
AcDbEntity
  8
box_20140827_153616_847966
 62
7
100
AcDbPolyline
 90
2
 70
0
 10
223.060553
 20
205.087058
 30
0.0
 10
230.818136
 20
205.087058
 30
0.0
  0
LWPOLYLINE
  5
1dc
100
AcDbEntity
  8
box_20140827_153616_847966
 62
7
100
AcDbPolyline
 90
2
 70
0
 10
223.060553
 20
208.085669
 30
0.0
 10
223.060553
 20
205.087058
 30
0.0
  0
LWPOLYLINE
  5
1dd
100
AcDbEntity
  8
box_20140827_153616_847966
 62
7
100
AcDbPolyline
 90
2
 70
0
 10
215.299442
 20
208.085669
 30
0.0
 10
223.060553
 20
208.085669
 30
0.0
  0
LWPOLYLINE
  5
1de
100
AcDbEntity
  8
box_20140827_153616_847966
 62
7
100
AcDbPolyline
 90
2
 70
0
 10
215.299442
 20
208.085669
 30
0.0
 10
215.299442
 20
205.087058
 30
0.0
  0
LWPOLYLINE
  5
1df
100
AcDbEntity
  8
box_20140827_153616_847966
 62
7
100
AcDbPolyline
 90
2
 70
0
 10
207.541858
 20
205.087058
 30
0.0
 10
215.299442
 20
205.087058
 30
0.0
  0
LWPOLYLINE
  5
1e0
100
AcDbEntity
  8
box_20140827_153616_847966
 62
7
100
AcDbPolyline
 90
2
 70
0
 10
207.541858
 20
208.085669
 30
0.0
 10
207.541858
 20
205.087058
 30
0.0
  0
LWPOLYLINE
  5
1e1
100
AcDbEntity
  8
box_20140827_153616_847966
 62
7
100
AcDbPolyline
 90
2
 70
0
 10
199.784275
 20
208.085669
 30
0.0
 10
207.541858
 20
208.085669
 30
0.0
  0
LWPOLYLINE
  5
1e2
100
AcDbEntity
  8
box_20140827_153616_847966
 62
7
100
AcDbPolyline
 90
2
 70
0
 10
199.784275
 20
208.085669
 30
0.0
 10
199.784275
 20
205.087058
 30
0.0
  0
LWPOLYLINE
  5
1e3
100
AcDbEntity
  8
box_20140827_153616_847966
 62
7
100
AcDbPolyline
 90
2
 70
0
 10
192.026692
 20
205.087058
 30
0.0
 10
199.784275
 20
205.087058
 30
0.0
  0
LWPOLYLINE
  5
1e4
100
AcDbEntity
  8
box_20140827_153616_847966
 62
7
100
AcDbPolyline
 90
2
 70
0
 10
132.026247
 20
440.086447
 30
0.0
 10
139.166469
 20
440.086447
 30
0.0
  0
LWPOLYLINE
  5
1e5
100
AcDbEntity
  8
box_20140827_153616_847966
 62
7
100
AcDbPolyline
 90
2
 70
0
 10
139.166469
 20
443.085058
 30
0.0
 10
139.166469
 20
440.086447
 30
0.0
  0
LWPOLYLINE
  5
1e6
100
AcDbEntity
  8
box_20140827_153616_847966
 62
7
100
AcDbPolyline
 90
4
 70
0
 10
139.166469
 20
443.085058
 30
0.0
 10
146.310219
 20
443.085058
 30
0.0
 10
146.310219
 20
440.086447
 30
0.0
 10
153.453969
 20
440.086447
 30
0.0
  0
LWPOLYLINE
  5
1e7
100
AcDbEntity
  8
box_20140827_153616_847966
 62
7
100
AcDbPolyline
 90
2
 70
0
 10
153.453969
 20
443.085058
 30
0.0
 10
153.453969
 20
440.086447
 30
0.0
  0
LWPOLYLINE
  5
1e8
100
AcDbEntity
  8
box_20140827_153616_847966
 62
7
100
AcDbPolyline
 90
4
 70
0
 10
153.453969
 20
443.085058
 30
0.0
 10
160.597719
 20
443.085058
 30
0.0
 10
160.597719
 20
440.086447
 30
0.0
 10
167.737942
 20
440.086447
 30
0.0
  0
LWPOLYLINE
  5
1e9
100
AcDbEntity
  8
box_20140827_153616_847966
 62
7
100
AcDbPolyline
 90
2
 70
0
 10
167.737942
 20
443.085058
 30
0.0
 10
167.737942
 20
440.086447
 30
0.0
  0
LWPOLYLINE
  5
1ea
100
AcDbEntity
  8
box_20140827_153616_847966
 62
7
100
AcDbPolyline
 90
4
 70
0
 10
167.737942
 20
443.085058
 30
0.0
 10
174.881692
 20
443.085058
 30
0.0
 10
174.881692
 20
440.086447
 30
0.0
 10
179.023303
 20
440.086447
 30
0.0
  0
LWPOLYLINE
  5
1eb
100
AcDbEntity
  8
box_20140827_153616_847966
 62
7
100
AcDbPolyline
 90
4
 70
0
 10
132.026247
 20
665.084585
 30
0.0
 10
139.166469
 20
665.084585
 30
0.0
 10
139.166469
 20
662.085974
 30
0.0
 10
146.310219
 20
662.085974
 30
0.0
  0
LWPOLYLINE
  5
1ec
100
AcDbEntity
  8
box_20140827_153616_847966
 62
7
100
AcDbPolyline
 90
2
 70
0
 10
146.310219
 20
665.084585
 30
0.0
 10
146.310219
 20
662.085974
 30
0.0
  0
LWPOLYLINE
  5
1ed
100
AcDbEntity
  8
box_20140827_153616_847966
 62
7
100
AcDbPolyline
 90
4
 70
0
 10
146.310219
 20
665.084585
 30
0.0
 10
153.453969
 20
665.084585
 30
0.0
 10
153.453969
 20
662.085974
 30
0.0
 10
160.597719
 20
662.085974
 30
0.0
  0
LWPOLYLINE
  5
1ee
100
AcDbEntity
  8
box_20140827_153616_847966
 62
7
100
AcDbPolyline
 90
2
 70
0
 10
160.597719
 20
665.084585
 30
0.0
 10
160.597719
 20
662.085974
 30
0.0
  0
LWPOLYLINE
  5
1ef
100
AcDbEntity
  8
box_20140827_153616_847966
 62
7
100
AcDbPolyline
 90
4
 70
0
 10
160.597719
 20
665.084585
 30
0.0
 10
167.737942
 20
665.084585
 30
0.0
 10
167.737942
 20
662.085974
 30
0.0
 10
174.881692
 20
662.085974
 30
0.0
  0
LWPOLYLINE
  5
1f0
100
AcDbEntity
  8
box_20140827_153616_847966
 62
7
100
AcDbPolyline
 90
2
 70
0
 10
174.881692
 20
665.084585
 30
0.0
 10
174.881692
 20
662.085974
 30
0.0
  0
LWPOLYLINE
  5
1f1
100
AcDbEntity
  8
box_20140827_153616_847966
 62
7
100
AcDbPolyline
 90
2
 70
0
 10
174.881692
 20
665.084585
 30
0.0
 10
179.023303
 20
665.084585
 30
0.0
  0
LWPOLYLINE
  5
1f2
100
AcDbEntity
  8
box_20140827_153616_847966
 62
7
100
AcDbPolyline
 90
2
 70
0
 10
132.026247
 20
440.086447
 30
0.0
 10
132.026247
 20
447.844030
 30
0.0
  0
LWPOLYLINE
  5
1f3
100
AcDbEntity
  8
box_20140827_153616_847966
 62
7
100
AcDbPolyline
 90
2
 70
0
 10
135.024858
 20
447.844030
 30
0.0
 10
132.026247
 20
447.844030
 30
0.0
  0
LWPOLYLINE
  5
1f4
100
AcDbEntity
  8
box_20140827_153616_847966
 62
7
100
AcDbPolyline
 90
4
 70
0
 10
135.024858
 20
447.844030
 30
0.0
 10
135.024858
 20
455.601613
 30
0.0
 10
132.026247
 20
455.601613
 30
0.0
 10
132.026247
 20
463.362724
 30
0.0
  0
LWPOLYLINE
  5
1f5
100
AcDbEntity
  8
box_20140827_153616_847966
 62
7
100
AcDbPolyline
 90
2
 70
0
 10
135.024858
 20
463.362724
 30
0.0
 10
132.026247
 20
463.362724
 30
0.0
  0
LWPOLYLINE
  5
1f6
100
AcDbEntity
  8
box_20140827_153616_847966
 62
7
100
AcDbPolyline
 90
4
 70
0
 10
135.024858
 20
463.362724
 30
0.0
 10
135.024858
 20
471.120308
 30
0.0
 10
132.026247
 20
471.120308
 30
0.0
 10
132.026247
 20
478.877891
 30
0.0
  0
LWPOLYLINE
  5
1f7
100
AcDbEntity
  8
box_20140827_153616_847966
 62
7
100
AcDbPolyline
 90
2
 70
0
 10
135.024858
 20
478.877891
 30
0.0
 10
132.026247
 20
478.877891
 30
0.0
  0
LWPOLYLINE
  5
1f8
100
AcDbEntity
  8
box_20140827_153616_847966
 62
7
100
AcDbPolyline
 90
4
 70
0
 10
135.024858
 20
478.877891
 30
0.0
 10
135.024858
 20
486.639002
 30
0.0
 10
132.026247
 20
486.639002
 30
0.0
 10
132.026247
 20
494.396585
 30
0.0
  0
LWPOLYLINE
  5
1f9
100
AcDbEntity
  8
box_20140827_153616_847966
 62
7
100
AcDbPolyline
 90
2
 70
0
 10
135.024858
 20
494.396585
 30
0.0
 10
132.026247
 20
494.396585
 30
0.0
  0
LWPOLYLINE
  5
1fa
100
AcDbEntity
  8
box_20140827_153616_847966
 62
7
100
AcDbPolyline
 90
4
 70
0
 10
135.024858
 20
494.396585
 30
0.0
 10
135.024858
 20
502.154169
 30
0.0
 10
132.026247
 20
502.154169
 30
0.0
 10
132.026247
 20
509.911752
 30
0.0
  0
LWPOLYLINE
  5
1fb
100
AcDbEntity
  8
box_20140827_153616_847966
 62
7
100
AcDbPolyline
 90
2
 70
0
 10
135.024858
 20
509.911752
 30
0.0
 10
132.026247
 20
509.911752
 30
0.0
  0
LWPOLYLINE
  5
1fc
100
AcDbEntity
  8
box_20140827_153616_847966
 62
7
100
AcDbPolyline
 90
4
 70
0
 10
135.024858
 20
509.911752
 30
0.0
 10
135.024858
 20
517.672863
 30
0.0
 10
132.026247
 20
517.672863
 30
0.0
 10
132.026247
 20
525.430447
 30
0.0
  0
LWPOLYLINE
  5
1fd
100
AcDbEntity
  8
box_20140827_153616_847966
 62
7
100
AcDbPolyline
 90
2
 70
0
 10
135.024858
 20
525.430447
 30
0.0
 10
132.026247
 20
525.430447
 30
0.0
  0
LWPOLYLINE
  5
1fe
100
AcDbEntity
  8
box_20140827_153616_847966
 62
7
100
AcDbPolyline
 90
4
 70
0
 10
135.024858
 20
525.430447
 30
0.0
 10
135.024858
 20
533.188030
 30
0.0
 10
132.026247
 20
533.188030
 30
0.0
 10
132.026247
 20
540.949141
 30
0.0
  0
LWPOLYLINE
  5
1ff
100
AcDbEntity
  8
box_20140827_153616_847966
 62
7
100
AcDbPolyline
 90
2
 70
0
 10
135.024858
 20
540.949141
 30
0.0
 10
132.026247
 20
540.949141
 30
0.0
  0
LWPOLYLINE
  5
200
100
AcDbEntity
  8
box_20140827_153616_847966
 62
7
100
AcDbPolyline
 90
4
 70
0
 10
135.024858
 20
540.949141
 30
0.0
 10
135.024858
 20
548.706724
 30
0.0
 10
132.026247
 20
548.706724
 30
0.0
 10
132.026247
 20
556.464308
 30
0.0
  0
LWPOLYLINE
  5
201
100
AcDbEntity
  8
box_20140827_153616_847966
 62
7
100
AcDbPolyline
 90
2
 70
0
 10
135.024858
 20
556.464308
 30
0.0
 10
132.026247
 20
556.464308
 30
0.0
  0
LWPOLYLINE
  5
202
100
AcDbEntity
  8
box_20140827_153616_847966
 62
7
100
AcDbPolyline
 90
4
 70
0
 10
135.024858
 20
556.464308
 30
0.0
 10
135.024858
 20
564.221891
 30
0.0
 10
132.026247
 20
564.221891
 30
0.0
 10
132.026247
 20
571.983002
 30
0.0
  0
LWPOLYLINE
  5
203
100
AcDbEntity
  8
box_20140827_153616_847966
 62
7
100
AcDbPolyline
 90
2
 70
0
 10
135.024858
 20
571.983002
 30
0.0
 10
132.026247
 20
571.983002
 30
0.0
  0
LWPOLYLINE
  5
204
100
AcDbEntity
  8
box_20140827_153616_847966
 62
7
100
AcDbPolyline
 90
4
 70
0
 10
135.024858
 20
571.983002
 30
0.0
 10
135.024858
 20
579.740585
 30
0.0
 10
132.026247
 20
579.740585
 30
0.0
 10
132.026247
 20
587.498169
 30
0.0
  0
LWPOLYLINE
  5
205
100
AcDbEntity
  8
box_20140827_153616_847966
 62
7
100
AcDbPolyline
 90
2
 70
0
 10
135.024858
 20
587.498169
 30
0.0
 10
132.026247
 20
587.498169
 30
0.0
  0
LWPOLYLINE
  5
206
100
AcDbEntity
  8
box_20140827_153616_847966
 62
7
100
AcDbPolyline
 90
4
 70
0
 10
135.024858
 20
587.498169
 30
0.0
 10
135.024858
 20
595.259280
 30
0.0
 10
132.026247
 20
595.259280
 30
0.0
 10
132.026247
 20
603.016863
 30
0.0
  0
LWPOLYLINE
  5
207
100
AcDbEntity
  8
box_20140827_153616_847966
 62
7
100
AcDbPolyline
 90
2
 70
0
 10
135.024858
 20
603.016863
 30
0.0
 10
132.026247
 20
603.016863
 30
0.0
  0
LWPOLYLINE
  5
208
100
AcDbEntity
  8
box_20140827_153616_847966
 62
7
100
AcDbPolyline
 90
4
 70
0
 10
135.024858
 20
603.016863
 30
0.0
 10
135.024858
 20
610.774447
 30
0.0
 10
132.026247
 20
610.774447
 30
0.0
 10
132.026247
 20
618.532030
 30
0.0
  0
LWPOLYLINE
  5
209
100
AcDbEntity
  8
box_20140827_153616_847966
 62
7
100
AcDbPolyline
 90
2
 70
0
 10
135.024858
 20
618.532030
 30
0.0
 10
132.026247
 20
618.532030
 30
0.0
  0
LWPOLYLINE
  5
20a
100
AcDbEntity
  8
box_20140827_153616_847966
 62
7
100
AcDbPolyline
 90
4
 70
0
 10
135.024858
 20
618.532030
 30
0.0
 10
135.024858
 20
626.293141
 30
0.0
 10
132.026247
 20
626.293141
 30
0.0
 10
132.026247
 20
634.050724
 30
0.0
  0
LWPOLYLINE
  5
20b
100
AcDbEntity
  8
box_20140827_153616_847966
 62
7
100
AcDbPolyline
 90
2
 70
0
 10
135.024858
 20
634.050724
 30
0.0
 10
132.026247
 20
634.050724
 30
0.0
  0
LWPOLYLINE
  5
20c
100
AcDbEntity
  8
box_20140827_153616_847966
 62
7
100
AcDbPolyline
 90
4
 70
0
 10
135.024858
 20
634.050724
 30
0.0
 10
135.024858
 20
641.808308
 30
0.0
 10
132.026247
 20
641.808308
 30
0.0
 10
132.026247
 20
649.569419
 30
0.0
  0
LWPOLYLINE
  5
20d
100
AcDbEntity
  8
box_20140827_153616_847966
 62
7
100
AcDbPolyline
 90
2
 70
0
 10
135.024858
 20
649.569419
 30
0.0
 10
132.026247
 20
649.569419
 30
0.0
  0
LWPOLYLINE
  5
20e
100
AcDbEntity
  8
box_20140827_153616_847966
 62
7
100
AcDbPolyline
 90
4
 70
0
 10
135.024858
 20
649.569419
 30
0.0
 10
135.024858
 20
657.327002
 30
0.0
 10
132.026247
 20
657.327002
 30
0.0
 10
132.026247
 20
665.084585
 30
0.0
  0
LWPOLYLINE
  5
20f
100
AcDbEntity
  8
box_20140827_153616_847966
 62
7
100
AcDbPolyline
 90
2
 70
0
 10
179.023303
 20
440.086447
 30
0.0
 10
179.023303
 20
447.844030
 30
0.0
  0
LWPOLYLINE
  5
210
100
AcDbEntity
  8
box_20140827_153616_847966
 62
7
100
AcDbPolyline
 90
2
 70
0
 10
182.025442
 20
447.844030
 30
0.0
 10
179.023303
 20
447.844030
 30
0.0
  0
LWPOLYLINE
  5
211
100
AcDbEntity
  8
box_20140827_153616_847966
 62
7
100
AcDbPolyline
 90
4
 70
0
 10
182.025442
 20
447.844030
 30
0.0
 10
182.025442
 20
455.601613
 30
0.0
 10
179.023303
 20
455.601613
 30
0.0
 10
179.023303
 20
463.362724
 30
0.0
  0
LWPOLYLINE
  5
212
100
AcDbEntity
  8
box_20140827_153616_847966
 62
7
100
AcDbPolyline
 90
2
 70
0
 10
182.025442
 20
463.362724
 30
0.0
 10
179.023303
 20
463.362724
 30
0.0
  0
LWPOLYLINE
  5
213
100
AcDbEntity
  8
box_20140827_153616_847966
 62
7
100
AcDbPolyline
 90
4
 70
0
 10
182.025442
 20
463.362724
 30
0.0
 10
182.025442
 20
471.120308
 30
0.0
 10
179.023303
 20
471.120308
 30
0.0
 10
179.023303
 20
478.877891
 30
0.0
  0
LWPOLYLINE
  5
214
100
AcDbEntity
  8
box_20140827_153616_847966
 62
7
100
AcDbPolyline
 90
2
 70
0
 10
182.025442
 20
478.877891
 30
0.0
 10
179.023303
 20
478.877891
 30
0.0
  0
LWPOLYLINE
  5
215
100
AcDbEntity
  8
box_20140827_153616_847966
 62
7
100
AcDbPolyline
 90
4
 70
0
 10
182.025442
 20
478.877891
 30
0.0
 10
182.025442
 20
486.639002
 30
0.0
 10
179.023303
 20
486.639002
 30
0.0
 10
179.023303
 20
494.396585
 30
0.0
  0
LWPOLYLINE
  5
216
100
AcDbEntity
  8
box_20140827_153616_847966
 62
7
100
AcDbPolyline
 90
2
 70
0
 10
182.025442
 20
494.396585
 30
0.0
 10
179.023303
 20
494.396585
 30
0.0
  0
LWPOLYLINE
  5
217
100
AcDbEntity
  8
box_20140827_153616_847966
 62
7
100
AcDbPolyline
 90
4
 70
0
 10
182.025442
 20
494.396585
 30
0.0
 10
182.025442
 20
502.154169
 30
0.0
 10
179.023303
 20
502.154169
 30
0.0
 10
179.023303
 20
509.911752
 30
0.0
  0
LWPOLYLINE
  5
218
100
AcDbEntity
  8
box_20140827_153616_847966
 62
7
100
AcDbPolyline
 90
2
 70
0
 10
182.025442
 20
509.911752
 30
0.0
 10
179.023303
 20
509.911752
 30
0.0
  0
LWPOLYLINE
  5
219
100
AcDbEntity
  8
box_20140827_153616_847966
 62
7
100
AcDbPolyline
 90
4
 70
0
 10
182.025442
 20
509.911752
 30
0.0
 10
182.025442
 20
517.672863
 30
0.0
 10
179.023303
 20
517.672863
 30
0.0
 10
179.023303
 20
525.430447
 30
0.0
  0
LWPOLYLINE
  5
21a
100
AcDbEntity
  8
box_20140827_153616_847966
 62
7
100
AcDbPolyline
 90
2
 70
0
 10
182.025442
 20
525.430447
 30
0.0
 10
179.023303
 20
525.430447
 30
0.0
  0
LWPOLYLINE
  5
21b
100
AcDbEntity
  8
box_20140827_153616_847966
 62
7
100
AcDbPolyline
 90
4
 70
0
 10
182.025442
 20
525.430447
 30
0.0
 10
182.025442
 20
533.188030
 30
0.0
 10
179.023303
 20
533.188030
 30
0.0
 10
179.023303
 20
540.949141
 30
0.0
  0
LWPOLYLINE
  5
21c
100
AcDbEntity
  8
box_20140827_153616_847966
 62
7
100
AcDbPolyline
 90
2
 70
0
 10
182.025442
 20
540.949141
 30
0.0
 10
179.023303
 20
540.949141
 30
0.0
  0
LWPOLYLINE
  5
21d
100
AcDbEntity
  8
box_20140827_153616_847966
 62
7
100
AcDbPolyline
 90
4
 70
0
 10
182.025442
 20
540.949141
 30
0.0
 10
182.025442
 20
548.706724
 30
0.0
 10
179.023303
 20
548.706724
 30
0.0
 10
179.023303
 20
556.464308
 30
0.0
  0
LWPOLYLINE
  5
21e
100
AcDbEntity
  8
box_20140827_153616_847966
 62
7
100
AcDbPolyline
 90
2
 70
0
 10
182.025442
 20
556.464308
 30
0.0
 10
179.023303
 20
556.464308
 30
0.0
  0
LWPOLYLINE
  5
21f
100
AcDbEntity
  8
box_20140827_153616_847966
 62
7
100
AcDbPolyline
 90
4
 70
0
 10
182.025442
 20
556.464308
 30
0.0
 10
182.025442
 20
564.221891
 30
0.0
 10
179.023303
 20
564.221891
 30
0.0
 10
179.023303
 20
571.983002
 30
0.0
  0
LWPOLYLINE
  5
220
100
AcDbEntity
  8
box_20140827_153616_847966
 62
7
100
AcDbPolyline
 90
2
 70
0
 10
182.025442
 20
571.983002
 30
0.0
 10
179.023303
 20
571.983002
 30
0.0
  0
LWPOLYLINE
  5
221
100
AcDbEntity
  8
box_20140827_153616_847966
 62
7
100
AcDbPolyline
 90
4
 70
0
 10
182.025442
 20
571.983002
 30
0.0
 10
182.025442
 20
579.740585
 30
0.0
 10
179.023303
 20
579.740585
 30
0.0
 10
179.023303
 20
587.498169
 30
0.0
  0
LWPOLYLINE
  5
222
100
AcDbEntity
  8
box_20140827_153616_847966
 62
7
100
AcDbPolyline
 90
2
 70
0
 10
182.025442
 20
587.498169
 30
0.0
 10
179.023303
 20
587.498169
 30
0.0
  0
LWPOLYLINE
  5
223
100
AcDbEntity
  8
box_20140827_153616_847966
 62
7
100
AcDbPolyline
 90
4
 70
0
 10
182.025442
 20
587.498169
 30
0.0
 10
182.025442
 20
595.259280
 30
0.0
 10
179.023303
 20
595.259280
 30
0.0
 10
179.023303
 20
603.016863
 30
0.0
  0
LWPOLYLINE
  5
224
100
AcDbEntity
  8
box_20140827_153616_847966
 62
7
100
AcDbPolyline
 90
2
 70
0
 10
182.025442
 20
603.016863
 30
0.0
 10
179.023303
 20
603.016863
 30
0.0
  0
LWPOLYLINE
  5
225
100
AcDbEntity
  8
box_20140827_153616_847966
 62
7
100
AcDbPolyline
 90
4
 70
0
 10
182.025442
 20
603.016863
 30
0.0
 10
182.025442
 20
610.774447
 30
0.0
 10
179.023303
 20
610.774447
 30
0.0
 10
179.023303
 20
618.532030
 30
0.0
  0
LWPOLYLINE
  5
226
100
AcDbEntity
  8
box_20140827_153616_847966
 62
7
100
AcDbPolyline
 90
2
 70
0
 10
182.025442
 20
618.532030
 30
0.0
 10
179.023303
 20
618.532030
 30
0.0
  0
LWPOLYLINE
  5
227
100
AcDbEntity
  8
box_20140827_153616_847966
 62
7
100
AcDbPolyline
 90
4
 70
0
 10
182.025442
 20
618.532030
 30
0.0
 10
182.025442
 20
626.293141
 30
0.0
 10
179.023303
 20
626.293141
 30
0.0
 10
179.023303
 20
634.050724
 30
0.0
  0
LWPOLYLINE
  5
228
100
AcDbEntity
  8
box_20140827_153616_847966
 62
7
100
AcDbPolyline
 90
2
 70
0
 10
182.025442
 20
634.050724
 30
0.0
 10
179.023303
 20
634.050724
 30
0.0
  0
LWPOLYLINE
  5
229
100
AcDbEntity
  8
box_20140827_153616_847966
 62
7
100
AcDbPolyline
 90
4
 70
0
 10
182.025442
 20
634.050724
 30
0.0
 10
182.025442
 20
641.808308
 30
0.0
 10
179.023303
 20
641.808308
 30
0.0
 10
179.023303
 20
649.569419
 30
0.0
  0
LWPOLYLINE
  5
22a
100
AcDbEntity
  8
box_20140827_153616_847966
 62
7
100
AcDbPolyline
 90
2
 70
0
 10
182.025442
 20
649.569419
 30
0.0
 10
179.023303
 20
649.569419
 30
0.0
  0
LWPOLYLINE
  5
22b
100
AcDbEntity
  8
box_20140827_153616_847966
 62
7
100
AcDbPolyline
 90
4
 70
0
 10
182.025442
 20
649.569419
 30
0.0
 10
182.025442
 20
657.327002
 30
0.0
 10
179.023303
 20
657.327002
 30
0.0
 10
179.023303
 20
665.084585
 30
0.0
  0
LWPOLYLINE
  5
22c
100
AcDbEntity
  8
box_20140827_153616_847966
 62
7
100
AcDbPolyline
 90
2
 70
0
 10
414.026219
 20
482.941891
 30
0.0
 10
414.026219
 20
487.087030
 30
0.0
  0
LWPOLYLINE
  5
22d
100
AcDbEntity
  8
box_20140827_153616_847966
 62
7
100
AcDbPolyline
 90
2
 70
0
 10
417.024830
 20
482.941891
 30
0.0
 10
414.026219
 20
482.941891
 30
0.0
  0
LWPOLYLINE
  5
22e
100
AcDbEntity
  8
box_20140827_153616_847966
 62
7
100
AcDbPolyline
 90
2
 70
0
 10
417.024830
 20
475.801669
 30
0.0
 10
417.024830
 20
482.941891
 30
0.0
  0
LWPOLYLINE
  5
22f
100
AcDbEntity
  8
box_20140827_153616_847966
 62
7
100
AcDbPolyline
 90
2
 70
0
 10
417.024830
 20
475.801669
 30
0.0
 10
414.026219
 20
475.801669
 30
0.0
  0
LWPOLYLINE
  5
230
100
AcDbEntity
  8
box_20140827_153616_847966
 62
7
100
AcDbPolyline
 90
2
 70
0
 10
414.026219
 20
468.657919
 30
0.0
 10
414.026219
 20
475.801669
 30
0.0
  0
LWPOLYLINE
  5
231
100
AcDbEntity
  8
box_20140827_153616_847966
 62
7
100
AcDbPolyline
 90
2
 70
0
 10
417.024830
 20
468.657919
 30
0.0
 10
414.026219
 20
468.657919
 30
0.0
  0
LWPOLYLINE
  5
232
100
AcDbEntity
  8
box_20140827_153616_847966
 62
7
100
AcDbPolyline
 90
2
 70
0
 10
417.024830
 20
461.514169
 30
0.0
 10
417.024830
 20
468.657919
 30
0.0
  0
LWPOLYLINE
  5
233
100
AcDbEntity
  8
box_20140827_153616_847966
 62
7
100
AcDbPolyline
 90
2
 70
0
 10
417.024830
 20
461.514169
 30
0.0
 10
414.026219
 20
461.514169
 30
0.0
  0
LWPOLYLINE
  5
234
100
AcDbEntity
  8
box_20140827_153616_847966
 62
7
100
AcDbPolyline
 90
2
 70
0
 10
414.026219
 20
454.370419
 30
0.0
 10
414.026219
 20
461.514169
 30
0.0
  0
LWPOLYLINE
  5
235
100
AcDbEntity
  8
box_20140827_153616_847966
 62
7
100
AcDbPolyline
 90
2
 70
0
 10
417.024830
 20
454.370419
 30
0.0
 10
414.026219
 20
454.370419
 30
0.0
  0
LWPOLYLINE
  5
236
100
AcDbEntity
  8
box_20140827_153616_847966
 62
7
100
AcDbPolyline
 90
2
 70
0
 10
417.024830
 20
447.230197
 30
0.0
 10
417.024830
 20
454.370419
 30
0.0
  0
LWPOLYLINE
  5
237
100
AcDbEntity
  8
box_20140827_153616_847966
 62
7
100
AcDbPolyline
 90
2
 70
0
 10
417.024830
 20
447.230197
 30
0.0
 10
414.026219
 20
447.230197
 30
0.0
  0
LWPOLYLINE
  5
238
100
AcDbEntity
  8
box_20140827_153616_847966
 62
7
100
AcDbPolyline
 90
2
 70
0
 10
414.026219
 20
443.085058
 30
0.0
 10
414.026219
 20
447.230197
 30
0.0
  0
LWPOLYLINE
  5
239
100
AcDbEntity
  8
box_20140827_153616_847966
 62
7
100
AcDbPolyline
 90
2
 70
0
 10
195.025303
 20
482.941891
 30
0.0
 10
195.025303
 20
487.087030
 30
0.0
  0
LWPOLYLINE
  5
23a
100
AcDbEntity
  8
box_20140827_153616_847966
 62
7
100
AcDbPolyline
 90
2
 70
0
 10
195.025303
 20
482.941891
 30
0.0
 10
192.026692
 20
482.941891
 30
0.0
  0
LWPOLYLINE
  5
23b
100
AcDbEntity
  8
box_20140827_153616_847966
 62
7
100
AcDbPolyline
 90
2
 70
0
 10
192.026692
 20
475.801669
 30
0.0
 10
192.026692
 20
482.941891
 30
0.0
  0
LWPOLYLINE
  5
23c
100
AcDbEntity
  8
box_20140827_153616_847966
 62
7
100
AcDbPolyline
 90
2
 70
0
 10
195.025303
 20
475.801669
 30
0.0
 10
192.026692
 20
475.801669
 30
0.0
  0
LWPOLYLINE
  5
23d
100
AcDbEntity
  8
box_20140827_153616_847966
 62
7
100
AcDbPolyline
 90
2
 70
0
 10
195.025303
 20
468.657919
 30
0.0
 10
195.025303
 20
475.801669
 30
0.0
  0
LWPOLYLINE
  5
23e
100
AcDbEntity
  8
box_20140827_153616_847966
 62
7
100
AcDbPolyline
 90
2
 70
0
 10
195.025303
 20
468.657919
 30
0.0
 10
192.026692
 20
468.657919
 30
0.0
  0
LWPOLYLINE
  5
23f
100
AcDbEntity
  8
box_20140827_153616_847966
 62
7
100
AcDbPolyline
 90
2
 70
0
 10
192.026692
 20
461.514169
 30
0.0
 10
192.026692
 20
468.657919
 30
0.0
  0
LWPOLYLINE
  5
240
100
AcDbEntity
  8
box_20140827_153616_847966
 62
7
100
AcDbPolyline
 90
2
 70
0
 10
195.025303
 20
461.514169
 30
0.0
 10
192.026692
 20
461.514169
 30
0.0
  0
LWPOLYLINE
  5
241
100
AcDbEntity
  8
box_20140827_153616_847966
 62
7
100
AcDbPolyline
 90
2
 70
0
 10
195.025303
 20
454.370419
 30
0.0
 10
195.025303
 20
461.514169
 30
0.0
  0
LWPOLYLINE
  5
242
100
AcDbEntity
  8
box_20140827_153616_847966
 62
7
100
AcDbPolyline
 90
2
 70
0
 10
195.025303
 20
454.370419
 30
0.0
 10
192.026692
 20
454.370419
 30
0.0
  0
LWPOLYLINE
  5
243
100
AcDbEntity
  8
box_20140827_153616_847966
 62
7
100
AcDbPolyline
 90
2
 70
0
 10
192.026692
 20
447.230197
 30
0.0
 10
192.026692
 20
454.370419
 30
0.0
  0
LWPOLYLINE
  5
244
100
AcDbEntity
  8
box_20140827_153616_847966
 62
7
100
AcDbPolyline
 90
2
 70
0
 10
195.025303
 20
447.230197
 30
0.0
 10
192.026692
 20
447.230197
 30
0.0
  0
LWPOLYLINE
  5
245
100
AcDbEntity
  8
box_20140827_153616_847966
 62
7
100
AcDbPolyline
 90
2
 70
0
 10
195.025303
 20
443.085058
 30
0.0
 10
195.025303
 20
447.230197
 30
0.0
  0
LWPOLYLINE
  5
246
100
AcDbEntity
  8
box_20140827_153616_847966
 62
7
100
AcDbPolyline
 90
2
 70
0
 10
409.267247
 20
487.087030
 30
0.0
 10
414.026219
 20
487.087030
 30
0.0
  0
LWPOLYLINE
  5
247
100
AcDbEntity
  8
box_20140827_153616_847966
 62
7
100
AcDbPolyline
 90
2
 70
0
 10
409.267247
 20
490.085641
 30
0.0
 10
409.267247
 20
487.087030
 30
0.0
  0
LWPOLYLINE
  5
248
100
AcDbEntity
  8
box_20140827_153616_847966
 62
7
100
AcDbPolyline
 90
2
 70
0
 10
401.506136
 20
490.085641
 30
0.0
 10
409.267247
 20
490.085641
 30
0.0
  0
LWPOLYLINE
  5
249
100
AcDbEntity
  8
box_20140827_153616_847966
 62
7
100
AcDbPolyline
 90
2
 70
0
 10
401.506136
 20
490.085641
 30
0.0
 10
401.506136
 20
487.087030
 30
0.0
  0
LWPOLYLINE
  5
24a
100
AcDbEntity
  8
box_20140827_153616_847966
 62
7
100
AcDbPolyline
 90
2
 70
0
 10
393.748553
 20
487.087030
 30
0.0
 10
401.506136
 20
487.087030
 30
0.0
  0
LWPOLYLINE
  5
24b
100
AcDbEntity
  8
box_20140827_153616_847966
 62
7
100
AcDbPolyline
 90
2
 70
0
 10
393.748553
 20
490.085641
 30
0.0
 10
393.748553
 20
487.087030
 30
0.0
  0
LWPOLYLINE
  5
24c
100
AcDbEntity
  8
box_20140827_153616_847966
 62
7
100
AcDbPolyline
 90
2
 70
0
 10
385.990969
 20
490.085641
 30
0.0
 10
393.748553
 20
490.085641
 30
0.0
  0
LWPOLYLINE
  5
24d
100
AcDbEntity
  8
box_20140827_153616_847966
 62
7
100
AcDbPolyline
 90
2
 70
0
 10
385.990969
 20
490.085641
 30
0.0
 10
385.990969
 20
487.087030
 30
0.0
  0
LWPOLYLINE
  5
24e
100
AcDbEntity
  8
box_20140827_153616_847966
 62
7
100
AcDbPolyline
 90
2
 70
0
 10
378.233386
 20
487.087030
 30
0.0
 10
385.990969
 20
487.087030
 30
0.0
  0
LWPOLYLINE
  5
24f
100
AcDbEntity
  8
box_20140827_153616_847966
 62
7
100
AcDbPolyline
 90
2
 70
0
 10
378.233386
 20
490.085641
 30
0.0
 10
378.233386
 20
487.087030
 30
0.0
  0
LWPOLYLINE
  5
250
100
AcDbEntity
  8
box_20140827_153616_847966
 62
7
100
AcDbPolyline
 90
2
 70
0
 10
370.472275
 20
490.085641
 30
0.0
 10
378.233386
 20
490.085641
 30
0.0
  0
LWPOLYLINE
  5
251
100
AcDbEntity
  8
box_20140827_153616_847966
 62
7
100
AcDbPolyline
 90
2
 70
0
 10
370.472275
 20
490.085641
 30
0.0
 10
370.472275
 20
487.087030
 30
0.0
  0
LWPOLYLINE
  5
252
100
AcDbEntity
  8
box_20140827_153616_847966
 62
7
100
AcDbPolyline
 90
2
 70
0
 10
362.714692
 20
487.087030
 30
0.0
 10
370.472275
 20
487.087030
 30
0.0
  0
LWPOLYLINE
  5
253
100
AcDbEntity
  8
box_20140827_153616_847966
 62
7
100
AcDbPolyline
 90
2
 70
0
 10
362.714692
 20
490.085641
 30
0.0
 10
362.714692
 20
487.087030
 30
0.0
  0
LWPOLYLINE
  5
254
100
AcDbEntity
  8
box_20140827_153616_847966
 62
7
100
AcDbPolyline
 90
2
 70
0
 10
354.957108
 20
490.085641
 30
0.0
 10
362.714692
 20
490.085641
 30
0.0
  0
LWPOLYLINE
  5
255
100
AcDbEntity
  8
box_20140827_153616_847966
 62
7
100
AcDbPolyline
 90
2
 70
0
 10
354.957108
 20
490.085641
 30
0.0
 10
354.957108
 20
487.087030
 30
0.0
  0
LWPOLYLINE
  5
256
100
AcDbEntity
  8
box_20140827_153616_847966
 62
7
100
AcDbPolyline
 90
2
 70
0
 10
347.195997
 20
487.087030
 30
0.0
 10
354.957108
 20
487.087030
 30
0.0
  0
LWPOLYLINE
  5
257
100
AcDbEntity
  8
box_20140827_153616_847966
 62
7
100
AcDbPolyline
 90
2
 70
0
 10
347.195997
 20
490.085641
 30
0.0
 10
347.195997
 20
487.087030
 30
0.0
  0
LWPOLYLINE
  5
258
100
AcDbEntity
  8
box_20140827_153616_847966
 62
7
100
AcDbPolyline
 90
2
 70
0
 10
339.438414
 20
490.085641
 30
0.0
 10
347.195997
 20
490.085641
 30
0.0
  0
LWPOLYLINE
  5
259
100
AcDbEntity
  8
box_20140827_153616_847966
 62
7
100
AcDbPolyline
 90
2
 70
0
 10
339.438414
 20
490.085641
 30
0.0
 10
339.438414
 20
487.087030
 30
0.0
  0
LWPOLYLINE
  5
25a
100
AcDbEntity
  8
box_20140827_153616_847966
 62
7
100
AcDbPolyline
 90
2
 70
0
 10
331.680830
 20
487.087030
 30
0.0
 10
339.438414
 20
487.087030
 30
0.0
  0
LWPOLYLINE
  5
25b
100
AcDbEntity
  8
box_20140827_153616_847966
 62
7
100
AcDbPolyline
 90
2
 70
0
 10
331.680830
 20
490.085641
 30
0.0
 10
331.680830
 20
487.087030
 30
0.0
  0
LWPOLYLINE
  5
25c
100
AcDbEntity
  8
box_20140827_153616_847966
 62
7
100
AcDbPolyline
 90
2
 70
0
 10
323.923247
 20
490.085641
 30
0.0
 10
331.680830
 20
490.085641
 30
0.0
  0
LWPOLYLINE
  5
25d
100
AcDbEntity
  8
box_20140827_153616_847966
 62
7
100
AcDbPolyline
 90
2
 70
0
 10
323.923247
 20
490.085641
 30
0.0
 10
323.923247
 20
487.087030
 30
0.0
  0
LWPOLYLINE
  5
25e
100
AcDbEntity
  8
box_20140827_153616_847966
 62
7
100
AcDbPolyline
 90
2
 70
0
 10
316.162136
 20
487.087030
 30
0.0
 10
323.923247
 20
487.087030
 30
0.0
  0
LWPOLYLINE
  5
25f
100
AcDbEntity
  8
box_20140827_153616_847966
 62
7
100
AcDbPolyline
 90
2
 70
0
 10
316.162136
 20
490.085641
 30
0.0
 10
316.162136
 20
487.087030
 30
0.0
  0
LWPOLYLINE
  5
260
100
AcDbEntity
  8
box_20140827_153616_847966
 62
7
100
AcDbPolyline
 90
2
 70
0
 10
308.404553
 20
490.085641
 30
0.0
 10
316.162136
 20
490.085641
 30
0.0
  0
LWPOLYLINE
  5
261
100
AcDbEntity
  8
box_20140827_153616_847966
 62
7
100
AcDbPolyline
 90
2
 70
0
 10
308.404553
 20
490.085641
 30
0.0
 10
308.404553
 20
487.087030
 30
0.0
  0
LWPOLYLINE
  5
262
100
AcDbEntity
  8
box_20140827_153616_847966
 62
7
100
AcDbPolyline
 90
2
 70
0
 10
300.646969
 20
487.087030
 30
0.0
 10
308.404553
 20
487.087030
 30
0.0
  0
LWPOLYLINE
  5
263
100
AcDbEntity
  8
box_20140827_153616_847966
 62
7
100
AcDbPolyline
 90
2
 70
0
 10
300.646969
 20
490.085641
 30
0.0
 10
300.646969
 20
487.087030
 30
0.0
  0
LWPOLYLINE
  5
264
100
AcDbEntity
  8
box_20140827_153616_847966
 62
7
100
AcDbPolyline
 90
2
 70
0
 10
292.885858
 20
490.085641
 30
0.0
 10
300.646969
 20
490.085641
 30
0.0
  0
LWPOLYLINE
  5
265
100
AcDbEntity
  8
box_20140827_153616_847966
 62
7
100
AcDbPolyline
 90
2
 70
0
 10
292.885858
 20
490.085641
 30
0.0
 10
292.885858
 20
487.087030
 30
0.0
  0
LWPOLYLINE
  5
266
100
AcDbEntity
  8
box_20140827_153616_847966
 62
7
100
AcDbPolyline
 90
2
 70
0
 10
285.128275
 20
487.087030
 30
0.0
 10
292.885858
 20
487.087030
 30
0.0
  0
LWPOLYLINE
  5
267
100
AcDbEntity
  8
box_20140827_153616_847966
 62
7
100
AcDbPolyline
 90
2
 70
0
 10
285.128275
 20
490.085641
 30
0.0
 10
285.128275
 20
487.087030
 30
0.0
  0
LWPOLYLINE
  5
268
100
AcDbEntity
  8
box_20140827_153616_847966
 62
7
100
AcDbPolyline
 90
2
 70
0
 10
277.370692
 20
490.085641
 30
0.0
 10
285.128275
 20
490.085641
 30
0.0
  0
LWPOLYLINE
  5
269
100
AcDbEntity
  8
box_20140827_153616_847966
 62
7
100
AcDbPolyline
 90
2
 70
0
 10
277.370692
 20
490.085641
 30
0.0
 10
277.370692
 20
487.087030
 30
0.0
  0
LWPOLYLINE
  5
26a
100
AcDbEntity
  8
box_20140827_153616_847966
 62
7
100
AcDbPolyline
 90
2
 70
0
 10
269.609580
 20
487.087030
 30
0.0
 10
277.370692
 20
487.087030
 30
0.0
  0
LWPOLYLINE
  5
26b
100
AcDbEntity
  8
box_20140827_153616_847966
 62
7
100
AcDbPolyline
 90
2
 70
0
 10
269.609580
 20
490.085641
 30
0.0
 10
269.609580
 20
487.087030
 30
0.0
  0
LWPOLYLINE
  5
26c
100
AcDbEntity
  8
box_20140827_153616_847966
 62
7
100
AcDbPolyline
 90
2
 70
0
 10
261.851997
 20
490.085641
 30
0.0
 10
269.609580
 20
490.085641
 30
0.0
  0
LWPOLYLINE
  5
26d
100
AcDbEntity
  8
box_20140827_153616_847966
 62
7
100
AcDbPolyline
 90
2
 70
0
 10
261.851997
 20
490.085641
 30
0.0
 10
261.851997
 20
487.087030
 30
0.0
  0
LWPOLYLINE
  5
26e
100
AcDbEntity
  8
box_20140827_153616_847966
 62
7
100
AcDbPolyline
 90
2
 70
0
 10
254.094414
 20
487.087030
 30
0.0
 10
261.851997
 20
487.087030
 30
0.0
  0
LWPOLYLINE
  5
26f
100
AcDbEntity
  8
box_20140827_153616_847966
 62
7
100
AcDbPolyline
 90
2
 70
0
 10
254.094414
 20
490.085641
 30
0.0
 10
254.094414
 20
487.087030
 30
0.0
  0
LWPOLYLINE
  5
270
100
AcDbEntity
  8
box_20140827_153616_847966
 62
7
100
AcDbPolyline
 90
2
 70
0
 10
246.336830
 20
490.085641
 30
0.0
 10
254.094414
 20
490.085641
 30
0.0
  0
LWPOLYLINE
  5
271
100
AcDbEntity
  8
box_20140827_153616_847966
 62
7
100
AcDbPolyline
 90
2
 70
0
 10
246.336830
 20
490.085641
 30
0.0
 10
246.336830
 20
487.087030
 30
0.0
  0
LWPOLYLINE
  5
272
100
AcDbEntity
  8
box_20140827_153616_847966
 62
7
100
AcDbPolyline
 90
2
 70
0
 10
238.575719
 20
487.087030
 30
0.0
 10
246.336830
 20
487.087030
 30
0.0
  0
LWPOLYLINE
  5
273
100
AcDbEntity
  8
box_20140827_153616_847966
 62
7
100
AcDbPolyline
 90
2
 70
0
 10
238.575719
 20
490.085641
 30
0.0
 10
238.575719
 20
487.087030
 30
0.0
  0
LWPOLYLINE
  5
274
100
AcDbEntity
  8
box_20140827_153616_847966
 62
7
100
AcDbPolyline
 90
2
 70
0
 10
230.818136
 20
490.085641
 30
0.0
 10
238.575719
 20
490.085641
 30
0.0
  0
LWPOLYLINE
  5
275
100
AcDbEntity
  8
box_20140827_153616_847966
 62
7
100
AcDbPolyline
 90
2
 70
0
 10
230.818136
 20
490.085641
 30
0.0
 10
230.818136
 20
487.087030
 30
0.0
  0
LWPOLYLINE
  5
276
100
AcDbEntity
  8
box_20140827_153616_847966
 62
7
100
AcDbPolyline
 90
2
 70
0
 10
223.060553
 20
487.087030
 30
0.0
 10
230.818136
 20
487.087030
 30
0.0
  0
LWPOLYLINE
  5
277
100
AcDbEntity
  8
box_20140827_153616_847966
 62
7
100
AcDbPolyline
 90
2
 70
0
 10
223.060553
 20
490.085641
 30
0.0
 10
223.060553
 20
487.087030
 30
0.0
  0
LWPOLYLINE
  5
278
100
AcDbEntity
  8
box_20140827_153616_847966
 62
7
100
AcDbPolyline
 90
2
 70
0
 10
215.299442
 20
490.085641
 30
0.0
 10
223.060553
 20
490.085641
 30
0.0
  0
LWPOLYLINE
  5
279
100
AcDbEntity
  8
box_20140827_153616_847966
 62
7
100
AcDbPolyline
 90
2
 70
0
 10
215.299442
 20
490.085641
 30
0.0
 10
215.299442
 20
487.087030
 30
0.0
  0
LWPOLYLINE
  5
27a
100
AcDbEntity
  8
box_20140827_153616_847966
 62
7
100
AcDbPolyline
 90
2
 70
0
 10
207.541858
 20
487.087030
 30
0.0
 10
215.299442
 20
487.087030
 30
0.0
  0
LWPOLYLINE
  5
27b
100
AcDbEntity
  8
box_20140827_153616_847966
 62
7
100
AcDbPolyline
 90
2
 70
0
 10
207.541858
 20
490.085641
 30
0.0
 10
207.541858
 20
487.087030
 30
0.0
  0
LWPOLYLINE
  5
27c
100
AcDbEntity
  8
box_20140827_153616_847966
 62
7
100
AcDbPolyline
 90
2
 70
0
 10
199.784275
 20
490.085641
 30
0.0
 10
207.541858
 20
490.085641
 30
0.0
  0
LWPOLYLINE
  5
27d
100
AcDbEntity
  8
box_20140827_153616_847966
 62
7
100
AcDbPolyline
 90
2
 70
0
 10
199.784275
 20
490.085641
 30
0.0
 10
199.784275
 20
487.087030
 30
0.0
  0
LWPOLYLINE
  5
27e
100
AcDbEntity
  8
box_20140827_153616_847966
 62
7
100
AcDbPolyline
 90
2
 70
0
 10
195.025303
 20
487.087030
 30
0.0
 10
199.784275
 20
487.087030
 30
0.0
  0
LWPOLYLINE
  5
27f
100
AcDbEntity
  8
box_20140827_153616_847966
 62
7
100
AcDbPolyline
 90
2
 70
0
 10
409.267247
 20
443.085058
 30
0.0
 10
414.026219
 20
443.085058
 30
0.0
  0
LWPOLYLINE
  5
280
100
AcDbEntity
  8
box_20140827_153616_847966
 62
7
100
AcDbPolyline
 90
2
 70
0
 10
409.267247
 20
443.085058
 30
0.0
 10
409.267247
 20
440.086447
 30
0.0
  0
LWPOLYLINE
  5
281
100
AcDbEntity
  8
box_20140827_153616_847966
 62
7
100
AcDbPolyline
 90
2
 70
0
 10
401.506136
 20
440.086447
 30
0.0
 10
409.267247
 20
440.086447
 30
0.0
  0
LWPOLYLINE
  5
282
100
AcDbEntity
  8
box_20140827_153616_847966
 62
7
100
AcDbPolyline
 90
2
 70
0
 10
401.506136
 20
443.085058
 30
0.0
 10
401.506136
 20
440.086447
 30
0.0
  0
LWPOLYLINE
  5
283
100
AcDbEntity
  8
box_20140827_153616_847966
 62
7
100
AcDbPolyline
 90
2
 70
0
 10
393.748553
 20
443.085058
 30
0.0
 10
401.506136
 20
443.085058
 30
0.0
  0
LWPOLYLINE
  5
284
100
AcDbEntity
  8
box_20140827_153616_847966
 62
7
100
AcDbPolyline
 90
2
 70
0
 10
393.748553
 20
443.085058
 30
0.0
 10
393.748553
 20
440.086447
 30
0.0
  0
LWPOLYLINE
  5
285
100
AcDbEntity
  8
box_20140827_153616_847966
 62
7
100
AcDbPolyline
 90
2
 70
0
 10
385.990969
 20
440.086447
 30
0.0
 10
393.748553
 20
440.086447
 30
0.0
  0
LWPOLYLINE
  5
286
100
AcDbEntity
  8
box_20140827_153616_847966
 62
7
100
AcDbPolyline
 90
2
 70
0
 10
385.990969
 20
443.085058
 30
0.0
 10
385.990969
 20
440.086447
 30
0.0
  0
LWPOLYLINE
  5
287
100
AcDbEntity
  8
box_20140827_153616_847966
 62
7
100
AcDbPolyline
 90
2
 70
0
 10
378.233386
 20
443.085058
 30
0.0
 10
385.990969
 20
443.085058
 30
0.0
  0
LWPOLYLINE
  5
288
100
AcDbEntity
  8
box_20140827_153616_847966
 62
7
100
AcDbPolyline
 90
2
 70
0
 10
378.233386
 20
443.085058
 30
0.0
 10
378.233386
 20
440.086447
 30
0.0
  0
LWPOLYLINE
  5
289
100
AcDbEntity
  8
box_20140827_153616_847966
 62
7
100
AcDbPolyline
 90
2
 70
0
 10
370.472275
 20
440.086447
 30
0.0
 10
378.233386
 20
440.086447
 30
0.0
  0
LWPOLYLINE
  5
28a
100
AcDbEntity
  8
box_20140827_153616_847966
 62
7
100
AcDbPolyline
 90
2
 70
0
 10
370.472275
 20
443.085058
 30
0.0
 10
370.472275
 20
440.086447
 30
0.0
  0
LWPOLYLINE
  5
28b
100
AcDbEntity
  8
box_20140827_153616_847966
 62
7
100
AcDbPolyline
 90
2
 70
0
 10
362.714692
 20
443.085058
 30
0.0
 10
370.472275
 20
443.085058
 30
0.0
  0
LWPOLYLINE
  5
28c
100
AcDbEntity
  8
box_20140827_153616_847966
 62
7
100
AcDbPolyline
 90
2
 70
0
 10
362.714692
 20
443.085058
 30
0.0
 10
362.714692
 20
440.086447
 30
0.0
  0
LWPOLYLINE
  5
28d
100
AcDbEntity
  8
box_20140827_153616_847966
 62
7
100
AcDbPolyline
 90
2
 70
0
 10
354.957108
 20
440.086447
 30
0.0
 10
362.714692
 20
440.086447
 30
0.0
  0
LWPOLYLINE
  5
28e
100
AcDbEntity
  8
box_20140827_153616_847966
 62
7
100
AcDbPolyline
 90
2
 70
0
 10
354.957108
 20
443.085058
 30
0.0
 10
354.957108
 20
440.086447
 30
0.0
  0
LWPOLYLINE
  5
28f
100
AcDbEntity
  8
box_20140827_153616_847966
 62
7
100
AcDbPolyline
 90
2
 70
0
 10
347.195997
 20
443.085058
 30
0.0
 10
354.957108
 20
443.085058
 30
0.0
  0
LWPOLYLINE
  5
290
100
AcDbEntity
  8
box_20140827_153616_847966
 62
7
100
AcDbPolyline
 90
2
 70
0
 10
347.195997
 20
443.085058
 30
0.0
 10
347.195997
 20
440.086447
 30
0.0
  0
LWPOLYLINE
  5
291
100
AcDbEntity
  8
box_20140827_153616_847966
 62
7
100
AcDbPolyline
 90
2
 70
0
 10
339.438414
 20
440.086447
 30
0.0
 10
347.195997
 20
440.086447
 30
0.0
  0
LWPOLYLINE
  5
292
100
AcDbEntity
  8
box_20140827_153616_847966
 62
7
100
AcDbPolyline
 90
2
 70
0
 10
339.438414
 20
443.085058
 30
0.0
 10
339.438414
 20
440.086447
 30
0.0
  0
LWPOLYLINE
  5
293
100
AcDbEntity
  8
box_20140827_153616_847966
 62
7
100
AcDbPolyline
 90
2
 70
0
 10
331.680830
 20
443.085058
 30
0.0
 10
339.438414
 20
443.085058
 30
0.0
  0
LWPOLYLINE
  5
294
100
AcDbEntity
  8
box_20140827_153616_847966
 62
7
100
AcDbPolyline
 90
2
 70
0
 10
331.680830
 20
443.085058
 30
0.0
 10
331.680830
 20
440.086447
 30
0.0
  0
LWPOLYLINE
  5
295
100
AcDbEntity
  8
box_20140827_153616_847966
 62
7
100
AcDbPolyline
 90
2
 70
0
 10
323.923247
 20
440.086447
 30
0.0
 10
331.680830
 20
440.086447
 30
0.0
  0
LWPOLYLINE
  5
296
100
AcDbEntity
  8
box_20140827_153616_847966
 62
7
100
AcDbPolyline
 90
2
 70
0
 10
323.923247
 20
443.085058
 30
0.0
 10
323.923247
 20
440.086447
 30
0.0
  0
LWPOLYLINE
  5
297
100
AcDbEntity
  8
box_20140827_153616_847966
 62
7
100
AcDbPolyline
 90
2
 70
0
 10
316.162136
 20
443.085058
 30
0.0
 10
323.923247
 20
443.085058
 30
0.0
  0
LWPOLYLINE
  5
298
100
AcDbEntity
  8
box_20140827_153616_847966
 62
7
100
AcDbPolyline
 90
2
 70
0
 10
316.162136
 20
443.085058
 30
0.0
 10
316.162136
 20
440.086447
 30
0.0
  0
LWPOLYLINE
  5
299
100
AcDbEntity
  8
box_20140827_153616_847966
 62
7
100
AcDbPolyline
 90
2
 70
0
 10
308.404553
 20
440.086447
 30
0.0
 10
316.162136
 20
440.086447
 30
0.0
  0
LWPOLYLINE
  5
29a
100
AcDbEntity
  8
box_20140827_153616_847966
 62
7
100
AcDbPolyline
 90
2
 70
0
 10
308.404553
 20
443.085058
 30
0.0
 10
308.404553
 20
440.086447
 30
0.0
  0
LWPOLYLINE
  5
29b
100
AcDbEntity
  8
box_20140827_153616_847966
 62
7
100
AcDbPolyline
 90
2
 70
0
 10
300.646969
 20
443.085058
 30
0.0
 10
308.404553
 20
443.085058
 30
0.0
  0
LWPOLYLINE
  5
29c
100
AcDbEntity
  8
box_20140827_153616_847966
 62
7
100
AcDbPolyline
 90
2
 70
0
 10
300.646969
 20
443.085058
 30
0.0
 10
300.646969
 20
440.086447
 30
0.0
  0
LWPOLYLINE
  5
29d
100
AcDbEntity
  8
box_20140827_153616_847966
 62
7
100
AcDbPolyline
 90
2
 70
0
 10
292.885858
 20
440.086447
 30
0.0
 10
300.646969
 20
440.086447
 30
0.0
  0
LWPOLYLINE
  5
29e
100
AcDbEntity
  8
box_20140827_153616_847966
 62
7
100
AcDbPolyline
 90
2
 70
0
 10
292.885858
 20
443.085058
 30
0.0
 10
292.885858
 20
440.086447
 30
0.0
  0
LWPOLYLINE
  5
29f
100
AcDbEntity
  8
box_20140827_153616_847966
 62
7
100
AcDbPolyline
 90
2
 70
0
 10
285.128275
 20
443.085058
 30
0.0
 10
292.885858
 20
443.085058
 30
0.0
  0
LWPOLYLINE
  5
2a0
100
AcDbEntity
  8
box_20140827_153616_847966
 62
7
100
AcDbPolyline
 90
2
 70
0
 10
285.128275
 20
443.085058
 30
0.0
 10
285.128275
 20
440.086447
 30
0.0
  0
LWPOLYLINE
  5
2a1
100
AcDbEntity
  8
box_20140827_153616_847966
 62
7
100
AcDbPolyline
 90
2
 70
0
 10
277.370692
 20
440.086447
 30
0.0
 10
285.128275
 20
440.086447
 30
0.0
  0
LWPOLYLINE
  5
2a2
100
AcDbEntity
  8
box_20140827_153616_847966
 62
7
100
AcDbPolyline
 90
2
 70
0
 10
277.370692
 20
443.085058
 30
0.0
 10
277.370692
 20
440.086447
 30
0.0
  0
LWPOLYLINE
  5
2a3
100
AcDbEntity
  8
box_20140827_153616_847966
 62
7
100
AcDbPolyline
 90
2
 70
0
 10
269.609580
 20
443.085058
 30
0.0
 10
277.370692
 20
443.085058
 30
0.0
  0
LWPOLYLINE
  5
2a4
100
AcDbEntity
  8
box_20140827_153616_847966
 62
7
100
AcDbPolyline
 90
2
 70
0
 10
269.609580
 20
443.085058
 30
0.0
 10
269.609580
 20
440.086447
 30
0.0
  0
LWPOLYLINE
  5
2a5
100
AcDbEntity
  8
box_20140827_153616_847966
 62
7
100
AcDbPolyline
 90
2
 70
0
 10
261.851997
 20
440.086447
 30
0.0
 10
269.609580
 20
440.086447
 30
0.0
  0
LWPOLYLINE
  5
2a6
100
AcDbEntity
  8
box_20140827_153616_847966
 62
7
100
AcDbPolyline
 90
2
 70
0
 10
261.851997
 20
443.085058
 30
0.0
 10
261.851997
 20
440.086447
 30
0.0
  0
LWPOLYLINE
  5
2a7
100
AcDbEntity
  8
box_20140827_153616_847966
 62
7
100
AcDbPolyline
 90
2
 70
0
 10
254.094414
 20
443.085058
 30
0.0
 10
261.851997
 20
443.085058
 30
0.0
  0
LWPOLYLINE
  5
2a8
100
AcDbEntity
  8
box_20140827_153616_847966
 62
7
100
AcDbPolyline
 90
2
 70
0
 10
254.094414
 20
443.085058
 30
0.0
 10
254.094414
 20
440.086447
 30
0.0
  0
LWPOLYLINE
  5
2a9
100
AcDbEntity
  8
box_20140827_153616_847966
 62
7
100
AcDbPolyline
 90
2
 70
0
 10
246.336830
 20
440.086447
 30
0.0
 10
254.094414
 20
440.086447
 30
0.0
  0
LWPOLYLINE
  5
2aa
100
AcDbEntity
  8
box_20140827_153616_847966
 62
7
100
AcDbPolyline
 90
2
 70
0
 10
246.336830
 20
443.085058
 30
0.0
 10
246.336830
 20
440.086447
 30
0.0
  0
LWPOLYLINE
  5
2ab
100
AcDbEntity
  8
box_20140827_153616_847966
 62
7
100
AcDbPolyline
 90
2
 70
0
 10
238.575719
 20
443.085058
 30
0.0
 10
246.336830
 20
443.085058
 30
0.0
  0
LWPOLYLINE
  5
2ac
100
AcDbEntity
  8
box_20140827_153616_847966
 62
7
100
AcDbPolyline
 90
2
 70
0
 10
238.575719
 20
443.085058
 30
0.0
 10
238.575719
 20
440.086447
 30
0.0
  0
LWPOLYLINE
  5
2ad
100
AcDbEntity
  8
box_20140827_153616_847966
 62
7
100
AcDbPolyline
 90
2
 70
0
 10
230.818136
 20
440.086447
 30
0.0
 10
238.575719
 20
440.086447
 30
0.0
  0
LWPOLYLINE
  5
2ae
100
AcDbEntity
  8
box_20140827_153616_847966
 62
7
100
AcDbPolyline
 90
2
 70
0
 10
230.818136
 20
443.085058
 30
0.0
 10
230.818136
 20
440.086447
 30
0.0
  0
LWPOLYLINE
  5
2af
100
AcDbEntity
  8
box_20140827_153616_847966
 62
7
100
AcDbPolyline
 90
2
 70
0
 10
223.060553
 20
443.085058
 30
0.0
 10
230.818136
 20
443.085058
 30
0.0
  0
LWPOLYLINE
  5
2b0
100
AcDbEntity
  8
box_20140827_153616_847966
 62
7
100
AcDbPolyline
 90
2
 70
0
 10
223.060553
 20
443.085058
 30
0.0
 10
223.060553
 20
440.086447
 30
0.0
  0
LWPOLYLINE
  5
2b1
100
AcDbEntity
  8
box_20140827_153616_847966
 62
7
100
AcDbPolyline
 90
2
 70
0
 10
215.299442
 20
440.086447
 30
0.0
 10
223.060553
 20
440.086447
 30
0.0
  0
LWPOLYLINE
  5
2b2
100
AcDbEntity
  8
box_20140827_153616_847966
 62
7
100
AcDbPolyline
 90
2
 70
0
 10
215.299442
 20
443.085058
 30
0.0
 10
215.299442
 20
440.086447
 30
0.0
  0
LWPOLYLINE
  5
2b3
100
AcDbEntity
  8
box_20140827_153616_847966
 62
7
100
AcDbPolyline
 90
2
 70
0
 10
207.541858
 20
443.085058
 30
0.0
 10
215.299442
 20
443.085058
 30
0.0
  0
LWPOLYLINE
  5
2b4
100
AcDbEntity
  8
box_20140827_153616_847966
 62
7
100
AcDbPolyline
 90
2
 70
0
 10
207.541858
 20
443.085058
 30
0.0
 10
207.541858
 20
440.086447
 30
0.0
  0
LWPOLYLINE
  5
2b5
100
AcDbEntity
  8
box_20140827_153616_847966
 62
7
100
AcDbPolyline
 90
2
 70
0
 10
199.784275
 20
440.086447
 30
0.0
 10
207.541858
 20
440.086447
 30
0.0
  0
LWPOLYLINE
  5
2b6
100
AcDbEntity
  8
box_20140827_153616_847966
 62
7
100
AcDbPolyline
 90
2
 70
0
 10
199.784275
 20
443.085058
 30
0.0
 10
199.784275
 20
440.086447
 30
0.0
  0
LWPOLYLINE
  5
2b7
100
AcDbEntity
  8
box_20140827_153616_847966
 62
7
100
AcDbPolyline
 90
2
 70
0
 10
195.025303
 20
443.085058
 30
0.0
 10
199.784275
 20
443.085058
 30
0.0
  0
LWPOLYLINE
  5
2b8
100
AcDbEntity
  8
box_20140827_153616_847966
 62
7
100
AcDbPolyline
 90
2
 70
0
 10
427.026080
 20
440.086447
 30
0.0
 10
434.166303
 20
440.086447
 30
0.0
  0
LWPOLYLINE
  5
2b9
100
AcDbEntity
  8
box_20140827_153616_847966
 62
7
100
AcDbPolyline
 90
2
 70
0
 10
434.166303
 20
443.085058
 30
0.0
 10
434.166303
 20
440.086447
 30
0.0
  0
LWPOLYLINE
  5
2ba
100
AcDbEntity
  8
box_20140827_153616_847966
 62
7
100
AcDbPolyline
 90
4
 70
0
 10
434.166303
 20
443.085058
 30
0.0
 10
441.310053
 20
443.085058
 30
0.0
 10
441.310053
 20
440.086447
 30
0.0
 10
448.453803
 20
440.086447
 30
0.0
  0
LWPOLYLINE
  5
2bb
100
AcDbEntity
  8
box_20140827_153616_847966
 62
7
100
AcDbPolyline
 90
2
 70
0
 10
448.453803
 20
443.085058
 30
0.0
 10
448.453803
 20
440.086447
 30
0.0
  0
LWPOLYLINE
  5
2bc
100
AcDbEntity
  8
box_20140827_153616_847966
 62
7
100
AcDbPolyline
 90
4
 70
0
 10
448.453803
 20
443.085058
 30
0.0
 10
455.597553
 20
443.085058
 30
0.0
 10
455.597553
 20
440.086447
 30
0.0
 10
462.737775
 20
440.086447
 30
0.0
  0
LWPOLYLINE
  5
2bd
100
AcDbEntity
  8
box_20140827_153616_847966
 62
7
100
AcDbPolyline
 90
2
 70
0
 10
462.737775
 20
443.085058
 30
0.0
 10
462.737775
 20
440.086447
 30
0.0
  0
LWPOLYLINE
  5
2be
100
AcDbEntity
  8
box_20140827_153616_847966
 62
7
100
AcDbPolyline
 90
4
 70
0
 10
462.737775
 20
443.085058
 30
0.0
 10
469.881525
 20
443.085058
 30
0.0
 10
469.881525
 20
440.086447
 30
0.0
 10
474.026664
 20
440.086447
 30
0.0
  0
LWPOLYLINE
  5
2bf
100
AcDbEntity
  8
box_20140827_153616_847966
 62
7
100
AcDbPolyline
 90
4
 70
0
 10
427.026080
 20
665.084585
 30
0.0
 10
434.166303
 20
665.084585
 30
0.0
 10
434.166303
 20
662.085974
 30
0.0
 10
441.310053
 20
662.085974
 30
0.0
  0
LWPOLYLINE
  5
2c0
100
AcDbEntity
  8
box_20140827_153616_847966
 62
7
100
AcDbPolyline
 90
2
 70
0
 10
441.310053
 20
665.084585
 30
0.0
 10
441.310053
 20
662.085974
 30
0.0
  0
LWPOLYLINE
  5
2c1
100
AcDbEntity
  8
box_20140827_153616_847966
 62
7
100
AcDbPolyline
 90
4
 70
0
 10
441.310053
 20
665.084585
 30
0.0
 10
448.453803
 20
665.084585
 30
0.0
 10
448.453803
 20
662.085974
 30
0.0
 10
455.597553
 20
662.085974
 30
0.0
  0
LWPOLYLINE
  5
2c2
100
AcDbEntity
  8
box_20140827_153616_847966
 62
7
100
AcDbPolyline
 90
2
 70
0
 10
455.597553
 20
665.084585
 30
0.0
 10
455.597553
 20
662.085974
 30
0.0
  0
LWPOLYLINE
  5
2c3
100
AcDbEntity
  8
box_20140827_153616_847966
 62
7
100
AcDbPolyline
 90
4
 70
0
 10
455.597553
 20
665.084585
 30
0.0
 10
462.737775
 20
665.084585
 30
0.0
 10
462.737775
 20
662.085974
 30
0.0
 10
469.881525
 20
662.085974
 30
0.0
  0
LWPOLYLINE
  5
2c4
100
AcDbEntity
  8
box_20140827_153616_847966
 62
7
100
AcDbPolyline
 90
2
 70
0
 10
469.881525
 20
665.084585
 30
0.0
 10
469.881525
 20
662.085974
 30
0.0
  0
LWPOLYLINE
  5
2c5
100
AcDbEntity
  8
box_20140827_153616_847966
 62
7
100
AcDbPolyline
 90
2
 70
0
 10
469.881525
 20
665.084585
 30
0.0
 10
474.026664
 20
665.084585
 30
0.0
  0
LWPOLYLINE
  5
2c6
100
AcDbEntity
  8
box_20140827_153616_847966
 62
7
100
AcDbPolyline
 90
2
 70
0
 10
427.026080
 20
440.086447
 30
0.0
 10
427.026080
 20
447.844030
 30
0.0
  0
LWPOLYLINE
  5
2c7
100
AcDbEntity
  8
box_20140827_153616_847966
 62
7
100
AcDbPolyline
 90
2
 70
0
 10
430.024692
 20
447.844030
 30
0.0
 10
427.026080
 20
447.844030
 30
0.0
  0
LWPOLYLINE
  5
2c8
100
AcDbEntity
  8
box_20140827_153616_847966
 62
7
100
AcDbPolyline
 90
4
 70
0
 10
430.024692
 20
447.844030
 30
0.0
 10
430.024692
 20
455.601613
 30
0.0
 10
427.026080
 20
455.601613
 30
0.0
 10
427.026080
 20
463.362724
 30
0.0
  0
LWPOLYLINE
  5
2c9
100
AcDbEntity
  8
box_20140827_153616_847966
 62
7
100
AcDbPolyline
 90
2
 70
0
 10
430.024692
 20
463.362724
 30
0.0
 10
427.026080
 20
463.362724
 30
0.0
  0
LWPOLYLINE
  5
2ca
100
AcDbEntity
  8
box_20140827_153616_847966
 62
7
100
AcDbPolyline
 90
4
 70
0
 10
430.024692
 20
463.362724
 30
0.0
 10
430.024692
 20
471.120308
 30
0.0
 10
427.026080
 20
471.120308
 30
0.0
 10
427.026080
 20
478.877891
 30
0.0
  0
LWPOLYLINE
  5
2cb
100
AcDbEntity
  8
box_20140827_153616_847966
 62
7
100
AcDbPolyline
 90
2
 70
0
 10
430.024692
 20
478.877891
 30
0.0
 10
427.026080
 20
478.877891
 30
0.0
  0
LWPOLYLINE
  5
2cc
100
AcDbEntity
  8
box_20140827_153616_847966
 62
7
100
AcDbPolyline
 90
4
 70
0
 10
430.024692
 20
478.877891
 30
0.0
 10
430.024692
 20
486.639002
 30
0.0
 10
427.026080
 20
486.639002
 30
0.0
 10
427.026080
 20
494.396585
 30
0.0
  0
LWPOLYLINE
  5
2cd
100
AcDbEntity
  8
box_20140827_153616_847966
 62
7
100
AcDbPolyline
 90
2
 70
0
 10
430.024692
 20
494.396585
 30
0.0
 10
427.026080
 20
494.396585
 30
0.0
  0
LWPOLYLINE
  5
2ce
100
AcDbEntity
  8
box_20140827_153616_847966
 62
7
100
AcDbPolyline
 90
4
 70
0
 10
430.024692
 20
494.396585
 30
0.0
 10
430.024692
 20
502.154169
 30
0.0
 10
427.026080
 20
502.154169
 30
0.0
 10
427.026080
 20
509.911752
 30
0.0
  0
LWPOLYLINE
  5
2cf
100
AcDbEntity
  8
box_20140827_153616_847966
 62
7
100
AcDbPolyline
 90
2
 70
0
 10
430.024692
 20
509.911752
 30
0.0
 10
427.026080
 20
509.911752
 30
0.0
  0
LWPOLYLINE
  5
2d0
100
AcDbEntity
  8
box_20140827_153616_847966
 62
7
100
AcDbPolyline
 90
4
 70
0
 10
430.024692
 20
509.911752
 30
0.0
 10
430.024692
 20
517.672863
 30
0.0
 10
427.026080
 20
517.672863
 30
0.0
 10
427.026080
 20
525.430447
 30
0.0
  0
LWPOLYLINE
  5
2d1
100
AcDbEntity
  8
box_20140827_153616_847966
 62
7
100
AcDbPolyline
 90
2
 70
0
 10
430.024692
 20
525.430447
 30
0.0
 10
427.026080
 20
525.430447
 30
0.0
  0
LWPOLYLINE
  5
2d2
100
AcDbEntity
  8
box_20140827_153616_847966
 62
7
100
AcDbPolyline
 90
4
 70
0
 10
430.024692
 20
525.430447
 30
0.0
 10
430.024692
 20
533.188030
 30
0.0
 10
427.026080
 20
533.188030
 30
0.0
 10
427.026080
 20
540.949141
 30
0.0
  0
LWPOLYLINE
  5
2d3
100
AcDbEntity
  8
box_20140827_153616_847966
 62
7
100
AcDbPolyline
 90
2
 70
0
 10
430.024692
 20
540.949141
 30
0.0
 10
427.026080
 20
540.949141
 30
0.0
  0
LWPOLYLINE
  5
2d4
100
AcDbEntity
  8
box_20140827_153616_847966
 62
7
100
AcDbPolyline
 90
4
 70
0
 10
430.024692
 20
540.949141
 30
0.0
 10
430.024692
 20
548.706724
 30
0.0
 10
427.026080
 20
548.706724
 30
0.0
 10
427.026080
 20
556.464308
 30
0.0
  0
LWPOLYLINE
  5
2d5
100
AcDbEntity
  8
box_20140827_153616_847966
 62
7
100
AcDbPolyline
 90
2
 70
0
 10
430.024692
 20
556.464308
 30
0.0
 10
427.026080
 20
556.464308
 30
0.0
  0
LWPOLYLINE
  5
2d6
100
AcDbEntity
  8
box_20140827_153616_847966
 62
7
100
AcDbPolyline
 90
4
 70
0
 10
430.024692
 20
556.464308
 30
0.0
 10
430.024692
 20
564.221891
 30
0.0
 10
427.026080
 20
564.221891
 30
0.0
 10
427.026080
 20
571.983002
 30
0.0
  0
LWPOLYLINE
  5
2d7
100
AcDbEntity
  8
box_20140827_153616_847966
 62
7
100
AcDbPolyline
 90
2
 70
0
 10
430.024692
 20
571.983002
 30
0.0
 10
427.026080
 20
571.983002
 30
0.0
  0
LWPOLYLINE
  5
2d8
100
AcDbEntity
  8
box_20140827_153616_847966
 62
7
100
AcDbPolyline
 90
4
 70
0
 10
430.024692
 20
571.983002
 30
0.0
 10
430.024692
 20
579.740585
 30
0.0
 10
427.026080
 20
579.740585
 30
0.0
 10
427.026080
 20
587.498169
 30
0.0
  0
LWPOLYLINE
  5
2d9
100
AcDbEntity
  8
box_20140827_153616_847966
 62
7
100
AcDbPolyline
 90
2
 70
0
 10
430.024692
 20
587.498169
 30
0.0
 10
427.026080
 20
587.498169
 30
0.0
  0
LWPOLYLINE
  5
2da
100
AcDbEntity
  8
box_20140827_153616_847966
 62
7
100
AcDbPolyline
 90
4
 70
0
 10
430.024692
 20
587.498169
 30
0.0
 10
430.024692
 20
595.259280
 30
0.0
 10
427.026080
 20
595.259280
 30
0.0
 10
427.026080
 20
603.016863
 30
0.0
  0
LWPOLYLINE
  5
2db
100
AcDbEntity
  8
box_20140827_153616_847966
 62
7
100
AcDbPolyline
 90
2
 70
0
 10
430.024692
 20
603.016863
 30
0.0
 10
427.026080
 20
603.016863
 30
0.0
  0
LWPOLYLINE
  5
2dc
100
AcDbEntity
  8
box_20140827_153616_847966
 62
7
100
AcDbPolyline
 90
4
 70
0
 10
430.024692
 20
603.016863
 30
0.0
 10
430.024692
 20
610.774447
 30
0.0
 10
427.026080
 20
610.774447
 30
0.0
 10
427.026080
 20
618.532030
 30
0.0
  0
LWPOLYLINE
  5
2dd
100
AcDbEntity
  8
box_20140827_153616_847966
 62
7
100
AcDbPolyline
 90
2
 70
0
 10
430.024692
 20
618.532030
 30
0.0
 10
427.026080
 20
618.532030
 30
0.0
  0
LWPOLYLINE
  5
2de
100
AcDbEntity
  8
box_20140827_153616_847966
 62
7
100
AcDbPolyline
 90
4
 70
0
 10
430.024692
 20
618.532030
 30
0.0
 10
430.024692
 20
626.293141
 30
0.0
 10
427.026080
 20
626.293141
 30
0.0
 10
427.026080
 20
634.050724
 30
0.0
  0
LWPOLYLINE
  5
2df
100
AcDbEntity
  8
box_20140827_153616_847966
 62
7
100
AcDbPolyline
 90
2
 70
0
 10
430.024692
 20
634.050724
 30
0.0
 10
427.026080
 20
634.050724
 30
0.0
  0
LWPOLYLINE
  5
2e0
100
AcDbEntity
  8
box_20140827_153616_847966
 62
7
100
AcDbPolyline
 90
4
 70
0
 10
430.024692
 20
634.050724
 30
0.0
 10
430.024692
 20
641.808308
 30
0.0
 10
427.026080
 20
641.808308
 30
0.0
 10
427.026080
 20
649.569419
 30
0.0
  0
LWPOLYLINE
  5
2e1
100
AcDbEntity
  8
box_20140827_153616_847966
 62
7
100
AcDbPolyline
 90
2
 70
0
 10
430.024692
 20
649.569419
 30
0.0
 10
427.026080
 20
649.569419
 30
0.0
  0
LWPOLYLINE
  5
2e2
100
AcDbEntity
  8
box_20140827_153616_847966
 62
7
100
AcDbPolyline
 90
4
 70
0
 10
430.024692
 20
649.569419
 30
0.0
 10
430.024692
 20
657.327002
 30
0.0
 10
427.026080
 20
657.327002
 30
0.0
 10
427.026080
 20
665.084585
 30
0.0
  0
LWPOLYLINE
  5
2e3
100
AcDbEntity
  8
box_20140827_153616_847966
 62
7
100
AcDbPolyline
 90
2
 70
0
 10
474.026664
 20
440.086447
 30
0.0
 10
474.026664
 20
447.844030
 30
0.0
  0
LWPOLYLINE
  5
2e4
100
AcDbEntity
  8
box_20140827_153616_847966
 62
7
100
AcDbPolyline
 90
2
 70
0
 10
477.025275
 20
447.844030
 30
0.0
 10
474.026664
 20
447.844030
 30
0.0
  0
LWPOLYLINE
  5
2e5
100
AcDbEntity
  8
box_20140827_153616_847966
 62
7
100
AcDbPolyline
 90
4
 70
0
 10
477.025275
 20
447.844030
 30
0.0
 10
477.025275
 20
455.601613
 30
0.0
 10
474.026664
 20
455.601613
 30
0.0
 10
474.026664
 20
463.362724
 30
0.0
  0
LWPOLYLINE
  5
2e6
100
AcDbEntity
  8
box_20140827_153616_847966
 62
7
100
AcDbPolyline
 90
2
 70
0
 10
477.025275
 20
463.362724
 30
0.0
 10
474.026664
 20
463.362724
 30
0.0
  0
LWPOLYLINE
  5
2e7
100
AcDbEntity
  8
box_20140827_153616_847966
 62
7
100
AcDbPolyline
 90
4
 70
0
 10
477.025275
 20
463.362724
 30
0.0
 10
477.025275
 20
471.120308
 30
0.0
 10
474.026664
 20
471.120308
 30
0.0
 10
474.026664
 20
478.877891
 30
0.0
  0
LWPOLYLINE
  5
2e8
100
AcDbEntity
  8
box_20140827_153616_847966
 62
7
100
AcDbPolyline
 90
2
 70
0
 10
477.025275
 20
478.877891
 30
0.0
 10
474.026664
 20
478.877891
 30
0.0
  0
LWPOLYLINE
  5
2e9
100
AcDbEntity
  8
box_20140827_153616_847966
 62
7
100
AcDbPolyline
 90
4
 70
0
 10
477.025275
 20
478.877891
 30
0.0
 10
477.025275
 20
486.639002
 30
0.0
 10
474.026664
 20
486.639002
 30
0.0
 10
474.026664
 20
494.396585
 30
0.0
  0
LWPOLYLINE
  5
2ea
100
AcDbEntity
  8
box_20140827_153616_847966
 62
7
100
AcDbPolyline
 90
2
 70
0
 10
477.025275
 20
494.396585
 30
0.0
 10
474.026664
 20
494.396585
 30
0.0
  0
LWPOLYLINE
  5
2eb
100
AcDbEntity
  8
box_20140827_153616_847966
 62
7
100
AcDbPolyline
 90
4
 70
0
 10
477.025275
 20
494.396585
 30
0.0
 10
477.025275
 20
502.154169
 30
0.0
 10
474.026664
 20
502.154169
 30
0.0
 10
474.026664
 20
509.911752
 30
0.0
  0
LWPOLYLINE
  5
2ec
100
AcDbEntity
  8
box_20140827_153616_847966
 62
7
100
AcDbPolyline
 90
2
 70
0
 10
477.025275
 20
509.911752
 30
0.0
 10
474.026664
 20
509.911752
 30
0.0
  0
LWPOLYLINE
  5
2ed
100
AcDbEntity
  8
box_20140827_153616_847966
 62
7
100
AcDbPolyline
 90
4
 70
0
 10
477.025275
 20
509.911752
 30
0.0
 10
477.025275
 20
517.672863
 30
0.0
 10
474.026664
 20
517.672863
 30
0.0
 10
474.026664
 20
525.430447
 30
0.0
  0
LWPOLYLINE
  5
2ee
100
AcDbEntity
  8
box_20140827_153616_847966
 62
7
100
AcDbPolyline
 90
2
 70
0
 10
477.025275
 20
525.430447
 30
0.0
 10
474.026664
 20
525.430447
 30
0.0
  0
LWPOLYLINE
  5
2ef
100
AcDbEntity
  8
box_20140827_153616_847966
 62
7
100
AcDbPolyline
 90
4
 70
0
 10
477.025275
 20
525.430447
 30
0.0
 10
477.025275
 20
533.188030
 30
0.0
 10
474.026664
 20
533.188030
 30
0.0
 10
474.026664
 20
540.949141
 30
0.0
  0
LWPOLYLINE
  5
2f0
100
AcDbEntity
  8
box_20140827_153616_847966
 62
7
100
AcDbPolyline
 90
2
 70
0
 10
477.025275
 20
540.949141
 30
0.0
 10
474.026664
 20
540.949141
 30
0.0
  0
LWPOLYLINE
  5
2f1
100
AcDbEntity
  8
box_20140827_153616_847966
 62
7
100
AcDbPolyline
 90
4
 70
0
 10
477.025275
 20
540.949141
 30
0.0
 10
477.025275
 20
548.706724
 30
0.0
 10
474.026664
 20
548.706724
 30
0.0
 10
474.026664
 20
556.464308
 30
0.0
  0
LWPOLYLINE
  5
2f2
100
AcDbEntity
  8
box_20140827_153616_847966
 62
7
100
AcDbPolyline
 90
2
 70
0
 10
477.025275
 20
556.464308
 30
0.0
 10
474.026664
 20
556.464308
 30
0.0
  0
LWPOLYLINE
  5
2f3
100
AcDbEntity
  8
box_20140827_153616_847966
 62
7
100
AcDbPolyline
 90
4
 70
0
 10
477.025275
 20
556.464308
 30
0.0
 10
477.025275
 20
564.221891
 30
0.0
 10
474.026664
 20
564.221891
 30
0.0
 10
474.026664
 20
571.983002
 30
0.0
  0
LWPOLYLINE
  5
2f4
100
AcDbEntity
  8
box_20140827_153616_847966
 62
7
100
AcDbPolyline
 90
2
 70
0
 10
477.025275
 20
571.983002
 30
0.0
 10
474.026664
 20
571.983002
 30
0.0
  0
LWPOLYLINE
  5
2f5
100
AcDbEntity
  8
box_20140827_153616_847966
 62
7
100
AcDbPolyline
 90
4
 70
0
 10
477.025275
 20
571.983002
 30
0.0
 10
477.025275
 20
579.740585
 30
0.0
 10
474.026664
 20
579.740585
 30
0.0
 10
474.026664
 20
587.498169
 30
0.0
  0
LWPOLYLINE
  5
2f6
100
AcDbEntity
  8
box_20140827_153616_847966
 62
7
100
AcDbPolyline
 90
2
 70
0
 10
477.025275
 20
587.498169
 30
0.0
 10
474.026664
 20
587.498169
 30
0.0
  0
LWPOLYLINE
  5
2f7
100
AcDbEntity
  8
box_20140827_153616_847966
 62
7
100
AcDbPolyline
 90
4
 70
0
 10
477.025275
 20
587.498169
 30
0.0
 10
477.025275
 20
595.259280
 30
0.0
 10
474.026664
 20
595.259280
 30
0.0
 10
474.026664
 20
603.016863
 30
0.0
  0
LWPOLYLINE
  5
2f8
100
AcDbEntity
  8
box_20140827_153616_847966
 62
7
100
AcDbPolyline
 90
2
 70
0
 10
477.025275
 20
603.016863
 30
0.0
 10
474.026664
 20
603.016863
 30
0.0
  0
LWPOLYLINE
  5
2f9
100
AcDbEntity
  8
box_20140827_153616_847966
 62
7
100
AcDbPolyline
 90
4
 70
0
 10
477.025275
 20
603.016863
 30
0.0
 10
477.025275
 20
610.774447
 30
0.0
 10
474.026664
 20
610.774447
 30
0.0
 10
474.026664
 20
618.532030
 30
0.0
  0
LWPOLYLINE
  5
2fa
100
AcDbEntity
  8
box_20140827_153616_847966
 62
7
100
AcDbPolyline
 90
2
 70
0
 10
477.025275
 20
618.532030
 30
0.0
 10
474.026664
 20
618.532030
 30
0.0
  0
LWPOLYLINE
  5
2fb
100
AcDbEntity
  8
box_20140827_153616_847966
 62
7
100
AcDbPolyline
 90
4
 70
0
 10
477.025275
 20
618.532030
 30
0.0
 10
477.025275
 20
626.293141
 30
0.0
 10
474.026664
 20
626.293141
 30
0.0
 10
474.026664
 20
634.050724
 30
0.0
  0
LWPOLYLINE
  5
2fc
100
AcDbEntity
  8
box_20140827_153616_847966
 62
7
100
AcDbPolyline
 90
2
 70
0
 10
477.025275
 20
634.050724
 30
0.0
 10
474.026664
 20
634.050724
 30
0.0
  0
LWPOLYLINE
  5
2fd
100
AcDbEntity
  8
box_20140827_153616_847966
 62
7
100
AcDbPolyline
 90
4
 70
0
 10
477.025275
 20
634.050724
 30
0.0
 10
477.025275
 20
641.808308
 30
0.0
 10
474.026664
 20
641.808308
 30
0.0
 10
474.026664
 20
649.569419
 30
0.0
  0
LWPOLYLINE
  5
2fe
100
AcDbEntity
  8
box_20140827_153616_847966
 62
7
100
AcDbPolyline
 90
2
 70
0
 10
477.025275
 20
649.569419
 30
0.0
 10
474.026664
 20
649.569419
 30
0.0
  0
LWPOLYLINE
  5
2ff
100
AcDbEntity
  8
box_20140827_153616_847966
 62
7
100
AcDbPolyline
 90
4
 70
0
 10
477.025275
 20
649.569419
 30
0.0
 10
477.025275
 20
657.327002
 30
0.0
 10
474.026664
 20
657.327002
 30
0.0
 10
474.026664
 20
665.084585
 30
0.0
  0
LWPOLYLINE
  5
300
100
AcDbEntity
  8
box_20140827_153616_847966
 62
7
100
AcDbPolyline
 90
2
 70
0
 10
414.026219
 20
717.327447
 30
0.0
 10
414.026219
 20
725.085030
 30
0.0
  0
LWPOLYLINE
  5
301
100
AcDbEntity
  8
box_20140827_153616_847966
 62
7
100
AcDbPolyline
 90
2
 70
0
 10
417.024830
 20
717.327447
 30
0.0
 10
414.026219
 20
717.327447
 30
0.0
  0
LWPOLYLINE
  5
302
100
AcDbEntity
  8
box_20140827_153616_847966
 62
7
100
AcDbPolyline
 90
2
 70
0
 10
417.024830
 20
709.569863
 30
0.0
 10
417.024830
 20
717.327447
 30
0.0
  0
LWPOLYLINE
  5
303
100
AcDbEntity
  8
box_20140827_153616_847966
 62
7
100
AcDbPolyline
 90
2
 70
0
 10
417.024830
 20
709.569863
 30
0.0
 10
414.026219
 20
709.569863
 30
0.0
  0
LWPOLYLINE
  5
304
100
AcDbEntity
  8
box_20140827_153616_847966
 62
7
100
AcDbPolyline
 90
2
 70
0
 10
414.026219
 20
701.808752
 30
0.0
 10
414.026219
 20
709.569863
 30
0.0
  0
LWPOLYLINE
  5
305
100
AcDbEntity
  8
box_20140827_153616_847966
 62
7
100
AcDbPolyline
 90
2
 70
0
 10
417.024830
 20
701.808752
 30
0.0
 10
414.026219
 20
701.808752
 30
0.0
  0
LWPOLYLINE
  5
306
100
AcDbEntity
  8
box_20140827_153616_847966
 62
7
100
AcDbPolyline
 90
2
 70
0
 10
417.024830
 20
694.051169
 30
0.0
 10
417.024830
 20
701.808752
 30
0.0
  0
LWPOLYLINE
  5
307
100
AcDbEntity
  8
box_20140827_153616_847966
 62
7
100
AcDbPolyline
 90
2
 70
0
 10
417.024830
 20
694.051169
 30
0.0
 10
414.026219
 20
694.051169
 30
0.0
  0
LWPOLYLINE
  5
308
100
AcDbEntity
  8
box_20140827_153616_847966
 62
7
100
AcDbPolyline
 90
2
 70
0
 10
414.026219
 20
686.293585
 30
0.0
 10
414.026219
 20
694.051169
 30
0.0
  0
LWPOLYLINE
  5
309
100
AcDbEntity
  8
box_20140827_153616_847966
 62
7
100
AcDbPolyline
 90
2
 70
0
 10
417.024830
 20
686.293585
 30
0.0
 10
414.026219
 20
686.293585
 30
0.0
  0
LWPOLYLINE
  5
30a
100
AcDbEntity
  8
box_20140827_153616_847966
 62
7
100
AcDbPolyline
 90
2
 70
0
 10
417.024830
 20
678.532474
 30
0.0
 10
417.024830
 20
686.293585
 30
0.0
  0
LWPOLYLINE
  5
30b
100
AcDbEntity
  8
box_20140827_153616_847966
 62
7
100
AcDbPolyline
 90
2
 70
0
 10
417.024830
 20
678.532474
 30
0.0
 10
414.026219
 20
678.532474
 30
0.0
  0
LWPOLYLINE
  5
30c
100
AcDbEntity
  8
box_20140827_153616_847966
 62
7
100
AcDbPolyline
 90
2
 70
0
 10
414.026219
 20
670.774891
 30
0.0
 10
414.026219
 20
678.532474
 30
0.0
  0
LWPOLYLINE
  5
30d
100
AcDbEntity
  8
box_20140827_153616_847966
 62
7
100
AcDbPolyline
 90
2
 70
0
 10
417.024830
 20
670.774891
 30
0.0
 10
414.026219
 20
670.774891
 30
0.0
  0
LWPOLYLINE
  5
30e
100
AcDbEntity
  8
box_20140827_153616_847966
 62
7
100
AcDbPolyline
 90
2
 70
0
 10
417.024830
 20
663.017308
 30
0.0
 10
417.024830
 20
670.774891
 30
0.0
  0
LWPOLYLINE
  5
30f
100
AcDbEntity
  8
box_20140827_153616_847966
 62
7
100
AcDbPolyline
 90
2
 70
0
 10
417.024830
 20
663.017308
 30
0.0
 10
414.026219
 20
663.017308
 30
0.0
  0
LWPOLYLINE
  5
310
100
AcDbEntity
  8
box_20140827_153616_847966
 62
7
100
AcDbPolyline
 90
2
 70
0
 10
414.026219
 20
655.256197
 30
0.0
 10
414.026219
 20
663.017308
 30
0.0
  0
LWPOLYLINE
  5
311
100
AcDbEntity
  8
box_20140827_153616_847966
 62
7
100
AcDbPolyline
 90
2
 70
0
 10
417.024830
 20
655.256197
 30
0.0
 10
414.026219
 20
655.256197
 30
0.0
  0
LWPOLYLINE
  5
312
100
AcDbEntity
  8
box_20140827_153616_847966
 62
7
100
AcDbPolyline
 90
2
 70
0
 10
417.024830
 20
647.498613
 30
0.0
 10
417.024830
 20
655.256197
 30
0.0
  0
LWPOLYLINE
  5
313
100
AcDbEntity
  8
box_20140827_153616_847966
 62
7
100
AcDbPolyline
 90
2
 70
0
 10
417.024830
 20
647.498613
 30
0.0
 10
414.026219
 20
647.498613
 30
0.0
  0
LWPOLYLINE
  5
314
100
AcDbEntity
  8
box_20140827_153616_847966
 62
7
100
AcDbPolyline
 90
2
 70
0
 10
414.026219
 20
639.741030
 30
0.0
 10
414.026219
 20
647.498613
 30
0.0
  0
LWPOLYLINE
  5
315
100
AcDbEntity
  8
box_20140827_153616_847966
 62
7
100
AcDbPolyline
 90
2
 70
0
 10
417.024830
 20
639.741030
 30
0.0
 10
414.026219
 20
639.741030
 30
0.0
  0
LWPOLYLINE
  5
316
100
AcDbEntity
  8
box_20140827_153616_847966
 62
7
100
AcDbPolyline
 90
2
 70
0
 10
417.024830
 20
631.983447
 30
0.0
 10
417.024830
 20
639.741030
 30
0.0
  0
LWPOLYLINE
  5
317
100
AcDbEntity
  8
box_20140827_153616_847966
 62
7
100
AcDbPolyline
 90
2
 70
0
 10
417.024830
 20
631.983447
 30
0.0
 10
414.026219
 20
631.983447
 30
0.0
  0
LWPOLYLINE
  5
318
100
AcDbEntity
  8
box_20140827_153616_847966
 62
7
100
AcDbPolyline
 90
2
 70
0
 10
414.026219
 20
624.222335
 30
0.0
 10
414.026219
 20
631.983447
 30
0.0
  0
LWPOLYLINE
  5
319
100
AcDbEntity
  8
box_20140827_153616_847966
 62
7
100
AcDbPolyline
 90
2
 70
0
 10
417.024830
 20
624.222335
 30
0.0
 10
414.026219
 20
624.222335
 30
0.0
  0
LWPOLYLINE
  5
31a
100
AcDbEntity
  8
box_20140827_153616_847966
 62
7
100
AcDbPolyline
 90
2
 70
0
 10
417.024830
 20
616.464752
 30
0.0
 10
417.024830
 20
624.222335
 30
0.0
  0
LWPOLYLINE
  5
31b
100
AcDbEntity
  8
box_20140827_153616_847966
 62
7
100
AcDbPolyline
 90
2
 70
0
 10
417.024830
 20
616.464752
 30
0.0
 10
414.026219
 20
616.464752
 30
0.0
  0
LWPOLYLINE
  5
31c
100
AcDbEntity
  8
box_20140827_153616_847966
 62
7
100
AcDbPolyline
 90
2
 70
0
 10
414.026219
 20
608.707169
 30
0.0
 10
414.026219
 20
616.464752
 30
0.0
  0
LWPOLYLINE
  5
31d
100
AcDbEntity
  8
box_20140827_153616_847966
 62
7
100
AcDbPolyline
 90
2
 70
0
 10
417.024830
 20
608.707169
 30
0.0
 10
414.026219
 20
608.707169
 30
0.0
  0
LWPOLYLINE
  5
31e
100
AcDbEntity
  8
box_20140827_153616_847966
 62
7
100
AcDbPolyline
 90
2
 70
0
 10
417.024830
 20
600.946058
 30
0.0
 10
417.024830
 20
608.707169
 30
0.0
  0
LWPOLYLINE
  5
31f
100
AcDbEntity
  8
box_20140827_153616_847966
 62
7
100
AcDbPolyline
 90
2
 70
0
 10
417.024830
 20
600.946058
 30
0.0
 10
414.026219
 20
600.946058
 30
0.0
  0
LWPOLYLINE
  5
320
100
AcDbEntity
  8
box_20140827_153616_847966
 62
7
100
AcDbPolyline
 90
2
 70
0
 10
414.026219
 20
593.188474
 30
0.0
 10
414.026219
 20
600.946058
 30
0.0
  0
LWPOLYLINE
  5
321
100
AcDbEntity
  8
box_20140827_153616_847966
 62
7
100
AcDbPolyline
 90
2
 70
0
 10
417.024830
 20
593.188474
 30
0.0
 10
414.026219
 20
593.188474
 30
0.0
  0
LWPOLYLINE
  5
322
100
AcDbEntity
  8
box_20140827_153616_847966
 62
7
100
AcDbPolyline
 90
2
 70
0
 10
417.024830
 20
585.430891
 30
0.0
 10
417.024830
 20
593.188474
 30
0.0
  0
LWPOLYLINE
  5
323
100
AcDbEntity
  8
box_20140827_153616_847966
 62
7
100
AcDbPolyline
 90
2
 70
0
 10
417.024830
 20
585.430891
 30
0.0
 10
414.026219
 20
585.430891
 30
0.0
  0
LWPOLYLINE
  5
324
100
AcDbEntity
  8
box_20140827_153616_847966
 62
7
100
AcDbPolyline
 90
2
 70
0
 10
414.026219
 20
577.673308
 30
0.0
 10
414.026219
 20
585.430891
 30
0.0
  0
LWPOLYLINE
  5
325
100
AcDbEntity
  8
box_20140827_153616_847966
 62
7
100
AcDbPolyline
 90
2
 70
0
 10
417.024830
 20
577.673308
 30
0.0
 10
414.026219
 20
577.673308
 30
0.0
  0
LWPOLYLINE
  5
326
100
AcDbEntity
  8
box_20140827_153616_847966
 62
7
100
AcDbPolyline
 90
2
 70
0
 10
417.024830
 20
569.912197
 30
0.0
 10
417.024830
 20
577.673308
 30
0.0
  0
LWPOLYLINE
  5
327
100
AcDbEntity
  8
box_20140827_153616_847966
 62
7
100
AcDbPolyline
 90
2
 70
0
 10
417.024830
 20
569.912197
 30
0.0
 10
414.026219
 20
569.912197
 30
0.0
  0
LWPOLYLINE
  5
328
100
AcDbEntity
  8
box_20140827_153616_847966
 62
7
100
AcDbPolyline
 90
2
 70
0
 10
414.026219
 20
562.154613
 30
0.0
 10
414.026219
 20
569.912197
 30
0.0
  0
LWPOLYLINE
  5
329
100
AcDbEntity
  8
box_20140827_153616_847966
 62
7
100
AcDbPolyline
 90
2
 70
0
 10
417.024830
 20
562.154613
 30
0.0
 10
414.026219
 20
562.154613
 30
0.0
  0
LWPOLYLINE
  5
32a
100
AcDbEntity
  8
box_20140827_153616_847966
 62
7
100
AcDbPolyline
 90
2
 70
0
 10
417.024830
 20
554.397030
 30
0.0
 10
417.024830
 20
562.154613
 30
0.0
  0
LWPOLYLINE
  5
32b
100
AcDbEntity
  8
box_20140827_153616_847966
 62
7
100
AcDbPolyline
 90
2
 70
0
 10
417.024830
 20
554.397030
 30
0.0
 10
414.026219
 20
554.397030
 30
0.0
  0
LWPOLYLINE
  5
32c
100
AcDbEntity
  8
box_20140827_153616_847966
 62
7
100
AcDbPolyline
 90
2
 70
0
 10
414.026219
 20
546.635919
 30
0.0
 10
414.026219
 20
554.397030
 30
0.0
  0
LWPOLYLINE
  5
32d
100
AcDbEntity
  8
box_20140827_153616_847966
 62
7
100
AcDbPolyline
 90
2
 70
0
 10
417.024830
 20
546.635919
 30
0.0
 10
414.026219
 20
546.635919
 30
0.0
  0
LWPOLYLINE
  5
32e
100
AcDbEntity
  8
box_20140827_153616_847966
 62
7
100
AcDbPolyline
 90
2
 70
0
 10
417.024830
 20
538.878335
 30
0.0
 10
417.024830
 20
546.635919
 30
0.0
  0
LWPOLYLINE
  5
32f
100
AcDbEntity
  8
box_20140827_153616_847966
 62
7
100
AcDbPolyline
 90
2
 70
0
 10
417.024830
 20
538.878335
 30
0.0
 10
414.026219
 20
538.878335
 30
0.0
  0
LWPOLYLINE
  5
330
100
AcDbEntity
  8
box_20140827_153616_847966
 62
7
100
AcDbPolyline
 90
2
 70
0
 10
414.026219
 20
531.120752
 30
0.0
 10
414.026219
 20
538.878335
 30
0.0
  0
LWPOLYLINE
  5
331
100
AcDbEntity
  8
box_20140827_153616_847966
 62
7
100
AcDbPolyline
 90
2
 70
0
 10
417.024830
 20
531.120752
 30
0.0
 10
414.026219
 20
531.120752
 30
0.0
  0
LWPOLYLINE
  5
332
100
AcDbEntity
  8
box_20140827_153616_847966
 62
7
100
AcDbPolyline
 90
2
 70
0
 10
417.024830
 20
523.363169
 30
0.0
 10
417.024830
 20
531.120752
 30
0.0
  0
LWPOLYLINE
  5
333
100
AcDbEntity
  8
box_20140827_153616_847966
 62
7
100
AcDbPolyline
 90
2
 70
0
 10
417.024830
 20
523.363169
 30
0.0
 10
414.026219
 20
523.363169
 30
0.0
  0
LWPOLYLINE
  5
334
100
AcDbEntity
  8
box_20140827_153616_847966
 62
7
100
AcDbPolyline
 90
2
 70
0
 10
414.026219
 20
515.602058
 30
0.0
 10
414.026219
 20
523.363169
 30
0.0
  0
LWPOLYLINE
  5
335
100
AcDbEntity
  8
box_20140827_153616_847966
 62
7
100
AcDbPolyline
 90
2
 70
0
 10
417.024830
 20
515.602058
 30
0.0
 10
414.026219
 20
515.602058
 30
0.0
  0
LWPOLYLINE
  5
336
100
AcDbEntity
  8
box_20140827_153616_847966
 62
7
100
AcDbPolyline
 90
2
 70
0
 10
417.024830
 20
507.844474
 30
0.0
 10
417.024830
 20
515.602058
 30
0.0
  0
LWPOLYLINE
  5
337
100
AcDbEntity
  8
box_20140827_153616_847966
 62
7
100
AcDbPolyline
 90
2
 70
0
 10
417.024830
 20
507.844474
 30
0.0
 10
414.026219
 20
507.844474
 30
0.0
  0
LWPOLYLINE
  5
338
100
AcDbEntity
  8
box_20140827_153616_847966
 62
7
100
AcDbPolyline
 90
2
 70
0
 10
414.026219
 20
500.086891
 30
0.0
 10
414.026219
 20
507.844474
 30
0.0
  0
LWPOLYLINE
  5
339
100
AcDbEntity
  8
box_20140827_153616_847966
 62
7
100
AcDbPolyline
 90
2
 70
0
 10
192.026692
 20
717.327447
 30
0.0
 10
192.026692
 20
725.085030
 30
0.0
  0
LWPOLYLINE
  5
33a
100
AcDbEntity
  8
box_20140827_153616_847966
 62
7
100
AcDbPolyline
 90
2
 70
0
 10
195.025303
 20
717.327447
 30
0.0
 10
192.026692
 20
717.327447
 30
0.0
  0
LWPOLYLINE
  5
33b
100
AcDbEntity
  8
box_20140827_153616_847966
 62
7
100
AcDbPolyline
 90
2
 70
0
 10
195.025303
 20
709.569863
 30
0.0
 10
195.025303
 20
717.327447
 30
0.0
  0
LWPOLYLINE
  5
33c
100
AcDbEntity
  8
box_20140827_153616_847966
 62
7
100
AcDbPolyline
 90
2
 70
0
 10
195.025303
 20
709.569863
 30
0.0
 10
192.026692
 20
709.569863
 30
0.0
  0
LWPOLYLINE
  5
33d
100
AcDbEntity
  8
box_20140827_153616_847966
 62
7
100
AcDbPolyline
 90
2
 70
0
 10
192.026692
 20
701.808752
 30
0.0
 10
192.026692
 20
709.569863
 30
0.0
  0
LWPOLYLINE
  5
33e
100
AcDbEntity
  8
box_20140827_153616_847966
 62
7
100
AcDbPolyline
 90
2
 70
0
 10
195.025303
 20
701.808752
 30
0.0
 10
192.026692
 20
701.808752
 30
0.0
  0
LWPOLYLINE
  5
33f
100
AcDbEntity
  8
box_20140827_153616_847966
 62
7
100
AcDbPolyline
 90
2
 70
0
 10
195.025303
 20
694.051169
 30
0.0
 10
195.025303
 20
701.808752
 30
0.0
  0
LWPOLYLINE
  5
340
100
AcDbEntity
  8
box_20140827_153616_847966
 62
7
100
AcDbPolyline
 90
2
 70
0
 10
195.025303
 20
694.051169
 30
0.0
 10
192.026692
 20
694.051169
 30
0.0
  0
LWPOLYLINE
  5
341
100
AcDbEntity
  8
box_20140827_153616_847966
 62
7
100
AcDbPolyline
 90
2
 70
0
 10
192.026692
 20
686.293585
 30
0.0
 10
192.026692
 20
694.051169
 30
0.0
  0
LWPOLYLINE
  5
342
100
AcDbEntity
  8
box_20140827_153616_847966
 62
7
100
AcDbPolyline
 90
2
 70
0
 10
195.025303
 20
686.293585
 30
0.0
 10
192.026692
 20
686.293585
 30
0.0
  0
LWPOLYLINE
  5
343
100
AcDbEntity
  8
box_20140827_153616_847966
 62
7
100
AcDbPolyline
 90
2
 70
0
 10
195.025303
 20
678.532474
 30
0.0
 10
195.025303
 20
686.293585
 30
0.0
  0
LWPOLYLINE
  5
344
100
AcDbEntity
  8
box_20140827_153616_847966
 62
7
100
AcDbPolyline
 90
2
 70
0
 10
195.025303
 20
678.532474
 30
0.0
 10
192.026692
 20
678.532474
 30
0.0
  0
LWPOLYLINE
  5
345
100
AcDbEntity
  8
box_20140827_153616_847966
 62
7
100
AcDbPolyline
 90
2
 70
0
 10
192.026692
 20
670.774891
 30
0.0
 10
192.026692
 20
678.532474
 30
0.0
  0
LWPOLYLINE
  5
346
100
AcDbEntity
  8
box_20140827_153616_847966
 62
7
100
AcDbPolyline
 90
2
 70
0
 10
195.025303
 20
670.774891
 30
0.0
 10
192.026692
 20
670.774891
 30
0.0
  0
LWPOLYLINE
  5
347
100
AcDbEntity
  8
box_20140827_153616_847966
 62
7
100
AcDbPolyline
 90
2
 70
0
 10
195.025303
 20
663.017308
 30
0.0
 10
195.025303
 20
670.774891
 30
0.0
  0
LWPOLYLINE
  5
348
100
AcDbEntity
  8
box_20140827_153616_847966
 62
7
100
AcDbPolyline
 90
2
 70
0
 10
195.025303
 20
663.017308
 30
0.0
 10
192.026692
 20
663.017308
 30
0.0
  0
LWPOLYLINE
  5
349
100
AcDbEntity
  8
box_20140827_153616_847966
 62
7
100
AcDbPolyline
 90
2
 70
0
 10
192.026692
 20
655.256197
 30
0.0
 10
192.026692
 20
663.017308
 30
0.0
  0
LWPOLYLINE
  5
34a
100
AcDbEntity
  8
box_20140827_153616_847966
 62
7
100
AcDbPolyline
 90
2
 70
0
 10
195.025303
 20
655.256197
 30
0.0
 10
192.026692
 20
655.256197
 30
0.0
  0
LWPOLYLINE
  5
34b
100
AcDbEntity
  8
box_20140827_153616_847966
 62
7
100
AcDbPolyline
 90
2
 70
0
 10
195.025303
 20
647.498613
 30
0.0
 10
195.025303
 20
655.256197
 30
0.0
  0
LWPOLYLINE
  5
34c
100
AcDbEntity
  8
box_20140827_153616_847966
 62
7
100
AcDbPolyline
 90
2
 70
0
 10
195.025303
 20
647.498613
 30
0.0
 10
192.026692
 20
647.498613
 30
0.0
  0
LWPOLYLINE
  5
34d
100
AcDbEntity
  8
box_20140827_153616_847966
 62
7
100
AcDbPolyline
 90
2
 70
0
 10
192.026692
 20
639.741030
 30
0.0
 10
192.026692
 20
647.498613
 30
0.0
  0
LWPOLYLINE
  5
34e
100
AcDbEntity
  8
box_20140827_153616_847966
 62
7
100
AcDbPolyline
 90
2
 70
0
 10
195.025303
 20
639.741030
 30
0.0
 10
192.026692
 20
639.741030
 30
0.0
  0
LWPOLYLINE
  5
34f
100
AcDbEntity
  8
box_20140827_153616_847966
 62
7
100
AcDbPolyline
 90
2
 70
0
 10
195.025303
 20
631.983447
 30
0.0
 10
195.025303
 20
639.741030
 30
0.0
  0
LWPOLYLINE
  5
350
100
AcDbEntity
  8
box_20140827_153616_847966
 62
7
100
AcDbPolyline
 90
2
 70
0
 10
195.025303
 20
631.983447
 30
0.0
 10
192.026692
 20
631.983447
 30
0.0
  0
LWPOLYLINE
  5
351
100
AcDbEntity
  8
box_20140827_153616_847966
 62
7
100
AcDbPolyline
 90
2
 70
0
 10
192.026692
 20
624.222335
 30
0.0
 10
192.026692
 20
631.983447
 30
0.0
  0
LWPOLYLINE
  5
352
100
AcDbEntity
  8
box_20140827_153616_847966
 62
7
100
AcDbPolyline
 90
2
 70
0
 10
195.025303
 20
624.222335
 30
0.0
 10
192.026692
 20
624.222335
 30
0.0
  0
LWPOLYLINE
  5
353
100
AcDbEntity
  8
box_20140827_153616_847966
 62
7
100
AcDbPolyline
 90
2
 70
0
 10
195.025303
 20
616.464752
 30
0.0
 10
195.025303
 20
624.222335
 30
0.0
  0
LWPOLYLINE
  5
354
100
AcDbEntity
  8
box_20140827_153616_847966
 62
7
100
AcDbPolyline
 90
2
 70
0
 10
195.025303
 20
616.464752
 30
0.0
 10
192.026692
 20
616.464752
 30
0.0
  0
LWPOLYLINE
  5
355
100
AcDbEntity
  8
box_20140827_153616_847966
 62
7
100
AcDbPolyline
 90
2
 70
0
 10
192.026692
 20
608.707169
 30
0.0
 10
192.026692
 20
616.464752
 30
0.0
  0
LWPOLYLINE
  5
356
100
AcDbEntity
  8
box_20140827_153616_847966
 62
7
100
AcDbPolyline
 90
2
 70
0
 10
195.025303
 20
608.707169
 30
0.0
 10
192.026692
 20
608.707169
 30
0.0
  0
LWPOLYLINE
  5
357
100
AcDbEntity
  8
box_20140827_153616_847966
 62
7
100
AcDbPolyline
 90
2
 70
0
 10
195.025303
 20
600.946058
 30
0.0
 10
195.025303
 20
608.707169
 30
0.0
  0
LWPOLYLINE
  5
358
100
AcDbEntity
  8
box_20140827_153616_847966
 62
7
100
AcDbPolyline
 90
2
 70
0
 10
195.025303
 20
600.946058
 30
0.0
 10
192.026692
 20
600.946058
 30
0.0
  0
LWPOLYLINE
  5
359
100
AcDbEntity
  8
box_20140827_153616_847966
 62
7
100
AcDbPolyline
 90
2
 70
0
 10
192.026692
 20
593.188474
 30
0.0
 10
192.026692
 20
600.946058
 30
0.0
  0
LWPOLYLINE
  5
35a
100
AcDbEntity
  8
box_20140827_153616_847966
 62
7
100
AcDbPolyline
 90
2
 70
0
 10
195.025303
 20
593.188474
 30
0.0
 10
192.026692
 20
593.188474
 30
0.0
  0
LWPOLYLINE
  5
35b
100
AcDbEntity
  8
box_20140827_153616_847966
 62
7
100
AcDbPolyline
 90
2
 70
0
 10
195.025303
 20
585.430891
 30
0.0
 10
195.025303
 20
593.188474
 30
0.0
  0
LWPOLYLINE
  5
35c
100
AcDbEntity
  8
box_20140827_153616_847966
 62
7
100
AcDbPolyline
 90
2
 70
0
 10
195.025303
 20
585.430891
 30
0.0
 10
192.026692
 20
585.430891
 30
0.0
  0
LWPOLYLINE
  5
35d
100
AcDbEntity
  8
box_20140827_153616_847966
 62
7
100
AcDbPolyline
 90
2
 70
0
 10
192.026692
 20
577.673308
 30
0.0
 10
192.026692
 20
585.430891
 30
0.0
  0
LWPOLYLINE
  5
35e
100
AcDbEntity
  8
box_20140827_153616_847966
 62
7
100
AcDbPolyline
 90
2
 70
0
 10
195.025303
 20
577.673308
 30
0.0
 10
192.026692
 20
577.673308
 30
0.0
  0
LWPOLYLINE
  5
35f
100
AcDbEntity
  8
box_20140827_153616_847966
 62
7
100
AcDbPolyline
 90
2
 70
0
 10
195.025303
 20
569.912197
 30
0.0
 10
195.025303
 20
577.673308
 30
0.0
  0
LWPOLYLINE
  5
360
100
AcDbEntity
  8
box_20140827_153616_847966
 62
7
100
AcDbPolyline
 90
2
 70
0
 10
195.025303
 20
569.912197
 30
0.0
 10
192.026692
 20
569.912197
 30
0.0
  0
LWPOLYLINE
  5
361
100
AcDbEntity
  8
box_20140827_153616_847966
 62
7
100
AcDbPolyline
 90
2
 70
0
 10
192.026692
 20
562.154613
 30
0.0
 10
192.026692
 20
569.912197
 30
0.0
  0
LWPOLYLINE
  5
362
100
AcDbEntity
  8
box_20140827_153616_847966
 62
7
100
AcDbPolyline
 90
2
 70
0
 10
195.025303
 20
562.154613
 30
0.0
 10
192.026692
 20
562.154613
 30
0.0
  0
LWPOLYLINE
  5
363
100
AcDbEntity
  8
box_20140827_153616_847966
 62
7
100
AcDbPolyline
 90
2
 70
0
 10
195.025303
 20
554.397030
 30
0.0
 10
195.025303
 20
562.154613
 30
0.0
  0
LWPOLYLINE
  5
364
100
AcDbEntity
  8
box_20140827_153616_847966
 62
7
100
AcDbPolyline
 90
2
 70
0
 10
195.025303
 20
554.397030
 30
0.0
 10
192.026692
 20
554.397030
 30
0.0
  0
LWPOLYLINE
  5
365
100
AcDbEntity
  8
box_20140827_153616_847966
 62
7
100
AcDbPolyline
 90
2
 70
0
 10
192.026692
 20
546.635919
 30
0.0
 10
192.026692
 20
554.397030
 30
0.0
  0
LWPOLYLINE
  5
366
100
AcDbEntity
  8
box_20140827_153616_847966
 62
7
100
AcDbPolyline
 90
2
 70
0
 10
195.025303
 20
546.635919
 30
0.0
 10
192.026692
 20
546.635919
 30
0.0
  0
LWPOLYLINE
  5
367
100
AcDbEntity
  8
box_20140827_153616_847966
 62
7
100
AcDbPolyline
 90
2
 70
0
 10
195.025303
 20
538.878335
 30
0.0
 10
195.025303
 20
546.635919
 30
0.0
  0
LWPOLYLINE
  5
368
100
AcDbEntity
  8
box_20140827_153616_847966
 62
7
100
AcDbPolyline
 90
2
 70
0
 10
195.025303
 20
538.878335
 30
0.0
 10
192.026692
 20
538.878335
 30
0.0
  0
LWPOLYLINE
  5
369
100
AcDbEntity
  8
box_20140827_153616_847966
 62
7
100
AcDbPolyline
 90
2
 70
0
 10
192.026692
 20
531.120752
 30
0.0
 10
192.026692
 20
538.878335
 30
0.0
  0
LWPOLYLINE
  5
36a
100
AcDbEntity
  8
box_20140827_153616_847966
 62
7
100
AcDbPolyline
 90
2
 70
0
 10
195.025303
 20
531.120752
 30
0.0
 10
192.026692
 20
531.120752
 30
0.0
  0
LWPOLYLINE
  5
36b
100
AcDbEntity
  8
box_20140827_153616_847966
 62
7
100
AcDbPolyline
 90
2
 70
0
 10
195.025303
 20
523.363169
 30
0.0
 10
195.025303
 20
531.120752
 30
0.0
  0
LWPOLYLINE
  5
36c
100
AcDbEntity
  8
box_20140827_153616_847966
 62
7
100
AcDbPolyline
 90
2
 70
0
 10
195.025303
 20
523.363169
 30
0.0
 10
192.026692
 20
523.363169
 30
0.0
  0
LWPOLYLINE
  5
36d
100
AcDbEntity
  8
box_20140827_153616_847966
 62
7
100
AcDbPolyline
 90
2
 70
0
 10
192.026692
 20
515.602058
 30
0.0
 10
192.026692
 20
523.363169
 30
0.0
  0
LWPOLYLINE
  5
36e
100
AcDbEntity
  8
box_20140827_153616_847966
 62
7
100
AcDbPolyline
 90
2
 70
0
 10
195.025303
 20
515.602058
 30
0.0
 10
192.026692
 20
515.602058
 30
0.0
  0
LWPOLYLINE
  5
36f
100
AcDbEntity
  8
box_20140827_153616_847966
 62
7
100
AcDbPolyline
 90
2
 70
0
 10
195.025303
 20
507.844474
 30
0.0
 10
195.025303
 20
515.602058
 30
0.0
  0
LWPOLYLINE
  5
370
100
AcDbEntity
  8
box_20140827_153616_847966
 62
7
100
AcDbPolyline
 90
2
 70
0
 10
195.025303
 20
507.844474
 30
0.0
 10
192.026692
 20
507.844474
 30
0.0
  0
LWPOLYLINE
  5
371
100
AcDbEntity
  8
box_20140827_153616_847966
 62
7
100
AcDbPolyline
 90
2
 70
0
 10
192.026692
 20
500.086891
 30
0.0
 10
192.026692
 20
507.844474
 30
0.0
  0
LWPOLYLINE
  5
372
100
AcDbEntity
  8
box_20140827_153616_847966
 62
7
100
AcDbPolyline
 90
2
 70
0
 10
409.267247
 20
725.085030
 30
0.0
 10
414.026219
 20
725.085030
 30
0.0
  0
LWPOLYLINE
  5
373
100
AcDbEntity
  8
box_20140827_153616_847966
 62
7
100
AcDbPolyline
 90
2
 70
0
 10
409.267247
 20
725.085030
 30
0.0
 10
409.267247
 20
722.086419
 30
0.0
  0
LWPOLYLINE
  5
374
100
AcDbEntity
  8
box_20140827_153616_847966
 62
7
100
AcDbPolyline
 90
2
 70
0
 10
401.506136
 20
722.086419
 30
0.0
 10
409.267247
 20
722.086419
 30
0.0
  0
LWPOLYLINE
  5
375
100
AcDbEntity
  8
box_20140827_153616_847966
 62
7
100
AcDbPolyline
 90
2
 70
0
 10
401.506136
 20
725.085030
 30
0.0
 10
401.506136
 20
722.086419
 30
0.0
  0
LWPOLYLINE
  5
376
100
AcDbEntity
  8
box_20140827_153616_847966
 62
7
100
AcDbPolyline
 90
2
 70
0
 10
393.748553
 20
725.085030
 30
0.0
 10
401.506136
 20
725.085030
 30
0.0
  0
LWPOLYLINE
  5
377
100
AcDbEntity
  8
box_20140827_153616_847966
 62
7
100
AcDbPolyline
 90
2
 70
0
 10
393.748553
 20
725.085030
 30
0.0
 10
393.748553
 20
722.086419
 30
0.0
  0
LWPOLYLINE
  5
378
100
AcDbEntity
  8
box_20140827_153616_847966
 62
7
100
AcDbPolyline
 90
2
 70
0
 10
385.990969
 20
722.086419
 30
0.0
 10
393.748553
 20
722.086419
 30
0.0
  0
LWPOLYLINE
  5
379
100
AcDbEntity
  8
box_20140827_153616_847966
 62
7
100
AcDbPolyline
 90
2
 70
0
 10
385.990969
 20
725.085030
 30
0.0
 10
385.990969
 20
722.086419
 30
0.0
  0
LWPOLYLINE
  5
37a
100
AcDbEntity
  8
box_20140827_153616_847966
 62
7
100
AcDbPolyline
 90
2
 70
0
 10
378.233386
 20
725.085030
 30
0.0
 10
385.990969
 20
725.085030
 30
0.0
  0
LWPOLYLINE
  5
37b
100
AcDbEntity
  8
box_20140827_153616_847966
 62
7
100
AcDbPolyline
 90
2
 70
0
 10
378.233386
 20
725.085030
 30
0.0
 10
378.233386
 20
722.086419
 30
0.0
  0
LWPOLYLINE
  5
37c
100
AcDbEntity
  8
box_20140827_153616_847966
 62
7
100
AcDbPolyline
 90
2
 70
0
 10
370.472275
 20
722.086419
 30
0.0
 10
378.233386
 20
722.086419
 30
0.0
  0
LWPOLYLINE
  5
37d
100
AcDbEntity
  8
box_20140827_153616_847966
 62
7
100
AcDbPolyline
 90
2
 70
0
 10
370.472275
 20
725.085030
 30
0.0
 10
370.472275
 20
722.086419
 30
0.0
  0
LWPOLYLINE
  5
37e
100
AcDbEntity
  8
box_20140827_153616_847966
 62
7
100
AcDbPolyline
 90
2
 70
0
 10
362.714692
 20
725.085030
 30
0.0
 10
370.472275
 20
725.085030
 30
0.0
  0
LWPOLYLINE
  5
37f
100
AcDbEntity
  8
box_20140827_153616_847966
 62
7
100
AcDbPolyline
 90
2
 70
0
 10
362.714692
 20
725.085030
 30
0.0
 10
362.714692
 20
722.086419
 30
0.0
  0
LWPOLYLINE
  5
380
100
AcDbEntity
  8
box_20140827_153616_847966
 62
7
100
AcDbPolyline
 90
2
 70
0
 10
354.957108
 20
722.086419
 30
0.0
 10
362.714692
 20
722.086419
 30
0.0
  0
LWPOLYLINE
  5
381
100
AcDbEntity
  8
box_20140827_153616_847966
 62
7
100
AcDbPolyline
 90
2
 70
0
 10
354.957108
 20
725.085030
 30
0.0
 10
354.957108
 20
722.086419
 30
0.0
  0
LWPOLYLINE
  5
382
100
AcDbEntity
  8
box_20140827_153616_847966
 62
7
100
AcDbPolyline
 90
2
 70
0
 10
347.195997
 20
725.085030
 30
0.0
 10
354.957108
 20
725.085030
 30
0.0
  0
LWPOLYLINE
  5
383
100
AcDbEntity
  8
box_20140827_153616_847966
 62
7
100
AcDbPolyline
 90
2
 70
0
 10
347.195997
 20
725.085030
 30
0.0
 10
347.195997
 20
722.086419
 30
0.0
  0
LWPOLYLINE
  5
384
100
AcDbEntity
  8
box_20140827_153616_847966
 62
7
100
AcDbPolyline
 90
2
 70
0
 10
339.438414
 20
722.086419
 30
0.0
 10
347.195997
 20
722.086419
 30
0.0
  0
LWPOLYLINE
  5
385
100
AcDbEntity
  8
box_20140827_153616_847966
 62
7
100
AcDbPolyline
 90
2
 70
0
 10
339.438414
 20
725.085030
 30
0.0
 10
339.438414
 20
722.086419
 30
0.0
  0
LWPOLYLINE
  5
386
100
AcDbEntity
  8
box_20140827_153616_847966
 62
7
100
AcDbPolyline
 90
2
 70
0
 10
331.680830
 20
725.085030
 30
0.0
 10
339.438414
 20
725.085030
 30
0.0
  0
LWPOLYLINE
  5
387
100
AcDbEntity
  8
box_20140827_153616_847966
 62
7
100
AcDbPolyline
 90
2
 70
0
 10
331.680830
 20
725.085030
 30
0.0
 10
331.680830
 20
722.086419
 30
0.0
  0
LWPOLYLINE
  5
388
100
AcDbEntity
  8
box_20140827_153616_847966
 62
7
100
AcDbPolyline
 90
2
 70
0
 10
323.923247
 20
722.086419
 30
0.0
 10
331.680830
 20
722.086419
 30
0.0
  0
LWPOLYLINE
  5
389
100
AcDbEntity
  8
box_20140827_153616_847966
 62
7
100
AcDbPolyline
 90
2
 70
0
 10
323.923247
 20
725.085030
 30
0.0
 10
323.923247
 20
722.086419
 30
0.0
  0
LWPOLYLINE
  5
38a
100
AcDbEntity
  8
box_20140827_153616_847966
 62
7
100
AcDbPolyline
 90
2
 70
0
 10
316.162136
 20
725.085030
 30
0.0
 10
323.923247
 20
725.085030
 30
0.0
  0
LWPOLYLINE
  5
38b
100
AcDbEntity
  8
box_20140827_153616_847966
 62
7
100
AcDbPolyline
 90
2
 70
0
 10
316.162136
 20
725.085030
 30
0.0
 10
316.162136
 20
722.086419
 30
0.0
  0
LWPOLYLINE
  5
38c
100
AcDbEntity
  8
box_20140827_153616_847966
 62
7
100
AcDbPolyline
 90
2
 70
0
 10
308.404553
 20
722.086419
 30
0.0
 10
316.162136
 20
722.086419
 30
0.0
  0
LWPOLYLINE
  5
38d
100
AcDbEntity
  8
box_20140827_153616_847966
 62
7
100
AcDbPolyline
 90
2
 70
0
 10
308.404553
 20
725.085030
 30
0.0
 10
308.404553
 20
722.086419
 30
0.0
  0
LWPOLYLINE
  5
38e
100
AcDbEntity
  8
box_20140827_153616_847966
 62
7
100
AcDbPolyline
 90
2
 70
0
 10
300.646969
 20
725.085030
 30
0.0
 10
308.404553
 20
725.085030
 30
0.0
  0
LWPOLYLINE
  5
38f
100
AcDbEntity
  8
box_20140827_153616_847966
 62
7
100
AcDbPolyline
 90
2
 70
0
 10
300.646969
 20
725.085030
 30
0.0
 10
300.646969
 20
722.086419
 30
0.0
  0
LWPOLYLINE
  5
390
100
AcDbEntity
  8
box_20140827_153616_847966
 62
7
100
AcDbPolyline
 90
2
 70
0
 10
292.885858
 20
722.086419
 30
0.0
 10
300.646969
 20
722.086419
 30
0.0
  0
LWPOLYLINE
  5
391
100
AcDbEntity
  8
box_20140827_153616_847966
 62
7
100
AcDbPolyline
 90
2
 70
0
 10
292.885858
 20
725.085030
 30
0.0
 10
292.885858
 20
722.086419
 30
0.0
  0
LWPOLYLINE
  5
392
100
AcDbEntity
  8
box_20140827_153616_847966
 62
7
100
AcDbPolyline
 90
2
 70
0
 10
285.128275
 20
725.085030
 30
0.0
 10
292.885858
 20
725.085030
 30
0.0
  0
LWPOLYLINE
  5
393
100
AcDbEntity
  8
box_20140827_153616_847966
 62
7
100
AcDbPolyline
 90
2
 70
0
 10
285.128275
 20
725.085030
 30
0.0
 10
285.128275
 20
722.086419
 30
0.0
  0
LWPOLYLINE
  5
394
100
AcDbEntity
  8
box_20140827_153616_847966
 62
7
100
AcDbPolyline
 90
2
 70
0
 10
277.370692
 20
722.086419
 30
0.0
 10
285.128275
 20
722.086419
 30
0.0
  0
LWPOLYLINE
  5
395
100
AcDbEntity
  8
box_20140827_153616_847966
 62
7
100
AcDbPolyline
 90
2
 70
0
 10
277.370692
 20
725.085030
 30
0.0
 10
277.370692
 20
722.086419
 30
0.0
  0
LWPOLYLINE
  5
396
100
AcDbEntity
  8
box_20140827_153616_847966
 62
7
100
AcDbPolyline
 90
2
 70
0
 10
269.609580
 20
725.085030
 30
0.0
 10
277.370692
 20
725.085030
 30
0.0
  0
LWPOLYLINE
  5
397
100
AcDbEntity
  8
box_20140827_153616_847966
 62
7
100
AcDbPolyline
 90
2
 70
0
 10
269.609580
 20
725.085030
 30
0.0
 10
269.609580
 20
722.086419
 30
0.0
  0
LWPOLYLINE
  5
398
100
AcDbEntity
  8
box_20140827_153616_847966
 62
7
100
AcDbPolyline
 90
2
 70
0
 10
261.851997
 20
722.086419
 30
0.0
 10
269.609580
 20
722.086419
 30
0.0
  0
LWPOLYLINE
  5
399
100
AcDbEntity
  8
box_20140827_153616_847966
 62
7
100
AcDbPolyline
 90
2
 70
0
 10
261.851997
 20
725.085030
 30
0.0
 10
261.851997
 20
722.086419
 30
0.0
  0
LWPOLYLINE
  5
39a
100
AcDbEntity
  8
box_20140827_153616_847966
 62
7
100
AcDbPolyline
 90
2
 70
0
 10
254.094414
 20
725.085030
 30
0.0
 10
261.851997
 20
725.085030
 30
0.0
  0
LWPOLYLINE
  5
39b
100
AcDbEntity
  8
box_20140827_153616_847966
 62
7
100
AcDbPolyline
 90
2
 70
0
 10
254.094414
 20
725.085030
 30
0.0
 10
254.094414
 20
722.086419
 30
0.0
  0
LWPOLYLINE
  5
39c
100
AcDbEntity
  8
box_20140827_153616_847966
 62
7
100
AcDbPolyline
 90
2
 70
0
 10
246.336830
 20
722.086419
 30
0.0
 10
254.094414
 20
722.086419
 30
0.0
  0
LWPOLYLINE
  5
39d
100
AcDbEntity
  8
box_20140827_153616_847966
 62
7
100
AcDbPolyline
 90
2
 70
0
 10
246.336830
 20
725.085030
 30
0.0
 10
246.336830
 20
722.086419
 30
0.0
  0
LWPOLYLINE
  5
39e
100
AcDbEntity
  8
box_20140827_153616_847966
 62
7
100
AcDbPolyline
 90
2
 70
0
 10
238.575719
 20
725.085030
 30
0.0
 10
246.336830
 20
725.085030
 30
0.0
  0
LWPOLYLINE
  5
39f
100
AcDbEntity
  8
box_20140827_153616_847966
 62
7
100
AcDbPolyline
 90
2
 70
0
 10
238.575719
 20
725.085030
 30
0.0
 10
238.575719
 20
722.086419
 30
0.0
  0
LWPOLYLINE
  5
3a0
100
AcDbEntity
  8
box_20140827_153616_847966
 62
7
100
AcDbPolyline
 90
2
 70
0
 10
230.818136
 20
722.086419
 30
0.0
 10
238.575719
 20
722.086419
 30
0.0
  0
LWPOLYLINE
  5
3a1
100
AcDbEntity
  8
box_20140827_153616_847966
 62
7
100
AcDbPolyline
 90
2
 70
0
 10
230.818136
 20
725.085030
 30
0.0
 10
230.818136
 20
722.086419
 30
0.0
  0
LWPOLYLINE
  5
3a2
100
AcDbEntity
  8
box_20140827_153616_847966
 62
7
100
AcDbPolyline
 90
2
 70
0
 10
223.060553
 20
725.085030
 30
0.0
 10
230.818136
 20
725.085030
 30
0.0
  0
LWPOLYLINE
  5
3a3
100
AcDbEntity
  8
box_20140827_153616_847966
 62
7
100
AcDbPolyline
 90
2
 70
0
 10
223.060553
 20
725.085030
 30
0.0
 10
223.060553
 20
722.086419
 30
0.0
  0
LWPOLYLINE
  5
3a4
100
AcDbEntity
  8
box_20140827_153616_847966
 62
7
100
AcDbPolyline
 90
2
 70
0
 10
215.299442
 20
722.086419
 30
0.0
 10
223.060553
 20
722.086419
 30
0.0
  0
LWPOLYLINE
  5
3a5
100
AcDbEntity
  8
box_20140827_153616_847966
 62
7
100
AcDbPolyline
 90
2
 70
0
 10
215.299442
 20
725.085030
 30
0.0
 10
215.299442
 20
722.086419
 30
0.0
  0
LWPOLYLINE
  5
3a6
100
AcDbEntity
  8
box_20140827_153616_847966
 62
7
100
AcDbPolyline
 90
2
 70
0
 10
207.541858
 20
725.085030
 30
0.0
 10
215.299442
 20
725.085030
 30
0.0
  0
LWPOLYLINE
  5
3a7
100
AcDbEntity
  8
box_20140827_153616_847966
 62
7
100
AcDbPolyline
 90
2
 70
0
 10
207.541858
 20
725.085030
 30
0.0
 10
207.541858
 20
722.086419
 30
0.0
  0
LWPOLYLINE
  5
3a8
100
AcDbEntity
  8
box_20140827_153616_847966
 62
7
100
AcDbPolyline
 90
2
 70
0
 10
199.784275
 20
722.086419
 30
0.0
 10
207.541858
 20
722.086419
 30
0.0
  0
LWPOLYLINE
  5
3a9
100
AcDbEntity
  8
box_20140827_153616_847966
 62
7
100
AcDbPolyline
 90
2
 70
0
 10
199.784275
 20
725.085030
 30
0.0
 10
199.784275
 20
722.086419
 30
0.0
  0
LWPOLYLINE
  5
3aa
100
AcDbEntity
  8
box_20140827_153616_847966
 62
7
100
AcDbPolyline
 90
2
 70
0
 10
192.026692
 20
725.085030
 30
0.0
 10
199.784275
 20
725.085030
 30
0.0
  0
LWPOLYLINE
  5
3ab
100
AcDbEntity
  8
box_20140827_153616_847966
 62
7
100
AcDbPolyline
 90
2
 70
0
 10
409.267247
 20
500.086891
 30
0.0
 10
414.026219
 20
500.086891
 30
0.0
  0
LWPOLYLINE
  5
3ac
100
AcDbEntity
  8
box_20140827_153616_847966
 62
7
100
AcDbPolyline
 90
2
 70
0
 10
409.267247
 20
503.085502
 30
0.0
 10
409.267247
 20
500.086891
 30
0.0
  0
LWPOLYLINE
  5
3ad
100
AcDbEntity
  8
box_20140827_153616_847966
 62
7
100
AcDbPolyline
 90
2
 70
0
 10
401.506136
 20
503.085502
 30
0.0
 10
409.267247
 20
503.085502
 30
0.0
  0
LWPOLYLINE
  5
3ae
100
AcDbEntity
  8
box_20140827_153616_847966
 62
7
100
AcDbPolyline
 90
2
 70
0
 10
401.506136
 20
503.085502
 30
0.0
 10
401.506136
 20
500.086891
 30
0.0
  0
LWPOLYLINE
  5
3af
100
AcDbEntity
  8
box_20140827_153616_847966
 62
7
100
AcDbPolyline
 90
2
 70
0
 10
393.748553
 20
500.086891
 30
0.0
 10
401.506136
 20
500.086891
 30
0.0
  0
LWPOLYLINE
  5
3b0
100
AcDbEntity
  8
box_20140827_153616_847966
 62
7
100
AcDbPolyline
 90
2
 70
0
 10
393.748553
 20
503.085502
 30
0.0
 10
393.748553
 20
500.086891
 30
0.0
  0
LWPOLYLINE
  5
3b1
100
AcDbEntity
  8
box_20140827_153616_847966
 62
7
100
AcDbPolyline
 90
2
 70
0
 10
385.990969
 20
503.085502
 30
0.0
 10
393.748553
 20
503.085502
 30
0.0
  0
LWPOLYLINE
  5
3b2
100
AcDbEntity
  8
box_20140827_153616_847966
 62
7
100
AcDbPolyline
 90
2
 70
0
 10
385.990969
 20
503.085502
 30
0.0
 10
385.990969
 20
500.086891
 30
0.0
  0
LWPOLYLINE
  5
3b3
100
AcDbEntity
  8
box_20140827_153616_847966
 62
7
100
AcDbPolyline
 90
2
 70
0
 10
378.233386
 20
500.086891
 30
0.0
 10
385.990969
 20
500.086891
 30
0.0
  0
LWPOLYLINE
  5
3b4
100
AcDbEntity
  8
box_20140827_153616_847966
 62
7
100
AcDbPolyline
 90
2
 70
0
 10
378.233386
 20
503.085502
 30
0.0
 10
378.233386
 20
500.086891
 30
0.0
  0
LWPOLYLINE
  5
3b5
100
AcDbEntity
  8
box_20140827_153616_847966
 62
7
100
AcDbPolyline
 90
2
 70
0
 10
370.472275
 20
503.085502
 30
0.0
 10
378.233386
 20
503.085502
 30
0.0
  0
LWPOLYLINE
  5
3b6
100
AcDbEntity
  8
box_20140827_153616_847966
 62
7
100
AcDbPolyline
 90
2
 70
0
 10
370.472275
 20
503.085502
 30
0.0
 10
370.472275
 20
500.086891
 30
0.0
  0
LWPOLYLINE
  5
3b7
100
AcDbEntity
  8
box_20140827_153616_847966
 62
7
100
AcDbPolyline
 90
2
 70
0
 10
362.714692
 20
500.086891
 30
0.0
 10
370.472275
 20
500.086891
 30
0.0
  0
LWPOLYLINE
  5
3b8
100
AcDbEntity
  8
box_20140827_153616_847966
 62
7
100
AcDbPolyline
 90
2
 70
0
 10
362.714692
 20
503.085502
 30
0.0
 10
362.714692
 20
500.086891
 30
0.0
  0
LWPOLYLINE
  5
3b9
100
AcDbEntity
  8
box_20140827_153616_847966
 62
7
100
AcDbPolyline
 90
2
 70
0
 10
354.957108
 20
503.085502
 30
0.0
 10
362.714692
 20
503.085502
 30
0.0
  0
LWPOLYLINE
  5
3ba
100
AcDbEntity
  8
box_20140827_153616_847966
 62
7
100
AcDbPolyline
 90
2
 70
0
 10
354.957108
 20
503.085502
 30
0.0
 10
354.957108
 20
500.086891
 30
0.0
  0
LWPOLYLINE
  5
3bb
100
AcDbEntity
  8
box_20140827_153616_847966
 62
7
100
AcDbPolyline
 90
2
 70
0
 10
347.195997
 20
500.086891
 30
0.0
 10
354.957108
 20
500.086891
 30
0.0
  0
LWPOLYLINE
  5
3bc
100
AcDbEntity
  8
box_20140827_153616_847966
 62
7
100
AcDbPolyline
 90
2
 70
0
 10
347.195997
 20
503.085502
 30
0.0
 10
347.195997
 20
500.086891
 30
0.0
  0
LWPOLYLINE
  5
3bd
100
AcDbEntity
  8
box_20140827_153616_847966
 62
7
100
AcDbPolyline
 90
2
 70
0
 10
339.438414
 20
503.085502
 30
0.0
 10
347.195997
 20
503.085502
 30
0.0
  0
LWPOLYLINE
  5
3be
100
AcDbEntity
  8
box_20140827_153616_847966
 62
7
100
AcDbPolyline
 90
2
 70
0
 10
339.438414
 20
503.085502
 30
0.0
 10
339.438414
 20
500.086891
 30
0.0
  0
LWPOLYLINE
  5
3bf
100
AcDbEntity
  8
box_20140827_153616_847966
 62
7
100
AcDbPolyline
 90
2
 70
0
 10
331.680830
 20
500.086891
 30
0.0
 10
339.438414
 20
500.086891
 30
0.0
  0
LWPOLYLINE
  5
3c0
100
AcDbEntity
  8
box_20140827_153616_847966
 62
7
100
AcDbPolyline
 90
2
 70
0
 10
331.680830
 20
503.085502
 30
0.0
 10
331.680830
 20
500.086891
 30
0.0
  0
LWPOLYLINE
  5
3c1
100
AcDbEntity
  8
box_20140827_153616_847966
 62
7
100
AcDbPolyline
 90
2
 70
0
 10
323.923247
 20
503.085502
 30
0.0
 10
331.680830
 20
503.085502
 30
0.0
  0
LWPOLYLINE
  5
3c2
100
AcDbEntity
  8
box_20140827_153616_847966
 62
7
100
AcDbPolyline
 90
2
 70
0
 10
323.923247
 20
503.085502
 30
0.0
 10
323.923247
 20
500.086891
 30
0.0
  0
LWPOLYLINE
  5
3c3
100
AcDbEntity
  8
box_20140827_153616_847966
 62
7
100
AcDbPolyline
 90
2
 70
0
 10
316.162136
 20
500.086891
 30
0.0
 10
323.923247
 20
500.086891
 30
0.0
  0
LWPOLYLINE
  5
3c4
100
AcDbEntity
  8
box_20140827_153616_847966
 62
7
100
AcDbPolyline
 90
2
 70
0
 10
316.162136
 20
503.085502
 30
0.0
 10
316.162136
 20
500.086891
 30
0.0
  0
LWPOLYLINE
  5
3c5
100
AcDbEntity
  8
box_20140827_153616_847966
 62
7
100
AcDbPolyline
 90
2
 70
0
 10
308.404553
 20
503.085502
 30
0.0
 10
316.162136
 20
503.085502
 30
0.0
  0
LWPOLYLINE
  5
3c6
100
AcDbEntity
  8
box_20140827_153616_847966
 62
7
100
AcDbPolyline
 90
2
 70
0
 10
308.404553
 20
503.085502
 30
0.0
 10
308.404553
 20
500.086891
 30
0.0
  0
LWPOLYLINE
  5
3c7
100
AcDbEntity
  8
box_20140827_153616_847966
 62
7
100
AcDbPolyline
 90
2
 70
0
 10
300.646969
 20
500.086891
 30
0.0
 10
308.404553
 20
500.086891
 30
0.0
  0
LWPOLYLINE
  5
3c8
100
AcDbEntity
  8
box_20140827_153616_847966
 62
7
100
AcDbPolyline
 90
2
 70
0
 10
300.646969
 20
503.085502
 30
0.0
 10
300.646969
 20
500.086891
 30
0.0
  0
LWPOLYLINE
  5
3c9
100
AcDbEntity
  8
box_20140827_153616_847966
 62
7
100
AcDbPolyline
 90
2
 70
0
 10
292.885858
 20
503.085502
 30
0.0
 10
300.646969
 20
503.085502
 30
0.0
  0
LWPOLYLINE
  5
3ca
100
AcDbEntity
  8
box_20140827_153616_847966
 62
7
100
AcDbPolyline
 90
2
 70
0
 10
292.885858
 20
503.085502
 30
0.0
 10
292.885858
 20
500.086891
 30
0.0
  0
LWPOLYLINE
  5
3cb
100
AcDbEntity
  8
box_20140827_153616_847966
 62
7
100
AcDbPolyline
 90
2
 70
0
 10
285.128275
 20
500.086891
 30
0.0
 10
292.885858
 20
500.086891
 30
0.0
  0
LWPOLYLINE
  5
3cc
100
AcDbEntity
  8
box_20140827_153616_847966
 62
7
100
AcDbPolyline
 90
2
 70
0
 10
285.128275
 20
503.085502
 30
0.0
 10
285.128275
 20
500.086891
 30
0.0
  0
LWPOLYLINE
  5
3cd
100
AcDbEntity
  8
box_20140827_153616_847966
 62
7
100
AcDbPolyline
 90
2
 70
0
 10
277.370692
 20
503.085502
 30
0.0
 10
285.128275
 20
503.085502
 30
0.0
  0
LWPOLYLINE
  5
3ce
100
AcDbEntity
  8
box_20140827_153616_847966
 62
7
100
AcDbPolyline
 90
2
 70
0
 10
277.370692
 20
503.085502
 30
0.0
 10
277.370692
 20
500.086891
 30
0.0
  0
LWPOLYLINE
  5
3cf
100
AcDbEntity
  8
box_20140827_153616_847966
 62
7
100
AcDbPolyline
 90
2
 70
0
 10
269.609580
 20
500.086891
 30
0.0
 10
277.370692
 20
500.086891
 30
0.0
  0
LWPOLYLINE
  5
3d0
100
AcDbEntity
  8
box_20140827_153616_847966
 62
7
100
AcDbPolyline
 90
2
 70
0
 10
269.609580
 20
503.085502
 30
0.0
 10
269.609580
 20
500.086891
 30
0.0
  0
LWPOLYLINE
  5
3d1
100
AcDbEntity
  8
box_20140827_153616_847966
 62
7
100
AcDbPolyline
 90
2
 70
0
 10
261.851997
 20
503.085502
 30
0.0
 10
269.609580
 20
503.085502
 30
0.0
  0
LWPOLYLINE
  5
3d2
100
AcDbEntity
  8
box_20140827_153616_847966
 62
7
100
AcDbPolyline
 90
2
 70
0
 10
261.851997
 20
503.085502
 30
0.0
 10
261.851997
 20
500.086891
 30
0.0
  0
LWPOLYLINE
  5
3d3
100
AcDbEntity
  8
box_20140827_153616_847966
 62
7
100
AcDbPolyline
 90
2
 70
0
 10
254.094414
 20
500.086891
 30
0.0
 10
261.851997
 20
500.086891
 30
0.0
  0
LWPOLYLINE
  5
3d4
100
AcDbEntity
  8
box_20140827_153616_847966
 62
7
100
AcDbPolyline
 90
2
 70
0
 10
254.094414
 20
503.085502
 30
0.0
 10
254.094414
 20
500.086891
 30
0.0
  0
LWPOLYLINE
  5
3d5
100
AcDbEntity
  8
box_20140827_153616_847966
 62
7
100
AcDbPolyline
 90
2
 70
0
 10
246.336830
 20
503.085502
 30
0.0
 10
254.094414
 20
503.085502
 30
0.0
  0
LWPOLYLINE
  5
3d6
100
AcDbEntity
  8
box_20140827_153616_847966
 62
7
100
AcDbPolyline
 90
2
 70
0
 10
246.336830
 20
503.085502
 30
0.0
 10
246.336830
 20
500.086891
 30
0.0
  0
LWPOLYLINE
  5
3d7
100
AcDbEntity
  8
box_20140827_153616_847966
 62
7
100
AcDbPolyline
 90
2
 70
0
 10
238.575719
 20
500.086891
 30
0.0
 10
246.336830
 20
500.086891
 30
0.0
  0
LWPOLYLINE
  5
3d8
100
AcDbEntity
  8
box_20140827_153616_847966
 62
7
100
AcDbPolyline
 90
2
 70
0
 10
238.575719
 20
503.085502
 30
0.0
 10
238.575719
 20
500.086891
 30
0.0
  0
LWPOLYLINE
  5
3d9
100
AcDbEntity
  8
box_20140827_153616_847966
 62
7
100
AcDbPolyline
 90
2
 70
0
 10
230.818136
 20
503.085502
 30
0.0
 10
238.575719
 20
503.085502
 30
0.0
  0
LWPOLYLINE
  5
3da
100
AcDbEntity
  8
box_20140827_153616_847966
 62
7
100
AcDbPolyline
 90
2
 70
0
 10
230.818136
 20
503.085502
 30
0.0
 10
230.818136
 20
500.086891
 30
0.0
  0
LWPOLYLINE
  5
3db
100
AcDbEntity
  8
box_20140827_153616_847966
 62
7
100
AcDbPolyline
 90
2
 70
0
 10
223.060553
 20
500.086891
 30
0.0
 10
230.818136
 20
500.086891
 30
0.0
  0
LWPOLYLINE
  5
3dc
100
AcDbEntity
  8
box_20140827_153616_847966
 62
7
100
AcDbPolyline
 90
2
 70
0
 10
223.060553
 20
503.085502
 30
0.0
 10
223.060553
 20
500.086891
 30
0.0
  0
LWPOLYLINE
  5
3dd
100
AcDbEntity
  8
box_20140827_153616_847966
 62
7
100
AcDbPolyline
 90
2
 70
0
 10
215.299442
 20
503.085502
 30
0.0
 10
223.060553
 20
503.085502
 30
0.0
  0
LWPOLYLINE
  5
3de
100
AcDbEntity
  8
box_20140827_153616_847966
 62
7
100
AcDbPolyline
 90
2
 70
0
 10
215.299442
 20
503.085502
 30
0.0
 10
215.299442
 20
500.086891
 30
0.0
  0
LWPOLYLINE
  5
3df
100
AcDbEntity
  8
box_20140827_153616_847966
 62
7
100
AcDbPolyline
 90
2
 70
0
 10
207.541858
 20
500.086891
 30
0.0
 10
215.299442
 20
500.086891
 30
0.0
  0
LWPOLYLINE
  5
3e0
100
AcDbEntity
  8
box_20140827_153616_847966
 62
7
100
AcDbPolyline
 90
2
 70
0
 10
207.541858
 20
503.085502
 30
0.0
 10
207.541858
 20
500.086891
 30
0.0
  0
LWPOLYLINE
  5
3e1
100
AcDbEntity
  8
box_20140827_153616_847966
 62
7
100
AcDbPolyline
 90
2
 70
0
 10
199.784275
 20
503.085502
 30
0.0
 10
207.541858
 20
503.085502
 30
0.0
  0
LWPOLYLINE
  5
3e2
100
AcDbEntity
  8
box_20140827_153616_847966
 62
7
100
AcDbPolyline
 90
2
 70
0
 10
199.784275
 20
503.085502
 30
0.0
 10
199.784275
 20
500.086891
 30
0.0
  0
LWPOLYLINE
  5
3e3
100
AcDbEntity
  8
box_20140827_153616_847966
 62
7
100
AcDbPolyline
 90
2
 70
0
 10
192.026692
 20
500.086891
 30
0.0
 10
199.784275
 20
500.086891
 30
0.0
  0
LWPOLYLINE
  5
3e4
100
AcDbEntity
  8
box_20140827_153616_847966
 62
7
100
AcDbPolyline
 90
4
 70
0
 10
195.025303
 20
738.084891
 30
0.0
 10
199.784275
 20
738.084891
 30
0.0
 10
199.784275
 20
735.086280
 30
0.0
 10
207.541858
 20
735.086280
 30
0.0
  0
LWPOLYLINE
  5
3e5
100
AcDbEntity
  8
box_20140827_153616_847966
 62
7
100
AcDbPolyline
 90
2
 70
0
 10
207.541858
 20
738.084891
 30
0.0
 10
207.541858
 20
735.086280
 30
0.0
  0
LWPOLYLINE
  5
3e6
100
AcDbEntity
  8
box_20140827_153616_847966
 62
7
100
AcDbPolyline
 90
4
 70
0
 10
207.541858
 20
738.084891
 30
0.0
 10
215.299442
 20
738.084891
 30
0.0
 10
215.299442
 20
735.086280
 30
0.0
 10
223.060553
 20
735.086280
 30
0.0
  0
LWPOLYLINE
  5
3e7
100
AcDbEntity
  8
box_20140827_153616_847966
 62
7
100
AcDbPolyline
 90
2
 70
0
 10
223.060553
 20
738.084891
 30
0.0
 10
223.060553
 20
735.086280
 30
0.0
  0
LWPOLYLINE
  5
3e8
100
AcDbEntity
  8
box_20140827_153616_847966
 62
7
100
AcDbPolyline
 90
4
 70
0
 10
223.060553
 20
738.084891
 30
0.0
 10
230.818136
 20
738.084891
 30
0.0
 10
230.818136
 20
735.086280
 30
0.0
 10
238.575719
 20
735.086280
 30
0.0
  0
LWPOLYLINE
  5
3e9
100
AcDbEntity
  8
box_20140827_153616_847966
 62
7
100
AcDbPolyline
 90
2
 70
0
 10
238.575719
 20
738.084891
 30
0.0
 10
238.575719
 20
735.086280
 30
0.0
  0
LWPOLYLINE
  5
3ea
100
AcDbEntity
  8
box_20140827_153616_847966
 62
7
100
AcDbPolyline
 90
4
 70
0
 10
238.575719
 20
738.084891
 30
0.0
 10
246.336830
 20
738.084891
 30
0.0
 10
246.336830
 20
735.086280
 30
0.0
 10
254.094414
 20
735.086280
 30
0.0
  0
LWPOLYLINE
  5
3eb
100
AcDbEntity
  8
box_20140827_153616_847966
 62
7
100
AcDbPolyline
 90
2
 70
0
 10
254.094414
 20
738.084891
 30
0.0
 10
254.094414
 20
735.086280
 30
0.0
  0
LWPOLYLINE
  5
3ec
100
AcDbEntity
  8
box_20140827_153616_847966
 62
7
100
AcDbPolyline
 90
4
 70
0
 10
254.094414
 20
738.084891
 30
0.0
 10
261.851997
 20
738.084891
 30
0.0
 10
261.851997
 20
735.086280
 30
0.0
 10
269.609580
 20
735.086280
 30
0.0
  0
LWPOLYLINE
  5
3ed
100
AcDbEntity
  8
box_20140827_153616_847966
 62
7
100
AcDbPolyline
 90
2
 70
0
 10
269.609580
 20
738.084891
 30
0.0
 10
269.609580
 20
735.086280
 30
0.0
  0
LWPOLYLINE
  5
3ee
100
AcDbEntity
  8
box_20140827_153616_847966
 62
7
100
AcDbPolyline
 90
4
 70
0
 10
269.609580
 20
738.084891
 30
0.0
 10
277.370692
 20
738.084891
 30
0.0
 10
277.370692
 20
735.086280
 30
0.0
 10
285.128275
 20
735.086280
 30
0.0
  0
LWPOLYLINE
  5
3ef
100
AcDbEntity
  8
box_20140827_153616_847966
 62
7
100
AcDbPolyline
 90
2
 70
0
 10
285.128275
 20
738.084891
 30
0.0
 10
285.128275
 20
735.086280
 30
0.0
  0
LWPOLYLINE
  5
3f0
100
AcDbEntity
  8
box_20140827_153616_847966
 62
7
100
AcDbPolyline
 90
4
 70
0
 10
285.128275
 20
738.084891
 30
0.0
 10
292.885858
 20
738.084891
 30
0.0
 10
292.885858
 20
735.086280
 30
0.0
 10
300.646969
 20
735.086280
 30
0.0
  0
LWPOLYLINE
  5
3f1
100
AcDbEntity
  8
box_20140827_153616_847966
 62
7
100
AcDbPolyline
 90
2
 70
0
 10
300.646969
 20
738.084891
 30
0.0
 10
300.646969
 20
735.086280
 30
0.0
  0
LWPOLYLINE
  5
3f2
100
AcDbEntity
  8
box_20140827_153616_847966
 62
7
100
AcDbPolyline
 90
4
 70
0
 10
300.646969
 20
738.084891
 30
0.0
 10
308.404553
 20
738.084891
 30
0.0
 10
308.404553
 20
735.086280
 30
0.0
 10
316.162136
 20
735.086280
 30
0.0
  0
LWPOLYLINE
  5
3f3
100
AcDbEntity
  8
box_20140827_153616_847966
 62
7
100
AcDbPolyline
 90
2
 70
0
 10
316.162136
 20
738.084891
 30
0.0
 10
316.162136
 20
735.086280
 30
0.0
  0
LWPOLYLINE
  5
3f4
100
AcDbEntity
  8
box_20140827_153616_847966
 62
7
100
AcDbPolyline
 90
4
 70
0
 10
316.162136
 20
738.084891
 30
0.0
 10
323.923247
 20
738.084891
 30
0.0
 10
323.923247
 20
735.086280
 30
0.0
 10
331.680830
 20
735.086280
 30
0.0
  0
LWPOLYLINE
  5
3f5
100
AcDbEntity
  8
box_20140827_153616_847966
 62
7
100
AcDbPolyline
 90
2
 70
0
 10
331.680830
 20
738.084891
 30
0.0
 10
331.680830
 20
735.086280
 30
0.0
  0
LWPOLYLINE
  5
3f6
100
AcDbEntity
  8
box_20140827_153616_847966
 62
7
100
AcDbPolyline
 90
4
 70
0
 10
331.680830
 20
738.084891
 30
0.0
 10
339.438414
 20
738.084891
 30
0.0
 10
339.438414
 20
735.086280
 30
0.0
 10
347.195997
 20
735.086280
 30
0.0
  0
LWPOLYLINE
  5
3f7
100
AcDbEntity
  8
box_20140827_153616_847966
 62
7
100
AcDbPolyline
 90
2
 70
0
 10
347.195997
 20
738.084891
 30
0.0
 10
347.195997
 20
735.086280
 30
0.0
  0
LWPOLYLINE
  5
3f8
100
AcDbEntity
  8
box_20140827_153616_847966
 62
7
100
AcDbPolyline
 90
4
 70
0
 10
347.195997
 20
738.084891
 30
0.0
 10
354.957108
 20
738.084891
 30
0.0
 10
354.957108
 20
735.086280
 30
0.0
 10
362.714692
 20
735.086280
 30
0.0
  0
LWPOLYLINE
  5
3f9
100
AcDbEntity
  8
box_20140827_153616_847966
 62
7
100
AcDbPolyline
 90
2
 70
0
 10
362.714692
 20
738.084891
 30
0.0
 10
362.714692
 20
735.086280
 30
0.0
  0
LWPOLYLINE
  5
3fa
100
AcDbEntity
  8
box_20140827_153616_847966
 62
7
100
AcDbPolyline
 90
4
 70
0
 10
362.714692
 20
738.084891
 30
0.0
 10
370.472275
 20
738.084891
 30
0.0
 10
370.472275
 20
735.086280
 30
0.0
 10
378.233386
 20
735.086280
 30
0.0
  0
LWPOLYLINE
  5
3fb
100
AcDbEntity
  8
box_20140827_153616_847966
 62
7
100
AcDbPolyline
 90
2
 70
0
 10
378.233386
 20
738.084891
 30
0.0
 10
378.233386
 20
735.086280
 30
0.0
  0
LWPOLYLINE
  5
3fc
100
AcDbEntity
  8
box_20140827_153616_847966
 62
7
100
AcDbPolyline
 90
4
 70
0
 10
378.233386
 20
738.084891
 30
0.0
 10
385.990969
 20
738.084891
 30
0.0
 10
385.990969
 20
735.086280
 30
0.0
 10
393.748553
 20
735.086280
 30
0.0
  0
LWPOLYLINE
  5
3fd
100
AcDbEntity
  8
box_20140827_153616_847966
 62
7
100
AcDbPolyline
 90
2
 70
0
 10
393.748553
 20
738.084891
 30
0.0
 10
393.748553
 20
735.086280
 30
0.0
  0
LWPOLYLINE
  5
3fe
100
AcDbEntity
  8
box_20140827_153616_847966
 62
7
100
AcDbPolyline
 90
4
 70
0
 10
393.748553
 20
738.084891
 30
0.0
 10
401.506136
 20
738.084891
 30
0.0
 10
401.506136
 20
735.086280
 30
0.0
 10
409.267247
 20
735.086280
 30
0.0
  0
LWPOLYLINE
  5
3ff
100
AcDbEntity
  8
box_20140827_153616_847966
 62
7
100
AcDbPolyline
 90
2
 70
0
 10
409.267247
 20
738.084891
 30
0.0
 10
409.267247
 20
735.086280
 30
0.0
  0
LWPOLYLINE
  5
400
100
AcDbEntity
  8
box_20140827_153616_847966
 62
7
100
AcDbPolyline
 90
2
 70
0
 10
409.267247
 20
738.084891
 30
0.0
 10
414.026219
 20
738.084891
 30
0.0
  0
LWPOLYLINE
  5
401
100
AcDbEntity
  8
box_20140827_153616_847966
 62
7
100
AcDbPolyline
 90
2
 70
0
 10
195.025303
 20
782.086863
 30
0.0
 10
199.784275
 20
782.086863
 30
0.0
  0
LWPOLYLINE
  5
402
100
AcDbEntity
  8
box_20140827_153616_847966
 62
7
100
AcDbPolyline
 90
2
 70
0
 10
199.784275
 20
785.085474
 30
0.0
 10
199.784275
 20
782.086863
 30
0.0
  0
LWPOLYLINE
  5
403
100
AcDbEntity
  8
box_20140827_153616_847966
 62
7
100
AcDbPolyline
 90
4
 70
0
 10
199.784275
 20
785.085474
 30
0.0
 10
207.541858
 20
785.085474
 30
0.0
 10
207.541858
 20
782.086863
 30
0.0
 10
215.299442
 20
782.086863
 30
0.0
  0
LWPOLYLINE
  5
404
100
AcDbEntity
  8
box_20140827_153616_847966
 62
7
100
AcDbPolyline
 90
2
 70
0
 10
215.299442
 20
785.085474
 30
0.0
 10
215.299442
 20
782.086863
 30
0.0
  0
LWPOLYLINE
  5
405
100
AcDbEntity
  8
box_20140827_153616_847966
 62
7
100
AcDbPolyline
 90
4
 70
0
 10
215.299442
 20
785.085474
 30
0.0
 10
223.060553
 20
785.085474
 30
0.0
 10
223.060553
 20
782.086863
 30
0.0
 10
230.818136
 20
782.086863
 30
0.0
  0
LWPOLYLINE
  5
406
100
AcDbEntity
  8
box_20140827_153616_847966
 62
7
100
AcDbPolyline
 90
2
 70
0
 10
230.818136
 20
785.085474
 30
0.0
 10
230.818136
 20
782.086863
 30
0.0
  0
LWPOLYLINE
  5
407
100
AcDbEntity
  8
box_20140827_153616_847966
 62
7
100
AcDbPolyline
 90
4
 70
0
 10
230.818136
 20
785.085474
 30
0.0
 10
238.575719
 20
785.085474
 30
0.0
 10
238.575719
 20
782.086863
 30
0.0
 10
246.336830
 20
782.086863
 30
0.0
  0
LWPOLYLINE
  5
408
100
AcDbEntity
  8
box_20140827_153616_847966
 62
7
100
AcDbPolyline
 90
2
 70
0
 10
246.336830
 20
785.085474
 30
0.0
 10
246.336830
 20
782.086863
 30
0.0
  0
LWPOLYLINE
  5
409
100
AcDbEntity
  8
box_20140827_153616_847966
 62
7
100
AcDbPolyline
 90
4
 70
0
 10
246.336830
 20
785.085474
 30
0.0
 10
254.094414
 20
785.085474
 30
0.0
 10
254.094414
 20
782.086863
 30
0.0
 10
261.851997
 20
782.086863
 30
0.0
  0
LWPOLYLINE
  5
40a
100
AcDbEntity
  8
box_20140827_153616_847966
 62
7
100
AcDbPolyline
 90
2
 70
0
 10
261.851997
 20
785.085474
 30
0.0
 10
261.851997
 20
782.086863
 30
0.0
  0
LWPOLYLINE
  5
40b
100
AcDbEntity
  8
box_20140827_153616_847966
 62
7
100
AcDbPolyline
 90
4
 70
0
 10
261.851997
 20
785.085474
 30
0.0
 10
269.609580
 20
785.085474
 30
0.0
 10
269.609580
 20
782.086863
 30
0.0
 10
277.370692
 20
782.086863
 30
0.0
  0
LWPOLYLINE
  5
40c
100
AcDbEntity
  8
box_20140827_153616_847966
 62
7
100
AcDbPolyline
 90
2
 70
0
 10
277.370692
 20
785.085474
 30
0.0
 10
277.370692
 20
782.086863
 30
0.0
  0
LWPOLYLINE
  5
40d
100
AcDbEntity
  8
box_20140827_153616_847966
 62
7
100
AcDbPolyline
 90
4
 70
0
 10
277.370692
 20
785.085474
 30
0.0
 10
285.128275
 20
785.085474
 30
0.0
 10
285.128275
 20
782.086863
 30
0.0
 10
292.885858
 20
782.086863
 30
0.0
  0
LWPOLYLINE
  5
40e
100
AcDbEntity
  8
box_20140827_153616_847966
 62
7
100
AcDbPolyline
 90
2
 70
0
 10
292.885858
 20
785.085474
 30
0.0
 10
292.885858
 20
782.086863
 30
0.0
  0
LWPOLYLINE
  5
40f
100
AcDbEntity
  8
box_20140827_153616_847966
 62
7
100
AcDbPolyline
 90
4
 70
0
 10
292.885858
 20
785.085474
 30
0.0
 10
300.646969
 20
785.085474
 30
0.0
 10
300.646969
 20
782.086863
 30
0.0
 10
308.404553
 20
782.086863
 30
0.0
  0
LWPOLYLINE
  5
410
100
AcDbEntity
  8
box_20140827_153616_847966
 62
7
100
AcDbPolyline
 90
2
 70
0
 10
308.404553
 20
785.085474
 30
0.0
 10
308.404553
 20
782.086863
 30
0.0
  0
LWPOLYLINE
  5
411
100
AcDbEntity
  8
box_20140827_153616_847966
 62
7
100
AcDbPolyline
 90
4
 70
0
 10
308.404553
 20
785.085474
 30
0.0
 10
316.162136
 20
785.085474
 30
0.0
 10
316.162136
 20
782.086863
 30
0.0
 10
323.923247
 20
782.086863
 30
0.0
  0
LWPOLYLINE
  5
412
100
AcDbEntity
  8
box_20140827_153616_847966
 62
7
100
AcDbPolyline
 90
2
 70
0
 10
323.923247
 20
785.085474
 30
0.0
 10
323.923247
 20
782.086863
 30
0.0
  0
LWPOLYLINE
  5
413
100
AcDbEntity
  8
box_20140827_153616_847966
 62
7
100
AcDbPolyline
 90
4
 70
0
 10
323.923247
 20
785.085474
 30
0.0
 10
331.680830
 20
785.085474
 30
0.0
 10
331.680830
 20
782.086863
 30
0.0
 10
339.438414
 20
782.086863
 30
0.0
  0
LWPOLYLINE
  5
414
100
AcDbEntity
  8
box_20140827_153616_847966
 62
7
100
AcDbPolyline
 90
2
 70
0
 10
339.438414
 20
785.085474
 30
0.0
 10
339.438414
 20
782.086863
 30
0.0
  0
LWPOLYLINE
  5
415
100
AcDbEntity
  8
box_20140827_153616_847966
 62
7
100
AcDbPolyline
 90
4
 70
0
 10
339.438414
 20
785.085474
 30
0.0
 10
347.195997
 20
785.085474
 30
0.0
 10
347.195997
 20
782.086863
 30
0.0
 10
354.957108
 20
782.086863
 30
0.0
  0
LWPOLYLINE
  5
416
100
AcDbEntity
  8
box_20140827_153616_847966
 62
7
100
AcDbPolyline
 90
2
 70
0
 10
354.957108
 20
785.085474
 30
0.0
 10
354.957108
 20
782.086863
 30
0.0
  0
LWPOLYLINE
  5
417
100
AcDbEntity
  8
box_20140827_153616_847966
 62
7
100
AcDbPolyline
 90
4
 70
0
 10
354.957108
 20
785.085474
 30
0.0
 10
362.714692
 20
785.085474
 30
0.0
 10
362.714692
 20
782.086863
 30
0.0
 10
370.472275
 20
782.086863
 30
0.0
  0
LWPOLYLINE
  5
418
100
AcDbEntity
  8
box_20140827_153616_847966
 62
7
100
AcDbPolyline
 90
2
 70
0
 10
370.472275
 20
785.085474
 30
0.0
 10
370.472275
 20
782.086863
 30
0.0
  0
LWPOLYLINE
  5
419
100
AcDbEntity
  8
box_20140827_153616_847966
 62
7
100
AcDbPolyline
 90
4
 70
0
 10
370.472275
 20
785.085474
 30
0.0
 10
378.233386
 20
785.085474
 30
0.0
 10
378.233386
 20
782.086863
 30
0.0
 10
385.990969
 20
782.086863
 30
0.0
  0
LWPOLYLINE
  5
41a
100
AcDbEntity
  8
box_20140827_153616_847966
 62
7
100
AcDbPolyline
 90
2
 70
0
 10
385.990969
 20
785.085474
 30
0.0
 10
385.990969
 20
782.086863
 30
0.0
  0
LWPOLYLINE
  5
41b
100
AcDbEntity
  8
box_20140827_153616_847966
 62
7
100
AcDbPolyline
 90
4
 70
0
 10
385.990969
 20
785.085474
 30
0.0
 10
393.748553
 20
785.085474
 30
0.0
 10
393.748553
 20
782.086863
 30
0.0
 10
401.506136
 20
782.086863
 30
0.0
  0
LWPOLYLINE
  5
41c
100
AcDbEntity
  8
box_20140827_153616_847966
 62
7
100
AcDbPolyline
 90
2
 70
0
 10
401.506136
 20
785.085474
 30
0.0
 10
401.506136
 20
782.086863
 30
0.0
  0
LWPOLYLINE
  5
41d
100
AcDbEntity
  8
box_20140827_153616_847966
 62
7
100
AcDbPolyline
 90
4
 70
0
 10
401.506136
 20
785.085474
 30
0.0
 10
409.267247
 20
785.085474
 30
0.0
 10
409.267247
 20
782.086863
 30
0.0
 10
414.026219
 20
782.086863
 30
0.0
  0
LWPOLYLINE
  5
41e
100
AcDbEntity
  8
box_20140827_153616_847966
 62
7
100
AcDbPolyline
 90
4
 70
0
 10
195.025303
 20
738.084891
 30
0.0
 10
195.025303
 20
742.230030
 30
0.0
 10
192.026692
 20
742.230030
 30
0.0
 10
192.026692
 20
749.370252
 30
0.0
  0
LWPOLYLINE
  5
41f
100
AcDbEntity
  8
box_20140827_153616_847966
 62
7
100
AcDbPolyline
 90
2
 70
0
 10
195.025303
 20
749.370252
 30
0.0
 10
192.026692
 20
749.370252
 30
0.0
  0
LWPOLYLINE
  5
420
100
AcDbEntity
  8
box_20140827_153616_847966
 62
7
100
AcDbPolyline
 90
4
 70
0
 10
195.025303
 20
749.370252
 30
0.0
 10
195.025303
 20
756.514002
 30
0.0
 10
192.026692
 20
756.514002
 30
0.0
 10
192.026692
 20
763.657752
 30
0.0
  0
LWPOLYLINE
  5
421
100
AcDbEntity
  8
box_20140827_153616_847966
 62
7
100
AcDbPolyline
 90
2
 70
0
 10
195.025303
 20
763.657752
 30
0.0
 10
192.026692
 20
763.657752
 30
0.0
  0
LWPOLYLINE
  5
422
100
AcDbEntity
  8
box_20140827_153616_847966
 62
7
100
AcDbPolyline
 90
4
 70
0
 10
195.025303
 20
763.657752
 30
0.0
 10
195.025303
 20
770.801502
 30
0.0
 10
192.026692
 20
770.801502
 30
0.0
 10
192.026692
 20
777.941724
 30
0.0
  0
LWPOLYLINE
  5
423
100
AcDbEntity
  8
box_20140827_153616_847966
 62
7
100
AcDbPolyline
 90
2
 70
0
 10
195.025303
 20
777.941724
 30
0.0
 10
192.026692
 20
777.941724
 30
0.0
  0
LWPOLYLINE
  5
424
100
AcDbEntity
  8
box_20140827_153616_847966
 62
7
100
AcDbPolyline
 90
2
 70
0
 10
195.025303
 20
777.941724
 30
0.0
 10
195.025303
 20
782.086863
 30
0.0
  0
LWPOLYLINE
  5
425
100
AcDbEntity
  8
box_20140827_153616_847966
 62
7
100
AcDbPolyline
 90
2
 70
0
 10
414.026219
 20
738.084891
 30
0.0
 10
414.026219
 20
742.230030
 30
0.0
  0
LWPOLYLINE
  5
426
100
AcDbEntity
  8
box_20140827_153616_847966
 62
7
100
AcDbPolyline
 90
2
 70
0
 10
417.024830
 20
742.230030
 30
0.0
 10
414.026219
 20
742.230030
 30
0.0
  0
LWPOLYLINE
  5
427
100
AcDbEntity
  8
box_20140827_153616_847966
 62
7
100
AcDbPolyline
 90
4
 70
0
 10
417.024830
 20
742.230030
 30
0.0
 10
417.024830
 20
749.370252
 30
0.0
 10
414.026219
 20
749.370252
 30
0.0
 10
414.026219
 20
756.514002
 30
0.0
  0
LWPOLYLINE
  5
428
100
AcDbEntity
  8
box_20140827_153616_847966
 62
7
100
AcDbPolyline
 90
2
 70
0
 10
417.024830
 20
756.514002
 30
0.0
 10
414.026219
 20
756.514002
 30
0.0
  0
LWPOLYLINE
  5
429
100
AcDbEntity
  8
box_20140827_153616_847966
 62
7
100
AcDbPolyline
 90
4
 70
0
 10
417.024830
 20
756.514002
 30
0.0
 10
417.024830
 20
763.657752
 30
0.0
 10
414.026219
 20
763.657752
 30
0.0
 10
414.026219
 20
770.801502
 30
0.0
  0
LWPOLYLINE
  5
42a
100
AcDbEntity
  8
box_20140827_153616_847966
 62
7
100
AcDbPolyline
 90
2
 70
0
 10
417.024830
 20
770.801502
 30
0.0
 10
414.026219
 20
770.801502
 30
0.0
  0
LWPOLYLINE
  5
42b
100
AcDbEntity
  8
box_20140827_153616_847966
 62
7
100
AcDbPolyline
 90
4
 70
0
 10
417.024830
 20
770.801502
 30
0.0
 10
417.024830
 20
777.941724
 30
0.0
 10
414.026219
 20
777.941724
 30
0.0
 10
414.026219
 20
782.086863
 30
0.0
  0
SPLINE
  5
42c
100
AcDbEntity
  8
box_20140827_153616_847966
 62
7
100
AcDbSpline
 70
0
 71
3
 72
19
 73
15
 74
13
 40
0.000000
 40
0.000000
 40
0.000000
 40
0.000000
 40
0.909954
 40
1.792919
 40
2.702873
 40
3.612826
 40
4.495791
 40
5.405745
 40
6.315699
 40
7.198664
 40
8.108618
 40
9.018572
 40
9.901537
 40
10.811491
 40
10.811491
 40
10.811491
 40
10.811491
 10
206.313707
 20
712.538361
 30
0.0
 10
206.265874
 20
712.231567
 30
0.0
 10
206.171627
 20
711.627079
 30
0.0
 10
205.478767
 20
710.961587
 30
0.0
 10
204.574962
 20
710.715003
 30
0.0
 10
203.661668
 20
710.961587
 30
0.0
 10
202.996712
 20
711.627079
 30
0.0
 10
202.749945
 20
712.538361
 30
0.0
 10
202.996712
 20
713.449642
 30
0.0
 10
203.661667
 20
714.115134
 30
0.0
 10
204.574962
 20
714.361719
 30
0.0
 10
205.478767
 20
714.115134
 30
0.0
 10
206.171627
 20
713.449642
 30
0.0
 10
206.265874
 20
712.845154
 30
0.0
 10
206.313707
 20
712.538361
 30
0.0
 11
206.313707
 21
712.538361
 31
0.0
 11
206.076099
 21
711.659976
 31
0.0
 11
205.451749
 21
711.035626
 31
0.0
 11
204.573365
 21
710.798018
 31
0.0
 11
203.694980
 21
711.035626
 31
0.0
 11
203.070630
 21
711.659976
 31
0.0
 11
202.833022
 21
712.538361
 31
0.0
 11
203.070630
 21
713.416745
 31
0.0
 11
203.694980
 21
714.041095
 31
0.0
 11
204.573365
 21
714.278703
 31
0.0
 11
205.451749
 21
714.041095
 31
0.0
 11
206.076099
 21
713.416745
 31
0.0
 11
206.313707
 21
712.538361
 31
0.0
  0
LWPOLYLINE
  5
42d
100
AcDbEntity
  8
box_20140827_153616_847966
 62
7
100
AcDbPolyline
 90
2
 70
0
 10
206.313707
 20
712.538361
 30
0.0
 10
206.313707
 20
712.538361
 30
0.0
  0
SPLINE
  5
42e
100
AcDbEntity
  8
box_20140827_153616_847966
 62
7
100
AcDbSpline
 70
0
 71
3
 72
19
 73
15
 74
13
 40
0.000000
 40
0.000000
 40
0.000000
 40
0.000000
 40
0.909954
 40
1.792919
 40
2.702873
 40
3.612826
 40
4.495791
 40
5.405745
 40
6.315699
 40
7.198664
 40
8.108618
 40
9.018572
 40
9.901537
 40
10.811491
 40
10.811491
 40
10.811491
 40
10.811491
 10
406.218500
 20
712.538361
 30
0.0
 10
406.170667
 20
712.231567
 30
0.0
 10
406.076420
 20
711.627079
 30
0.0
 10
405.383560
 20
710.961587
 30
0.0
 10
404.479755
 20
710.715003
 30
0.0
 10
403.566461
 20
710.961587
 30
0.0
 10
402.901505
 20
711.627079
 30
0.0
 10
402.654738
 20
712.538361
 30
0.0
 10
402.901505
 20
713.449642
 30
0.0
 10
403.566461
 20
714.115134
 30
0.0
 10
404.479755
 20
714.361719
 30
0.0
 10
405.383560
 20
714.115134
 30
0.0
 10
406.076420
 20
713.449642
 30
0.0
 10
406.170667
 20
712.845154
 30
0.0
 10
406.218500
 20
712.538361
 30
0.0
 11
406.218500
 21
712.538361
 31
0.0
 11
405.980892
 21
711.659976
 31
0.0
 11
405.356542
 21
711.035626
 31
0.0
 11
404.478158
 21
710.798018
 31
0.0
 11
403.599774
 21
711.035626
 31
0.0
 11
402.975423
 21
711.659976
 31
0.0
 11
402.737815
 21
712.538361
 31
0.0
 11
402.975423
 21
713.416745
 31
0.0
 11
403.599774
 21
714.041095
 31
0.0
 11
404.478158
 21
714.278703
 31
0.0
 11
405.356542
 21
714.041095
 31
0.0
 11
405.980892
 21
713.416745
 31
0.0
 11
406.218500
 21
712.538361
 31
0.0
  0
LWPOLYLINE
  5
42f
100
AcDbEntity
  8
box_20140827_153616_847966
 62
7
100
AcDbPolyline
 90
2
 70
0
 10
406.218500
 20
712.538361
 30
0.0
 10
406.218500
 20
712.538361
 30
0.0
  0
SPLINE
  5
430
100
AcDbEntity
  8
box_20140827_153616_847966
 62
7
100
AcDbSpline
 70
0
 71
3
 72
19
 73
15
 74
13
 40
0.000000
 40
0.000000
 40
0.000000
 40
0.000000
 40
0.909954
 40
1.792919
 40
2.702873
 40
3.612826
 40
4.495791
 40
5.405745
 40
6.315699
 40
7.198664
 40
8.108618
 40
9.018572
 40
9.901537
 40
10.811491
 40
10.811491
 40
10.811491
 40
10.811491
 10
406.218500
 20
512.633559
 30
0.0
 10
406.170667
 20
512.326765
 30
0.0
 10
406.076420
 20
511.722277
 30
0.0
 10
405.383560
 20
511.056786
 30
0.0
 10
404.479755
 20
510.810201
 30
0.0
 10
403.566461
 20
511.056786
 30
0.0
 10
402.901505
 20
511.722277
 30
0.0
 10
402.654738
 20
512.633559
 30
0.0
 10
402.901505
 20
513.544841
 30
0.0
 10
403.566461
 20
514.210332
 30
0.0
 10
404.479755
 20
514.456917
 30
0.0
 10
405.383560
 20
514.210332
 30
0.0
 10
406.076420
 20
513.544841
 30
0.0
 10
406.170667
 20
512.940353
 30
0.0
 10
406.218500
 20
512.633559
 30
0.0
 11
406.218500
 21
512.633559
 31
0.0
 11
405.980892
 21
511.755175
 31
0.0
 11
405.356542
 21
511.130824
 31
0.0
 11
404.478158
 21
510.893217
 31
0.0
 11
403.599774
 21
511.130824
 31
0.0
 11
402.975423
 21
511.755175
 31
0.0
 11
402.737815
 21
512.633559
 31
0.0
 11
402.975423
 21
513.511943
 31
0.0
 11
403.599774
 21
514.136294
 31
0.0
 11
404.478158
 21
514.373902
 31
0.0
 11
405.356542
 21
514.136294
 31
0.0
 11
405.980892
 21
513.511943
 31
0.0
 11
406.218500
 21
512.633559
 31
0.0
  0
LWPOLYLINE
  5
431
100
AcDbEntity
  8
box_20140827_153616_847966
 62
7
100
AcDbPolyline
 90
2
 70
0
 10
406.218500
 20
512.633559
 30
0.0
 10
406.218500
 20
512.633559
 30
0.0
  0
LWPOLYLINE
  5
432
100
AcDbEntity
  8
box_20140827_153616_847966
 62
7
100
AcDbPolyline
 90
2
 70
0
 10
206.313707
 20
512.633559
 30
0.0
 10
206.313707
 20
512.633559
 30
0.0
  0
SPLINE
  5
433
100
AcDbEntity
  8
box_20140827_153616_847966
 62
7
100
AcDbSpline
 70
0
 71
3
 72
19
 73
15
 74
13
 40
0.000000
 40
0.000000
 40
0.000000
 40
0.000000
 40
0.909954
 40
1.792919
 40
2.702873
 40
3.612826
 40
4.495791
 40
5.405745
 40
6.315699
 40
7.198664
 40
8.108618
 40
9.018572
 40
9.901537
 40
10.811491
 40
10.811491
 40
10.811491
 40
10.811491
 10
206.313707
 20
512.633559
 30
0.0
 10
206.265874
 20
512.326765
 30
0.0
 10
206.171627
 20
511.722277
 30
0.0
 10
205.478767
 20
511.056786
 30
0.0
 10
204.574962
 20
510.810201
 30
0.0
 10
203.661668
 20
511.056786
 30
0.0
 10
202.996712
 20
511.722277
 30
0.0
 10
202.749945
 20
512.633559
 30
0.0
 10
202.996712
 20
513.544841
 30
0.0
 10
203.661667
 20
514.210332
 30
0.0
 10
204.574962
 20
514.456917
 30
0.0
 10
205.478767
 20
514.210332
 30
0.0
 10
206.171627
 20
513.544841
 30
0.0
 10
206.265874
 20
512.940353
 30
0.0
 10
206.313707
 20
512.633559
 30
0.0
 11
206.313707
 21
512.633559
 31
0.0
 11
206.076099
 21
511.755175
 31
0.0
 11
205.451749
 21
511.130824
 31
0.0
 11
204.573365
 21
510.893217
 31
0.0
 11
203.694980
 21
511.130824
 31
0.0
 11
203.070630
 21
511.755175
 31
0.0
 11
202.833022
 21
512.633559
 31
0.0
 11
203.070630
 21
513.511943
 31
0.0
 11
203.694980
 21
514.136294
 31
0.0
 11
204.573365
 21
514.373902
 31
0.0
 11
205.451749
 21
514.136294
 31
0.0
 11
206.076099
 21
513.511943
 31
0.0
 11
206.313707
 21
512.633559
 31
0.0
  0
LWPOLYLINE
  5
434
100
AcDbEntity
  8
box_20140827_153616_847966
 62
7
100
AcDbPolyline
 90
2
 70
0
 10
222.065751
 20
707.546012
 30
0.0
 10
386.985767
 20
707.546012
 30
0.0
  0
SPLINE
  5
435
100
AcDbEntity
  8
box_20140827_153616_847966
 62
7
100
AcDbSpline
 70
0
 71
3
 72
10
 73
6
 74
4
 40
0.000000
 40
0.000000
 40
0.000000
 40
0.000000
 40
6.543701
 40
12.878859
 40
19.422556
 40
19.422556
 40
19.422556
 40
19.422556
 10
386.985767
 20
707.546012
 30
0.0
 10
389.179549
 20
707.204897
 30
0.0
 10
393.497198
 20
706.533538
 30
0.0
 10
398.473298
 20
701.557429
 30
0.0
 10
399.144656
 20
697.239782
 30
0.0
 10
399.485771
 20
695.046002
 30
0.0
 11
386.985767
 21
707.546012
 31
0.0
 11
393.304288
 21
705.844156
 31
0.0
 11
397.783919
 21
701.364520
 31
0.0
 11
399.485771
 21
695.046002
 31
0.0
  0
LWPOLYLINE
  5
436
100
AcDbEntity
  8
box_20140827_153616_847966
 62
7
100
AcDbPolyline
 90
2
 70
0
 10
399.485771
 20
695.046002
 30
0.0
 10
399.485771
 20
530.125961
 30
0.0
  0
SPLINE
  5
437
100
AcDbEntity
  8
box_20140827_153616_847966
 62
7
100
AcDbSpline
 70
0
 71
3
 72
10
 73
6
 74
4
 40
0.000000
 40
0.000000
 40
0.000000
 40
0.000000
 40
6.543697
 40
12.878851
 40
19.422550
 40
19.422550
 40
19.422550
 40
19.422550
 10
399.485771
 20
530.125961
 30
0.0
 10
399.144657
 20
527.932181
 30
0.0
 10
398.473300
 20
523.614534
 30
0.0
 10
393.497196
 20
518.638431
 30
0.0
 10
389.179549
 20
517.967075
 30
0.0
 10
386.985767
 20
517.625961
 30
0.0
 11
399.485771
 21
530.125961
 31
0.0
 11
397.783919
 21
523.807443
 31
0.0
 11
393.304288
 21
519.327813
 31
0.0
 11
386.985767
 21
517.625961
 31
0.0
  0
LWPOLYLINE
  5
438
100
AcDbEntity
  8
box_20140827_153616_847966
 62
7
100
AcDbPolyline
 90
2
 70
0
 10
386.985767
 20
517.625961
 30
0.0
 10
222.065751
 20
517.625961
 30
0.0
  0
SPLINE
  5
439
100
AcDbEntity
  8
box_20140827_153616_847966
 62
7
100
AcDbSpline
 70
0
 71
3
 72
10
 73
6
 74
4
 40
0.000000
 40
0.000000
 40
0.000000
 40
0.000000
 40
6.543697
 40
12.878850
 40
19.422547
 40
19.422547
 40
19.422547
 40
19.422547
 10
222.065751
 20
517.625961
 30
0.0
 10
219.871971
 20
517.967075
 30
0.0
 10
215.554325
 20
518.638432
 30
0.0
 10
210.578222
 20
523.614535
 30
0.0
 10
209.906865
 20
527.932181
 30
0.0
 10
209.565751
 20
530.125961
 30
0.0
 11
222.065751
 21
517.625961
 31
0.0
 11
215.747233
 21
519.327813
 31
0.0
 11
211.267603
 21
523.807443
 31
0.0
 11
209.565751
 21
530.125961
 31
0.0
  0
LWPOLYLINE
  5
43a
100
AcDbEntity
  8
box_20140827_153616_847966
 62
7
100
AcDbPolyline
 90
2
 70
0
 10
209.565751
 20
530.125961
 30
0.0
 10
209.565751
 20
695.046002
 30
0.0
  0
LWPOLYLINE
  5
43b
100
AcDbEntity
  8
box_20140827_153616_847966
 62
7
100
AcDbPolyline
 90
2
 70
0
 10
222.065751
 20
707.546012
 30
0.0
 10
222.065751
 20
707.546012
 30
0.0
  0
SPLINE
  5
43c
100
AcDbEntity
  8
box_20140827_153616_847966
 62
7
100
AcDbSpline
 70
0
 71
3
 72
10
 73
6
 74
4
 40
0.000000
 40
0.000000
 40
0.000000
 40
0.000000
 40
6.543697
 40
12.878854
 40
19.422553
 40
19.422553
 40
19.422553
 40
19.422553
 10
209.565751
 20
695.046002
 30
0.0
 10
209.906866
 20
697.239782
 30
0.0
 10
210.578223
 20
701.557429
 30
0.0
 10
215.554323
 20
706.533538
 30
0.0
 10
219.871970
 20
707.204897
 30
0.0
 10
222.065751
 20
707.546012
 30
0.0
 11
209.565751
 21
695.046002
 31
0.0
 11
211.267603
 21
701.364520
 31
0.0
 11
215.747233
 21
705.844156
 31
0.0
 11
222.065751
 21
707.546012
 31
0.0
  0
LWPOLYLINE
  5
43d
100
AcDbEntity
  8
box_20140827_153616_847966
 62
7
100
AcDbPolyline
 90
2
 70
0
 10
222.065751
 20
386.296101
 30
0.0
 10
386.985767
 20
386.296101
 30
0.0
  0
SPLINE
  5
43e
100
AcDbEntity
  8
box_20140827_153616_847966
 62
7
100
AcDbSpline
 70
0
 71
3
 72
10
 73
6
 74
4
 40
0.000000
 40
0.000000
 40
0.000000
 40
0.000000
 40
6.543700
 40
12.878853
 40
19.422550
 40
19.422550
 40
19.422550
 40
19.422550
 10
386.985767
 20
386.296101
 30
0.0
 10
389.179549
 20
385.954987
 30
0.0
 10
393.497196
 20
385.283631
 30
0.0
 10
398.473300
 20
380.307528
 30
0.0
 10
399.144657
 20
375.989882
 30
0.0
 10
399.485771
 20
373.796101
 30
0.0
 11
386.985767
 21
386.296101
 31
0.0
 11
393.304288
 21
384.594249
 31
0.0
 11
397.783919
 21
380.114620
 31
0.0
 11
399.485771
 21
373.796101
 31
0.0
  0
LWPOLYLINE
  5
43f
100
AcDbEntity
  8
box_20140827_153616_847966
 62
7
100
AcDbPolyline
 90
2
 70
0
 10
399.485771
 20
373.796101
 30
0.0
 10
399.485771
 20
235.126107
 30
0.0
  0
SPLINE
  5
440
100
AcDbEntity
  8
box_20140827_153616_847966
 62
7
100
AcDbSpline
 70
0
 71
3
 72
10
 73
6
 74
4
 40
0.000000
 40
0.000000
 40
0.000000
 40
0.000000
 40
6.543698
 40
12.878852
 40
19.422552
 40
19.422552
 40
19.422552
 40
19.422552
 10
399.485771
 20
235.126107
 30
0.0
 10
399.144657
 20
232.932326
 30
0.0
 10
398.473300
 20
228.614679
 30
0.0
 10
393.497196
 20
223.638576
 30
0.0
 10
389.179549
 20
222.967219
 30
0.0
 10
386.985767
 20
222.626106
 30
0.0
 11
399.485771
 21
235.126107
 31
0.0
 11
397.783919
 21
228.807587
 31
0.0
 11
393.304288
 21
224.327957
 31
0.0
 11
386.985767
 21
222.626106
 31
0.0
  0
LWPOLYLINE
  5
441
100
AcDbEntity
  8
box_20140827_153616_847966
 62
7
100
AcDbPolyline
 90
2
 70
0
 10
386.985767
 20
222.626106
 30
0.0
 10
222.065751
 20
222.626106
 30
0.0
  0
SPLINE
  5
442
100
AcDbEntity
  8
box_20140827_153616_847966
 62
7
100
AcDbSpline
 70
0
 71
3
 72
10
 73
6
 74
4
 40
0.000000
 40
0.000000
 40
0.000000
 40
0.000000
 40
6.543697
 40
12.878850
 40
19.422548
 40
19.422548
 40
19.422548
 40
19.422548
 10
222.065751
 20
222.626106
 30
0.0
 10
219.871971
 20
222.967219
 30
0.0
 10
215.554325
 20
223.638576
 30
0.0
 10
210.578222
 20
228.614680
 30
0.0
 10
209.906865
 20
232.932326
 30
0.0
 10
209.565751
 20
235.126107
 30
0.0
 11
222.065751
 21
222.626106
 31
0.0
 11
215.747233
 21
224.327957
 31
0.0
 11
211.267603
 21
228.807587
 31
0.0
 11
209.565751
 21
235.126107
 31
0.0
  0
LWPOLYLINE
  5
443
100
AcDbEntity
  8
box_20140827_153616_847966
 62
7
100
AcDbPolyline
 90
2
 70
0
 10
209.565751
 20
235.126107
 30
0.0
 10
209.565751
 20
373.796101
 30
0.0
  0
SPLINE
  5
444
100
AcDbEntity
  8
box_20140827_153616_847966
 62
7
100
AcDbSpline
 70
0
 71
3
 72
10
 73
6
 74
4
 40
0.000000
 40
0.000000
 40
0.000000
 40
0.000000
 40
6.543697
 40
12.878850
 40
19.422547
 40
19.422547
 40
19.422547
 40
19.422547
 10
209.565751
 20
373.796101
 30
0.0
 10
209.906865
 20
375.989882
 30
0.0
 10
210.578222
 20
380.307528
 30
0.0
 10
215.554325
 20
385.283631
 30
0.0
 10
219.871971
 20
385.954987
 30
0.0
 10
222.065751
 20
386.296101
 30
0.0
 11
209.565751
 21
373.796101
 31
0.0
 11
211.267603
 21
380.114620
 31
0.0
 11
215.747233
 21
384.594249
 31
0.0
 11
222.065751
 21
386.296101
 31
0.0
  0
LWPOLYLINE
  5
445
100
AcDbEntity
  8
box_20140827_153616_847966
 62
7
100
AcDbPolyline
 90
2
 70
0
 10
222.065751
 20
386.296101
 30
0.0
 10
222.065751
 20
386.296101
 30
0.0
  0
SPLINE
  5
446
100
AcDbEntity
  8
box_20140827_153616_847966
 62
7
100
AcDbSpline
 70
0
 71
3
 72
10
 73
6
 74
4
 40
0.000000
 40
0.000000
 40
0.000000
 40
0.000000
 40
1.309647
 40
2.576893
 40
3.884912
 40
3.884912
 40
3.884912
 40
3.884912
 10
304.525761
 20
410.667383
 30
0.0
 10
304.086768
 20
410.599433
 30
0.0
 10
303.222995
 20
410.465733
 30
0.0
 10
302.224577
 20
409.473529
 30
0.0
 10
302.089597
 20
408.610063
 30
0.0
 10
302.021039
 20
408.171495
 30
0.0
 11
304.525761
 21
410.667383
 31
0.0
 11
303.260832
 21
410.328074
 31
0.0
 11
302.362633
 21
409.434123
 31
0.0
 11
302.021039
 21
408.171495
 31
0.0
  0
LWPOLYLINE
  5
447
100
AcDbEntity
  8
box_20140827_153616_847966
 62
7
100
AcDbPolyline
 90
2
 70
0
 10
302.021039
 20
408.171495
 30
0.0
 10
302.021039
 20
403.629467
 30
0.0
  0
SPLINE
  5
448
100
AcDbEntity
  8
box_20140827_153616_847966
 62
7
100
AcDbSpline
 70
0
 71
3
 72
19
 73
15
 74
13
 40
0.000000
 40
0.000000
 40
0.000000
 40
0.000000
 40
1.141752
 40
2.294888
 40
3.490148
 40
5.560122
 40
7.569621
 40
9.639603
 40
11.709585
 40
13.719085
 40
15.789059
 40
16.987753
 40
18.145912
 40
19.291299
 40
19.291299
 40
19.291299
 40
19.291299
 10
302.021039
 20
403.629467
 30
0.0
 10
301.745319
 20
403.363349
 30
0.0
 10
301.191132
 20
402.828459
 30
0.0
 10
300.687374
 20
401.751590
 30
0.0
 10
300.457786
 20
400.280312
 30
0.0
 10
300.938293
 20
398.493993
 30
0.0
 10
302.452676
 20
396.982588
 30
0.0
 10
304.525751
 20
396.419721
 30
0.0
 10
306.598885
 20
396.982590
 30
0.0
 10
308.113095
 20
398.493985
 30
0.0
 10
308.594472
 20
400.281500
 30
0.0
 10
308.362507
 20
401.755493
 30
0.0
 10
307.855321
 20
402.835263
 30
0.0
 10
307.298521
 20
403.371594
 30
0.0
 10
307.021664
 20
403.638272
 30
0.0
 11
302.021039
 21
403.629467
 31
0.0
 11
301.249067
 21
402.788244
 31
0.0
 11
300.745759
 21
401.750745
 31
0.0
 11
300.565830
 21
400.569105
 31
0.0
 11
301.106779
 21
398.571064
 31
0.0
 11
302.527711
 21
397.150136
 31
0.0
 11
304.525761
 21
396.609189
 31
0.0
 11
306.523811
 21
397.150136
 31
0.0
 11
307.944743
 21
398.571064
 31
0.0
 11
308.485692
 21
400.569105
 31
0.0
 11
308.304040
 21
401.753956
 31
0.0
 11
307.797049
 21
402.795249
 31
0.0
 11
307.021664
 21
403.638272
 31
0.0
  0
LWPOLYLINE
  5
449
100
AcDbEntity
  8
box_20140827_153616_847966
 62
7
100
AcDbPolyline
 90
2
 70
0
 10
307.021664
 20
403.638272
 30
0.0
 10
307.021664
 20
408.171495
 30
0.0
  0
LWPOLYLINE
  5
44a
100
AcDbEntity
  8
box_20140827_153616_847966
 62
7
100
AcDbPolyline
 90
2
 70
0
 10
304.525761
 20
410.667383
 30
0.0
 10
304.525761
 20
410.667383
 30
0.0
  0
SPLINE
  5
44b
100
AcDbEntity
  8
box_20140827_153616_847966
 62
7
100
AcDbSpline
 70
0
 71
3
 72
10
 73
6
 74
4
 40
0.000000
 40
0.000000
 40
0.000000
 40
0.000000
 40
1.307425
 40
2.571664
 40
3.879102
 40
3.879102
 40
3.879102
 40
3.879102
 10
307.021664
 20
408.171495
 30
0.0
 10
306.953838
 20
408.609893
 30
0.0
 10
306.820427
 20
409.472209
 30
0.0
 10
305.826484
 20
410.466148
 30
0.0
 10
304.964164
 20
410.599558
 30
0.0
 10
304.525761
 20
410.667383
 30
0.0
 11
307.021664
 21
408.171495
 31
0.0
 11
306.682355
 21
409.434123
 31
0.0
 11
305.788402
 21
410.328074
 31
0.0
 11
304.525761
 21
410.667383
 31
0.0
  0
LWPOLYLINE
  5
44c
100
AcDbEntity
  8
box_20140827_153616_847966
 62
7
100
AcDbPolyline
 90
2
 70
0
 10
225.275761
 20
471.336042
 30
0.0
 10
383.775768
 20
471.336042
 30
0.0
  0
SPLINE
  5
44d
100
AcDbEntity
  8
box_20140827_153616_847966
 62
7
100
AcDbSpline
 70
0
 71
3
 72
10
 73
6
 74
4
 40
0.000000
 40
0.000000
 40
0.000000
 40
0.000000
 40
1.046992
 40
2.060616
 40
3.107607
 40
3.107607
 40
3.107607
 40
3.107607
 10
383.775768
 20
471.336042
 30
0.0
 10
384.126773
 20
471.281464
 30
0.0
 10
384.817597
 20
471.174047
 30
0.0
 10
385.613773
 20
470.377871
 30
0.0
 10
385.721190
 20
469.687047
 30
0.0
 10
385.775768
 20
469.336042
 30
0.0
 11
383.775768
 21
471.336042
 31
0.0
 11
384.786732
 21
471.063746
 31
0.0
 11
385.503472
 21
470.347006
 31
0.0
 11
385.775768
 21
469.336042
 31
0.0
  0
LWPOLYLINE
  5
44e
100
AcDbEntity
  8
box_20140827_153616_847966
 62
7
100
AcDbPolyline
 90
2
 70
0
 10
385.775768
 20
469.336042
 30
0.0
 10
385.775768
 20
460.836042
 30
0.0
  0
SPLINE
  5
44f
100
AcDbEntity
  8
box_20140827_153616_847966
 62
7
100
AcDbSpline
 70
0
 71
3
 72
10
 73
6
 74
4
 40
0.000000
 40
0.000000
 40
0.000000
 40
0.000000
 40
1.046990
 40
2.060615
 40
3.107607
 40
3.107607
 40
3.107607
 40
3.107607
 10
385.775768
 20
460.836042
 30
0.0
 10
385.721190
 20
460.485037
 30
0.0
 10
385.613772
 20
459.794215
 30
0.0
 10
384.817597
 20
458.998038
 30
0.0
 10
384.126773
 20
458.890621
 30
0.0
 10
383.775768
 20
458.836042
 30
0.0
 11
385.775768
 21
460.836042
 31
0.0
 11
385.503472
 21
459.825080
 31
0.0
 11
384.786732
 21
459.108339
 31
0.0
 11
383.775768
 21
458.836042
 31
0.0
  0
LWPOLYLINE
  5
450
100
AcDbEntity
  8
box_20140827_153616_847966
 62
7
100
AcDbPolyline
 90
2
 70
0
 10
383.775768
 20
458.836042
 30
0.0
 10
225.275761
 20
458.836042
 30
0.0
  0
SPLINE
  5
451
100
AcDbEntity
  8
box_20140827_153616_847966
 62
7
100
AcDbSpline
 70
0
 71
3
 72
10
 73
6
 74
4
 40
0.000000
 40
0.000000
 40
0.000000
 40
0.000000
 40
1.046992
 40
2.060616
 40
3.107607
 40
3.107607
 40
3.107607
 40
3.107607
 10
225.275761
 20
458.836042
 30
0.0
 10
224.924756
 20
458.890621
 30
0.0
 10
224.233932
 20
458.998038
 30
0.0
 10
223.437756
 20
459.794215
 30
0.0
 10
223.330339
 20
460.485037
 30
0.0
 10
223.275761
 20
460.836042
 30
0.0
 11
225.275761
 21
458.836042
 31
0.0
 11
224.264797
 21
459.108339
 31
0.0
 11
223.548057
 21
459.825080
 31
0.0
 11
223.275761
 21
460.836042
 31
0.0
  0
LWPOLYLINE
  5
452
100
AcDbEntity
  8
box_20140827_153616_847966
 62
7
100
AcDbPolyline
 90
2
 70
0
 10
223.275761
 20
460.836042
 30
0.0
 10
223.275761
 20
469.336042
 30
0.0
  0
SPLINE
  5
453
100
AcDbEntity
  8
box_20140827_153616_847966
 62
7
100
AcDbSpline
 70
0
 71
3
 72
10
 73
6
 74
4
 40
0.000000
 40
0.000000
 40
0.000000
 40
0.000000
 40
1.046992
 40
2.060616
 40
3.107607
 40
3.107607
 40
3.107607
 40
3.107607
 10
223.275761
 20
469.336042
 30
0.0
 10
223.330339
 20
469.687047
 30
0.0
 10
223.437756
 20
470.377871
 30
0.0
 10
224.233932
 20
471.174047
 30
0.0
 10
224.924756
 20
471.281464
 30
0.0
 10
225.275761
 20
471.336042
 30
0.0
 11
223.275761
 21
469.336042
 31
0.0
 11
223.548057
 21
470.347006
 31
0.0
 11
224.264797
 21
471.063746
 31
0.0
 11
225.275761
 21
471.336042
 31
0.0
  0
LWPOLYLINE
  5
454
100
AcDbEntity
  8
box_20140827_153616_847966
 62
7
100
AcDbPolyline
 90
2
 70
0
 10
225.275761
 20
471.336042
 30
0.0
 10
225.275761
 20
471.336042
 30
0.0
  0
ENDSEC
  0
SECTION
  2
OBJECTS
  0
DICTIONARY
  5
C
330
0
100
AcDbDictionary
  3
ACAD_GROUP
350
D
  3
ACAD_MLINESTYLE
350
17
  0
DICTIONARY
  5
D
330
C
100
AcDbDictionary
  0
DICTIONARY
  5
1A
330
C
100
AcDbDictionary
  0
DICTIONARY
  5
17
330
C
100
AcDbDictionary
  3
STANDARD
350
18
  0
DICTIONARY
  5
19
330
C
100
AcDbDictionary
  0
ENDSEC
  0
EOF
