<?xml version="1.0" encoding="UTF-8" standalone="no"?>
<!-- Created with Inkscape (http://www.inkscape.org/) -->

<svg
   xmlns:dc="http://purl.org/dc/elements/1.1/"
   xmlns:cc="http://creativecommons.org/ns#"
   xmlns:rdf="http://www.w3.org/1999/02/22-rdf-syntax-ns#"
   xmlns:svg="http://www.w3.org/2000/svg"
   xmlns="http://www.w3.org/2000/svg"
   xmlns:sodipodi="http://sodipodi.sourceforge.net/DTD/sodipodi-0.dtd"
   xmlns:inkscape="http://www.inkscape.org/namespaces/inkscape"
   width="2979.9211"
   height="4212.9922"
   id="svg2"
   version="1.1"
   inkscape:version="0.48.4 r9939"
   sodipodi:docname="frame_v2.dxf">
  <defs
     id="defs4" />
  <sodipodi:namedview
     id="base"
     pagecolor="#ffffff"
     bordercolor="#666666"
     borderopacity="1.0"
     inkscape:pageopacity="0.0"
     inkscape:pageshadow="2"
     inkscape:zoom="0.22302026"
     inkscape:cx="2760.081"
     inkscape:cy="4065.9238"
     inkscape:document-units="mm"
     inkscape:current-layer="layer3"
     showgrid="false"
     showguides="true"
     inkscape:guide-bbox="true"
     inkscape:snap-bbox="false"
     inkscape:snap-object-midpoints="true"
     inkscape:snap-center="false"
     inkscape:object-nodes="true"
     inkscape:bbox-nodes="false"
     inkscape:snap-nodes="true"
     inkscape:window-width="1366"
     inkscape:window-height="746"
     inkscape:window-x="1358"
     inkscape:window-y="-8"
     inkscape:window-maximized="1" />
  <metadata
     id="metadata7">
    <rdf:RDF>
      <cc:Work
         rdf:about="">
        <dc:format>image/svg+xml</dc:format>
        <dc:type
           rdf:resource="http://purl.org/dc/dcmitype/StillImage" />
        <dc:title></dc:title>
      </cc:Work>
    </rdf:RDF>
  </metadata>
  <g
     inkscape:label="Layer 1"
     inkscape:groupmode="layer"
     id="layer1"
     transform="translate(0,3160.6299)">
    <path
       sodipodi:type="arc"
       style="fill:none;stroke:#000000;stroke-width:1.83447981;stroke-miterlimit:4;stroke-opacity:1;stroke-dasharray:none"
       id="path3009"
       sodipodi:cx="-265.83899"
       sodipodi:cy="863.59125"
       sodipodi:rx="30.673731"
       sodipodi:ry="33.229874"
       d="m -235.16526,863.59125 a 30.673731,33.229874 0 1 1 -61.34746,0 30.673731,33.229874 0 1 1 61.34746,0 z"
       transform="matrix(0.28072481,0,0,0.25913061,374.17323,-2659.6775)" />
    <path
       style="fill:none;stroke:#ff0000;stroke-width:0.35433070999999999;stroke-miterlimit:4;stroke-opacity:1;stroke-dasharray:none"
       d="M 361.4375 715.09375 C 336.9001 715.09375 317.15625 734.8376 317.15625 759.375 L 317.15625 921.4375 C 317.15625 945.9749 336.9001 965.71875 361.4375 965.71875 L 577.875 965.71875 L 577.875 859.375 C 577.875 856.43051 580.24301 854.0625 583.1875 854.0625 L 770.96875 854.0625 C 773.91324 854.0625 776.28125 856.43051 776.28125 859.375 L 776.28125 965.71875 L 857.5 965.71875 C 882.0374 965.71875 901.8125 945.9749 901.8125 921.4375 L 901.8125 759.375 C 901.8125 734.8376 882.0374 715.09375 857.5 715.09375 L 361.4375 715.09375 z "
       transform="translate(0,-3160.6299)"
       id="rect3791" />
    <path
       style="fill:none;stroke:#ff0000;stroke-width:0.35433070999999999;stroke-miterlimit:4;stroke-opacity:1;stroke-dasharray:none"
       d="M 361.625 1048.9375 C 337.0876 1048.9375 317.34375 1068.7126 317.34375 1093.25 L 317.34375 1255.2812 C 317.34375 1279.8187 337.0876 1299.5625 361.625 1299.5625 L 857.6875 1299.5625 C 882.2249 1299.5625 901.96875 1279.8187 901.96875 1255.2812 L 901.96875 1093.25 C 901.96875 1068.7126 882.2249 1048.9375 857.6875 1048.9375 L 776.28125 1048.9375 L 776.28125 1149.9062 C 776.28125 1152.8507 773.91324 1155.25 770.96875 1155.25 L 583.1875 1155.25 C 580.24301 1155.25 577.875 1152.8507 577.875 1149.9062 L 577.875 1048.9375 L 361.625 1048.9375 z "
       transform="translate(0,-3160.6299)"
       id="rect3799" />
    <g
       id="g3957">
      <g
         id="g3951">
        <path
           transform="matrix(0.20103742,0,0,0.18557301,308.76023,-2667.6308)"
           d="m -235.16526,863.59125 a 30.673731,33.229874 0 1 1 -61.34746,0 30.673731,33.229874 0 1 1 61.34746,0 z"
           sodipodi:ry="33.229874"
           sodipodi:rx="30.673731"
           sodipodi:cy="863.59125"
           sodipodi:cx="-265.83899"
           id="path3901"
           style="fill:none;stroke:#000000;stroke-width:1.83447981;stroke-miterlimit:4;stroke-opacity:1;stroke-dasharray:none"
           sodipodi:type="arc" />
        <path
           sodipodi:type="arc"
           style="fill:none;stroke:#000000;stroke-width:1.83447981;stroke-miterlimit:4;stroke-opacity:1;stroke-dasharray:none"
           id="path3903"
           sodipodi:cx="-265.83899"
           sodipodi:cy="863.59125"
           sodipodi:rx="30.673731"
           sodipodi:ry="33.229874"
           d="m -235.16526,863.59125 a 30.673731,33.229874 0 1 1 -61.34746,0 30.673731,33.229874 0 1 1 61.34746,0 z"
           transform="matrix(0.20103742,0,0,0.18557301,1017.0843,-2667.6308)" />
        <path
           transform="matrix(0.20103742,0,0,0.18557301,1017.0843,-1959.3067)"
           d="m -235.16526,863.59125 a 30.673731,33.229874 0 1 1 -61.34746,0 30.673731,33.229874 0 1 1 61.34746,0 z"
           sodipodi:ry="33.229874"
           sodipodi:rx="30.673731"
           sodipodi:cy="863.59125"
           sodipodi:cx="-265.83899"
           id="path3905"
           style="fill:none;stroke:#000000;stroke-width:1.83447981;stroke-miterlimit:4;stroke-opacity:1;stroke-dasharray:none"
           sodipodi:type="arc" />
        <path
           sodipodi:type="arc"
           style="fill:none;stroke:#000000;stroke-width:1.83447981;stroke-miterlimit:4;stroke-opacity:1;stroke-dasharray:none"
           id="path3907"
           sodipodi:cx="-265.83899"
           sodipodi:cy="863.59125"
           sodipodi:rx="30.673731"
           sodipodi:ry="33.229874"
           d="m -235.16526,863.59125 a 30.673731,33.229874 0 1 1 -61.34746,0 30.673731,33.229874 0 1 1 61.34746,0 z"
           transform="matrix(0.20103742,0,0,0.18557301,308.76023,-1959.3067)" />
      </g>
    </g>
    <g
       id="g3964"
       transform="translate(942,-128)"
       style="stroke:#000000">
      <g
         id="g3966"
         style="stroke:#000000">
        <path
           sodipodi:type="arc"
           style="fill:none;stroke:#000000;stroke-width:1.83447981;stroke-miterlimit:4;stroke-opacity:1;stroke-dasharray:none"
           id="path3968"
           sodipodi:cx="-265.83899"
           sodipodi:cy="863.59125"
           sodipodi:rx="30.673731"
           sodipodi:ry="33.229874"
           d="m -235.16526,863.59125 c 0,18.35235 -13.7331,33.22987 -30.67373,33.22987 -16.94063,0 -30.67373,-14.87752 -30.67373,-33.22987 0,-18.35235 13.7331,-33.22988 30.67373,-33.22988 16.94063,0 30.67373,14.87753 30.67373,33.22988 z"
           transform="matrix(0.20103742,0,0,0.18557301,308.76023,-2667.6308)" />
        <path
           transform="matrix(0.20103742,0,0,0.18557301,1017.0843,-2667.6308)"
           d="m -235.16526,863.59125 c 0,18.35235 -13.7331,33.22987 -30.67373,33.22987 -16.94063,0 -30.67373,-14.87752 -30.67373,-33.22987 0,-18.35235 13.7331,-33.22988 30.67373,-33.22988 16.94063,0 30.67373,14.87753 30.67373,33.22988 z"
           sodipodi:ry="33.229874"
           sodipodi:rx="30.673731"
           sodipodi:cy="863.59125"
           sodipodi:cx="-265.83899"
           id="path3970"
           style="fill:none;stroke:#000000;stroke-width:1.83447981;stroke-miterlimit:4;stroke-opacity:1;stroke-dasharray:none"
           sodipodi:type="arc" />
        <path
           sodipodi:type="arc"
           style="fill:none;stroke:#000000;stroke-width:1.83447981;stroke-miterlimit:4;stroke-opacity:1;stroke-dasharray:none"
           id="path3972"
           sodipodi:cx="-265.83899"
           sodipodi:cy="863.59125"
           sodipodi:rx="30.673731"
           sodipodi:ry="33.229874"
           d="m -235.16526,863.59125 c 0,18.35235 -13.7331,33.22987 -30.67373,33.22987 -16.94063,0 -30.67373,-14.87752 -30.67373,-33.22987 0,-18.35235 13.7331,-33.22988 30.67373,-33.22988 16.94063,0 30.67373,14.87753 30.67373,33.22988 z"
           transform="matrix(0.20103742,0,0,0.18557301,1017.0843,-1959.3067)" />
        <path
           transform="matrix(0.20103742,0,0,0.18557301,308.76023,-1959.3067)"
           d="m -235.16526,863.59125 c 0,18.35235 -13.7331,33.22987 -30.67373,33.22987 -16.94063,0 -30.67373,-14.87752 -30.67373,-33.22987 0,-18.35235 13.7331,-33.22988 30.67373,-33.22988 16.94063,0 30.67373,14.87753 30.67373,33.22988 z"
           sodipodi:ry="33.229874"
           sodipodi:rx="30.673731"
           sodipodi:cy="863.59125"
           sodipodi:cx="-265.83899"
           id="path3975"
           style="fill:none;stroke:#000000;stroke-width:1.83447981;stroke-miterlimit:4;stroke-opacity:1;stroke-dasharray:none"
           sodipodi:type="arc" />
      </g>
    </g>
    <rect
       style="fill:none;stroke:#ff0000;stroke-width:0.35433072;stroke-miterlimit:4;stroke-opacity:1;stroke-dasharray:none"
       id="rect3977"
       width="744.09448"
       height="744.09448"
       x="1179.7128"
       y="-2653.3716"
       rx="8.8582678"
       ry="8.8582678" />
    <path
       transform="matrix(0.28072481,0,0,0.25913061,993.87153,-2659.6775)"
       d="m -235.16526,863.59125 a 30.673731,33.229874 0 1 1 -61.34746,0 30.673731,33.229874 0 1 1 61.34746,0 z"
       sodipodi:ry="33.229874"
       sodipodi:rx="30.673731"
       sodipodi:cy="863.59125"
       sodipodi:cx="-265.83899"
       id="path3991"
       style="fill:none;stroke:#000000;stroke-width:1.83447981;stroke-miterlimit:4;stroke-opacity:1;stroke-dasharray:none"
       sodipodi:type="arc" />
    <path
       sodipodi:type="arc"
       style="fill:none;stroke:#000000;stroke-width:1.83447981;stroke-miterlimit:4;stroke-opacity:1;stroke-dasharray:none"
       id="path3993"
       sodipodi:cx="-265.83899"
       sodipodi:cy="863.59125"
       sodipodi:rx="30.673731"
       sodipodi:ry="33.229874"
       d="m -235.16526,863.59125 a 30.673731,33.229874 0 1 1 -61.34746,0 30.673731,33.229874 0 1 1 61.34746,0 z"
       transform="matrix(0.28072481,0,0,0.25913061,993.87153,-2094.1116)" />
    <path
       transform="matrix(0.28072481,0,0,0.25913061,374.17323,-2094.1116)"
       d="m -235.16526,863.59125 a 30.673731,33.229874 0 1 1 -61.34746,0 30.673731,33.229874 0 1 1 61.34746,0 z"
       sodipodi:ry="33.229874"
       sodipodi:rx="30.673731"
       sodipodi:cy="863.59125"
       sodipodi:cx="-265.83899"
       id="path3997"
       style="fill:none;stroke:#000000;stroke-width:1.83447981;stroke-miterlimit:4;stroke-opacity:1;stroke-dasharray:none"
       sodipodi:type="arc" />
  </g>
  <g
     inkscape:groupmode="layer"
     id="layer3"
     inkscape:label="outline">
    <path
       style="fill:none;stroke:#008000;stroke-width:0.35433075000000003;stroke-miterlimit:4;stroke-opacity:1;stroke-dasharray:none"
       d="M 156.125 554.0625 L 156.125 766.65625 L 166.75 766.65625 L 166.75 936.71875 L 156.15625 936.71875 L 156.15625 1078.125 L 166.75 1078.125 L 166.75 1248 L 156.28125 1248 L 156.28125 1460.5938 L 368.875 1460.5938 L 368.875 1450.1562 L 536.34375 1450.1562 L 536.34375 1460.625 L 682.1875 1460.625 L 682.1875 1450.1562 L 850.25 1450.1562 L 850.25 1460.7812 L 1062.8438 1460.7812 L 1062.8438 1248.1875 L 1052.2188 1248.1875 L 1052.2188 1078.5 L 1062.6875 1078.5 L 1062.6875 937.125 L 1052.2188 937.125 L 1052.2188 766.84375 L 1062.6562 766.84375 L 1062.6562 554.21875 L 850.0625 554.21875 L 850.0625 564.6875 L 682.40625 564.6875 L 682.40625 554.28125 L 536.5625 554.28125 L 536.5625 564.6875 L 368.71875 564.6875 L 368.71875 554.0625 L 156.125 554.0625 z "
       id="rect3909" />
    <rect
       style="fill:none;stroke:#000000;stroke-width:0.35433072;stroke-miterlimit:4;stroke-opacity:1;stroke-dasharray:none"
       id="rect3999"
       width="1009.8425"
       height="1009.8425"
       x="104.56313"
       y="502.50058" />
  </g>
  <g
     inkscape:groupmode="layer"
     id="layer2"
     inkscape:label="raspberry pi">
    <g
       transform="matrix(0,-1,1,0,2827.3007,2243.4898)"
       id="g3820"
       style="fill:none;stroke:#000000;stroke-opacity:1;stroke-width:0.35433071;stroke-miterlimit:4;stroke-dasharray:none">
      <g
         transform="translate(689.89166,-2066.0126)"
         id="g4002"
         style="fill:none;stroke:#000000;stroke-opacity:1;stroke-width:0.35433071;stroke-miterlimit:4;stroke-dasharray:none">
        <path
           inkscape:connector-curvature="0"
           id="path3974"
           d="m 950.43588,2931.7852 c 0,12.4021 -10.0539,22.456 -22.45602,22.456 -12.40212,0 -22.45602,-10.0539 -22.45602,-22.456 0,-12.4022 10.0539,-22.4561 22.45602,-22.4561 12.40212,0 22.45602,10.0539 22.45602,22.4561 z"
           style="fill:none;stroke:#000000;stroke-width:1.53037514;stroke-miterlimit:4;stroke-opacity:1;stroke-dasharray:none"
           transform="matrix(0.23153193,0,0,0.23153193,195.50589,-849.42231)" />
        <path
           inkscape:connector-curvature="0"
           id="path3976"
           d="m 950.43588,2931.7852 c 0,12.4021 -10.0539,22.456 -22.45602,22.456 -12.40212,0 -22.45602,-10.0539 -22.45602,-22.456 0,-12.4022 10.0539,-22.4561 22.45602,-22.4561 12.40212,0 22.45602,10.0539 22.45602,22.4561 z"
           style="fill:none;stroke:#000000;stroke-width:1.53037514;stroke-miterlimit:4;stroke-opacity:1;stroke-dasharray:none"
           transform="matrix(0.23153193,0,0,0.23153193,195.50589,-675.80027)" />
        <path
           inkscape:connector-curvature="0"
           id="path3978"
           d="m 950.43588,2931.7852 c 0,12.4021 -10.0539,22.456 -22.45602,22.456 -12.40212,0 -22.45602,-10.0539 -22.45602,-22.456 0,-12.4022 10.0539,-22.4561 22.45602,-22.4561 12.40212,0 22.45602,10.0539 22.45602,22.4561 z"
           style="fill:none;stroke:#000000;stroke-width:1.53037514;stroke-miterlimit:4;stroke-opacity:1;stroke-dasharray:none"
           transform="matrix(0.23153193,0,0,0.23153193,401.0177,-675.80027)" />
        <path
           inkscape:connector-curvature="0"
           id="path3980"
           d="m 950.43588,2931.7852 c 0,12.4021 -10.0539,22.456 -22.45602,22.456 -12.40212,0 -22.45602,-10.0539 -22.45602,-22.456 0,-12.4022 10.0539,-22.4561 22.45602,-22.4561 12.40212,0 22.45602,10.0539 22.45602,22.4561 z"
           style="fill:none;stroke:#000000;stroke-width:1.53037514;stroke-miterlimit:4;stroke-opacity:1;stroke-dasharray:none"
           transform="matrix(0.23153193,0,0,0.23153193,401.0177,-849.42231)" />
      </g>
      <path
         inkscape:connector-curvature="0"
         id="path4012"
         d="m 1376.9961,-2204.7433 c 0,2.8231 -2.2885,5.1117 -5.1116,5.1117 -2.8231,0 -5.1117,-2.2886 -5.1117,-5.1117 0,-2.8231 2.2886,-5.1116 5.1117,-5.1116 2.8231,0 5.1116,2.2885 5.1116,5.1116 z"
         style="fill:none;stroke:#000000;stroke-width:0.35433071;stroke-miterlimit:4;stroke-opacity:1;stroke-dasharray:none" />
      <path
         inkscape:connector-curvature="0"
         id="path4016"
         d="m 1183.8859,-2114.389 c 0,2.8231 -2.2886,5.1117 -5.1117,5.1117 -2.8231,0 -5.1116,-2.2886 -5.1116,-5.1117 0,-2.8231 2.2885,-5.1116 5.1116,-5.1116 2.8231,0 5.1117,2.2885 5.1117,5.1116 z"
         style="fill:none;stroke:#000000;stroke-width:0.35433071;stroke-miterlimit:4;stroke-opacity:1;stroke-dasharray:none" />
    </g>
  </g>
</svg>
