  0
SECTION
  2
HEADER
  9
$ACADVER
  1
AC1014
  9
$HANDSEED
  5
FFFF
  9
$MEASUREMENT
 70
     1
  0
ENDSEC
  0
SECTION
  2
TABLES
  0
TABLE
  2
VPORT
  5
8
330
0
100
AcDbSymbolTable
 70
     4
  0
VPORT
  5
2E
330
8
100
AcDbSymbolTableRecord
100
AcDbViewportTableRecord
  2
*ACTIVE
 70
     0
 10
0.0
 20
0.0
 11
1.0
 21
1.0
 12
210.0
 22
148.5
 13
0.0
 23
0.0
 14
10.0
 24
10.0
 15
10.0
 25
10.0
 16
0.0
 26
0.0
 36
1.0
 17
0.0
 27
0.0
 37
0.0
 40
341.0
 41
1.24
 42
50.0
 43
0.0
 44
0.0
 50
0.0
 51
0.0
 71
     0
 72
   100
 73
     1
 74
     3
 75
     0
 76
     0
 77
     0
 78
     0
  0
ENDTAB
  0
TABLE
  2
LTYPE
  5
5
330
0
100
AcDbSymbolTable
 70
     1
  0
LTYPE
  5
14
330
5
100
AcDbSymbolTableRecord
100
AcDbLinetypeTableRecord
  2
BYBLOCK
 70
     0
  3

 72
    65
 73
     0
 40
0.0
  0
LTYPE
  5
15
330
5
100
AcDbSymbolTableRecord
100
AcDbLinetypeTableRecord
  2
BYLAYER
 70
     0
  3

 72
    65
 73
     0
 40
0.0
  0
LTYPE
  5
16
330
5
100
AcDbSymbolTableRecord
100
AcDbLinetypeTableRecord
  2
CONTINUOUS
 70
     0
  3
Solid line
 72
    65
 73
     0
 40
0.0
  0
ENDTAB
  0
TABLE
  2
LAYER
  5
2
100
AcDbSymbolTable
 70
4
  0
LAYER
  5
50
100
AcDbSymbolTableRecord
100
AcDbLayerTableRecord
  2
0
 70
0
  6
CONTINUOUS
  0
LAYER
  5
51
100
AcDbSymbolTableRecord
100
AcDbLayerTableRecord
  2
Layer_1
 70
0
  6
CONTINUOUS
  0
LAYER
  5
52
100
AcDbSymbolTableRecord
100
AcDbLayerTableRecord
  2
outline
 70
0
  6
CONTINUOUS
  0
LAYER
  5
53
100
AcDbSymbolTableRecord
100
AcDbLayerTableRecord
  2
raspberry_pi
 70
0
  6
CONTINUOUS
  0
ENDTAB
  0
TABLE
  2
STYLE
  5
3
330
0
100
AcDbSymbolTable
 70
     1
  0
STYLE
  5
11
330
3
100
AcDbSymbolTableRecord
100
AcDbTextStyleTableRecord
  2
STANDARD
 70
     0
 40
0.0
 41
1.0
 50
0.0
 71
     0
 42
2.5
  3
txt
  4

  0
ENDTAB
  0
TABLE
  2
VIEW
  5
6
330
0
100
AcDbSymbolTable
 70
     0
  0
ENDTAB
  0
TABLE
  2
UCS
  5
7
330
0
100
AcDbSymbolTable
 70
     0
  0
ENDTAB
  0
TABLE
  2
APPID
  5
9
330
0
100
AcDbSymbolTable
 70
     2
  0
APPID
  5
12
330
9
100
AcDbSymbolTableRecord
100
AcDbRegAppTableRecord
  2
ACAD
 70
     0
  0
ENDTAB
  0
TABLE
  2
DIMSTYLE
  5
A
330
0
100
AcDbSymbolTable
 70
     1
  0
DIMSTYLE
105
27
330
A
100
AcDbSymbolTableRecord
100
AcDbDimStyleTableRecord
  2
ISO-25
 70
     0
  3

  4

  5

  6

  7

 40
1.0
 41
2.5
 42
0.625
 43
3.75
 44
1.25
 45
0.0
 46
0.0
 47
0.0
 48
0.0
140
2.5
141
2.5
142
0.0
143
0.03937007874016
144
1.0
145
0.0
146
1.0
147
0.625
 71
     0
 72
     0
 73
     0
 74
     0
 75
     0
 76
     0
 77
     1
 78
     8
170
     0
171
     3
172
     1
173
     0
174
     0
175
     0
176
     0
177
     0
178
     0
270
     2
271
     2
272
     2
273
     2
274
     3
340
11
275
     0
280
     0
281
     0
282
     0
283
     0
284
     8
285
     0
286
     0
287
     3
288
     0
  0
ENDTAB
  0
TABLE
  2
BLOCK_RECORD
  5
1
330
0
100
AcDbSymbolTable
 70
     1
  0
BLOCK_RECORD
  5
1F
330
1
100
AcDbSymbolTableRecord
100
AcDbBlockTableRecord
  2
*MODEL_SPACE
  0
BLOCK_RECORD
  5
1B
330
1
100
AcDbSymbolTableRecord
100
AcDbBlockTableRecord
  2
*PAPER_SPACE
  0
ENDTAB
  0
ENDSEC
  0
SECTION
  2
BLOCKS
  0
BLOCK
  5
20
330
1F
100
AcDbEntity
  8
0
100
AcDbBlockBegin
  2
*MODEL_SPACE
 70
     0
 10
0.0
 20
0.0
 30
0.0
  3
*MODEL_SPACE
  1

  0
ENDBLK
  5
21
330
1F
100
AcDbEntity
  8
0
100
AcDbBlockEnd
  0
BLOCK
  5
1C
330
1B
100
AcDbEntity
 67
     1
  8
0
100
AcDbBlockBegin
  2
*PAPER_SPACE
  1

  0
ENDBLK
  5
1D
330
1B
100
AcDbEntity
 67
     1
  8
0
100
AcDbBlockEnd
  0
ENDSEC
  0
SECTION
  2
ENTITIES
  0
SPLINE
  5
100
100
AcDbEntity
  8
Layer_1
 62
7
100
AcDbSpline
 70
0
 71
3
 72
25
 73
21
 74
19
 40
0.000000
 40
0.000000
 40
0.000000
 40
0.000000
 40
0.607416
 40
1.206136
 40
1.813551
 40
2.420967
 40
3.019687
 40
3.627103
 40
4.234518
 40
4.833238
 40
5.440654
 40
6.048070
 40
6.646790
 40
7.254205
 40
7.861621
 40
8.460341
 40
9.067757
 40
9.675172
 40
10.273892
 40
10.881308
 40
10.881308
 40
10.881308
 40
10.881308
 10
86.278774
 20
984.463606
 30
0.0
 10
86.258026
 20
984.260096
 30
0.0
 10
86.216826
 20
983.855989
 30
0.0
 10
85.896522
 20
983.321911
 30
0.0
 10
85.427459
 20
982.924826
 30
0.0
 10
84.846567
 20
982.714221
 30
0.0
 10
84.230164
 20
982.714221
 30
0.0
 10
83.650084
 20
982.924826
 30
0.0
 10
83.177779
 20
983.321911
 30
0.0
 10
82.869518
 20
983.855989
 30
0.0
 10
82.762118
 20
984.463606
 30
0.0
 10
82.869518
 20
985.071223
 30
0.0
 10
83.177779
 20
985.605301
 30
0.0
 10
83.650084
 20
986.002386
 30
0.0
 10
84.230164
 20
986.212992
 30
0.0
 10
84.846567
 20
986.212992
 30
0.0
 10
85.427459
 20
986.002386
 30
0.0
 10
85.896522
 20
985.605301
 30
0.0
 10
86.216826
 20
985.071223
 30
0.0
 10
86.258026
 20
984.667116
 30
0.0
 10
86.278774
 20
984.463606
 30
0.0
 11
86.278774
 21
984.463606
 31
0.0
 11
86.172951
 21
983.865480
 31
0.0
 11
85.873680
 21
983.346922
 31
0.0
 11
85.408732
 21
982.956055
 31
0.0
 11
84.837792
 21
982.748734
 31
0.0
 11
84.239072
 21
982.748734
 31
0.0
 11
83.668133
 21
982.956055
 31
0.0
 11
83.203184
 21
983.346922
 31
0.0
 11
82.903913
 21
983.865480
 31
0.0
 11
82.798090
 21
984.463606
 31
0.0
 11
82.903913
 21
985.061733
 31
0.0
 11
83.203184
 21
985.580290
 31
0.0
 11
83.668133
 21
985.971157
 31
0.0
 11
84.239072
 21
986.178478
 31
0.0
 11
84.837792
 21
986.178478
 31
0.0
 11
85.408732
 21
985.971157
 31
0.0
 11
85.873680
 21
985.580290
 31
0.0
 11
86.172951
 21
985.061733
 31
0.0
 11
86.278774
 21
984.463606
 31
0.0
  0
LWPOLYLINE
  5
101
100
AcDbEntity
  8
Layer_1
 62
7
100
AcDbPolyline
 90
2
 70
0
 10
86.278774
 20
984.463606
 30
0.0
 10
86.278774
 20
984.463606
 30
0.0
  0
SPLINE
  5
102
100
AcDbEntity
  8
Layer_1
 62
7
100
AcDbSpline
 70
0
 71
3
 72
25
 73
21
 74
19
 40
0.000000
 40
0.000000
 40
0.000000
 40
0.000000
 40
0.607416
 40
1.206136
 40
1.813551
 40
2.420967
 40
3.019687
 40
3.627103
 40
4.234518
 40
4.833238
 40
5.440654
 40
6.048070
 40
6.646790
 40
7.254205
 40
7.861621
 40
8.460341
 40
9.067757
 40
9.675172
 40
10.273892
 40
10.881308
 40
10.881308
 40
10.881308
 40
10.881308
 10
261.171406
 20
984.463606
 30
0.0
 10
261.150657
 20
984.260096
 30
0.0
 10
261.109457
 20
983.855989
 30
0.0
 10
260.789154
 20
983.321911
 30
0.0
 10
260.320090
 20
982.924826
 30
0.0
 10
259.739198
 20
982.714221
 30
0.0
 10
259.122795
 20
982.714221
 30
0.0
 10
258.542715
 20
982.924826
 30
0.0
 10
258.070411
 20
983.321911
 30
0.0
 10
257.762149
 20
983.855989
 30
0.0
 10
257.654750
 20
984.463606
 30
0.0
 10
257.762149
 20
985.071223
 30
0.0
 10
258.070411
 20
985.605301
 30
0.0
 10
258.542715
 20
986.002386
 30
0.0
 10
259.122795
 20
986.212992
 30
0.0
 10
259.739198
 20
986.212992
 30
0.0
 10
260.320090
 20
986.002386
 30
0.0
 10
260.789154
 20
985.605301
 30
0.0
 10
261.109457
 20
985.071223
 30
0.0
 10
261.150657
 20
984.667116
 30
0.0
 10
261.171406
 20
984.463606
 30
0.0
 11
261.171406
 21
984.463606
 31
0.0
 11
261.065583
 21
983.865480
 31
0.0
 11
260.766311
 21
983.346922
 31
0.0
 11
260.301363
 21
982.956055
 31
0.0
 11
259.730423
 21
982.748734
 31
0.0
 11
259.131703
 21
982.748734
 31
0.0
 11
258.560764
 21
982.956055
 31
0.0
 11
258.095816
 21
983.346922
 31
0.0
 11
257.796544
 21
983.865480
 31
0.0
 11
257.690721
 21
984.463606
 31
0.0
 11
257.796544
 21
985.061733
 31
0.0
 11
258.095816
 21
985.580290
 31
0.0
 11
258.560764
 21
985.971157
 31
0.0
 11
259.131703
 21
986.178478
 31
0.0
 11
259.730423
 21
986.178478
 31
0.0
 11
260.301363
 21
985.971157
 31
0.0
 11
260.766311
 21
985.580290
 31
0.0
 11
261.065583
 21
985.061733
 31
0.0
 11
261.171406
 21
984.463606
 31
0.0
  0
LWPOLYLINE
  5
103
100
AcDbEntity
  8
Layer_1
 62
7
100
AcDbPolyline
 90
2
 70
0
 10
261.171406
 20
984.463606
 30
0.0
 10
261.171406
 20
984.463606
 30
0.0
  0
SPLINE
  5
104
100
AcDbEntity
  8
Layer_1
 62
7
100
AcDbSpline
 70
0
 71
3
 72
25
 73
21
 74
19
 40
0.000000
 40
0.000000
 40
0.000000
 40
0.000000
 40
0.607416
 40
1.206136
 40
1.813551
 40
2.420967
 40
3.019687
 40
3.627103
 40
4.234518
 40
4.833238
 40
5.440654
 40
6.048070
 40
6.646790
 40
7.254205
 40
7.861621
 40
8.460341
 40
9.067757
 40
9.675172
 40
10.273892
 40
10.881308
 40
10.881308
 40
10.881308
 40
10.881308
 10
261.171406
 20
824.848341
 30
0.0
 10
261.150657
 20
824.644831
 30
0.0
 10
261.109457
 20
824.240724
 30
0.0
 10
260.789154
 20
823.706646
 30
0.0
 10
260.320090
 20
823.309561
 30
0.0
 10
259.739198
 20
823.098956
 30
0.0
 10
259.122795
 20
823.098956
 30
0.0
 10
258.542715
 20
823.309561
 30
0.0
 10
258.070411
 20
823.706646
 30
0.0
 10
257.762149
 20
824.240724
 30
0.0
 10
257.654750
 20
824.848341
 30
0.0
 10
257.762149
 20
825.455958
 30
0.0
 10
258.070411
 20
825.990036
 30
0.0
 10
258.542715
 20
826.387121
 30
0.0
 10
259.122795
 20
826.597726
 30
0.0
 10
259.739198
 20
826.597726
 30
0.0
 10
260.320090
 20
826.387121
 30
0.0
 10
260.789154
 20
825.990036
 30
0.0
 10
261.109457
 20
825.455958
 30
0.0
 10
261.150657
 20
825.051851
 30
0.0
 10
261.171406
 20
824.848341
 30
0.0
 11
261.171406
 21
824.848341
 31
0.0
 11
261.065583
 21
824.250215
 31
0.0
 11
260.766311
 21
823.731657
 31
0.0
 11
260.301363
 21
823.340790
 31
0.0
 11
259.730423
 21
823.133469
 31
0.0
 11
259.131703
 21
823.133469
 31
0.0
 11
258.560764
 21
823.340790
 31
0.0
 11
258.095816
 21
823.731657
 31
0.0
 11
257.796544
 21
824.250215
 31
0.0
 11
257.690721
 21
824.848341
 31
0.0
 11
257.796544
 21
825.446468
 31
0.0
 11
258.095816
 21
825.965025
 31
0.0
 11
258.560764
 21
826.355892
 31
0.0
 11
259.131703
 21
826.563213
 31
0.0
 11
259.730423
 21
826.563213
 31
0.0
 11
260.301363
 21
826.355892
 31
0.0
 11
260.766311
 21
825.965025
 31
0.0
 11
261.065583
 21
825.446468
 31
0.0
 11
261.171406
 21
824.848341
 31
0.0
  0
LWPOLYLINE
  5
105
100
AcDbEntity
  8
Layer_1
 62
7
100
AcDbPolyline
 90
2
 70
0
 10
261.171406
 20
824.848341
 30
0.0
 10
261.171406
 20
824.848341
 30
0.0
  0
SPLINE
  5
106
100
AcDbEntity
  8
Layer_1
 62
7
100
AcDbSpline
 70
0
 71
3
 72
25
 73
21
 74
19
 40
0.000000
 40
0.000000
 40
0.000000
 40
0.000000
 40
0.607416
 40
1.206136
 40
1.813551
 40
2.420967
 40
3.019687
 40
3.627103
 40
4.234518
 40
4.833238
 40
5.440654
 40
6.048070
 40
6.646790
 40
7.254205
 40
7.861621
 40
8.460341
 40
9.067757
 40
9.675172
 40
10.273892
 40
10.881308
 40
10.881308
 40
10.881308
 40
10.881308
 10
86.278774
 20
824.848341
 30
0.0
 10
86.258026
 20
824.644831
 30
0.0
 10
86.216826
 20
824.240724
 30
0.0
 10
85.896522
 20
823.706646
 30
0.0
 10
85.427459
 20
823.309561
 30
0.0
 10
84.846567
 20
823.098956
 30
0.0
 10
84.230164
 20
823.098956
 30
0.0
 10
83.650084
 20
823.309561
 30
0.0
 10
83.177779
 20
823.706646
 30
0.0
 10
82.869518
 20
824.240724
 30
0.0
 10
82.762118
 20
824.848341
 30
0.0
 10
82.869518
 20
825.455958
 30
0.0
 10
83.177779
 20
825.990036
 30
0.0
 10
83.650084
 20
826.387121
 30
0.0
 10
84.230164
 20
826.597726
 30
0.0
 10
84.846567
 20
826.597726
 30
0.0
 10
85.427459
 20
826.387121
 30
0.0
 10
85.896522
 20
825.990036
 30
0.0
 10
86.216826
 20
825.455958
 30
0.0
 10
86.258026
 20
825.051851
 30
0.0
 10
86.278774
 20
824.848341
 30
0.0
 11
86.278774
 21
824.848341
 31
0.0
 11
86.172951
 21
824.250215
 31
0.0
 11
85.873680
 21
823.731657
 31
0.0
 11
85.408732
 21
823.340790
 31
0.0
 11
84.837792
 21
823.133469
 31
0.0
 11
84.239072
 21
823.133469
 31
0.0
 11
83.668133
 21
823.340790
 31
0.0
 11
83.203184
 21
823.731657
 31
0.0
 11
82.903913
 21
824.250215
 31
0.0
 11
82.798090
 21
824.848341
 31
0.0
 11
82.903913
 21
825.446468
 31
0.0
 11
83.203184
 21
825.965025
 31
0.0
 11
83.668133
 21
826.355892
 31
0.0
 11
84.239072
 21
826.563213
 31
0.0
 11
84.837792
 21
826.563213
 31
0.0
 11
85.408732
 21
826.355892
 31
0.0
 11
85.873680
 21
825.965025
 31
0.0
 11
86.172951
 21
825.446468
 31
0.0
 11
86.278774
 21
824.848341
 31
0.0
  0
LWPOLYLINE
  5
107
100
AcDbEntity
  8
Layer_1
 62
7
100
AcDbPolyline
 90
2
 70
0
 10
86.278774
 20
824.848341
 30
0.0
 10
86.278774
 20
824.848341
 30
0.0
  0
SPLINE
  5
108
100
AcDbEntity
  8
Layer_1
 62
7
100
AcDbSpline
 70
0
 71
3
 72
25
 73
21
 74
19
 40
0.000000
 40
0.000000
 40
0.000000
 40
0.000000
 40
0.427357
 40
0.848592
 40
1.275949
 40
1.703306
 40
2.124542
 40
2.551899
 40
2.979255
 40
3.400491
 40
3.827848
 40
4.255205
 40
4.676440
 40
5.103797
 40
5.531154
 40
5.952389
 40
6.379746
 40
6.807103
 40
7.228339
 40
7.655696
 40
7.655696
 40
7.655696
 40
7.655696
 10
260.892539
 20
835.113610
 30
0.0
 10
260.877997
 20
834.970421
 30
0.0
 10
260.849122
 20
834.686093
 30
0.0
 10
260.623869
 20
834.310267
 30
0.0
 10
260.293902
 20
834.030828
 30
0.0
 10
259.885217
 20
833.882614
 30
0.0
 10
259.451534
 20
833.882614
 30
0.0
 10
259.043417
 20
834.030828
 30
0.0
 10
258.711179
 20
834.310267
 30
0.0
 10
258.494365
 20
834.686093
 30
0.0
 10
258.419094
 20
835.113610
 30
0.0
 10
258.494365
 20
835.541127
 30
0.0
 10
258.711179
 20
835.916954
 30
0.0
 10
259.043417
 20
836.196393
 30
0.0
 10
259.451534
 20
836.344607
 30
0.0
 10
259.885217
 20
836.344607
 30
0.0
 10
260.293902
 20
836.196393
 30
0.0
 10
260.623869
 20
835.916954
 30
0.0
 10
260.849122
 20
835.541127
 30
0.0
 10
260.877997
 20
835.256800
 30
0.0
 10
260.892539
 20
835.113610
 30
0.0
 11
260.892539
 21
835.113610
 31
0.0
 11
260.818243
 21
834.692761
 31
0.0
 11
260.607790
 21
834.327865
 31
0.0
 11
260.280720
 21
834.052803
 31
0.0
 11
259.879040
 21
833.906902
 31
0.0
 11
259.457804
 21
833.906902
 31
0.0
 11
259.056124
 21
834.052803
 31
0.0
 11
258.729054
 21
834.327865
 31
0.0
 11
258.518601
 21
834.692761
 31
0.0
 11
258.444305
 21
835.113610
 31
0.0
 11
258.518601
 21
835.534459
 31
0.0
 11
258.729054
 21
835.899355
 31
0.0
 11
259.056124
 21
836.174417
 31
0.0
 11
259.457804
 21
836.320318
 31
0.0
 11
259.879040
 21
836.320318
 31
0.0
 11
260.280720
 21
836.174417
 31
0.0
 11
260.607790
 21
835.899355
 31
0.0
 11
260.818243
 21
835.534459
 31
0.0
 11
260.892539
 21
835.113610
 31
0.0
  0
LWPOLYLINE
  5
109
100
AcDbEntity
  8
Layer_1
 62
7
100
AcDbPolyline
 90
2
 70
0
 10
260.892539
 20
835.113610
 30
0.0
 10
260.892539
 20
835.113610
 30
0.0
  0
SPLINE
  5
10a
100
AcDbEntity
  8
Layer_1
 62
7
100
AcDbSpline
 70
0
 71
3
 72
25
 73
21
 74
19
 40
0.000000
 40
0.000000
 40
0.000000
 40
0.000000
 40
0.427357
 40
0.848592
 40
1.275949
 40
1.703306
 40
2.124542
 40
2.551899
 40
2.979255
 40
3.400491
 40
3.827848
 40
4.255205
 40
4.676440
 40
5.103797
 40
5.531154
 40
5.952389
 40
6.379746
 40
6.807103
 40
7.228339
 40
7.655696
 40
7.655696
 40
7.655696
 40
7.655696
 10
85.572553
 20
974.253625
 30
0.0
 10
85.558011
 20
974.110436
 30
0.0
 10
85.529136
 20
973.826108
 30
0.0
 10
85.303883
 20
973.450282
 30
0.0
 10
84.973916
 20
973.170842
 30
0.0
 10
84.565230
 20
973.022628
 30
0.0
 10
84.131548
 20
973.022628
 30
0.0
 10
83.723431
 20
973.170842
 30
0.0
 10
83.391193
 20
973.450282
 30
0.0
 10
83.174379
 20
973.826108
 30
0.0
 10
83.099108
 20
974.253625
 30
0.0
 10
83.174379
 20
974.681142
 30
0.0
 10
83.391193
 20
975.056968
 30
0.0
 10
83.723431
 20
975.336407
 30
0.0
 10
84.131548
 20
975.484622
 30
0.0
 10
84.565230
 20
975.484622
 30
0.0
 10
84.973916
 20
975.336407
 30
0.0
 10
85.303883
 20
975.056968
 30
0.0
 10
85.529136
 20
974.681142
 30
0.0
 10
85.558011
 20
974.396814
 30
0.0
 10
85.572553
 20
974.253625
 30
0.0
 11
85.572553
 21
974.253625
 31
0.0
 11
85.498256
 21
973.832776
 31
0.0
 11
85.287803
 21
973.467880
 31
0.0
 11
84.960733
 21
973.192818
 31
0.0
 11
84.559053
 21
973.046917
 31
0.0
 11
84.137818
 21
973.046917
 31
0.0
 11
83.736138
 21
973.192818
 31
0.0
 11
83.409068
 21
973.467880
 31
0.0
 11
83.198615
 21
973.832776
 31
0.0
 11
83.124319
 21
974.253625
 31
0.0
 11
83.198615
 21
974.674474
 31
0.0
 11
83.409068
 21
975.039370
 31
0.0
 11
83.736138
 21
975.314432
 31
0.0
 11
84.137818
 21
975.460333
 31
0.0
 11
84.559053
 21
975.460333
 31
0.0
 11
84.960733
 21
975.314432
 31
0.0
 11
85.287803
 21
975.039370
 31
0.0
 11
85.498256
 21
974.674474
 31
0.0
 11
85.572553
 21
974.253625
 31
0.0
  0
LWPOLYLINE
  5
10b
100
AcDbEntity
  8
Layer_1
 62
7
100
AcDbPolyline
 90
2
 70
0
 10
85.572553
 20
974.253625
 30
0.0
 10
85.572553
 20
974.253625
 30
0.0
  0
SPLINE
  5
10c
100
AcDbEntity
  8
Layer_1
 62
1
100
AcDbSpline
 70
0
 71
3
 72
10
 73
6
 74
4
 40
0.000000
 40
0.000000
 40
0.000000
 40
0.000000
 40
6.542793
 40
12.876007
 40
19.418799
 40
19.418799
 40
19.418799
 40
19.418799
 10
102.005694
 20
987.184674
 30
0.0
 10
99.812159
 20
986.843836
 30
0.0
 10
95.495352
 20
986.173079
 30
0.0
 10
90.520136
 20
981.197863
 30
0.0
 10
89.849379
 20
976.881056
 30
0.0
 10
89.508542
 20
974.687521
 30
0.0
 11
102.005694
 21
987.184674
 31
0.0
 11
95.687914
 21
985.483560
 31
0.0
 11
91.209655
 21
981.005301
 31
0.0
 11
89.508542
 21
974.687521
 31
0.0
  0
LWPOLYLINE
  5
10d
100
AcDbEntity
  8
Layer_1
 62
1
100
AcDbPolyline
 90
2
 70
0
 10
89.508542
 20
974.687521
 30
0.0
 10
89.508542
 20
928.949882
 30
0.0
  0
SPLINE
  5
10e
100
AcDbEntity
  8
Layer_1
 62
1
100
AcDbSpline
 70
0
 71
3
 72
10
 73
6
 74
4
 40
0.000000
 40
0.000000
 40
0.000000
 40
0.000000
 40
6.542793
 40
12.876007
 40
19.418799
 40
19.418799
 40
19.418799
 40
19.418799
 10
89.508542
 20
928.949882
 30
0.0
 10
89.849379
 20
926.756347
 30
0.0
 10
90.520136
 20
922.439540
 30
0.0
 10
95.495352
 20
917.464324
 30
0.0
 10
99.812159
 20
916.793567
 30
0.0
 10
102.005694
 20
916.452729
 30
0.0
 11
89.508542
 21
928.949882
 31
0.0
 11
91.209655
 21
922.632102
 31
0.0
 11
95.687914
 21
918.153843
 31
0.0
 11
102.005694
 21
916.452729
 31
0.0
  0
LWPOLYLINE
  5
10f
100
AcDbEntity
  8
Layer_1
 62
1
100
AcDbPolyline
 90
3
 70
0
 10
102.005694
 20
916.452729
 30
0.0
 10
163.089167
 20
916.452729
 30
0.0
 10
163.089167
 20
946.465299
 30
0.0
  0
SPLINE
  5
110
100
AcDbEntity
  8
Layer_1
 62
1
100
AcDbSpline
 70
0
 71
3
 72
10
 73
6
 74
4
 40
0.000000
 40
0.000000
 40
0.000000
 40
0.000000
 40
0.785023
 40
1.544769
 40
2.329792
 40
2.329792
 40
2.329792
 40
2.329792
 10
163.089167
 20
946.465299
 30
0.0
 10
163.130033
 20
946.728493
 30
0.0
 10
163.210449
 20
947.246405
 30
0.0
 10
163.807365
 20
947.843322
 30
0.0
 10
164.325278
 20
947.923738
 30
0.0
 10
164.588472
 20
947.964604
 30
0.0
 11
163.089167
 21
946.465299
 31
0.0
 11
163.293209
 21
947.223341
 31
0.0
 11
163.830430
 21
947.760562
 31
0.0
 11
164.588472
 21
947.964604
 31
0.0
  0
LWPOLYLINE
  5
111
100
AcDbEntity
  8
Layer_1
 62
1
100
AcDbPolyline
 90
2
 70
0
 10
164.588472
 20
947.964604
 30
0.0
 10
217.584514
 20
947.964604
 30
0.0
  0
SPLINE
  5
112
100
AcDbEntity
  8
Layer_1
 62
1
100
AcDbSpline
 70
0
 71
3
 72
10
 73
6
 74
4
 40
0.000000
 40
0.000000
 40
0.000000
 40
0.000000
 40
0.785023
 40
1.544769
 40
2.329792
 40
2.329792
 40
2.329792
 40
2.329792
 10
217.584514
 20
947.964604
 30
0.0
 10
217.847708
 20
947.923738
 30
0.0
 10
218.365621
 20
947.843322
 30
0.0
 10
218.962537
 20
947.246405
 30
0.0
 10
219.042953
 20
946.728493
 30
0.0
 10
219.083819
 20
946.465299
 30
0.0
 11
217.584514
 21
947.964604
 31
0.0
 11
218.342556
 21
947.760562
 31
0.0
 11
218.879777
 21
947.223341
 31
0.0
 11
219.083819
 21
946.465299
 31
0.0
  0
LWPOLYLINE
  5
113
100
AcDbEntity
  8
Layer_1
 62
1
100
AcDbPolyline
 90
3
 70
0
 10
219.083819
 20
946.465299
 30
0.0
 10
219.083819
 20
916.452729
 30
0.0
 10
242.005556
 20
916.452729
 30
0.0
  0
SPLINE
  5
114
100
AcDbEntity
  8
Layer_1
 62
1
100
AcDbSpline
 70
0
 71
3
 72
10
 73
6
 74
4
 40
0.000000
 40
0.000000
 40
0.000000
 40
0.000000
 40
6.545000
 40
12.881218
 40
19.424606
 40
19.424606
 40
19.424606
 40
19.424606
 10
242.005556
 20
916.452729
 30
0.0
 10
244.199680
 20
916.793691
 30
0.0
 10
248.517938
 20
917.464737
 30
0.0
 10
253.497633
 20
922.438221
 30
0.0
 10
254.169958
 20
926.756177
 30
0.0
 10
254.511528
 20
928.949882
 30
0.0
 11
242.005556
 21
916.452729
 31
0.0
 11
248.325622
 21
918.153843
 31
0.0
 11
252.808127
 21
922.632102
 31
0.0
 11
254.511528
 21
928.949882
 31
0.0
  0
LWPOLYLINE
  5
115
100
AcDbEntity
  8
Layer_1
 62
1
100
AcDbPolyline
 90
2
 70
0
 10
254.511528
 20
928.949882
 30
0.0
 10
254.511528
 20
974.687521
 30
0.0
  0
SPLINE
  5
116
100
AcDbEntity
  8
Layer_1
 62
1
100
AcDbSpline
 70
0
 71
3
 72
10
 73
6
 74
4
 40
0.000000
 40
0.000000
 40
0.000000
 40
0.000000
 40
6.543387
 40
12.879605
 40
19.424606
 40
19.424606
 40
19.424606
 40
19.424606
 10
254.511528
 20
974.687521
 30
0.0
 10
254.169958
 20
976.881226
 30
0.0
 10
253.497633
 20
981.199182
 30
0.0
 10
248.517938
 20
986.172665
 30
0.0
 10
244.199680
 20
986.843712
 30
0.0
 10
242.005556
 20
987.184674
 30
0.0
 11
254.511528
 21
974.687521
 31
0.0
 11
252.808127
 21
981.005301
 31
0.0
 11
248.325622
 21
985.483560
 31
0.0
 11
242.005556
 21
987.184674
 31
0.0
  0
LWPOLYLINE
  5
117
100
AcDbEntity
  8
Layer_1
 62
1
100
AcDbPolyline
 90
3
 70
0
 10
242.005556
 20
987.184674
 30
0.0
 10
102.005694
 20
987.184674
 30
0.0
 10
102.005694
 20
987.184674
 30
0.0
  0
SPLINE
  5
118
100
AcDbEntity
  8
Layer_1
 62
1
100
AcDbSpline
 70
0
 71
3
 72
10
 73
6
 74
4
 40
0.000000
 40
0.000000
 40
0.000000
 40
0.000000
 40
6.543387
 40
12.879605
 40
19.424606
 40
19.424606
 40
19.424606
 40
19.424606
 10
102.058611
 20
892.966549
 30
0.0
 10
99.864906
 20
892.624979
 30
0.0
 10
95.546950
 20
891.952654
 30
0.0
 10
90.573467
 20
886.972959
 30
0.0
 10
89.902420
 20
882.654701
 30
0.0
 10
89.561458
 20
880.460576
 30
0.0
 11
102.058611
 21
892.966549
 31
0.0
 11
95.740831
 21
891.263148
 31
0.0
 11
91.262572
 21
886.780643
 31
0.0
 11
89.561458
 21
880.460576
 31
0.0
  0
LWPOLYLINE
  5
119
100
AcDbEntity
  8
Layer_1
 62
1
100
AcDbPolyline
 90
2
 70
0
 10
89.561458
 20
880.460576
 30
0.0
 10
89.561458
 20
834.731771
 30
0.0
  0
SPLINE
  5
11a
100
AcDbEntity
  8
Layer_1
 62
1
100
AcDbSpline
 70
0
 71
3
 72
10
 73
6
 74
4
 40
0.000000
 40
0.000000
 40
0.000000
 40
0.000000
 40
6.542808
 40
12.876023
 40
19.418815
 40
19.418815
 40
19.418815
 40
19.418815
 10
89.561458
 20
834.731771
 30
0.0
 10
89.902295
 20
832.538230
 30
0.0
 10
90.573049
 20
828.221417
 30
0.0
 10
95.548269
 20
823.246195
 30
0.0
 10
99.865076
 20
822.575440
 30
0.0
 10
102.058611
 20
822.234604
 30
0.0
 11
89.561458
 21
834.731771
 31
0.0
 11
91.262572
 21
828.413975
 31
0.0
 11
95.740831
 21
823.935715
 31
0.0
 11
102.058611
 21
822.234604
 31
0.0
  0
LWPOLYLINE
  5
11b
100
AcDbEntity
  8
Layer_1
 62
1
100
AcDbPolyline
 90
2
 70
0
 10
102.058611
 20
822.234604
 30
0.0
 10
242.058472
 20
822.234604
 30
0.0
  0
SPLINE
  5
11c
100
AcDbEntity
  8
Layer_1
 62
1
100
AcDbSpline
 70
0
 71
3
 72
10
 73
6
 74
4
 40
0.000000
 40
0.000000
 40
0.000000
 40
0.000000
 40
6.542792
 40
12.876007
 40
19.418815
 40
19.418815
 40
19.418815
 40
19.418815
 10
242.058472
 20
822.234604
 30
0.0
 10
244.252007
 20
822.575440
 30
0.0
 10
248.568815
 20
823.246195
 30
0.0
 10
253.544035
 20
828.221417
 30
0.0
 10
254.214789
 20
832.538230
 30
0.0
 10
254.555625
 20
834.731771
 30
0.0
 11
242.058472
 21
822.234604
 31
0.0
 11
248.376252
 21
823.935715
 31
0.0
 11
252.854511
 21
828.413975
 31
0.0
 11
254.555625
 21
834.731771
 31
0.0
  0
LWPOLYLINE
  5
11d
100
AcDbEntity
  8
Layer_1
 62
1
100
AcDbPolyline
 90
2
 70
0
 10
254.555625
 20
834.731771
 30
0.0
 10
254.555625
 20
880.460576
 30
0.0
  0
SPLINE
  5
11e
100
AcDbEntity
  8
Layer_1
 62
1
100
AcDbSpline
 70
0
 71
3
 72
10
 73
6
 74
4
 40
0.000000
 40
0.000000
 40
0.000000
 40
0.000000
 40
6.545000
 40
12.881218
 40
19.424606
 40
19.424606
 40
19.424606
 40
19.424606
 10
254.555625
 20
880.460576
 30
0.0
 10
254.214663
 20
882.654701
 30
0.0
 10
253.543617
 20
886.972959
 30
0.0
 10
248.570133
 20
891.952654
 30
0.0
 10
244.252177
 20
892.624979
 30
0.0
 10
242.058472
 20
892.966549
 30
0.0
 11
254.555625
 21
880.460576
 31
0.0
 11
252.854511
 21
886.780643
 31
0.0
 11
248.376252
 21
891.263148
 31
0.0
 11
242.058472
 21
892.966549
 31
0.0
  0
LWPOLYLINE
  5
11f
100
AcDbEntity
  8
Layer_1
 62
1
100
AcDbPolyline
 90
3
 70
0
 10
242.058472
 20
892.966549
 30
0.0
 10
219.083819
 20
892.966549
 30
0.0
 10
219.083819
 20
864.470938
 30
0.0
  0
SPLINE
  5
120
100
AcDbEntity
  8
Layer_1
 62
1
100
AcDbSpline
 70
0
 71
3
 72
10
 73
6
 74
4
 40
0.000000
 40
0.000000
 40
0.000000
 40
0.000000
 40
0.787236
 40
1.549994
 40
2.335616
 40
2.335616
 40
2.335616
 40
2.335616
 10
219.083819
 20
864.470938
 30
0.0
 10
219.042829
 20
864.207152
 30
0.0
 10
218.962122
 20
863.687783
 30
0.0
 10
218.366941
 20
863.086389
 30
0.0
 10
217.847878
 20
863.004399
 30
0.0
 10
217.584514
 20
862.962799
 30
0.0
 11
219.083819
 21
864.470938
 31
0.0
 11
218.879777
 21
863.710604
 31
0.0
 11
218.342556
 21
863.169130
 31
0.0
 11
217.584514
 21
862.962799
 31
0.0
  0
LWPOLYLINE
  5
121
100
AcDbEntity
  8
Layer_1
 62
1
100
AcDbPolyline
 90
2
 70
0
 10
217.584514
 20
862.962799
 30
0.0
 10
164.588472
 20
862.962799
 30
0.0
  0
SPLINE
  5
122
100
AcDbEntity
  8
Layer_1
 62
1
100
AcDbSpline
 70
0
 71
3
 72
10
 73
6
 74
4
 40
0.000000
 40
0.000000
 40
0.000000
 40
0.000000
 40
0.785621
 40
1.548380
 40
2.335616
 40
2.335616
 40
2.335616
 40
2.335616
 10
164.588472
 20
862.962799
 30
0.0
 10
164.325108
 20
863.004399
 30
0.0
 10
163.806045
 20
863.086389
 30
0.0
 10
163.210864
 20
863.687783
 30
0.0
 10
163.130157
 20
864.207152
 30
0.0
 10
163.089167
 20
864.470938
 30
0.0
 11
164.588472
 21
862.962799
 31
0.0
 11
163.830430
 21
863.169130
 31
0.0
 11
163.293209
 21
863.710604
 31
0.0
 11
163.089167
 21
864.470938
 31
0.0
  0
LWPOLYLINE
  5
123
100
AcDbEntity
  8
Layer_1
 62
1
100
AcDbPolyline
 90
4
 70
0
 10
163.089167
 20
864.470938
 30
0.0
 10
163.089167
 20
892.966549
 30
0.0
 10
102.058611
 20
892.966549
 30
0.0
 10
102.058611
 20
892.966549
 30
0.0
  0
SPLINE
  5
124
100
AcDbEntity
  8
Layer_1
 62
7
100
AcDbSpline
 70
0
 71
3
 72
25
 73
21
 74
19
 40
0.000000
 40
0.000000
 40
0.000000
 40
0.000000
 40
0.607416
 40
1.206136
 40
1.813551
 40
2.420967
 40
3.019687
 40
3.627103
 40
4.234518
 40
4.833238
 40
5.440654
 40
6.048070
 40
6.646790
 40
7.254205
 40
7.861621
 40
8.460341
 40
9.067757
 40
9.675172
 40
10.273892
 40
10.881308
 40
10.881308
 40
10.881308
 40
10.881308
 10
73.796373
 20
1004.636004
 30
0.0
 10
73.775625
 20
1004.432494
 30
0.0
 10
73.734425
 20
1004.028387
 30
0.0
 10
73.414121
 20
1003.494309
 30
0.0
 10
72.945058
 20
1003.097224
 30
0.0
 10
72.364166
 20
1002.886619
 30
0.0
 10
71.747763
 20
1002.886619
 30
0.0
 10
71.167683
 20
1003.097224
 30
0.0
 10
70.695378
 20
1003.494309
 30
0.0
 10
70.387117
 20
1004.028387
 30
0.0
 10
70.279717
 20
1004.636004
 30
0.0
 10
70.387117
 20
1005.243621
 30
0.0
 10
70.695378
 20
1005.777699
 30
0.0
 10
71.167683
 20
1006.174784
 30
0.0
 10
71.747763
 20
1006.385389
 30
0.0
 10
72.364166
 20
1006.385389
 30
0.0
 10
72.945058
 20
1006.174784
 30
0.0
 10
73.414121
 20
1005.777699
 30
0.0
 10
73.734425
 20
1005.243621
 30
0.0
 10
73.775625
 20
1004.839514
 30
0.0
 10
73.796373
 20
1004.636004
 30
0.0
 11
73.796373
 21
1004.636004
 31
0.0
 11
73.690550
 21
1004.037877
 31
0.0
 11
73.391279
 21
1003.519320
 31
0.0
 11
72.926331
 21
1003.128453
 31
0.0
 11
72.355391
 21
1002.921132
 31
0.0
 11
71.756671
 21
1002.921132
 31
0.0
 11
71.185732
 21
1003.128453
 31
0.0
 11
70.720783
 21
1003.519320
 31
0.0
 11
70.421512
 21
1004.037877
 31
0.0
 11
70.315689
 21
1004.636004
 31
0.0
 11
70.421512
 21
1005.234130
 31
0.0
 11
70.720783
 21
1005.752688
 31
0.0
 11
71.185732
 21
1006.143555
 31
0.0
 11
71.756671
 21
1006.350876
 31
0.0
 11
72.355391
 21
1006.350876
 31
0.0
 11
72.926331
 21
1006.143555
 31
0.0
 11
73.391279
 21
1005.752688
 31
0.0
 11
73.690550
 21
1005.234130
 31
0.0
 11
73.796373
 21
1004.636004
 31
0.0
  0
LWPOLYLINE
  5
125
100
AcDbEntity
  8
Layer_1
 62
7
100
AcDbPolyline
 90
2
 70
0
 10
73.796373
 20
1004.636004
 30
0.0
 10
73.796373
 20
1004.636004
 30
0.0
  0
SPLINE
  5
126
100
AcDbEntity
  8
Layer_1
 62
7
100
AcDbSpline
 70
0
 71
3
 72
25
 73
21
 74
19
 40
0.000000
 40
0.000000
 40
0.000000
 40
0.000000
 40
0.607416
 40
1.206136
 40
1.813551
 40
2.420967
 40
3.019687
 40
3.627103
 40
4.234518
 40
4.833238
 40
5.440654
 40
6.048070
 40
6.646790
 40
7.254205
 40
7.861621
 40
8.460341
 40
9.067757
 40
9.675172
 40
10.273892
 40
10.881308
 40
10.881308
 40
10.881308
 40
10.881308
 10
273.701166
 20
1004.636004
 30
0.0
 10
273.680418
 20
1004.432494
 30
0.0
 10
273.639218
 20
1004.028387
 30
0.0
 10
273.318914
 20
1003.494309
 30
0.0
 10
272.849851
 20
1003.097224
 30
0.0
 10
272.268959
 20
1002.886619
 30
0.0
 10
271.652556
 20
1002.886619
 30
0.0
 10
271.072476
 20
1003.097224
 30
0.0
 10
270.600171
 20
1003.494309
 30
0.0
 10
270.291910
 20
1004.028387
 30
0.0
 10
270.184510
 20
1004.636004
 30
0.0
 10
270.291910
 20
1005.243621
 30
0.0
 10
270.600171
 20
1005.777699
 30
0.0
 10
271.072476
 20
1006.174784
 30
0.0
 10
271.652556
 20
1006.385389
 30
0.0
 10
272.268959
 20
1006.385389
 30
0.0
 10
272.849851
 20
1006.174784
 30
0.0
 10
273.318914
 20
1005.777699
 30
0.0
 10
273.639218
 20
1005.243621
 30
0.0
 10
273.680418
 20
1004.839514
 30
0.0
 10
273.701166
 20
1004.636004
 30
0.0
 11
273.701166
 21
1004.636004
 31
0.0
 11
273.595344
 21
1004.037877
 31
0.0
 11
273.296072
 21
1003.519320
 31
0.0
 11
272.831124
 21
1003.128453
 31
0.0
 11
272.260184
 21
1002.921132
 31
0.0
 11
271.661464
 21
1002.921132
 31
0.0
 11
271.090525
 21
1003.128453
 31
0.0
 11
270.625576
 21
1003.519320
 31
0.0
 11
270.326305
 21
1004.037877
 31
0.0
 11
270.220482
 21
1004.636004
 31
0.0
 11
270.326305
 21
1005.234130
 31
0.0
 11
270.625576
 21
1005.752688
 31
0.0
 11
271.090525
 21
1006.143555
 31
0.0
 11
271.661464
 21
1006.350876
 31
0.0
 11
272.260184
 21
1006.350876
 31
0.0
 11
272.831124
 21
1006.143555
 31
0.0
 11
273.296072
 21
1005.752688
 31
0.0
 11
273.595344
 21
1005.234130
 31
0.0
 11
273.701166
 21
1004.636004
 31
0.0
  0
LWPOLYLINE
  5
127
100
AcDbEntity
  8
Layer_1
 62
7
100
AcDbPolyline
 90
2
 70
0
 10
273.701166
 20
1004.636004
 30
0.0
 10
273.701166
 20
1004.636004
 30
0.0
  0
SPLINE
  5
128
100
AcDbEntity
  8
Layer_1
 62
7
100
AcDbSpline
 70
0
 71
3
 72
25
 73
21
 74
19
 40
0.000000
 40
0.000000
 40
0.000000
 40
0.000000
 40
0.607416
 40
1.206136
 40
1.813551
 40
2.420967
 40
3.019687
 40
3.627103
 40
4.234518
 40
4.833238
 40
5.440654
 40
6.048070
 40
6.646790
 40
7.254205
 40
7.861621
 40
8.460341
 40
9.067757
 40
9.675172
 40
10.273892
 40
10.881308
 40
10.881308
 40
10.881308
 40
10.881308
 10
273.701166
 20
804.731202
 30
0.0
 10
273.680418
 20
804.527692
 30
0.0
 10
273.639218
 20
804.123585
 30
0.0
 10
273.318914
 20
803.589507
 30
0.0
 10
272.849851
 20
803.192422
 30
0.0
 10
272.268959
 20
802.981817
 30
0.0
 10
271.652556
 20
802.981817
 30
0.0
 10
271.072476
 20
803.192422
 30
0.0
 10
270.600171
 20
803.589507
 30
0.0
 10
270.291910
 20
804.123585
 30
0.0
 10
270.184510
 20
804.731202
 30
0.0
 10
270.291910
 20
805.338820
 30
0.0
 10
270.600171
 20
805.872898
 30
0.0
 10
271.072476
 20
806.269982
 30
0.0
 10
271.652556
 20
806.480588
 30
0.0
 10
272.268959
 20
806.480588
 30
0.0
 10
272.849851
 20
806.269982
 30
0.0
 10
273.318914
 20
805.872898
 30
0.0
 10
273.639218
 20
805.338820
 30
0.0
 10
273.680418
 20
804.934713
 30
0.0
 10
273.701166
 20
804.731202
 30
0.0
 11
273.701166
 21
804.731202
 31
0.0
 11
273.595344
 21
804.133076
 31
0.0
 11
273.296072
 21
803.614518
 31
0.0
 11
272.831124
 21
803.223651
 31
0.0
 11
272.260184
 21
803.016331
 31
0.0
 11
271.661464
 21
803.016331
 31
0.0
 11
271.090525
 21
803.223651
 31
0.0
 11
270.625576
 21
803.614518
 31
0.0
 11
270.326305
 21
804.133076
 31
0.0
 11
270.220482
 21
804.731202
 31
0.0
 11
270.326305
 21
805.329329
 31
0.0
 11
270.625576
 21
805.847887
 31
0.0
 11
271.090525
 21
806.238754
 31
0.0
 11
271.661464
 21
806.446074
 31
0.0
 11
272.260184
 21
806.446074
 31
0.0
 11
272.831124
 21
806.238754
 31
0.0
 11
273.296072
 21
805.847887
 31
0.0
 11
273.595344
 21
805.329329
 31
0.0
 11
273.701166
 21
804.731202
 31
0.0
  0
LWPOLYLINE
  5
129
100
AcDbEntity
  8
Layer_1
 62
7
100
AcDbPolyline
 90
2
 70
0
 10
273.701166
 20
804.731202
 30
0.0
 10
273.701166
 20
804.731202
 30
0.0
  0
SPLINE
  5
12a
100
AcDbEntity
  8
Layer_1
 62
7
100
AcDbSpline
 70
0
 71
3
 72
25
 73
21
 74
19
 40
0.000000
 40
0.000000
 40
0.000000
 40
0.000000
 40
0.607416
 40
1.206136
 40
1.813551
 40
2.420967
 40
3.019687
 40
3.627103
 40
4.234518
 40
4.833238
 40
5.440654
 40
6.048070
 40
6.646790
 40
7.254205
 40
7.861621
 40
8.460341
 40
9.067757
 40
9.675172
 40
10.273892
 40
10.881308
 40
10.881308
 40
10.881308
 40
10.881308
 10
73.796373
 20
804.731202
 30
0.0
 10
73.775625
 20
804.527692
 30
0.0
 10
73.734425
 20
804.123585
 30
0.0
 10
73.414121
 20
803.589507
 30
0.0
 10
72.945058
 20
803.192422
 30
0.0
 10
72.364166
 20
802.981817
 30
0.0
 10
71.747763
 20
802.981817
 30
0.0
 10
71.167683
 20
803.192422
 30
0.0
 10
70.695378
 20
803.589507
 30
0.0
 10
70.387117
 20
804.123585
 30
0.0
 10
70.279717
 20
804.731202
 30
0.0
 10
70.387117
 20
805.338820
 30
0.0
 10
70.695378
 20
805.872898
 30
0.0
 10
71.167683
 20
806.269982
 30
0.0
 10
71.747763
 20
806.480588
 30
0.0
 10
72.364166
 20
806.480588
 30
0.0
 10
72.945058
 20
806.269982
 30
0.0
 10
73.414121
 20
805.872898
 30
0.0
 10
73.734425
 20
805.338820
 30
0.0
 10
73.775625
 20
804.934713
 30
0.0
 10
73.796373
 20
804.731202
 30
0.0
 11
73.796373
 21
804.731202
 31
0.0
 11
73.690550
 21
804.133076
 31
0.0
 11
73.391279
 21
803.614518
 31
0.0
 11
72.926331
 21
803.223651
 31
0.0
 11
72.355391
 21
803.016331
 31
0.0
 11
71.756671
 21
803.016331
 31
0.0
 11
71.185732
 21
803.223651
 31
0.0
 11
70.720783
 21
803.614518
 31
0.0
 11
70.421512
 21
804.133076
 31
0.0
 11
70.315689
 21
804.731202
 31
0.0
 11
70.421512
 21
805.329329
 31
0.0
 11
70.720783
 21
805.847887
 31
0.0
 11
71.185732
 21
806.238754
 31
0.0
 11
71.756671
 21
806.446074
 31
0.0
 11
72.355391
 21
806.446074
 31
0.0
 11
72.926331
 21
806.238754
 31
0.0
 11
73.391279
 21
805.847887
 31
0.0
 11
73.690550
 21
805.329329
 31
0.0
 11
73.796373
 21
804.731202
 31
0.0
  0
LWPOLYLINE
  5
12b
100
AcDbEntity
  8
Layer_1
 62
7
100
AcDbPolyline
 90
2
 70
0
 10
73.796373
 20
804.731202
 30
0.0
 10
73.796373
 20
804.731202
 30
0.0
  0
SPLINE
  5
12c
100
AcDbEntity
  8
Layer_1
 62
7
100
AcDbSpline
 70
0
 71
3
 72
19
 73
15
 74
13
 40
0.000000
 40
0.000000
 40
0.000000
 40
0.000000
 40
0.909954
 40
1.792919
 40
2.702873
 40
3.612826
 40
4.495791
 40
5.405745
 40
6.315699
 40
7.198664
 40
8.108618
 40
9.018572
 40
9.901537
 40
10.811491
 40
10.811491
 40
10.811491
 40
10.811491
 10
310.298596
 20
1028.342671
 30
0.0
 10
310.250763
 20
1028.035877
 30
0.0
 10
310.156515
 20
1027.431389
 30
0.0
 10
309.463656
 20
1026.765897
 30
0.0
 10
308.559851
 20
1026.519313
 30
0.0
 10
307.646556
 20
1026.765897
 30
0.0
 10
306.981601
 20
1027.431389
 30
0.0
 10
306.734834
 20
1028.342671
 30
0.0
 10
306.981601
 20
1029.253952
 30
0.0
 10
307.646556
 20
1029.919444
 30
0.0
 10
308.559851
 20
1030.166029
 30
0.0
 10
309.463656
 20
1029.919444
 30
0.0
 10
310.156515
 20
1029.253952
 30
0.0
 10
310.250763
 20
1028.649464
 30
0.0
 10
310.298596
 20
1028.342671
 30
0.0
 11
310.298596
 21
1028.342671
 31
0.0
 11
310.060988
 21
1027.464287
 31
0.0
 11
309.436637
 21
1026.839936
 31
0.0
 11
308.558253
 21
1026.602328
 31
0.0
 11
307.679869
 21
1026.839936
 31
0.0
 11
307.055519
 21
1027.464287
 31
0.0
 11
306.817911
 21
1028.342671
 31
0.0
 11
307.055519
 21
1029.221055
 31
0.0
 11
307.679869
 21
1029.845406
 31
0.0
 11
308.558253
 21
1030.083013
 31
0.0
 11
309.436637
 21
1029.845406
 31
0.0
 11
310.060988
 21
1029.221055
 31
0.0
 11
310.298596
 21
1028.342671
 31
0.0
  0
LWPOLYLINE
  5
12d
100
AcDbEntity
  8
Layer_1
 62
7
100
AcDbPolyline
 90
2
 70
0
 10
310.298596
 20
1028.342671
 30
0.0
 10
310.298596
 20
1028.342671
 30
0.0
  0
SPLINE
  5
12e
100
AcDbEntity
  8
Layer_1
 62
7
100
AcDbSpline
 70
0
 71
3
 72
19
 73
15
 74
13
 40
0.000000
 40
0.000000
 40
0.000000
 40
0.000000
 40
0.909954
 40
1.792919
 40
2.702873
 40
3.612826
 40
4.495791
 40
5.405745
 40
6.315699
 40
7.198664
 40
8.108618
 40
9.018572
 40
9.901537
 40
10.811491
 40
10.811491
 40
10.811491
 40
10.811491
 10
510.203389
 20
1028.342671
 30
0.0
 10
510.155556
 20
1028.035877
 30
0.0
 10
510.061308
 20
1027.431389
 30
0.0
 10
509.368449
 20
1026.765897
 30
0.0
 10
508.464644
 20
1026.519313
 30
0.0
 10
507.551349
 20
1026.765897
 30
0.0
 10
506.886394
 20
1027.431389
 30
0.0
 10
506.639627
 20
1028.342671
 30
0.0
 10
506.886394
 20
1029.253952
 30
0.0
 10
507.551349
 20
1029.919444
 30
0.0
 10
508.464644
 20
1030.166029
 30
0.0
 10
509.368449
 20
1029.919444
 30
0.0
 10
510.061308
 20
1029.253952
 30
0.0
 10
510.155556
 20
1028.649464
 30
0.0
 10
510.203389
 20
1028.342671
 30
0.0
 11
510.203389
 21
1028.342671
 31
0.0
 11
509.965781
 21
1027.464287
 31
0.0
 11
509.341430
 21
1026.839936
 31
0.0
 11
508.463046
 21
1026.602328
 31
0.0
 11
507.584662
 21
1026.839936
 31
0.0
 11
506.960312
 21
1027.464287
 31
0.0
 11
506.722704
 21
1028.342671
 31
0.0
 11
506.960312
 21
1029.221055
 31
0.0
 11
507.584662
 21
1029.845406
 31
0.0
 11
508.463046
 21
1030.083013
 31
0.0
 11
509.341430
 21
1029.845406
 31
0.0
 11
509.965781
 21
1029.221055
 31
0.0
 11
510.203389
 21
1028.342671
 31
0.0
  0
LWPOLYLINE
  5
12f
100
AcDbEntity
  8
Layer_1
 62
7
100
AcDbPolyline
 90
2
 70
0
 10
510.203389
 20
1028.342671
 30
0.0
 10
510.203389
 20
1028.342671
 30
0.0
  0
SPLINE
  5
130
100
AcDbEntity
  8
Layer_1
 62
7
100
AcDbSpline
 70
0
 71
3
 72
19
 73
15
 74
13
 40
0.000000
 40
0.000000
 40
0.000000
 40
0.000000
 40
0.909954
 40
1.792919
 40
2.702873
 40
3.612826
 40
4.495791
 40
5.405745
 40
6.315699
 40
7.198664
 40
8.108618
 40
9.018572
 40
9.901537
 40
10.811491
 40
10.811491
 40
10.811491
 40
10.811491
 10
510.203389
 20
828.437869
 30
0.0
 10
510.155556
 20
828.131075
 30
0.0
 10
510.061308
 20
827.526588
 30
0.0
 10
509.368449
 20
826.861096
 30
0.0
 10
508.464644
 20
826.614511
 30
0.0
 10
507.551349
 20
826.861096
 30
0.0
 10
506.886394
 20
827.526588
 30
0.0
 10
506.639627
 20
828.437869
 30
0.0
 10
506.886394
 20
829.349151
 30
0.0
 10
507.551349
 20
830.014643
 30
0.0
 10
508.464644
 20
830.261228
 30
0.0
 10
509.368449
 20
830.014643
 30
0.0
 10
510.061308
 20
829.349151
 30
0.0
 10
510.155556
 20
828.744663
 30
0.0
 10
510.203389
 20
828.437869
 30
0.0
 11
510.203389
 21
828.437869
 31
0.0
 11
509.965781
 21
827.559485
 31
0.0
 11
509.341430
 21
826.935135
 31
0.0
 11
508.463046
 21
826.697527
 31
0.0
 11
507.584662
 21
826.935135
 31
0.0
 11
506.960312
 21
827.559485
 31
0.0
 11
506.722704
 21
828.437869
 31
0.0
 11
506.960312
 21
829.316253
 31
0.0
 11
507.584662
 21
829.940604
 31
0.0
 11
508.463046
 21
830.178212
 31
0.0
 11
509.341430
 21
829.940604
 31
0.0
 11
509.965781
 21
829.316253
 31
0.0
 11
510.203389
 21
828.437869
 31
0.0
  0
LWPOLYLINE
  5
131
100
AcDbEntity
  8
Layer_1
 62
7
100
AcDbPolyline
 90
2
 70
0
 10
510.203389
 20
828.437869
 30
0.0
 10
510.203389
 20
828.437869
 30
0.0
  0
LWPOLYLINE
  5
132
100
AcDbEntity
  8
Layer_1
 62
7
100
AcDbPolyline
 90
2
 70
0
 10
310.298596
 20
828.437869
 30
0.0
 10
310.298596
 20
828.437869
 30
0.0
  0
LWPOLYLINE
  5
133
100
AcDbEntity
  8
Layer_1
 62
1
100
AcDbPolyline
 90
5
 70
0
 10
303.590057
 20
1033.422678
 30
0.0
 10
513.590055
 20
1033.422678
 30
0.0
 10
513.590055
 20
823.422681
 30
0.0
 10
303.590057
 20
823.422681
 30
0.0
 10
303.590057
 20
1033.422678
 30
0.0
  0
SPLINE
  5
134
100
AcDbEntity
  8
Layer_1
 62
7
100
AcDbSpline
 70
0
 71
3
 72
19
 73
15
 74
13
 40
0.000000
 40
0.000000
 40
0.000000
 40
0.000000
 40
0.909954
 40
1.792919
 40
2.702873
 40
3.612826
 40
4.495791
 40
5.405745
 40
6.315699
 40
7.198664
 40
8.108618
 40
9.018572
 40
9.901537
 40
10.811491
 40
10.811491
 40
10.811491
 40
10.811491
 10
310.298596
 20
828.437869
 30
0.0
 10
310.250763
 20
828.131075
 30
0.0
 10
310.156515
 20
827.526588
 30
0.0
 10
309.463656
 20
826.861096
 30
0.0
 10
308.559851
 20
826.614511
 30
0.0
 10
307.646556
 20
826.861096
 30
0.0
 10
306.981601
 20
827.526588
 30
0.0
 10
306.734834
 20
828.437869
 30
0.0
 10
306.981601
 20
829.349151
 30
0.0
 10
307.646556
 20
830.014643
 30
0.0
 10
308.559851
 20
830.261228
 30
0.0
 10
309.463656
 20
830.014643
 30
0.0
 10
310.156515
 20
829.349151
 30
0.0
 10
310.250763
 20
828.744663
 30
0.0
 10
310.298596
 20
828.437869
 30
0.0
 11
310.298596
 21
828.437869
 31
0.0
 11
310.060988
 21
827.559485
 31
0.0
 11
309.436637
 21
826.935135
 31
0.0
 11
308.558253
 21
826.697527
 31
0.0
 11
307.679869
 21
826.935135
 31
0.0
 11
307.055519
 21
827.559485
 31
0.0
 11
306.817911
 21
828.437869
 31
0.0
 11
307.055519
 21
829.316253
 31
0.0
 11
307.679869
 21
829.940604
 31
0.0
 11
308.558253
 21
830.178212
 31
0.0
 11
309.436637
 21
829.940604
 31
0.0
 11
310.060988
 21
829.316253
 31
0.0
 11
310.298596
 21
828.437869
 31
0.0
  0
LWPOLYLINE
  5
135
100
AcDbEntity
  8
outline
 62
3
100
AcDbPolyline
 90
38
 70
0
 10
44.061944
 20
1032.631271
 30
0.0
 10
44.061944
 20
972.632590
 30
0.0
 10
47.060556
 20
972.632590
 30
0.0
 10
47.060556
 20
924.637174
 30
0.0
 10
44.070764
 20
924.637174
 30
0.0
 10
44.070764
 20
884.729188
 30
0.0
 10
47.060556
 20
884.729188
 30
0.0
 10
47.060556
 20
836.786688
 30
0.0
 10
44.106042
 20
836.786688
 30
0.0
 10
44.106042
 20
776.787993
 30
0.0
 10
104.104722
 20
776.787993
 30
0.0
 10
104.104722
 20
779.733716
 30
0.0
 10
151.368125
 20
779.733716
 30
0.0
 10
151.368125
 20
776.779188
 30
0.0
 10
192.528472
 20
776.779188
 30
0.0
 10
192.528472
 20
779.733716
 30
0.0
 10
239.959444
 20
779.733716
 30
0.0
 10
239.959444
 20
776.735104
 30
0.0
 10
299.958139
 20
776.735104
 30
0.0
 10
299.958139
 20
836.733771
 30
0.0
 10
296.959528
 20
836.733771
 30
0.0
 10
296.959528
 20
884.623354
 30
0.0
 10
299.914028
 20
884.623354
 30
0.0
 10
299.914028
 20
924.522521
 30
0.0
 10
296.959528
 20
924.522521
 30
0.0
 10
296.959528
 20
972.579674
 30
0.0
 10
299.905194
 20
972.579674
 30
0.0
 10
299.905194
 20
1032.587174
 30
0.0
 10
239.906528
 20
1032.587174
 30
0.0
 10
239.906528
 20
1029.632660
 30
0.0
 10
192.590208
 20
1029.632660
 30
0.0
 10
192.590208
 20
1032.569535
 30
0.0
 10
151.429861
 20
1032.569535
 30
0.0
 10
151.429861
 20
1029.632660
 30
0.0
 10
104.060625
 20
1029.632660
 30
0.0
 10
104.060625
 20
1032.631271
 30
0.0
 10
44.061944
 20
1032.631271
 30
0.0
 10
44.061944
 20
1032.631271
 30
0.0
  0
SPLINE
  5
136
100
AcDbEntity
  8
raspberry_pi
 62
7
100
AcDbSpline
 70
0
 71
3
 72
19
 73
15
 74
13
 40
0.000000
 40
0.000000
 40
0.000000
 40
0.000000
 40
0.767219
 40
1.511682
 40
2.278902
 40
3.046121
 40
3.790585
 40
4.557803
 40
5.325026
 40
6.069491
 40
6.836711
 40
7.603930
 40
8.348395
 40
9.115618
 40
9.115618
 40
9.115618
 40
9.115618
 10
166.699544
 20
867.820973
 30
0.0
 10
166.958214
 20
867.780643
 30
0.0
 10
167.467882
 20
867.701179
 30
0.0
 10
168.028985
 20
867.117001
 30
0.0
 10
168.236891
 20
866.354966
 30
0.0
 10
168.028985
 20
865.584930
 30
0.0
 10
167.467882
 20
865.024279
 30
0.0
 10
166.699543
 20
864.816220
 30
0.0
 10
165.931202
 20
865.024278
 30
0.0
 10
165.370097
 20
865.584929
 30
0.0
 10
165.162191
 20
866.354966
 30
0.0
 10
165.370097
 20
867.117002
 30
0.0
 10
165.931202
 20
867.701180
 30
0.0
 10
166.440872
 20
867.780643
 30
0.0
 10
166.699544
 20
867.820973
 30
0.0
 11
166.699544
 21
867.820973
 31
0.0
 11
167.440145
 21
867.620636
 31
0.0
 11
167.966560
 21
867.094221
 31
0.0
 11
168.166897
 21
866.353619
 31
0.0
 11
167.966560
 21
865.613017
 31
0.0
 11
167.440145
 21
865.086602
 31
0.0
 11
166.699544
 21
864.886265
 31
0.0
 11
165.958939
 21
865.086602
 31
0.0
 11
165.432522
 21
865.613017
 31
0.0
 11
165.232185
 21
866.353619
 31
0.0
 11
165.432522
 21
867.094221
 31
0.0
 11
165.958939
 21
867.620636
 31
0.0
 11
166.699544
 21
867.820973
 31
0.0
  0
LWPOLYLINE
  5
137
100
AcDbEntity
  8
raspberry_pi
 62
7
100
AcDbPolyline
 90
2
 70
0
 10
166.699544
 20
867.820973
 30
0.0
 10
166.699544
 20
867.820973
 30
0.0
  0
SPLINE
  5
138
100
AcDbEntity
  8
raspberry_pi
 62
7
100
AcDbSpline
 70
0
 71
3
 72
19
 73
15
 74
13
 40
0.000000
 40
0.000000
 40
0.000000
 40
0.000000
 40
0.767219
 40
1.511682
 40
2.278902
 40
3.046121
 40
3.790585
 40
4.557803
 40
5.325026
 40
6.069491
 40
6.836711
 40
7.603930
 40
8.348395
 40
9.115618
 40
9.115618
 40
9.115618
 40
9.115618
 10
215.699542
 20
867.820973
 30
0.0
 10
215.958212
 20
867.780643
 30
0.0
 10
216.467880
 20
867.701179
 30
0.0
 10
217.028983
 20
867.117001
 30
0.0
 10
217.236888
 20
866.354966
 30
0.0
 10
217.028983
 20
865.584930
 30
0.0
 10
216.467880
 20
865.024279
 30
0.0
 10
215.699541
 20
864.816220
 30
0.0
 10
214.931200
 20
865.024278
 30
0.0
 10
214.370095
 20
865.584929
 30
0.0
 10
214.162189
 20
866.354966
 30
0.0
 10
214.370095
 20
867.117002
 30
0.0
 10
214.931200
 20
867.701180
 30
0.0
 10
215.440870
 20
867.780643
 30
0.0
 10
215.699542
 20
867.820973
 30
0.0
 11
215.699542
 21
867.820973
 31
0.0
 11
216.440143
 21
867.620636
 31
0.0
 11
216.966558
 21
867.094221
 31
0.0
 11
217.166895
 21
866.353619
 31
0.0
 11
216.966558
 21
865.613017
 31
0.0
 11
216.440143
 21
865.086602
 31
0.0
 11
215.699542
 21
864.886265
 31
0.0
 11
214.958937
 21
865.086602
 31
0.0
 11
214.432520
 21
865.613017
 31
0.0
 11
214.232183
 21
866.353619
 31
0.0
 11
214.432520
 21
867.094221
 31
0.0
 11
214.958937
 21
867.620636
 31
0.0
 11
215.699542
 21
867.820973
 31
0.0
  0
LWPOLYLINE
  5
139
100
AcDbEntity
  8
raspberry_pi
 62
7
100
AcDbPolyline
 90
2
 70
0
 10
215.699542
 20
867.820973
 30
0.0
 10
215.699542
 20
867.820973
 30
0.0
  0
SPLINE
  5
13a
100
AcDbEntity
  8
raspberry_pi
 62
7
100
AcDbSpline
 70
0
 71
3
 72
19
 73
15
 74
13
 40
0.000000
 40
0.000000
 40
0.000000
 40
0.000000
 40
0.767219
 40
1.511682
 40
2.278902
 40
3.046121
 40
3.790585
 40
4.557803
 40
5.325026
 40
6.069491
 40
6.836711
 40
7.603930
 40
8.348395
 40
9.115618
 40
9.115618
 40
9.115618
 40
9.115618
 10
215.699542
 20
925.820973
 30
0.0
 10
215.958212
 20
925.780643
 30
0.0
 10
216.467880
 20
925.701179
 30
0.0
 10
217.028983
 20
925.117001
 30
0.0
 10
217.236888
 20
924.354966
 30
0.0
 10
217.028983
 20
923.584930
 30
0.0
 10
216.467880
 20
923.024279
 30
0.0
 10
215.699541
 20
922.816219
 30
0.0
 10
214.931200
 20
923.024278
 30
0.0
 10
214.370095
 20
923.584929
 30
0.0
 10
214.162189
 20
924.354966
 30
0.0
 10
214.370095
 20
925.117001
 30
0.0
 10
214.931200
 20
925.701180
 30
0.0
 10
215.440870
 20
925.780643
 30
0.0
 10
215.699542
 20
925.820973
 30
0.0
 11
215.699542
 21
925.820973
 31
0.0
 11
216.440143
 21
925.620636
 31
0.0
 11
216.966558
 21
925.094220
 31
0.0
 11
217.166895
 21
924.353619
 31
0.0
 11
216.966558
 21
923.613017
 31
0.0
 11
216.440143
 21
923.086602
 31
0.0
 11
215.699542
 21
922.886265
 31
0.0
 11
214.958937
 21
923.086602
 31
0.0
 11
214.432520
 21
923.613017
 31
0.0
 11
214.232183
 21
924.353619
 31
0.0
 11
214.432520
 21
925.094220
 31
0.0
 11
214.958937
 21
925.620636
 31
0.0
 11
215.699542
 21
925.820973
 31
0.0
  0
LWPOLYLINE
  5
13b
100
AcDbEntity
  8
raspberry_pi
 62
7
100
AcDbPolyline
 90
2
 70
0
 10
215.699542
 20
925.820973
 30
0.0
 10
215.699542
 20
925.820973
 30
0.0
  0
SPLINE
  5
13c
100
AcDbEntity
  8
raspberry_pi
 62
7
100
AcDbSpline
 70
0
 71
3
 72
19
 73
15
 74
13
 40
0.000000
 40
0.000000
 40
0.000000
 40
0.000000
 40
0.767219
 40
1.511682
 40
2.278902
 40
3.046121
 40
3.790585
 40
4.557803
 40
5.325026
 40
6.069491
 40
6.836711
 40
7.603930
 40
8.348395
 40
9.115618
 40
9.115618
 40
9.115618
 40
9.115618
 10
166.699544
 20
925.820973
 30
0.0
 10
166.958214
 20
925.780643
 30
0.0
 10
167.467882
 20
925.701179
 30
0.0
 10
168.028985
 20
925.117001
 30
0.0
 10
168.236891
 20
924.354966
 30
0.0
 10
168.028985
 20
923.584930
 30
0.0
 10
167.467882
 20
923.024279
 30
0.0
 10
166.699543
 20
922.816219
 30
0.0
 10
165.931202
 20
923.024278
 30
0.0
 10
165.370097
 20
923.584929
 30
0.0
 10
165.162191
 20
924.354966
 30
0.0
 10
165.370097
 20
925.117001
 30
0.0
 10
165.931202
 20
925.701180
 30
0.0
 10
166.440872
 20
925.780643
 30
0.0
 10
166.699544
 20
925.820973
 30
0.0
 11
166.699544
 21
925.820973
 31
0.0
 11
167.440145
 21
925.620636
 31
0.0
 11
167.966560
 21
925.094220
 31
0.0
 11
168.166897
 21
924.353619
 31
0.0
 11
167.966560
 21
923.613017
 31
0.0
 11
167.440145
 21
923.086602
 31
0.0
 11
166.699544
 21
922.886265
 31
0.0
 11
165.958939
 21
923.086602
 31
0.0
 11
165.432522
 21
923.613017
 31
0.0
 11
165.232185
 21
924.353619
 31
0.0
 11
165.432522
 21
925.094220
 31
0.0
 11
165.958939
 21
925.620636
 31
0.0
 11
166.699544
 21
925.820973
 31
0.0
  0
LWPOLYLINE
  5
13d
100
AcDbEntity
  8
raspberry_pi
 62
7
100
AcDbPolyline
 90
2
 70
0
 10
166.699544
 20
925.820973
 30
0.0
 10
166.699544
 20
925.820973
 30
0.0
  0
SPLINE
  5
13e
100
AcDbEntity
  8
raspberry_pi
 62
7
100
AcDbSpline
 70
0
 71
3
 72
19
 73
15
 74
13
 40
0.000000
 40
0.000000
 40
0.000000
 40
0.000000
 40
0.754292
 40
1.486206
 40
2.240493
 40
2.994786
 40
3.726710
 40
4.481004
 40
5.235291
 40
5.967205
 40
6.721497
 40
7.475781
 40
8.207686
 40
8.961971
 40
8.961971
 40
8.961971
 40
8.961971
 10
175.699533
 20
944.456243
 30
0.0
 10
175.953845
 20
944.416595
 30
0.0
 10
176.454923
 20
944.338473
 30
0.0
 10
177.006579
 20
943.764151
 30
0.0
 10
177.210984
 20
943.014958
 30
0.0
 10
177.006578
 20
942.257897
 30
0.0
 10
176.454927
 20
941.706692
 30
0.0
 10
175.699536
 20
941.502135
 30
0.0
 10
174.944145
 20
941.706690
 30
0.0
 10
174.392508
 20
942.257902
 30
0.0
 10
174.188114
 20
943.014958
 30
0.0
 10
174.392506
 20
943.764147
 30
0.0
 10
174.944149
 20
944.338475
 30
0.0
 10
175.445223
 20
944.416595
 30
0.0
 10
175.699533
 20
944.456243
 30
0.0
 11
175.699533
 21
944.456243
 31
0.0
 11
176.427657
 21
944.259288
 31
0.0
 11
176.945205
 21
943.741753
 31
0.0
 11
177.142168
 21
943.013636
 31
0.0
 11
176.945205
 21
942.285512
 31
0.0
 11
176.427657
 21
941.767964
 31
0.0
 11
175.699533
 21
941.571001
 31
0.0
 11
174.971416
 21
941.767964
 31
0.0
 11
174.453881
 21
942.285512
 31
0.0
 11
174.256926
 21
943.013636
 31
0.0
 11
174.453881
 21
943.741753
 31
0.0
 11
174.971416
 21
944.259288
 31
0.0
 11
175.699533
 21
944.456243
 31
0.0
  0
LWPOLYLINE
  5
13f
100
AcDbEntity
  8
raspberry_pi
 62
7
100
AcDbPolyline
 90
2
 70
0
 10
175.699533
 20
944.456243
 30
0.0
 10
175.699533
 20
944.456243
 30
0.0
  0
SPLINE
  5
140
100
AcDbEntity
  8
raspberry_pi
 62
7
100
AcDbSpline
 70
0
 71
3
 72
19
 73
15
 74
13
 40
0.000000
 40
0.000000
 40
0.000000
 40
0.000000
 40
0.754294
 40
1.486218
 40
2.240511
 40
2.994798
 40
3.726712
 40
4.481004
 40
5.235289
 40
5.967194
 40
6.721478
 40
7.475770
 40
8.207684
 40
8.961971
 40
8.961971
 40
8.961971
 40
8.961971
 10
201.199524
 20
889.956254
 30
0.0
 10
201.453836
 20
889.916603
 30
0.0
 10
201.954919
 20
889.838476
 30
0.0
 10
202.506569
 20
889.264139
 30
0.0
 10
202.710975
 20
888.514945
 30
0.0
 10
202.506571
 20
887.757886
 30
0.0
 10
201.954915
 20
887.206693
 30
0.0
 10
201.199527
 20
887.002149
 30
0.0
 10
200.444141
 20
887.206692
 30
0.0
 10
199.892497
 20
887.757890
 30
0.0
 10
199.688106
 20
888.514945
 30
0.0
 10
199.892499
 20
889.264135
 30
0.0
 10
200.444136
 20
889.838478
 30
0.0
 10
200.945214
 20
889.916603
 30
0.0
 10
201.199524
 20
889.956254
 30
0.0
 11
201.199524
 21
889.956254
 31
0.0
 11
201.927648
 21
889.759291
 31
0.0
 11
202.445197
 21
889.241742
 31
0.0
 11
202.642160
 21
888.513618
 31
0.0
 11
202.445197
 21
887.785502
 31
0.0
 11
201.927648
 21
887.267967
 31
0.0
 11
201.199524
 21
887.071011
 31
0.0
 11
200.471408
 21
887.267967
 31
0.0
 11
199.953873
 21
887.785502
 31
0.0
 11
199.756917
 21
888.513618
 31
0.0
 11
199.953873
 21
889.241742
 31
0.0
 11
200.471408
 21
889.759291
 31
0.0
 11
201.199524
 21
889.956254
 31
0.0
  0
LWPOLYLINE
  5
141
100
AcDbEntity
  8
raspberry_pi
 62
7
100
AcDbPolyline
 90
2
 70
0
 10
201.199524
 20
889.956254
 30
0.0
 10
201.199524
 20
889.956254
 30
0.0
  0
ENDSEC
  0
SECTION
  2
OBJECTS
  0
DICTIONARY
  5
C
330
0
100
AcDbDictionary
  3
ACAD_GROUP
350
D
  3
ACAD_MLINESTYLE
350
17
  0
DICTIONARY
  5
D
330
C
100
AcDbDictionary
  0
DICTIONARY
  5
1A
330
C
100
AcDbDictionary
  0
DICTIONARY
  5
17
330
C
100
AcDbDictionary
  3
STANDARD
350
18
  0
DICTIONARY
  5
19
330
C
100
AcDbDictionary
  0
ENDSEC
  0
EOF
