  0
SECTION
  2
HEADER
  9
$ACADVER
  1
AC1014
  9
$HANDSEED
  5
FFFF
  9
$MEASUREMENT
 70
     1
  0
ENDSEC
  0
SECTION
  2
TABLES
  0
TABLE
  2
VPORT
  5
8
330
0
100
AcDbSymbolTable
 70
     4
  0
VPORT
  5
2E
330
8
100
AcDbSymbolTableRecord
100
AcDbViewportTableRecord
  2
*ACTIVE
 70
     0
 10
0.0
 20
0.0
 11
1.0
 21
1.0
 12
210.0
 22
148.5
 13
0.0
 23
0.0
 14
10.0
 24
10.0
 15
10.0
 25
10.0
 16
0.0
 26
0.0
 36
1.0
 17
0.0
 27
0.0
 37
0.0
 40
341.0
 41
1.24
 42
50.0
 43
0.0
 44
0.0
 50
0.0
 51
0.0
 71
     0
 72
   100
 73
     1
 74
     3
 75
     0
 76
     0
 77
     0
 78
     0
  0
ENDTAB
  0
TABLE
  2
LTYPE
  5
5
330
0
100
AcDbSymbolTable
 70
     1
  0
LTYPE
  5
14
330
5
100
AcDbSymbolTableRecord
100
AcDbLinetypeTableRecord
  2
BYBLOCK
 70
     0
  3

 72
    65
 73
     0
 40
0.0
  0
LTYPE
  5
15
330
5
100
AcDbSymbolTableRecord
100
AcDbLinetypeTableRecord
  2
BYLAYER
 70
     0
  3

 72
    65
 73
     0
 40
0.0
  0
LTYPE
  5
16
330
5
100
AcDbSymbolTableRecord
100
AcDbLinetypeTableRecord
  2
CONTINUOUS
 70
     0
  3
Solid line
 72
    65
 73
     0
 40
0.0
  0
ENDTAB
  0
TABLE
  2
LAYER
  5
2
100
AcDbSymbolTable
 70
4
  0
LAYER
  5
50
100
AcDbSymbolTableRecord
100
AcDbLayerTableRecord
  2
0
 70
0
  6
CONTINUOUS
  0
LAYER
  5
51
100
AcDbSymbolTableRecord
100
AcDbLayerTableRecord
  2
Layer_1
 70
0
  6
CONTINUOUS
  0
LAYER
  5
52
100
AcDbSymbolTableRecord
100
AcDbLayerTableRecord
  2
outline
 70
0
  6
CONTINUOUS
  0
LAYER
  5
53
100
AcDbSymbolTableRecord
100
AcDbLayerTableRecord
  2
raspberry_pi
 70
0
  6
CONTINUOUS
  0
ENDTAB
  0
TABLE
  2
STYLE
  5
3
330
0
100
AcDbSymbolTable
 70
     1
  0
STYLE
  5
11
330
3
100
AcDbSymbolTableRecord
100
AcDbTextStyleTableRecord
  2
STANDARD
 70
     0
 40
0.0
 41
1.0
 50
0.0
 71
     0
 42
2.5
  3
txt
  4

  0
ENDTAB
  0
TABLE
  2
VIEW
  5
6
330
0
100
AcDbSymbolTable
 70
     0
  0
ENDTAB
  0
TABLE
  2
UCS
  5
7
330
0
100
AcDbSymbolTable
 70
     0
  0
ENDTAB
  0
TABLE
  2
APPID
  5
9
330
0
100
AcDbSymbolTable
 70
     2
  0
APPID
  5
12
330
9
100
AcDbSymbolTableRecord
100
AcDbRegAppTableRecord
  2
ACAD
 70
     0
  0
ENDTAB
  0
TABLE
  2
DIMSTYLE
  5
A
330
0
100
AcDbSymbolTable
 70
     1
  0
DIMSTYLE
105
27
330
A
100
AcDbSymbolTableRecord
100
AcDbDimStyleTableRecord
  2
ISO-25
 70
     0
  3

  4

  5

  6

  7

 40
1.0
 41
2.5
 42
0.625
 43
3.75
 44
1.25
 45
0.0
 46
0.0
 47
0.0
 48
0.0
140
2.5
141
2.5
142
0.0
143
0.03937007874016
144
1.0
145
0.0
146
1.0
147
0.625
 71
     0
 72
     0
 73
     0
 74
     0
 75
     0
 76
     0
 77
     1
 78
     8
170
     0
171
     3
172
     1
173
     0
174
     0
175
     0
176
     0
177
     0
178
     0
270
     2
271
     2
272
     2
273
     2
274
     3
340
11
275
     0
280
     0
281
     0
282
     0
283
     0
284
     8
285
     0
286
     0
287
     3
288
     0
  0
ENDTAB
  0
TABLE
  2
BLOCK_RECORD
  5
1
330
0
100
AcDbSymbolTable
 70
     1
  0
BLOCK_RECORD
  5
1F
330
1
100
AcDbSymbolTableRecord
100
AcDbBlockTableRecord
  2
*MODEL_SPACE
  0
BLOCK_RECORD
  5
1B
330
1
100
AcDbSymbolTableRecord
100
AcDbBlockTableRecord
  2
*PAPER_SPACE
  0
ENDTAB
  0
ENDSEC
  0
SECTION
  2
BLOCKS
  0
BLOCK
  5
20
330
1F
100
AcDbEntity
  8
0
100
AcDbBlockBegin
  2
*MODEL_SPACE
 70
     0
 10
0.0
 20
0.0
 30
0.0
  3
*MODEL_SPACE
  1

  0
ENDBLK
  5
21
330
1F
100
AcDbEntity
  8
0
100
AcDbBlockEnd
  0
BLOCK
  5
1C
330
1B
100
AcDbEntity
 67
     1
  8
0
100
AcDbBlockBegin
  2
*PAPER_SPACE
  1

  0
ENDBLK
  5
1D
330
1B
100
AcDbEntity
 67
     1
  8
0
100
AcDbBlockEnd
  0
ENDSEC
  0
SECTION
  2
ENTITIES
  0
SPLINE
  5
100
100
AcDbEntity
  8
Layer_1
 62
7
100
AcDbSpline
 70
0
 71
3
 72
25
 73
21
 74
19
 40
0.000000
 40
0.000000
 40
0.000000
 40
0.000000
 40
0.848184
 40
1.684225
 40
2.532408
 40
3.380592
 40
4.216633
 40
5.064817
 40
5.913000
 40
6.749042
 40
7.597225
 40
8.445409
 40
9.281450
 40
10.129634
 40
10.977817
 40
11.813858
 40
12.662042
 40
13.510226
 40
14.346267
 40
15.194450
 40
15.194450
 40
15.194450
 40
15.194450
 10
86.968614
 20
984.463606
 30
0.0
 10
86.939641
 20
984.179429
 30
0.0
 10
86.882111
 20
983.615141
 30
0.0
 10
86.434845
 20
982.869365
 30
0.0
 10
85.779854
 20
982.314883
 30
0.0
 10
84.968707
 20
982.020798
 30
0.0
 10
84.107974
 20
982.020798
 30
0.0
 10
83.297961
 20
982.314883
 30
0.0
 10
82.638444
 20
982.869365
 30
0.0
 10
82.207993
 20
983.615141
 30
0.0
 10
82.058023
 20
984.463606
 30
0.0
 10
82.207993
 20
985.312071
 30
0.0
 10
82.638444
 20
986.057848
 30
0.0
 10
83.297961
 20
986.612329
 30
0.0
 10
84.107974
 20
986.906415
 30
0.0
 10
84.968707
 20
986.906415
 30
0.0
 10
85.779854
 20
986.612329
 30
0.0
 10
86.434845
 20
986.057848
 30
0.0
 10
86.882111
 20
985.312071
 30
0.0
 10
86.939641
 20
984.747784
 30
0.0
 10
86.968614
 20
984.463606
 30
0.0
 11
86.968614
 21
984.463606
 31
0.0
 11
86.820845
 21
983.628394
 31
0.0
 11
86.402948
 21
982.904290
 31
0.0
 11
85.753703
 21
982.358491
 31
0.0
 11
84.956454
 21
982.068992
 31
0.0
 11
84.120413
 21
982.068992
 31
0.0
 11
83.323164
 21
982.358491
 31
0.0
 11
82.673919
 21
982.904290
 31
0.0
 11
82.256022
 21
983.628394
 31
0.0
 11
82.108253
 21
984.463606
 31
0.0
 11
82.256022
 21
985.298819
 31
0.0
 11
82.673919
 21
986.022923
 31
0.0
 11
83.323164
 21
986.568722
 31
0.0
 11
84.120413
 21
986.858220
 31
0.0
 11
84.956454
 21
986.858220
 31
0.0
 11
85.753703
 21
986.568722
 31
0.0
 11
86.402948
 21
986.022923
 31
0.0
 11
86.820845
 21
985.298819
 31
0.0
 11
86.968614
 21
984.463606
 31
0.0
  0
LWPOLYLINE
  5
101
100
AcDbEntity
  8
Layer_1
 62
7
100
AcDbPolyline
 90
2
 70
0
 10
86.968614
 20
984.463606
 30
0.0
 10
86.968614
 20
984.463606
 30
0.0
  0
SPLINE
  5
102
100
AcDbEntity
  8
Layer_1
 62
1
100
AcDbSpline
 70
0
 71
3
 72
10
 73
6
 74
4
 40
0.000000
 40
0.000000
 40
0.000000
 40
0.000000
 40
6.542793
 40
12.876007
 40
19.418799
 40
19.418799
 40
19.418799
 40
19.418799
 10
102.005694
 20
987.184674
 30
0.0
 10
99.812159
 20
986.843836
 30
0.0
 10
95.495352
 20
986.173079
 30
0.0
 10
90.520136
 20
981.197863
 30
0.0
 10
89.849379
 20
976.881056
 30
0.0
 10
89.508542
 20
974.687521
 30
0.0
 11
102.005694
 21
987.184674
 31
0.0
 11
95.687914
 21
985.483560
 31
0.0
 11
91.209655
 21
981.005301
 31
0.0
 11
89.508542
 21
974.687521
 31
0.0
  0
LWPOLYLINE
  5
103
100
AcDbEntity
  8
Layer_1
 62
1
100
AcDbPolyline
 90
2
 70
0
 10
89.508542
 20
974.687521
 30
0.0
 10
89.508542
 20
928.949882
 30
0.0
  0
SPLINE
  5
104
100
AcDbEntity
  8
Layer_1
 62
1
100
AcDbSpline
 70
0
 71
3
 72
10
 73
6
 74
4
 40
0.000000
 40
0.000000
 40
0.000000
 40
0.000000
 40
6.542793
 40
12.876007
 40
19.418799
 40
19.418799
 40
19.418799
 40
19.418799
 10
89.508542
 20
928.949882
 30
0.0
 10
89.849379
 20
926.756347
 30
0.0
 10
90.520136
 20
922.439540
 30
0.0
 10
95.495352
 20
917.464324
 30
0.0
 10
99.812159
 20
916.793567
 30
0.0
 10
102.005694
 20
916.452729
 30
0.0
 11
89.508542
 21
928.949882
 31
0.0
 11
91.209655
 21
922.632102
 31
0.0
 11
95.687914
 21
918.153843
 31
0.0
 11
102.005694
 21
916.452729
 31
0.0
  0
LWPOLYLINE
  5
105
100
AcDbEntity
  8
Layer_1
 62
1
100
AcDbPolyline
 90
3
 70
0
 10
102.005694
 20
916.452729
 30
0.0
 10
163.089167
 20
916.452729
 30
0.0
 10
163.089167
 20
946.465299
 30
0.0
  0
SPLINE
  5
106
100
AcDbEntity
  8
Layer_1
 62
1
100
AcDbSpline
 70
0
 71
3
 72
10
 73
6
 74
4
 40
0.000000
 40
0.000000
 40
0.000000
 40
0.000000
 40
0.785023
 40
1.544769
 40
2.329792
 40
2.329792
 40
2.329792
 40
2.329792
 10
163.089167
 20
946.465299
 30
0.0
 10
163.130033
 20
946.728493
 30
0.0
 10
163.210449
 20
947.246405
 30
0.0
 10
163.807365
 20
947.843322
 30
0.0
 10
164.325278
 20
947.923738
 30
0.0
 10
164.588472
 20
947.964604
 30
0.0
 11
163.089167
 21
946.465299
 31
0.0
 11
163.293209
 21
947.223341
 31
0.0
 11
163.830430
 21
947.760562
 31
0.0
 11
164.588472
 21
947.964604
 31
0.0
  0
LWPOLYLINE
  5
107
100
AcDbEntity
  8
Layer_1
 62
1
100
AcDbPolyline
 90
2
 70
0
 10
164.588472
 20
947.964604
 30
0.0
 10
217.584514
 20
947.964604
 30
0.0
  0
SPLINE
  5
108
100
AcDbEntity
  8
Layer_1
 62
1
100
AcDbSpline
 70
0
 71
3
 72
10
 73
6
 74
4
 40
0.000000
 40
0.000000
 40
0.000000
 40
0.000000
 40
0.785023
 40
1.544769
 40
2.329792
 40
2.329792
 40
2.329792
 40
2.329792
 10
217.584514
 20
947.964604
 30
0.0
 10
217.847708
 20
947.923738
 30
0.0
 10
218.365621
 20
947.843322
 30
0.0
 10
218.962537
 20
947.246405
 30
0.0
 10
219.042953
 20
946.728493
 30
0.0
 10
219.083819
 20
946.465299
 30
0.0
 11
217.584514
 21
947.964604
 31
0.0
 11
218.342556
 21
947.760562
 31
0.0
 11
218.879777
 21
947.223341
 31
0.0
 11
219.083819
 21
946.465299
 31
0.0
  0
LWPOLYLINE
  5
109
100
AcDbEntity
  8
Layer_1
 62
1
100
AcDbPolyline
 90
3
 70
0
 10
219.083819
 20
946.465299
 30
0.0
 10
219.083819
 20
916.452729
 30
0.0
 10
242.005556
 20
916.452729
 30
0.0
  0
SPLINE
  5
10a
100
AcDbEntity
  8
Layer_1
 62
1
100
AcDbSpline
 70
0
 71
3
 72
10
 73
6
 74
4
 40
0.000000
 40
0.000000
 40
0.000000
 40
0.000000
 40
6.545000
 40
12.881218
 40
19.424606
 40
19.424606
 40
19.424606
 40
19.424606
 10
242.005556
 20
916.452729
 30
0.0
 10
244.199680
 20
916.793691
 30
0.0
 10
248.517938
 20
917.464737
 30
0.0
 10
253.497633
 20
922.438221
 30
0.0
 10
254.169958
 20
926.756177
 30
0.0
 10
254.511528
 20
928.949882
 30
0.0
 11
242.005556
 21
916.452729
 31
0.0
 11
248.325622
 21
918.153843
 31
0.0
 11
252.808127
 21
922.632102
 31
0.0
 11
254.511528
 21
928.949882
 31
0.0
  0
LWPOLYLINE
  5
10b
100
AcDbEntity
  8
Layer_1
 62
1
100
AcDbPolyline
 90
2
 70
0
 10
254.511528
 20
928.949882
 30
0.0
 10
254.511528
 20
974.687521
 30
0.0
  0
SPLINE
  5
10c
100
AcDbEntity
  8
Layer_1
 62
1
100
AcDbSpline
 70
0
 71
3
 72
10
 73
6
 74
4
 40
0.000000
 40
0.000000
 40
0.000000
 40
0.000000
 40
6.543387
 40
12.879605
 40
19.424606
 40
19.424606
 40
19.424606
 40
19.424606
 10
254.511528
 20
974.687521
 30
0.0
 10
254.169958
 20
976.881226
 30
0.0
 10
253.497633
 20
981.199182
 30
0.0
 10
248.517938
 20
986.172665
 30
0.0
 10
244.199680
 20
986.843712
 30
0.0
 10
242.005556
 20
987.184674
 30
0.0
 11
254.511528
 21
974.687521
 31
0.0
 11
252.808127
 21
981.005301
 31
0.0
 11
248.325622
 21
985.483560
 31
0.0
 11
242.005556
 21
987.184674
 31
0.0
  0
LWPOLYLINE
  5
10d
100
AcDbEntity
  8
Layer_1
 62
1
100
AcDbPolyline
 90
3
 70
0
 10
242.005556
 20
987.184674
 30
0.0
 10
102.005694
 20
987.184674
 30
0.0
 10
102.005694
 20
987.184674
 30
0.0
  0
SPLINE
  5
10e
100
AcDbEntity
  8
Layer_1
 62
1
100
AcDbSpline
 70
0
 71
3
 72
10
 73
6
 74
4
 40
0.000000
 40
0.000000
 40
0.000000
 40
0.000000
 40
6.543387
 40
12.879605
 40
19.424606
 40
19.424606
 40
19.424606
 40
19.424606
 10
102.058611
 20
892.966549
 30
0.0
 10
99.864906
 20
892.624979
 30
0.0
 10
95.546950
 20
891.952654
 30
0.0
 10
90.573467
 20
886.972959
 30
0.0
 10
89.902420
 20
882.654701
 30
0.0
 10
89.561458
 20
880.460576
 30
0.0
 11
102.058611
 21
892.966549
 31
0.0
 11
95.740831
 21
891.263148
 31
0.0
 11
91.262572
 21
886.780643
 31
0.0
 11
89.561458
 21
880.460576
 31
0.0
  0
LWPOLYLINE
  5
10f
100
AcDbEntity
  8
Layer_1
 62
1
100
AcDbPolyline
 90
2
 70
0
 10
89.561458
 20
880.460576
 30
0.0
 10
89.561458
 20
834.731771
 30
0.0
  0
SPLINE
  5
110
100
AcDbEntity
  8
Layer_1
 62
1
100
AcDbSpline
 70
0
 71
3
 72
10
 73
6
 74
4
 40
0.000000
 40
0.000000
 40
0.000000
 40
0.000000
 40
6.542808
 40
12.876023
 40
19.418815
 40
19.418815
 40
19.418815
 40
19.418815
 10
89.561458
 20
834.731771
 30
0.0
 10
89.902295
 20
832.538230
 30
0.0
 10
90.573049
 20
828.221417
 30
0.0
 10
95.548269
 20
823.246195
 30
0.0
 10
99.865076
 20
822.575440
 30
0.0
 10
102.058611
 20
822.234604
 30
0.0
 11
89.561458
 21
834.731771
 31
0.0
 11
91.262572
 21
828.413975
 31
0.0
 11
95.740831
 21
823.935715
 31
0.0
 11
102.058611
 21
822.234604
 31
0.0
  0
LWPOLYLINE
  5
111
100
AcDbEntity
  8
Layer_1
 62
1
100
AcDbPolyline
 90
2
 70
0
 10
102.058611
 20
822.234604
 30
0.0
 10
242.058472
 20
822.234604
 30
0.0
  0
SPLINE
  5
112
100
AcDbEntity
  8
Layer_1
 62
1
100
AcDbSpline
 70
0
 71
3
 72
10
 73
6
 74
4
 40
0.000000
 40
0.000000
 40
0.000000
 40
0.000000
 40
6.542792
 40
12.876007
 40
19.418815
 40
19.418815
 40
19.418815
 40
19.418815
 10
242.058472
 20
822.234604
 30
0.0
 10
244.252007
 20
822.575440
 30
0.0
 10
248.568815
 20
823.246195
 30
0.0
 10
253.544035
 20
828.221417
 30
0.0
 10
254.214789
 20
832.538230
 30
0.0
 10
254.555625
 20
834.731771
 30
0.0
 11
242.058472
 21
822.234604
 31
0.0
 11
248.376252
 21
823.935715
 31
0.0
 11
252.854511
 21
828.413975
 31
0.0
 11
254.555625
 21
834.731771
 31
0.0
  0
LWPOLYLINE
  5
113
100
AcDbEntity
  8
Layer_1
 62
1
100
AcDbPolyline
 90
2
 70
0
 10
254.555625
 20
834.731771
 30
0.0
 10
254.555625
 20
880.460576
 30
0.0
  0
SPLINE
  5
114
100
AcDbEntity
  8
Layer_1
 62
1
100
AcDbSpline
 70
0
 71
3
 72
10
 73
6
 74
4
 40
0.000000
 40
0.000000
 40
0.000000
 40
0.000000
 40
6.545000
 40
12.881218
 40
19.424606
 40
19.424606
 40
19.424606
 40
19.424606
 10
254.555625
 20
880.460576
 30
0.0
 10
254.214663
 20
882.654701
 30
0.0
 10
253.543617
 20
886.972959
 30
0.0
 10
248.570133
 20
891.952654
 30
0.0
 10
244.252177
 20
892.624979
 30
0.0
 10
242.058472
 20
892.966549
 30
0.0
 11
254.555625
 21
880.460576
 31
0.0
 11
252.854511
 21
886.780643
 31
0.0
 11
248.376252
 21
891.263148
 31
0.0
 11
242.058472
 21
892.966549
 31
0.0
  0
LWPOLYLINE
  5
115
100
AcDbEntity
  8
Layer_1
 62
1
100
AcDbPolyline
 90
3
 70
0
 10
242.058472
 20
892.966549
 30
0.0
 10
219.083819
 20
892.966549
 30
0.0
 10
219.083819
 20
864.470938
 30
0.0
  0
SPLINE
  5
116
100
AcDbEntity
  8
Layer_1
 62
1
100
AcDbSpline
 70
0
 71
3
 72
10
 73
6
 74
4
 40
0.000000
 40
0.000000
 40
0.000000
 40
0.000000
 40
0.787236
 40
1.549994
 40
2.335616
 40
2.335616
 40
2.335616
 40
2.335616
 10
219.083819
 20
864.470938
 30
0.0
 10
219.042829
 20
864.207152
 30
0.0
 10
218.962122
 20
863.687783
 30
0.0
 10
218.366941
 20
863.086389
 30
0.0
 10
217.847878
 20
863.004399
 30
0.0
 10
217.584514
 20
862.962799
 30
0.0
 11
219.083819
 21
864.470938
 31
0.0
 11
218.879777
 21
863.710604
 31
0.0
 11
218.342556
 21
863.169130
 31
0.0
 11
217.584514
 21
862.962799
 31
0.0
  0
LWPOLYLINE
  5
117
100
AcDbEntity
  8
Layer_1
 62
1
100
AcDbPolyline
 90
2
 70
0
 10
217.584514
 20
862.962799
 30
0.0
 10
164.588472
 20
862.962799
 30
0.0
  0
SPLINE
  5
118
100
AcDbEntity
  8
Layer_1
 62
1
100
AcDbSpline
 70
0
 71
3
 72
10
 73
6
 74
4
 40
0.000000
 40
0.000000
 40
0.000000
 40
0.000000
 40
0.785621
 40
1.548380
 40
2.335616
 40
2.335616
 40
2.335616
 40
2.335616
 10
164.588472
 20
862.962799
 30
0.0
 10
164.325108
 20
863.004399
 30
0.0
 10
163.806045
 20
863.086389
 30
0.0
 10
163.210864
 20
863.687783
 30
0.0
 10
163.130157
 20
864.207152
 30
0.0
 10
163.089167
 20
864.470938
 30
0.0
 11
164.588472
 21
862.962799
 31
0.0
 11
163.830430
 21
863.169130
 31
0.0
 11
163.293209
 21
863.710604
 31
0.0
 11
163.089167
 21
864.470938
 31
0.0
  0
LWPOLYLINE
  5
119
100
AcDbEntity
  8
Layer_1
 62
1
100
AcDbPolyline
 90
4
 70
0
 10
163.089167
 20
864.470938
 30
0.0
 10
163.089167
 20
892.966549
 30
0.0
 10
102.058611
 20
892.966549
 30
0.0
 10
102.058611
 20
892.966549
 30
0.0
  0
SPLINE
  5
11a
100
AcDbEntity
  8
Layer_1
 62
7
100
AcDbSpline
 70
0
 71
3
 72
25
 73
21
 74
19
 40
0.000000
 40
0.000000
 40
0.000000
 40
0.000000
 40
0.607416
 40
1.206136
 40
1.813551
 40
2.420967
 40
3.019687
 40
3.627103
 40
4.234518
 40
4.833238
 40
5.440654
 40
6.048070
 40
6.646790
 40
7.254205
 40
7.861621
 40
8.460341
 40
9.067757
 40
9.675172
 40
10.273892
 40
10.881308
 40
10.881308
 40
10.881308
 40
10.881308
 10
73.796373
 20
1004.636004
 30
0.0
 10
73.775625
 20
1004.432494
 30
0.0
 10
73.734425
 20
1004.028387
 30
0.0
 10
73.414121
 20
1003.494309
 30
0.0
 10
72.945058
 20
1003.097224
 30
0.0
 10
72.364166
 20
1002.886619
 30
0.0
 10
71.747763
 20
1002.886619
 30
0.0
 10
71.167683
 20
1003.097224
 30
0.0
 10
70.695378
 20
1003.494309
 30
0.0
 10
70.387117
 20
1004.028387
 30
0.0
 10
70.279717
 20
1004.636004
 30
0.0
 10
70.387117
 20
1005.243621
 30
0.0
 10
70.695378
 20
1005.777699
 30
0.0
 10
71.167683
 20
1006.174784
 30
0.0
 10
71.747763
 20
1006.385389
 30
0.0
 10
72.364166
 20
1006.385389
 30
0.0
 10
72.945058
 20
1006.174784
 30
0.0
 10
73.414121
 20
1005.777699
 30
0.0
 10
73.734425
 20
1005.243621
 30
0.0
 10
73.775625
 20
1004.839514
 30
0.0
 10
73.796373
 20
1004.636004
 30
0.0
 11
73.796373
 21
1004.636004
 31
0.0
 11
73.690550
 21
1004.037877
 31
0.0
 11
73.391279
 21
1003.519320
 31
0.0
 11
72.926331
 21
1003.128453
 31
0.0
 11
72.355391
 21
1002.921132
 31
0.0
 11
71.756671
 21
1002.921132
 31
0.0
 11
71.185732
 21
1003.128453
 31
0.0
 11
70.720783
 21
1003.519320
 31
0.0
 11
70.421512
 21
1004.037877
 31
0.0
 11
70.315689
 21
1004.636004
 31
0.0
 11
70.421512
 21
1005.234130
 31
0.0
 11
70.720783
 21
1005.752688
 31
0.0
 11
71.185732
 21
1006.143555
 31
0.0
 11
71.756671
 21
1006.350876
 31
0.0
 11
72.355391
 21
1006.350876
 31
0.0
 11
72.926331
 21
1006.143555
 31
0.0
 11
73.391279
 21
1005.752688
 31
0.0
 11
73.690550
 21
1005.234130
 31
0.0
 11
73.796373
 21
1004.636004
 31
0.0
  0
LWPOLYLINE
  5
11b
100
AcDbEntity
  8
Layer_1
 62
7
100
AcDbPolyline
 90
2
 70
0
 10
73.796373
 20
1004.636004
 30
0.0
 10
73.796373
 20
1004.636004
 30
0.0
  0
SPLINE
  5
11c
100
AcDbEntity
  8
Layer_1
 62
7
100
AcDbSpline
 70
0
 71
3
 72
25
 73
21
 74
19
 40
0.000000
 40
0.000000
 40
0.000000
 40
0.000000
 40
0.607416
 40
1.206136
 40
1.813551
 40
2.420967
 40
3.019687
 40
3.627103
 40
4.234518
 40
4.833238
 40
5.440654
 40
6.048070
 40
6.646790
 40
7.254205
 40
7.861621
 40
8.460341
 40
9.067757
 40
9.675172
 40
10.273892
 40
10.881308
 40
10.881308
 40
10.881308
 40
10.881308
 10
273.701166
 20
1004.636004
 30
0.0
 10
273.680418
 20
1004.432494
 30
0.0
 10
273.639218
 20
1004.028387
 30
0.0
 10
273.318914
 20
1003.494309
 30
0.0
 10
272.849851
 20
1003.097224
 30
0.0
 10
272.268959
 20
1002.886619
 30
0.0
 10
271.652556
 20
1002.886619
 30
0.0
 10
271.072476
 20
1003.097224
 30
0.0
 10
270.600171
 20
1003.494309
 30
0.0
 10
270.291910
 20
1004.028387
 30
0.0
 10
270.184510
 20
1004.636004
 30
0.0
 10
270.291910
 20
1005.243621
 30
0.0
 10
270.600171
 20
1005.777699
 30
0.0
 10
271.072476
 20
1006.174784
 30
0.0
 10
271.652556
 20
1006.385389
 30
0.0
 10
272.268959
 20
1006.385389
 30
0.0
 10
272.849851
 20
1006.174784
 30
0.0
 10
273.318914
 20
1005.777699
 30
0.0
 10
273.639218
 20
1005.243621
 30
0.0
 10
273.680418
 20
1004.839514
 30
0.0
 10
273.701166
 20
1004.636004
 30
0.0
 11
273.701166
 21
1004.636004
 31
0.0
 11
273.595344
 21
1004.037877
 31
0.0
 11
273.296072
 21
1003.519320
 31
0.0
 11
272.831124
 21
1003.128453
 31
0.0
 11
272.260184
 21
1002.921132
 31
0.0
 11
271.661464
 21
1002.921132
 31
0.0
 11
271.090525
 21
1003.128453
 31
0.0
 11
270.625576
 21
1003.519320
 31
0.0
 11
270.326305
 21
1004.037877
 31
0.0
 11
270.220482
 21
1004.636004
 31
0.0
 11
270.326305
 21
1005.234130
 31
0.0
 11
270.625576
 21
1005.752688
 31
0.0
 11
271.090525
 21
1006.143555
 31
0.0
 11
271.661464
 21
1006.350876
 31
0.0
 11
272.260184
 21
1006.350876
 31
0.0
 11
272.831124
 21
1006.143555
 31
0.0
 11
273.296072
 21
1005.752688
 31
0.0
 11
273.595344
 21
1005.234130
 31
0.0
 11
273.701166
 21
1004.636004
 31
0.0
  0
LWPOLYLINE
  5
11d
100
AcDbEntity
  8
Layer_1
 62
7
100
AcDbPolyline
 90
2
 70
0
 10
273.701166
 20
1004.636004
 30
0.0
 10
273.701166
 20
1004.636004
 30
0.0
  0
SPLINE
  5
11e
100
AcDbEntity
  8
Layer_1
 62
7
100
AcDbSpline
 70
0
 71
3
 72
25
 73
21
 74
19
 40
0.000000
 40
0.000000
 40
0.000000
 40
0.000000
 40
0.607416
 40
1.206136
 40
1.813551
 40
2.420967
 40
3.019687
 40
3.627103
 40
4.234518
 40
4.833238
 40
5.440654
 40
6.048070
 40
6.646790
 40
7.254205
 40
7.861621
 40
8.460341
 40
9.067757
 40
9.675172
 40
10.273892
 40
10.881308
 40
10.881308
 40
10.881308
 40
10.881308
 10
273.701166
 20
804.731202
 30
0.0
 10
273.680418
 20
804.527692
 30
0.0
 10
273.639218
 20
804.123585
 30
0.0
 10
273.318914
 20
803.589507
 30
0.0
 10
272.849851
 20
803.192422
 30
0.0
 10
272.268959
 20
802.981817
 30
0.0
 10
271.652556
 20
802.981817
 30
0.0
 10
271.072476
 20
803.192422
 30
0.0
 10
270.600171
 20
803.589507
 30
0.0
 10
270.291910
 20
804.123585
 30
0.0
 10
270.184510
 20
804.731202
 30
0.0
 10
270.291910
 20
805.338820
 30
0.0
 10
270.600171
 20
805.872898
 30
0.0
 10
271.072476
 20
806.269982
 30
0.0
 10
271.652556
 20
806.480588
 30
0.0
 10
272.268959
 20
806.480588
 30
0.0
 10
272.849851
 20
806.269982
 30
0.0
 10
273.318914
 20
805.872898
 30
0.0
 10
273.639218
 20
805.338820
 30
0.0
 10
273.680418
 20
804.934713
 30
0.0
 10
273.701166
 20
804.731202
 30
0.0
 11
273.701166
 21
804.731202
 31
0.0
 11
273.595344
 21
804.133076
 31
0.0
 11
273.296072
 21
803.614518
 31
0.0
 11
272.831124
 21
803.223651
 31
0.0
 11
272.260184
 21
803.016331
 31
0.0
 11
271.661464
 21
803.016331
 31
0.0
 11
271.090525
 21
803.223651
 31
0.0
 11
270.625576
 21
803.614518
 31
0.0
 11
270.326305
 21
804.133076
 31
0.0
 11
270.220482
 21
804.731202
 31
0.0
 11
270.326305
 21
805.329329
 31
0.0
 11
270.625576
 21
805.847887
 31
0.0
 11
271.090525
 21
806.238754
 31
0.0
 11
271.661464
 21
806.446074
 31
0.0
 11
272.260184
 21
806.446074
 31
0.0
 11
272.831124
 21
806.238754
 31
0.0
 11
273.296072
 21
805.847887
 31
0.0
 11
273.595344
 21
805.329329
 31
0.0
 11
273.701166
 21
804.731202
 31
0.0
  0
LWPOLYLINE
  5
11f
100
AcDbEntity
  8
Layer_1
 62
7
100
AcDbPolyline
 90
2
 70
0
 10
273.701166
 20
804.731202
 30
0.0
 10
273.701166
 20
804.731202
 30
0.0
  0
SPLINE
  5
120
100
AcDbEntity
  8
Layer_1
 62
7
100
AcDbSpline
 70
0
 71
3
 72
25
 73
21
 74
19
 40
0.000000
 40
0.000000
 40
0.000000
 40
0.000000
 40
0.607416
 40
1.206136
 40
1.813551
 40
2.420967
 40
3.019687
 40
3.627103
 40
4.234518
 40
4.833238
 40
5.440654
 40
6.048070
 40
6.646790
 40
7.254205
 40
7.861621
 40
8.460341
 40
9.067757
 40
9.675172
 40
10.273892
 40
10.881308
 40
10.881308
 40
10.881308
 40
10.881308
 10
73.796373
 20
804.731202
 30
0.0
 10
73.775625
 20
804.527692
 30
0.0
 10
73.734425
 20
804.123585
 30
0.0
 10
73.414121
 20
803.589507
 30
0.0
 10
72.945058
 20
803.192422
 30
0.0
 10
72.364166
 20
802.981817
 30
0.0
 10
71.747763
 20
802.981817
 30
0.0
 10
71.167683
 20
803.192422
 30
0.0
 10
70.695378
 20
803.589507
 30
0.0
 10
70.387117
 20
804.123585
 30
0.0
 10
70.279717
 20
804.731202
 30
0.0
 10
70.387117
 20
805.338820
 30
0.0
 10
70.695378
 20
805.872898
 30
0.0
 10
71.167683
 20
806.269982
 30
0.0
 10
71.747763
 20
806.480588
 30
0.0
 10
72.364166
 20
806.480588
 30
0.0
 10
72.945058
 20
806.269982
 30
0.0
 10
73.414121
 20
805.872898
 30
0.0
 10
73.734425
 20
805.338820
 30
0.0
 10
73.775625
 20
804.934713
 30
0.0
 10
73.796373
 20
804.731202
 30
0.0
 11
73.796373
 21
804.731202
 31
0.0
 11
73.690550
 21
804.133076
 31
0.0
 11
73.391279
 21
803.614518
 31
0.0
 11
72.926331
 21
803.223651
 31
0.0
 11
72.355391
 21
803.016331
 31
0.0
 11
71.756671
 21
803.016331
 31
0.0
 11
71.185732
 21
803.223651
 31
0.0
 11
70.720783
 21
803.614518
 31
0.0
 11
70.421512
 21
804.133076
 31
0.0
 11
70.315689
 21
804.731202
 31
0.0
 11
70.421512
 21
805.329329
 31
0.0
 11
70.720783
 21
805.847887
 31
0.0
 11
71.185732
 21
806.238754
 31
0.0
 11
71.756671
 21
806.446074
 31
0.0
 11
72.355391
 21
806.446074
 31
0.0
 11
72.926331
 21
806.238754
 31
0.0
 11
73.391279
 21
805.847887
 31
0.0
 11
73.690550
 21
805.329329
 31
0.0
 11
73.796373
 21
804.731202
 31
0.0
  0
LWPOLYLINE
  5
121
100
AcDbEntity
  8
Layer_1
 62
7
100
AcDbPolyline
 90
2
 70
0
 10
73.796373
 20
804.731202
 30
0.0
 10
73.796373
 20
804.731202
 30
0.0
  0
SPLINE
  5
122
100
AcDbEntity
  8
Layer_1
 62
7
100
AcDbSpline
 70
0
 71
3
 72
19
 73
15
 74
13
 40
0.000000
 40
0.000000
 40
0.000000
 40
0.000000
 40
0.909954
 40
1.792919
 40
2.702873
 40
3.612826
 40
4.495791
 40
5.405745
 40
6.315699
 40
7.198664
 40
8.108618
 40
9.018572
 40
9.901537
 40
10.811491
 40
10.811491
 40
10.811491
 40
10.811491
 10
339.649707
 20
1040.760448
 30
0.0
 10
339.601874
 20
1040.453655
 30
0.0
 10
339.507626
 20
1039.849167
 30
0.0
 10
338.814767
 20
1039.183675
 30
0.0
 10
337.910962
 20
1038.937091
 30
0.0
 10
336.997667
 20
1039.183675
 30
0.0
 10
336.332712
 20
1039.849167
 30
0.0
 10
336.085945
 20
1040.760448
 30
0.0
 10
336.332712
 20
1041.671730
 30
0.0
 10
336.997667
 20
1042.337222
 30
0.0
 10
337.910962
 20
1042.583807
 30
0.0
 10
338.814767
 20
1042.337222
 30
0.0
 10
339.507626
 20
1041.671730
 30
0.0
 10
339.601874
 20
1041.067242
 30
0.0
 10
339.649707
 20
1040.760448
 30
0.0
 11
339.649707
 21
1040.760448
 31
0.0
 11
339.412099
 21
1039.882064
 31
0.0
 11
338.787748
 21
1039.257714
 31
0.0
 11
337.909364
 21
1039.020106
 31
0.0
 11
337.030980
 21
1039.257714
 31
0.0
 11
336.406630
 21
1039.882064
 31
0.0
 11
336.169022
 21
1040.760448
 31
0.0
 11
336.406630
 21
1041.638833
 31
0.0
 11
337.030980
 21
1042.263183
 31
0.0
 11
337.909364
 21
1042.500791
 31
0.0
 11
338.787748
 21
1042.263183
 31
0.0
 11
339.412099
 21
1041.638833
 31
0.0
 11
339.649707
 21
1040.760448
 31
0.0
  0
LWPOLYLINE
  5
123
100
AcDbEntity
  8
Layer_1
 62
7
100
AcDbPolyline
 90
2
 70
0
 10
339.649707
 20
1040.760448
 30
0.0
 10
339.649707
 20
1040.760448
 30
0.0
  0
SPLINE
  5
124
100
AcDbEntity
  8
Layer_1
 62
7
100
AcDbSpline
 70
0
 71
3
 72
19
 73
15
 74
13
 40
0.000000
 40
0.000000
 40
0.000000
 40
0.000000
 40
0.909954
 40
1.792919
 40
2.702873
 40
3.612826
 40
4.495791
 40
5.405745
 40
6.315699
 40
7.198664
 40
8.108618
 40
9.018572
 40
9.901537
 40
10.811491
 40
10.811491
 40
10.811491
 40
10.811491
 10
539.554500
 20
1040.760448
 30
0.0
 10
539.506667
 20
1040.453655
 30
0.0
 10
539.412420
 20
1039.849167
 30
0.0
 10
538.719560
 20
1039.183675
 30
0.0
 10
537.815755
 20
1038.937091
 30
0.0
 10
536.902460
 20
1039.183675
 30
0.0
 10
536.237505
 20
1039.849167
 30
0.0
 10
535.990738
 20
1040.760448
 30
0.0
 10
536.237505
 20
1041.671730
 30
0.0
 10
536.902460
 20
1042.337222
 30
0.0
 10
537.815755
 20
1042.583807
 30
0.0
 10
538.719560
 20
1042.337222
 30
0.0
 10
539.412419
 20
1041.671730
 30
0.0
 10
539.506667
 20
1041.067242
 30
0.0
 10
539.554500
 20
1040.760448
 30
0.0
 11
539.554500
 21
1040.760448
 31
0.0
 11
539.316892
 21
1039.882064
 31
0.0
 11
538.692541
 21
1039.257714
 31
0.0
 11
537.814157
 21
1039.020106
 31
0.0
 11
536.935773
 21
1039.257714
 31
0.0
 11
536.311423
 21
1039.882064
 31
0.0
 11
536.073815
 21
1040.760448
 31
0.0
 11
536.311423
 21
1041.638833
 31
0.0
 11
536.935773
 21
1042.263183
 31
0.0
 11
537.814157
 21
1042.500791
 31
0.0
 11
538.692541
 21
1042.263183
 31
0.0
 11
539.316892
 21
1041.638833
 31
0.0
 11
539.554500
 21
1040.760448
 31
0.0
  0
LWPOLYLINE
  5
125
100
AcDbEntity
  8
Layer_1
 62
7
100
AcDbPolyline
 90
2
 70
0
 10
539.554500
 20
1040.760448
 30
0.0
 10
539.554500
 20
1040.760448
 30
0.0
  0
SPLINE
  5
126
100
AcDbEntity
  8
Layer_1
 62
7
100
AcDbSpline
 70
0
 71
3
 72
19
 73
15
 74
13
 40
0.000000
 40
0.000000
 40
0.000000
 40
0.000000
 40
0.909954
 40
1.792919
 40
2.702873
 40
3.612826
 40
4.495791
 40
5.405745
 40
6.315699
 40
7.198664
 40
8.108618
 40
9.018572
 40
9.901537
 40
10.811491
 40
10.811491
 40
10.811491
 40
10.811491
 10
539.554500
 20
840.855647
 30
0.0
 10
539.506667
 20
840.548853
 30
0.0
 10
539.412420
 20
839.944365
 30
0.0
 10
538.719560
 20
839.278874
 30
0.0
 10
537.815755
 20
839.032289
 30
0.0
 10
536.902460
 20
839.278874
 30
0.0
 10
536.237505
 20
839.944365
 30
0.0
 10
535.990738
 20
840.855647
 30
0.0
 10
536.237505
 20
841.766928
 30
0.0
 10
536.902460
 20
842.432420
 30
0.0
 10
537.815755
 20
842.679005
 30
0.0
 10
538.719560
 20
842.432420
 30
0.0
 10
539.412419
 20
841.766928
 30
0.0
 10
539.506667
 20
841.162441
 30
0.0
 10
539.554500
 20
840.855647
 30
0.0
 11
539.554500
 21
840.855647
 31
0.0
 11
539.316892
 21
839.977263
 31
0.0
 11
538.692541
 21
839.352912
 31
0.0
 11
537.814157
 21
839.115305
 31
0.0
 11
536.935773
 21
839.352912
 31
0.0
 11
536.311423
 21
839.977263
 31
0.0
 11
536.073815
 21
840.855647
 31
0.0
 11
536.311423
 21
841.734031
 31
0.0
 11
536.935773
 21
842.358382
 31
0.0
 11
537.814157
 21
842.595990
 31
0.0
 11
538.692541
 21
842.358382
 31
0.0
 11
539.316892
 21
841.734031
 31
0.0
 11
539.554500
 21
840.855647
 31
0.0
  0
LWPOLYLINE
  5
127
100
AcDbEntity
  8
Layer_1
 62
7
100
AcDbPolyline
 90
2
 70
0
 10
539.554500
 20
840.855647
 30
0.0
 10
539.554500
 20
840.855647
 30
0.0
  0
LWPOLYLINE
  5
128
100
AcDbEntity
  8
Layer_1
 62
7
100
AcDbPolyline
 90
2
 70
0
 10
339.649707
 20
840.855647
 30
0.0
 10
339.649707
 20
840.855647
 30
0.0
  0
SPLINE
  5
129
100
AcDbEntity
  8
Layer_1
 62
7
100
AcDbSpline
 70
0
 71
3
 72
19
 73
15
 74
13
 40
0.000000
 40
0.000000
 40
0.000000
 40
0.000000
 40
0.909954
 40
1.792919
 40
2.702873
 40
3.612826
 40
4.495791
 40
5.405745
 40
6.315699
 40
7.198664
 40
8.108618
 40
9.018572
 40
9.901537
 40
10.811491
 40
10.811491
 40
10.811491
 40
10.811491
 10
339.649707
 20
840.855647
 30
0.0
 10
339.601874
 20
840.548853
 30
0.0
 10
339.507626
 20
839.944365
 30
0.0
 10
338.814767
 20
839.278874
 30
0.0
 10
337.910962
 20
839.032289
 30
0.0
 10
336.997667
 20
839.278874
 30
0.0
 10
336.332712
 20
839.944365
 30
0.0
 10
336.085945
 20
840.855647
 30
0.0
 10
336.332712
 20
841.766928
 30
0.0
 10
336.997667
 20
842.432420
 30
0.0
 10
337.910962
 20
842.679005
 30
0.0
 10
338.814767
 20
842.432420
 30
0.0
 10
339.507626
 20
841.766928
 30
0.0
 10
339.601874
 20
841.162441
 30
0.0
 10
339.649707
 20
840.855647
 30
0.0
 11
339.649707
 21
840.855647
 31
0.0
 11
339.412099
 21
839.977263
 31
0.0
 11
338.787748
 21
839.352912
 31
0.0
 11
337.909364
 21
839.115305
 31
0.0
 11
337.030980
 21
839.352912
 31
0.0
 11
336.406630
 21
839.977263
 31
0.0
 11
336.169022
 21
840.855647
 31
0.0
 11
336.406630
 21
841.734031
 31
0.0
 11
337.030980
 21
842.358382
 31
0.0
 11
337.909364
 21
842.595990
 31
0.0
 11
338.787748
 21
842.358382
 31
0.0
 11
339.412099
 21
841.734031
 31
0.0
 11
339.649707
 21
840.855647
 31
0.0
  0
LWPOLYLINE
  5
12a
100
AcDbEntity
  8
Layer_1
 62
1
100
AcDbPolyline
 90
5
 70
0
 10
332.941168
 20
1045.840456
 30
0.0
 10
542.941166
 20
1045.840456
 30
0.0
 10
542.941166
 20
835.840459
 30
0.0
 10
332.941168
 20
835.840459
 30
0.0
 10
332.941168
 20
1045.840456
 30
0.0
  0
SPLINE
  5
12b
100
AcDbEntity
  8
Layer_1
 62
7
100
AcDbSpline
 70
0
 71
3
 72
25
 73
21
 74
19
 40
0.000000
 40
0.000000
 40
0.000000
 40
0.000000
 40
0.848184
 40
1.684225
 40
2.532408
 40
3.380592
 40
4.216633
 40
5.064817
 40
5.913000
 40
6.749042
 40
7.597225
 40
8.445409
 40
9.281450
 40
10.129634
 40
10.977817
 40
11.813858
 40
12.662042
 40
13.510226
 40
14.346267
 40
15.194450
 40
15.194450
 40
15.194450
 40
15.194450
 10
261.861246
 20
984.463606
 30
0.0
 10
261.832273
 20
984.179429
 30
0.0
 10
261.774742
 20
983.615141
 30
0.0
 10
261.327476
 20
982.869365
 30
0.0
 10
260.672485
 20
982.314883
 30
0.0
 10
259.861339
 20
982.020798
 30
0.0
 10
259.000605
 20
982.020798
 30
0.0
 10
258.190592
 20
982.314883
 30
0.0
 10
257.531075
 20
982.869365
 30
0.0
 10
257.100624
 20
983.615141
 30
0.0
 10
256.950654
 20
984.463606
 30
0.0
 10
257.100624
 20
985.312071
 30
0.0
 10
257.531075
 20
986.057848
 30
0.0
 10
258.190592
 20
986.612329
 30
0.0
 10
259.000605
 20
986.906415
 30
0.0
 10
259.861339
 20
986.906415
 30
0.0
 10
260.672485
 20
986.612329
 30
0.0
 10
261.327476
 20
986.057848
 30
0.0
 10
261.774742
 20
985.312071
 30
0.0
 10
261.832273
 20
984.747784
 30
0.0
 10
261.861246
 20
984.463606
 30
0.0
 11
261.861246
 21
984.463606
 31
0.0
 11
261.713476
 21
983.628394
 31
0.0
 11
261.295579
 21
982.904290
 31
0.0
 11
260.646334
 21
982.358491
 31
0.0
 11
259.849085
 21
982.068992
 31
0.0
 11
259.013044
 21
982.068992
 31
0.0
 11
258.215795
 21
982.358491
 31
0.0
 11
257.566550
 21
982.904290
 31
0.0
 11
257.148653
 21
983.628394
 31
0.0
 11
257.000884
 21
984.463606
 31
0.0
 11
257.148653
 21
985.298819
 31
0.0
 11
257.566550
 21
986.022923
 31
0.0
 11
258.215795
 21
986.568722
 31
0.0
 11
259.013044
 21
986.858220
 31
0.0
 11
259.849085
 21
986.858220
 31
0.0
 11
260.646334
 21
986.568722
 31
0.0
 11
261.295579
 21
986.022923
 31
0.0
 11
261.713476
 21
985.298819
 31
0.0
 11
261.861246
 21
984.463606
 31
0.0
  0
LWPOLYLINE
  5
12c
100
AcDbEntity
  8
Layer_1
 62
7
100
AcDbPolyline
 90
2
 70
0
 10
261.861246
 20
984.463606
 30
0.0
 10
261.861246
 20
984.463606
 30
0.0
  0
SPLINE
  5
12d
100
AcDbEntity
  8
Layer_1
 62
7
100
AcDbSpline
 70
0
 71
3
 72
25
 73
21
 74
19
 40
0.000000
 40
0.000000
 40
0.000000
 40
0.000000
 40
0.848184
 40
1.684225
 40
2.532408
 40
3.380592
 40
4.216633
 40
5.064817
 40
5.913000
 40
6.749042
 40
7.597225
 40
8.445409
 40
9.281450
 40
10.129634
 40
10.977817
 40
11.813858
 40
12.662042
 40
13.510226
 40
14.346267
 40
15.194450
 40
15.194450
 40
15.194450
 40
15.194450
 10
261.861246
 20
824.848341
 30
0.0
 10
261.832273
 20
824.564163
 30
0.0
 10
261.774742
 20
823.999876
 30
0.0
 10
261.327476
 20
823.254100
 30
0.0
 10
260.672485
 20
822.699618
 30
0.0
 10
259.861339
 20
822.405533
 30
0.0
 10
259.000605
 20
822.405533
 30
0.0
 10
258.190592
 20
822.699618
 30
0.0
 10
257.531075
 20
823.254100
 30
0.0
 10
257.100624
 20
823.999876
 30
0.0
 10
256.950654
 20
824.848341
 30
0.0
 10
257.100624
 20
825.696806
 30
0.0
 10
257.531075
 20
826.442583
 30
0.0
 10
258.190592
 20
826.997064
 30
0.0
 10
259.000605
 20
827.291150
 30
0.0
 10
259.861339
 20
827.291150
 30
0.0
 10
260.672485
 20
826.997064
 30
0.0
 10
261.327476
 20
826.442583
 30
0.0
 10
261.774742
 20
825.696806
 30
0.0
 10
261.832273
 20
825.132519
 30
0.0
 10
261.861246
 20
824.848341
 30
0.0
 11
261.861246
 21
824.848341
 31
0.0
 11
261.713476
 21
824.013129
 31
0.0
 11
261.295579
 21
823.289025
 31
0.0
 11
260.646334
 21
822.743226
 31
0.0
 11
259.849085
 21
822.453727
 31
0.0
 11
259.013044
 21
822.453727
 31
0.0
 11
258.215795
 21
822.743226
 31
0.0
 11
257.566550
 21
823.289025
 31
0.0
 11
257.148653
 21
824.013129
 31
0.0
 11
257.000884
 21
824.848341
 31
0.0
 11
257.148653
 21
825.683554
 31
0.0
 11
257.566550
 21
826.407658
 31
0.0
 11
258.215795
 21
826.953457
 31
0.0
 11
259.013044
 21
827.242955
 31
0.0
 11
259.849085
 21
827.242955
 31
0.0
 11
260.646334
 21
826.953457
 31
0.0
 11
261.295579
 21
826.407658
 31
0.0
 11
261.713476
 21
825.683554
 31
0.0
 11
261.861246
 21
824.848341
 31
0.0
  0
LWPOLYLINE
  5
12e
100
AcDbEntity
  8
Layer_1
 62
7
100
AcDbPolyline
 90
2
 70
0
 10
261.861246
 20
824.848341
 30
0.0
 10
261.861246
 20
824.848341
 30
0.0
  0
LWPOLYLINE
  5
12f
100
AcDbEntity
  8
Layer_1
 62
7
100
AcDbPolyline
 90
2
 70
0
 10
86.968614
 20
824.848341
 30
0.0
 10
86.968614
 20
824.848341
 30
0.0
  0
LWPOLYLINE
  5
130
100
AcDbEntity
  8
outline
 62
3
100
AcDbPolyline
 90
38
 70
0
 10
44.061944
 20
1032.631271
 30
0.0
 10
44.061944
 20
972.632590
 30
0.0
 10
47.060556
 20
972.632590
 30
0.0
 10
47.060556
 20
924.637174
 30
0.0
 10
44.070764
 20
924.637174
 30
0.0
 10
44.070764
 20
884.729188
 30
0.0
 10
47.060556
 20
884.729188
 30
0.0
 10
47.060556
 20
836.786688
 30
0.0
 10
44.106042
 20
836.786688
 30
0.0
 10
44.106042
 20
776.787993
 30
0.0
 10
104.104722
 20
776.787993
 30
0.0
 10
104.104722
 20
779.733716
 30
0.0
 10
151.368125
 20
779.733716
 30
0.0
 10
151.368125
 20
776.779188
 30
0.0
 10
192.528472
 20
776.779188
 30
0.0
 10
192.528472
 20
779.733716
 30
0.0
 10
239.959444
 20
779.733716
 30
0.0
 10
239.959444
 20
776.735104
 30
0.0
 10
299.958139
 20
776.735104
 30
0.0
 10
299.958139
 20
836.733771
 30
0.0
 10
296.959528
 20
836.733771
 30
0.0
 10
296.959528
 20
884.623354
 30
0.0
 10
299.914028
 20
884.623354
 30
0.0
 10
299.914028
 20
924.522521
 30
0.0
 10
296.959528
 20
924.522521
 30
0.0
 10
296.959528
 20
972.579674
 30
0.0
 10
299.905194
 20
972.579674
 30
0.0
 10
299.905194
 20
1032.587174
 30
0.0
 10
239.906528
 20
1032.587174
 30
0.0
 10
239.906528
 20
1029.632660
 30
0.0
 10
192.590208
 20
1029.632660
 30
0.0
 10
192.590208
 20
1032.569535
 30
0.0
 10
151.429861
 20
1032.569535
 30
0.0
 10
151.429861
 20
1029.632660
 30
0.0
 10
104.060625
 20
1029.632660
 30
0.0
 10
104.060625
 20
1032.631271
 30
0.0
 10
44.061944
 20
1032.631271
 30
0.0
 10
44.061944
 20
1032.631271
 30
0.0
  0
SPLINE
  5
131
100
AcDbEntity
  8
Layer_1
 62
7
100
AcDbSpline
 70
0
 71
3
 72
25
 73
21
 74
19
 40
0.000000
 40
0.000000
 40
0.000000
 40
0.000000
 40
0.848184
 40
1.684225
 40
2.532408
 40
3.380592
 40
4.216633
 40
5.064817
 40
5.913000
 40
6.749042
 40
7.597225
 40
8.445409
 40
9.281450
 40
10.129634
 40
10.977817
 40
11.813858
 40
12.662042
 40
13.510226
 40
14.346267
 40
15.194450
 40
15.194450
 40
15.194450
 40
15.194450
 10
86.968614
 20
824.848341
 30
0.0
 10
86.939641
 20
824.564163
 30
0.0
 10
86.882111
 20
823.999876
 30
0.0
 10
86.434845
 20
823.254100
 30
0.0
 10
85.779854
 20
822.699618
 30
0.0
 10
84.968707
 20
822.405533
 30
0.0
 10
84.107974
 20
822.405533
 30
0.0
 10
83.297961
 20
822.699618
 30
0.0
 10
82.638444
 20
823.254100
 30
0.0
 10
82.207993
 20
823.999876
 30
0.0
 10
82.058023
 20
824.848341
 30
0.0
 10
82.207993
 20
825.696806
 30
0.0
 10
82.638444
 20
826.442583
 30
0.0
 10
83.297961
 20
826.997064
 30
0.0
 10
84.107974
 20
827.291150
 30
0.0
 10
84.968707
 20
827.291150
 30
0.0
 10
85.779854
 20
826.997064
 30
0.0
 10
86.434845
 20
826.442583
 30
0.0
 10
86.882111
 20
825.696806
 30
0.0
 10
86.939641
 20
825.132519
 30
0.0
 10
86.968614
 20
824.848341
 30
0.0
 11
86.968614
 21
824.848341
 31
0.0
 11
86.820845
 21
824.013129
 31
0.0
 11
86.402948
 21
823.289025
 31
0.0
 11
85.753703
 21
822.743226
 31
0.0
 11
84.956454
 21
822.453727
 31
0.0
 11
84.120413
 21
822.453727
 31
0.0
 11
83.323164
 21
822.743226
 31
0.0
 11
82.673919
 21
823.289025
 31
0.0
 11
82.256022
 21
824.013129
 31
0.0
 11
82.108253
 21
824.848341
 31
0.0
 11
82.256022
 21
825.683554
 31
0.0
 11
82.673919
 21
826.407658
 31
0.0
 11
83.323164
 21
826.953457
 31
0.0
 11
84.120413
 21
827.242955
 31
0.0
 11
84.956454
 21
827.242955
 31
0.0
 11
85.753703
 21
826.953457
 31
0.0
 11
86.402948
 21
826.407658
 31
0.0
 11
86.820845
 21
825.683554
 31
0.0
 11
86.968614
 21
824.848341
 31
0.0
  0
LWPOLYLINE
  5
132
100
AcDbEntity
  8
outline
 62
7
100
AcDbPolyline
 90
5
 70
0
 10
29.510039
 20
1047.183191
 30
0.0
 10
314.510033
 20
1047.183191
 30
0.0
 10
314.510033
 20
762.183196
 30
0.0
 10
29.510039
 20
762.183196
 30
0.0
 10
29.510039
 20
1047.183191
 30
0.0
  0
SPLINE
  5
133
100
AcDbEntity
  8
raspberry_pi
 62
7
100
AcDbSpline
 70
0
 71
3
 72
19
 73
15
 74
13
 40
0.000000
 40
0.000000
 40
0.000000
 40
0.000000
 40
0.767219
 40
1.511682
 40
2.278902
 40
3.046121
 40
3.790585
 40
4.557803
 40
5.325026
 40
6.069491
 40
6.836711
 40
7.603930
 40
8.348395
 40
9.115618
 40
9.115618
 40
9.115618
 40
9.115618
 10
166.699544
 20
867.820973
 30
0.0
 10
166.958214
 20
867.780643
 30
0.0
 10
167.467882
 20
867.701179
 30
0.0
 10
168.028985
 20
867.117001
 30
0.0
 10
168.236891
 20
866.354966
 30
0.0
 10
168.028985
 20
865.584930
 30
0.0
 10
167.467882
 20
865.024279
 30
0.0
 10
166.699543
 20
864.816220
 30
0.0
 10
165.931202
 20
865.024278
 30
0.0
 10
165.370097
 20
865.584929
 30
0.0
 10
165.162191
 20
866.354966
 30
0.0
 10
165.370097
 20
867.117002
 30
0.0
 10
165.931202
 20
867.701180
 30
0.0
 10
166.440872
 20
867.780643
 30
0.0
 10
166.699544
 20
867.820973
 30
0.0
 11
166.699544
 21
867.820973
 31
0.0
 11
167.440145
 21
867.620636
 31
0.0
 11
167.966560
 21
867.094221
 31
0.0
 11
168.166897
 21
866.353619
 31
0.0
 11
167.966560
 21
865.613017
 31
0.0
 11
167.440145
 21
865.086602
 31
0.0
 11
166.699544
 21
864.886265
 31
0.0
 11
165.958939
 21
865.086602
 31
0.0
 11
165.432522
 21
865.613017
 31
0.0
 11
165.232185
 21
866.353619
 31
0.0
 11
165.432522
 21
867.094221
 31
0.0
 11
165.958939
 21
867.620636
 31
0.0
 11
166.699544
 21
867.820973
 31
0.0
  0
LWPOLYLINE
  5
134
100
AcDbEntity
  8
raspberry_pi
 62
7
100
AcDbPolyline
 90
2
 70
0
 10
166.699544
 20
867.820973
 30
0.0
 10
166.699544
 20
867.820973
 30
0.0
  0
SPLINE
  5
135
100
AcDbEntity
  8
raspberry_pi
 62
7
100
AcDbSpline
 70
0
 71
3
 72
19
 73
15
 74
13
 40
0.000000
 40
0.000000
 40
0.000000
 40
0.000000
 40
0.767219
 40
1.511682
 40
2.278902
 40
3.046121
 40
3.790585
 40
4.557803
 40
5.325026
 40
6.069491
 40
6.836711
 40
7.603930
 40
8.348395
 40
9.115618
 40
9.115618
 40
9.115618
 40
9.115618
 10
215.699542
 20
867.820973
 30
0.0
 10
215.958212
 20
867.780643
 30
0.0
 10
216.467880
 20
867.701179
 30
0.0
 10
217.028983
 20
867.117001
 30
0.0
 10
217.236888
 20
866.354966
 30
0.0
 10
217.028983
 20
865.584930
 30
0.0
 10
216.467880
 20
865.024279
 30
0.0
 10
215.699541
 20
864.816220
 30
0.0
 10
214.931200
 20
865.024278
 30
0.0
 10
214.370095
 20
865.584929
 30
0.0
 10
214.162189
 20
866.354966
 30
0.0
 10
214.370095
 20
867.117002
 30
0.0
 10
214.931200
 20
867.701180
 30
0.0
 10
215.440870
 20
867.780643
 30
0.0
 10
215.699542
 20
867.820973
 30
0.0
 11
215.699542
 21
867.820973
 31
0.0
 11
216.440143
 21
867.620636
 31
0.0
 11
216.966558
 21
867.094221
 31
0.0
 11
217.166895
 21
866.353619
 31
0.0
 11
216.966558
 21
865.613017
 31
0.0
 11
216.440143
 21
865.086602
 31
0.0
 11
215.699542
 21
864.886265
 31
0.0
 11
214.958937
 21
865.086602
 31
0.0
 11
214.432520
 21
865.613017
 31
0.0
 11
214.232183
 21
866.353619
 31
0.0
 11
214.432520
 21
867.094221
 31
0.0
 11
214.958937
 21
867.620636
 31
0.0
 11
215.699542
 21
867.820973
 31
0.0
  0
LWPOLYLINE
  5
136
100
AcDbEntity
  8
raspberry_pi
 62
7
100
AcDbPolyline
 90
2
 70
0
 10
215.699542
 20
867.820973
 30
0.0
 10
215.699542
 20
867.820973
 30
0.0
  0
SPLINE
  5
137
100
AcDbEntity
  8
raspberry_pi
 62
7
100
AcDbSpline
 70
0
 71
3
 72
19
 73
15
 74
13
 40
0.000000
 40
0.000000
 40
0.000000
 40
0.000000
 40
0.767219
 40
1.511682
 40
2.278902
 40
3.046121
 40
3.790585
 40
4.557803
 40
5.325026
 40
6.069491
 40
6.836711
 40
7.603930
 40
8.348395
 40
9.115618
 40
9.115618
 40
9.115618
 40
9.115618
 10
215.699542
 20
925.820973
 30
0.0
 10
215.958212
 20
925.780643
 30
0.0
 10
216.467880
 20
925.701179
 30
0.0
 10
217.028983
 20
925.117001
 30
0.0
 10
217.236888
 20
924.354966
 30
0.0
 10
217.028983
 20
923.584930
 30
0.0
 10
216.467880
 20
923.024279
 30
0.0
 10
215.699541
 20
922.816219
 30
0.0
 10
214.931200
 20
923.024278
 30
0.0
 10
214.370095
 20
923.584929
 30
0.0
 10
214.162189
 20
924.354966
 30
0.0
 10
214.370095
 20
925.117001
 30
0.0
 10
214.931200
 20
925.701180
 30
0.0
 10
215.440870
 20
925.780643
 30
0.0
 10
215.699542
 20
925.820973
 30
0.0
 11
215.699542
 21
925.820973
 31
0.0
 11
216.440143
 21
925.620636
 31
0.0
 11
216.966558
 21
925.094220
 31
0.0
 11
217.166895
 21
924.353619
 31
0.0
 11
216.966558
 21
923.613017
 31
0.0
 11
216.440143
 21
923.086602
 31
0.0
 11
215.699542
 21
922.886265
 31
0.0
 11
214.958937
 21
923.086602
 31
0.0
 11
214.432520
 21
923.613017
 31
0.0
 11
214.232183
 21
924.353619
 31
0.0
 11
214.432520
 21
925.094220
 31
0.0
 11
214.958937
 21
925.620636
 31
0.0
 11
215.699542
 21
925.820973
 31
0.0
  0
LWPOLYLINE
  5
138
100
AcDbEntity
  8
raspberry_pi
 62
7
100
AcDbPolyline
 90
2
 70
0
 10
215.699542
 20
925.820973
 30
0.0
 10
215.699542
 20
925.820973
 30
0.0
  0
SPLINE
  5
139
100
AcDbEntity
  8
raspberry_pi
 62
7
100
AcDbSpline
 70
0
 71
3
 72
19
 73
15
 74
13
 40
0.000000
 40
0.000000
 40
0.000000
 40
0.000000
 40
0.767219
 40
1.511682
 40
2.278902
 40
3.046121
 40
3.790585
 40
4.557803
 40
5.325026
 40
6.069491
 40
6.836711
 40
7.603930
 40
8.348395
 40
9.115618
 40
9.115618
 40
9.115618
 40
9.115618
 10
166.699544
 20
925.820973
 30
0.0
 10
166.958214
 20
925.780643
 30
0.0
 10
167.467882
 20
925.701179
 30
0.0
 10
168.028985
 20
925.117001
 30
0.0
 10
168.236891
 20
924.354966
 30
0.0
 10
168.028985
 20
923.584930
 30
0.0
 10
167.467882
 20
923.024279
 30
0.0
 10
166.699543
 20
922.816219
 30
0.0
 10
165.931202
 20
923.024278
 30
0.0
 10
165.370097
 20
923.584929
 30
0.0
 10
165.162191
 20
924.354966
 30
0.0
 10
165.370097
 20
925.117001
 30
0.0
 10
165.931202
 20
925.701180
 30
0.0
 10
166.440872
 20
925.780643
 30
0.0
 10
166.699544
 20
925.820973
 30
0.0
 11
166.699544
 21
925.820973
 31
0.0
 11
167.440145
 21
925.620636
 31
0.0
 11
167.966560
 21
925.094220
 31
0.0
 11
168.166897
 21
924.353619
 31
0.0
 11
167.966560
 21
923.613017
 31
0.0
 11
167.440145
 21
923.086602
 31
0.0
 11
166.699544
 21
922.886265
 31
0.0
 11
165.958939
 21
923.086602
 31
0.0
 11
165.432522
 21
923.613017
 31
0.0
 11
165.232185
 21
924.353619
 31
0.0
 11
165.432522
 21
925.094220
 31
0.0
 11
165.958939
 21
925.620636
 31
0.0
 11
166.699544
 21
925.820973
 31
0.0
  0
LWPOLYLINE
  5
13a
100
AcDbEntity
  8
raspberry_pi
 62
7
100
AcDbPolyline
 90
2
 70
0
 10
166.699544
 20
925.820973
 30
0.0
 10
166.699544
 20
925.820973
 30
0.0
  0
SPLINE
  5
13b
100
AcDbEntity
  8
raspberry_pi
 62
7
100
AcDbSpline
 70
0
 71
3
 72
19
 73
15
 74
13
 40
0.000000
 40
0.000000
 40
0.000000
 40
0.000000
 40
0.754292
 40
1.486206
 40
2.240493
 40
2.994786
 40
3.726710
 40
4.481004
 40
5.235291
 40
5.967205
 40
6.721497
 40
7.475781
 40
8.207686
 40
8.961971
 40
8.961971
 40
8.961971
 40
8.961971
 10
175.699533
 20
944.456243
 30
0.0
 10
175.953845
 20
944.416595
 30
0.0
 10
176.454923
 20
944.338473
 30
0.0
 10
177.006579
 20
943.764151
 30
0.0
 10
177.210984
 20
943.014958
 30
0.0
 10
177.006578
 20
942.257897
 30
0.0
 10
176.454927
 20
941.706692
 30
0.0
 10
175.699536
 20
941.502135
 30
0.0
 10
174.944145
 20
941.706690
 30
0.0
 10
174.392508
 20
942.257902
 30
0.0
 10
174.188114
 20
943.014958
 30
0.0
 10
174.392506
 20
943.764147
 30
0.0
 10
174.944149
 20
944.338475
 30
0.0
 10
175.445223
 20
944.416595
 30
0.0
 10
175.699533
 20
944.456243
 30
0.0
 11
175.699533
 21
944.456243
 31
0.0
 11
176.427657
 21
944.259288
 31
0.0
 11
176.945205
 21
943.741753
 31
0.0
 11
177.142168
 21
943.013636
 31
0.0
 11
176.945205
 21
942.285512
 31
0.0
 11
176.427657
 21
941.767964
 31
0.0
 11
175.699533
 21
941.571001
 31
0.0
 11
174.971416
 21
941.767964
 31
0.0
 11
174.453881
 21
942.285512
 31
0.0
 11
174.256926
 21
943.013636
 31
0.0
 11
174.453881
 21
943.741753
 31
0.0
 11
174.971416
 21
944.259288
 31
0.0
 11
175.699533
 21
944.456243
 31
0.0
  0
LWPOLYLINE
  5
13c
100
AcDbEntity
  8
raspberry_pi
 62
7
100
AcDbPolyline
 90
2
 70
0
 10
175.699533
 20
944.456243
 30
0.0
 10
175.699533
 20
944.456243
 30
0.0
  0
SPLINE
  5
13d
100
AcDbEntity
  8
raspberry_pi
 62
7
100
AcDbSpline
 70
0
 71
3
 72
19
 73
15
 74
13
 40
0.000000
 40
0.000000
 40
0.000000
 40
0.000000
 40
0.754294
 40
1.486218
 40
2.240511
 40
2.994798
 40
3.726712
 40
4.481004
 40
5.235289
 40
5.967194
 40
6.721478
 40
7.475770
 40
8.207684
 40
8.961971
 40
8.961971
 40
8.961971
 40
8.961971
 10
201.199524
 20
889.956254
 30
0.0
 10
201.453836
 20
889.916603
 30
0.0
 10
201.954919
 20
889.838476
 30
0.0
 10
202.506569
 20
889.264139
 30
0.0
 10
202.710975
 20
888.514945
 30
0.0
 10
202.506571
 20
887.757886
 30
0.0
 10
201.954915
 20
887.206693
 30
0.0
 10
201.199527
 20
887.002149
 30
0.0
 10
200.444141
 20
887.206692
 30
0.0
 10
199.892497
 20
887.757890
 30
0.0
 10
199.688106
 20
888.514945
 30
0.0
 10
199.892499
 20
889.264135
 30
0.0
 10
200.444136
 20
889.838478
 30
0.0
 10
200.945214
 20
889.916603
 30
0.0
 10
201.199524
 20
889.956254
 30
0.0
 11
201.199524
 21
889.956254
 31
0.0
 11
201.927648
 21
889.759291
 31
0.0
 11
202.445197
 21
889.241742
 31
0.0
 11
202.642160
 21
888.513618
 31
0.0
 11
202.445197
 21
887.785502
 31
0.0
 11
201.927648
 21
887.267967
 31
0.0
 11
201.199524
 21
887.071011
 31
0.0
 11
200.471408
 21
887.267967
 31
0.0
 11
199.953873
 21
887.785502
 31
0.0
 11
199.756917
 21
888.513618
 31
0.0
 11
199.953873
 21
889.241742
 31
0.0
 11
200.471408
 21
889.759291
 31
0.0
 11
201.199524
 21
889.956254
 31
0.0
  0
LWPOLYLINE
  5
13e
100
AcDbEntity
  8
raspberry_pi
 62
7
100
AcDbPolyline
 90
2
 70
0
 10
201.199524
 20
889.956254
 30
0.0
 10
201.199524
 20
889.956254
 30
0.0
  0
ENDSEC
  0
SECTION
  2
OBJECTS
  0
DICTIONARY
  5
C
330
0
100
AcDbDictionary
  3
ACAD_GROUP
350
D
  3
ACAD_MLINESTYLE
350
17
  0
DICTIONARY
  5
D
330
C
100
AcDbDictionary
  0
DICTIONARY
  5
1A
330
C
100
AcDbDictionary
  0
DICTIONARY
  5
17
330
C
100
AcDbDictionary
  3
STANDARD
350
18
  0
DICTIONARY
  5
19
330
C
100
AcDbDictionary
  0
ENDSEC
  0
EOF
